<svg xmlns="http://www.w3.org/2000/svg" width="512" height="512" viewBox="0 0 512 512" version="1.1">
	<path d="M 237 40.703 C 218.722 42.142, 194.832 48.134, 173.901 56.532 C 118.558 78.736, 76.286 121.913, 54.497 178.493 C 43.918 205.962, 40.037 226.634, 40.037 255.500 C 40.037 291.020, 46.422 317.780, 62.946 351.500 C 75.395 376.904, 87.333 393.340, 107.641 413.029 C 151.295 455.354, 210.059 477.163, 269.193 472.986 C 286.238 471.782, 295.855 470.167, 311.426 465.893 C 339.287 458.244, 366.937 444.123, 389 426.275 C 399.235 417.995, 419.394 397.199, 426.423 387.668 C 447.266 359.410, 461.571 325.718, 467.681 290.500 C 470.102 276.550, 470.091 239.655, 467.662 225.500 C 459.789 179.612, 438.788 136.668, 409.027 105.598 C 364.420 59.028, 302.237 35.571, 237 40.703 M 230.536 60.146 C 200.592 63.983, 171.097 75.252, 144.871 92.875 C 121.427 108.628, 106.532 123.447, 92.269 145.207 C 78.580 166.092, 65.258 199.396, 60.819 223.827 C 57.986 239.418, 57.714 269.993, 60.286 283.591 C 64.149 304.008, 73.230 331.432, 81.780 348.500 C 90.704 366.314, 103.302 383.208, 118.747 398.072 C 159.597 437.387, 217.527 459.522, 268.102 455.141 C 314.668 451.107, 357.326 431.780, 390.875 399.516 C 415.467 375.866, 431.639 348.808, 442.886 312.491 C 456.175 269.584, 454.097 227.821, 436.442 182.939 C 410.048 115.843, 352.988 70.617, 281.999 60.529 C 270.458 58.889, 241.998 58.677, 230.536 60.146 M 239.200 68.200 C 237.363 70.037, 237.521 105.358, 239.373 106.895 C 241.021 108.263, 243.617 107.441, 244.442 105.291 C 244.770 104.436, 245.290 96.406, 245.597 87.446 C 246.130 71.895, 246.061 71.061, 244.078 69.078 C 241.684 66.684, 240.864 66.536, 239.200 68.200 M 256.388 69.980 C 250.845 72.220, 248.993 78.264, 252.705 82 C 254.029 83.333, 254.324 83.287, 255.348 81.588 C 258.897 75.698, 263.372 74.372, 267.104 78.104 C 271.347 82.347, 267.930 88.214, 255.694 97.702 C 251.347 101.072, 249.965 102.744, 250.194 104.352 C 250.488 106.419, 250.974 106.500, 263 106.500 L 275.500 106.500 275.500 103.500 C 275.500 100.591, 275.333 100.485, 270 100 L 264.500 99.500 269.110 94.500 C 274.834 88.293, 276 86.095, 276 81.516 C 276 76.727, 273.644 72.384, 270.033 70.517 C 266.867 68.880, 259.799 68.602, 256.388 69.980 M 159.142 90.613 C 157.484 91.774, 156.998 92.855, 157.404 94.475 C 158.556 99.063, 172.798 123.504, 174.521 123.849 C 175.479 124.040, 177.355 123.613, 178.690 122.899 C 181.911 121.175, 181.404 119.390, 173.758 105.548 C 163.981 87.847, 163.619 87.478, 159.142 90.613 M 344.208 92.250 C 343.133 94.037, 339.541 100.450, 336.227 106.500 C 328.634 120.359, 328.299 121.904, 332.474 123.806 C 334.706 124.823, 335.204 124.599, 337.555 121.516 C 342.031 115.648, 352.990 95.610, 352.995 93.285 C 353 91.064, 350.424 89, 347.647 89 C 346.831 89, 345.283 90.463, 344.208 92.250 M 239.235 148.434 C 222.107 151.688, 205.547 158.698, 193 168.004 C 184.792 174.092, 173.459 185.779, 168.519 193.250 C 166.428 196.412, 164.496 199, 164.227 199 C 163.957 199, 157.040 195.152, 148.855 190.449 C 135.346 182.688, 132 181.405, 132 183.990 C 132 184.470, 137.063 188.016, 143.250 191.871 C 149.438 195.726, 156.150 200.001, 158.167 201.371 L 161.833 203.862 158.524 212.681 C 153.298 226.611, 151.526 236.578, 151.535 252 C 151.544 267.094, 152.880 275.505, 157.254 288 C 169.612 323.310, 196.716 348.889, 231 357.595 C 242.856 360.606, 265.295 360.162, 278.477 356.655 C 290.465 353.465, 306.093 346.012, 315.041 339.217 C 333.169 325.450, 347.050 304.304, 353.141 281.175 C 355.679 271.539, 356.692 250.452, 355.120 240 C 354.499 235.875, 352.544 227.813, 350.776 222.084 L 347.561 211.667 350.862 209.084 C 352.678 207.663, 358.965 202.667, 364.832 197.983 C 379.231 186.488, 384.058 183.733, 388.382 184.544 C 391.328 185.097, 393.601 184.132, 406.334 176.924 C 414.352 172.385, 421.154 168.042, 421.449 167.272 C 422.089 165.604, 419.381 160, 417.934 160 C 416.534 160, 410.574 163.084, 396.500 171.092 C 384.206 178.088, 384.369 178.031, 349.705 187.578 C 344.868 188.910, 340.241 190, 339.422 190 C 338.603 190, 334.236 186.236, 329.717 181.637 C 314.181 165.823, 298.258 155.928, 279.500 150.430 C 268.390 147.173, 250.529 146.288, 239.235 148.434 M 89.479 161.672 C 88.232 163.575, 88.011 164.799, 88.710 165.922 C 90.205 168.325, 118.224 184.068, 120.467 183.765 C 121.548 183.619, 123.101 182.305, 123.918 180.845 C 125.138 178.665, 125.173 177.913, 124.113 176.636 C 122.068 174.172, 95.537 159, 93.273 159 C 92.149 159, 90.442 160.203, 89.479 161.672 M 244.500 166.061 C 235.083 167.495, 225.272 170.792, 215.500 175.807 C 208.351 179.476, 204.628 182.285, 197.396 189.463 C 192.389 194.433, 187.023 200.699, 185.472 203.386 C 182.719 208.154, 182.697 208.306, 184.575 209.718 C 187.626 212.011, 201.806 219, 203.408 219 C 204.207 219, 208.231 215.705, 212.352 211.677 C 224.601 199.703, 238.360 194, 255 194 C 269.188 194, 281.711 198.329, 293.637 207.355 C 297.013 209.910, 300.510 212, 301.409 212 C 303.203 212, 315.164 206.775, 318.760 204.420 C 320.864 203.043, 320.921 202.748, 319.581 200.158 C 315.353 191.981, 300.513 179.245, 288.500 173.482 C 274.821 166.921, 257.753 164.042, 244.500 166.061 M 239.798 209.870 C 236.661 210.906, 231.965 213.003, 229.361 214.529 C 224.476 217.391, 216 224.675, 216 226.010 C 216 226.425, 221.963 229.452, 229.250 232.735 L 242.500 238.706 253.173 238.536 C 263.081 238.379, 264.157 238.163, 268.173 235.520 C 278.003 229.053, 287 221.894, 287 220.541 C 287 218.656, 279.651 213.638, 272.864 210.887 C 265.152 207.761, 247.795 207.228, 239.798 209.870 M 179.100 215.190 C 178.607 216.460, 177.289 219.800, 176.171 222.612 C 169.367 239.721, 169.222 265.026, 175.818 284.022 C 180.064 296.251, 186.103 306.050, 195.443 315.867 C 205.213 326.137, 215.612 332.487, 231 337.580 C 238.747 340.144, 240.784 340.393, 254 340.393 C 267.218 340.393, 269.252 340.144, 277 337.579 C 293.451 332.133, 305.243 324.904, 314.957 314.311 C 325.379 302.944, 332.260 289.403, 335.542 273.800 C 337.219 265.827, 337.469 246.744, 335.997 238.984 C 334.565 231.434, 331.276 220.760, 329.730 218.645 C 328.496 216.958, 328.021 217.137, 322.455 221.374 C 319.180 223.867, 315.224 226.952, 313.664 228.228 L 310.828 230.549 312.593 237.024 C 313.751 241.275, 314.361 247.107, 314.367 254 C 314.375 262.836, 313.948 265.740, 311.669 272.328 C 306.392 287.585, 296.126 299.590, 282.130 306.872 C 271.229 312.543, 262.979 314.325, 250.500 313.702 C 238.144 313.085, 230.509 310.566, 220.303 303.740 C 198.394 289.086, 188.823 260.002, 197.280 233.777 C 199.145 227.994, 199.477 225.811, 198.604 225.086 C 197.572 224.230, 184.538 215.633, 181.248 213.639 C 180.443 213.151, 179.676 213.705, 179.100 215.190 M 209.036 236.406 C 207.167 241.322, 205.987 254.432, 206.912 260 C 210.995 284.560, 229.659 300.976, 253.500 300.976 C 276.467 300.976, 295.944 285.863, 301.011 264.110 C 302.515 257.655, 301.828 244.458, 299.785 240.560 L 298.363 237.844 284.998 244.672 C 277.648 248.427, 271.344 252.175, 270.991 253 C 266.606 263.229, 261.916 266.956, 253.398 266.984 C 246.875 267.005, 242.382 264.124, 239 257.754 C 237.215 254.391, 234.499 251.632, 229.500 248.104 C 225.650 245.387, 220.028 241.102, 217.007 238.582 C 213.986 236.062, 211.162 234, 210.732 234 C 210.302 234, 209.539 235.083, 209.036 236.406 M 78.240 241.110 C 72.386 244.008, 69.615 248.167, 69.615 254.056 C 69.615 259.918, 71.743 263.301, 76.847 265.553 L 80.763 267.281 78.877 271.546 C 76.842 276.146, 77.224 279, 79.875 279 C 81.828 279, 96.967 262.898, 99.355 258.280 C 102.678 251.854, 100.733 244.046, 94.960 240.636 C 91.072 238.339, 83.399 238.557, 78.240 241.110 M 420.741 241.429 C 415.714 243.223, 414 244.783, 414 247.563 C 414 250.798, 415.432 251.345, 419.031 249.484 C 420.730 248.605, 423.777 248.024, 425.802 248.193 C 430.628 248.595, 431.293 251.359, 427.349 254.629 C 424.308 257.150, 424.419 257.449, 429.538 260.530 C 431.829 261.909, 431.730 266.743, 429.375 268.477 C 425.881 271.051, 421.212 271.287, 418.070 269.050 C 413.475 265.778, 410 266.925, 410 271.715 C 410 276.545, 420.109 280.009, 428.233 277.963 C 437.589 275.607, 442.015 267.651, 438.228 259.996 C 437.133 257.782, 436.634 255.726, 437.118 255.427 C 437.603 255.127, 438 253.169, 438 251.076 C 438 246.203, 435.031 242.380, 430.205 241.040 C 425.624 239.768, 425.367 239.778, 420.741 241.429 M 81.775 247.559 C 76.902 250.203, 75.394 256.237, 78.829 259.345 C 84.221 264.225, 95.653 256.478, 93.073 249.693 C 91.582 245.770, 86.752 244.858, 81.775 247.559 M 108 335.594 C 92.304 343.829, 89.345 345.658, 88.606 347.584 C 87.978 349.221, 90.503 355, 91.846 355 C 92.679 355, 113.662 343.132, 120.835 338.604 C 123.126 337.158, 125 335.406, 125 334.710 C 125 333.205, 122.183 328.992, 121.193 329.018 C 120.812 329.028, 114.875 331.987, 108 335.594 M 387.106 332.667 C 386.070 334.941, 386.157 335.597, 387.695 337.106 C 390.694 340.050, 416.085 355, 418.085 355 C 420.601 355, 423.553 349.372, 422.012 347.515 C 421.400 346.777, 415.634 343.259, 409.199 339.698 C 388.906 328.465, 389.006 328.497, 387.106 332.667 M 171.925 390.281 C 166.926 397.323, 155.893 417.207, 156.174 418.668 C 156.357 419.616, 157.901 421.206, 159.606 422.202 L 162.705 424.012 170.784 409.701 C 180.191 393.040, 181.051 390.633, 178.154 389.082 C 175.198 387.500, 173.694 387.790, 171.925 390.281 M 331.528 389.356 C 329.774 390.638, 330.094 391.516, 337.445 405.606 C 345.842 421.700, 347.412 424, 350 424 C 352.732 424, 355.283 420.486, 354.485 417.822 C 354.103 416.545, 350.196 409.313, 345.803 401.750 C 337.395 387.277, 336.013 386.077, 331.528 389.356 M 256.722 400.898 C 253.671 402.009, 245.149 411.060, 243.027 415.445 C 240.200 421.285, 240.266 429.797, 243.168 433.486 C 244.360 435.002, 246.813 436.859, 248.618 437.614 C 251.715 438.908, 251.917 439.304, 252.200 444.639 C 252.410 448.591, 253.002 450.608, 254.166 451.339 C 257.149 453.210, 259 450.450, 259.003 444.128 C 259.005 438.660, 259.111 438.443, 262.722 436.500 C 264.766 435.400, 267.503 432.925, 268.805 431 C 273.145 424.582, 270.053 416.493, 262.278 413.927 C 260.393 413.305, 257.759 413.004, 256.425 413.259 C 253.077 413.899, 253.366 413.025, 258 408.500 C 260.200 406.352, 262 404.026, 262 403.332 C 262 401.572, 258.856 400.122, 256.722 400.898 M 252.905 420.285 C 249.286 422.724, 248.457 424.702, 249.430 428.579 C 249.947 430.639, 250.639 431, 254.065 431 C 261.376 431, 265.960 423.187, 260.777 419.557 C 257.836 417.497, 256.916 417.582, 252.905 420.285" stroke="none" fill="#fff" fill-rule="evenodd"/>
</svg>