<svg fill="none" height="70" viewBox="0 0 70 70" width="70" xmlns="http://www.w3.org/2000/svg"><g fill="#5b3d30"><path d="M35 70C15.7 70 0 54.399 0 35.222v-.446C0 15.601 15.701 0 35 0s35 15.601 35 34.776v.446c0 19.177-15.701 34.776-35 34.776z"/><path d="M35 70C15.7 70 0 54.399 0 35.222v-.446C0 15.601 15.701 0 35 0s35 15.601 35 34.776v.446c0 19.177-15.701 34.776-35 34.776z"/><path d="M34.999 2.092c-18.138 0-32.894 14.661-32.894 32.684v.446c0 18.023 14.756 32.685 32.894 32.685s32.896-14.664 32.896-32.685v-.446c0-18.023-14.758-32.684-32.896-32.684z"/></g><path d="M65.354 34.778c0 16.657-13.59 30.16-30.355 30.16S4.646 51.435 4.646 34.778 18.236 4.616 34.999 4.616c16.764 0 30.355 13.504 30.355 30.162z" fill="#543e31"/><path d="M17.466 12.789s-5.894 6.341-5.541 9.216c.043.369.908 4.25.908 4.25l-3.347 1.99c-.917 1.29-1.12 4.015-1.16 6.531-.07 4.332.073 7.407 1.14 9.286.33.58 3.615 1.883 5.001 2.488l-.918 4.838c7.553 7.76 18.776 8.884 22.872 8.884 4.37 0 12.574-3.543 15.53-5.4 0 0-.848-3.324-2.048-4.559 0 0 8.25-.732 8.643-1.345 3.71-5.773 2.722-15.418 2.722-15.418-.938-1.05-3.964-4.278-3.964-4.278l3.386-2.806c-2.742-9.09-4.018-12.74-17.007-17.735-13.476-5.186-26.219 4.058-26.219 4.058z" fill="#705c52"/><path d="M58.349 54.323c.468-.6 1.56-2.3 1.982-2.933h-6.052zM7.047 46.551c.352.826 1.285 2.552 1.707 3.34l3.17-2.493z" fill="#5b3d30"/><path d="M35 7.67c16.248 0 29.514 12.686 30.315 28.633.026-.505.04-1.015.04-1.527 0-16.657-13.59-30.161-30.356-30.161-16.765 0-30.353 13.505-30.353 30.163 0 .512.013 1.022.039 1.527C5.485 20.356 18.75 7.67 34.999 7.67z" fill="#b5aaa5"/><path d="M22.3 8.715c.379.666-.269 1.744-1.451 2.407-1.18.663-2.444.66-2.823-.007-.38-.664.27-1.742 1.45-2.405 1.182-.663 2.445-.66 2.822.005zM27.919 6.653c.196.53-.274 1.188-1.048 1.47-.777.283-1.564.083-1.758-.446-.195-.528.275-1.188 1.05-1.47.776-.284 1.563-.083 1.758.446z" fill="#fff"/><path d="M51.36 43.23a20.19 20.19 0 0 0-.475-1.446c-.559-1.31-1.129-2.613-1.69-3.921a1.69 1.69 0 0 1-.096-.33c-.084-.427-.165-.855-.246-1.283-.076-.405-.151-.81-.22-1.216-.073-.43-.135-.863-.21-1.292-.033-.196-.085-.388-.13-.583a.494.494 0 0 0-.137-.252l-.074-.074c-.002-.002-.003-.005-.007-.007-.026-.024-.05-.05-.074-.074-.002-.001-.003-.005-.007-.006-.026-.024-.05-.05-.074-.074-.002-.002-.003-.005-.007-.007-.026-.024-.05-.05-.074-.074-.002-.001-.003-.005-.007-.006-.026-.024-.05-.05-.074-.074-.002-.002-.003-.005-.007-.007-.026-.024-.05-.05-.074-.074-.002-.001-.003-.004-.007-.006l-.074-.074c-.002-.002-.003-.005-.007-.006l-.074-.075c-.002-.001-.003-.004-.007-.006l-.074-.074c-.002-.002-.003-.005-.006-.006-.026-.024-.05-.05-.075-.074l-.006-.007c-.026-.024-.05-.05-.075-.074-.002-.001-.003-.005-.006-.006-.026-.024-.05-.05-.075-.074l-.006-.007c-.026-.024-.05-.05-.075-.074-.001-.001-.003-.005-.006-.006-.026-.024-.05-.05-.075-.074l-.006-.007c-.026-.024-.05-.05-.075-.074-.001-.001-.003-.005-.006-.006-.026-.024-.05-.05-.075-.074l-.006-.007c-.026-.024-.05-.05-.075-.074l-.006-.006c-.026-.024-.05-.05-.075-.074l-.006-.007-.026-.025-.363-1.308c-.18-.647-.356-1.297-.539-1.943-.034-.119-.05-.254-.143-.35-.008 0-.016 0-.024-.002a.324.324 0 0 0-.057-.079l-.024-.001a.325.325 0 0 0-.057-.08h-.024a.321.321 0 0 0-.057-.08l-.024-.001a.325.325 0 0 0-.056-.08h-.025a.324.324 0 0 0-.056-.08l-.025-.001a.322.322 0 0 0-.056-.079c-.009 0-.017 0-.025-.002a.324.324 0 0 0-.056-.078c-.008 0-.017 0-.025-.002a.325.325 0 0 0-.056-.079c-.008 0-.017 0-.025-.002a.324.324 0 0 0-.056-.078c-.008 0-.017 0-.025-.002a.325.325 0 0 0-.056-.079l-.025-.001a.324.324 0 0 0-.056-.08h-.024a.325.325 0 0 0-.057-.08l-.024-.001a.321.321 0 0 0-.057-.08h-.024a.323.323 0 0 0-.057-.08l-.024-.001a.324.324 0 0 0-.057-.079c-.008 0-.016 0-.024-.002a.32.32 0 0 0-.057-.079l-.024-.001a.322.322 0 0 0-.057-.079c-.008 0-.016 0-.024-.002a.324.324 0 0 0-.057-.078c-.008 0-.016 0-.024-.002a.32.32 0 0 0-.057-.079c-.008 0-.016 0-.024-.002a.324.324 0 0 0-.057-.078c-.061-.005-.131-.013-.2-.018l-.237-.013-.21-.018-.211-.019c-.08-.006-.157-.01-.237-.014l-.21-.012-.21-.01a10.99 10.99 0 0 1-.237-.015l-.21-.018a1.977 1.977 0 0 0-.098-.007l-.024-.02.008-.004-.089-.077.008-.003-.089-.077.008-.004-.089-.077.008-.003-.089-.077.008-.004c-.03-.027-.06-.05-.089-.077l.008-.003-.089-.077.008-.003c-.03-.028-.06-.052-.089-.078l.008-.003c-.403-.36-.772-.645-1.132-.944-.366-.306-.736-.6-1.106-.901-.369-.301-.735-.604-1.104-.905-.368-.3-.735-.606-1.106-.9-.37-.294-.724-.622-1.113-.894-.074.092-.14.168-.204.25-1.188 1.554-2.377 3.108-3.564 4.664l-.165.216-.04-.003a.22.22 0 0 0-.026-.076c-.018 0-.038-.003-.055-.005a.222.222 0 0 0-.026-.075c-.018 0-.038-.004-.055-.005a.222.222 0 0 0-.026-.076c-.018 0-.038-.003-.055-.005a.22.22 0 0 0-.026-.075c-.018 0-.038-.004-.055-.005a.222.222 0 0 0-.026-.076c-.018 0-.038-.003-.055-.005a.224.224 0 0 0-.026-.075c-.018 0-.038-.003-.055-.005a.22.22 0 0 0-.026-.076c-.018 0-.037-.003-.055-.005a.22.22 0 0 0-.026-.075l-1.271-.093c-.09-.007-.148.053-.204.135l-.498.738-2.532 3.762a6.658 6.658 0 0 1-.068-.005l.011-.072-.092-.008.011-.073c-.036-.003-.065-.004-.092-.008l.011-.072-.092-.008.011-.072-.092-.008.011-.073-.092-.008.011-.072-.092-.008.011-.073-.092-.008.011-.072c-.058-.005-.1-.011-.142-.01-.219.015-.437.026-.654.047-.21.02-.42.054-.629.083a.197.197 0 0 0-.173.139c-.178.465-.36.93-.533 1.396-.082.223-.146.46-.231.68-.32.822-.616 1.658-.969 2.457-.194.439-.33.92-.5 1.377-.58 1.553-1.179 3.092-1.765 4.642-.052.137-.15.964-.258 1.47h.097c-.004.028-.01.055-.016.081h.097c-.004.027-.01.055-.016.08h.097c-.004.028-.01.055-.016.081h.097c-.004.027-.01.055-.016.08h.097l-.016.08h.097l-.016.081h.097l-.016.08h.097l-.016.081h.097l-.016.08h.097l-.016.081h.097l-.016.08h.097l-.016.081h.097l-.016.08h.097l-.016.081h.097l-.016.08h.097l-.016.08h.097l-.016.081h.097l-.016.08h.097l-.016.081h.097l-.016.08h8.971l.314-1.782c.144-.824.285-1.65.428-2.475a.905.905 0 0 1 .174-.428c.166-.204.33-.412.496-.618l.11.4c.049.178.096.358.147.535.047.161.072.336.174.531.001-.035.005-.066.006-.095.02.056.042.114.075.176.001-.036.005-.066.006-.095.02.056.042.114.075.175.001-.035.005-.066.006-.095a1.2 1.2 0 0 0 .075.175c.001-.035.004-.066.006-.094.02.056.042.114.075.175.001-.035.004-.066.006-.095.02.056.042.114.075.175.001-.035.004-.066.006-.095.02.057.042.115.075.176.001-.036.004-.066.006-.095a1.2 1.2 0 0 0 .075.175c.001-.035.004-.066.006-.095.02.057.042.115.074.176l.007-.095a1.2 1.2 0 0 0 .074.175l.007-.095c.02.057.042.114.074.176l.007-.095c.02.056.042.114.074.175l.007-.095c.02.056.042.114.074.176l.007-.095c.02.056.042.114.074.175l.007-.095c.02.056.042.114.074.175l.007-.095c.02.057.042.115.074.176l.007-.095c.02.056.042.114.074.175l.007-.095c.02.057.042.115.074.176l.007-.095c.02.056.042.114.074.175l.007-.095a1.2 1.2 0 0 0 .074.176l.007-.095c.02.056.042.114.074.175.008-.141.016-.22.018-.3.003-.31.003-.62.005-.93.001-.805.003-1.611.006-2.416h.013c.018.039.04.079.081.08.018.04.04.08.081.081.018.039.039.079.081.08.018.04.039.08.081.08.018.04.039.08.081.081.018.039.039.08.081.08.018.04.039.08.081.081.018.039.039.08.081.08.018.04.039.08.081.081.023.048.049.1.115.076.02-.108.044-.22.06-.335.044-.3.084-.599.126-.898 0-.003 0-.006.002-.01a.423.423 0 0 0 .078.095c0-.004.001-.01.003-.014a.43.43 0 0 0 .078.095l.003-.015a.428.428 0 0 0 .077.095c0-.004.002-.01.004-.014a.427.427 0 0 0 .077.095c0-.005.002-.01.004-.015a.426.426 0 0 0 .077.095c0-.004.002-.01.004-.014a.43.43 0 0 0 .077.095c0-.005.002-.01.004-.015a.423.423 0 0 0 .077.095c0-.005.002-.01.004-.014a.425.425 0 0 0 .077.095c0-.005.002-.01.004-.015a.43.43 0 0 0 .077.095c0-.005.002-.01.004-.014a.425.425 0 0 0 .077.095c0-.005.002-.01.004-.015a.425.425 0 0 0 .077.095c0-.005.002-.01.003-.014a.428.428 0 0 0 .078.095l.003-.015a.425.425 0 0 0 .078.095c0-.005.002-.01.003-.014a.423.423 0 0 0 .078.094l.003-.014a.429.429 0 0 0 .078.095l.003-.015a.423.423 0 0 0 .078.095l.003-.014a.425.425 0 0 0 .078.095l.003-.015a.426.426 0 0 0 .078.095c0-.005.002-.01.003-.014a.425.425 0 0 0 .078.095l.003-.015a.423.423 0 0 0 .078.095c.108-.35.142-.72.214-1.071.073-.358.12-.723.2-1.075.06-.263.093-.534.137-.802.004.01.008.018.01.03.014-.01.025-.02.036-.03l.046.11a.695.695 0 0 0 .035-.03l.046.11.035-.029.046.11a.654.654 0 0 0 .035-.03l.046.11.035-.029.046.11a.742.742 0 0 0 .035-.03l.046.11.035-.029.046.11a.695.695 0 0 0 .035-.03l.046.11.035-.029.046.11a.654.654 0 0 0 .035-.03l.046.11.035-.03.046.11a.742.742 0 0 0 .035-.029c.015.034.03.07.045.11l.036-.03c.015.035.03.07.045.11a.695.695 0 0 0 .036-.029c.015.034.03.07.045.11.27-.201.5-.465.739-.705.133.29.269.578.4.869.05.11.086.235.11.359.045.23.08.465.117.698l.582 3.653h.069l.012.08h.068l.013.08h.068l.013.08h.068l.013.081h.068l.013.08h.068l.013.081h.068l.013.08h.068l.013.081h.068l.013.08h.068l.013.081h.068l.013.08h.068l.013.08h.068l.013.081h.068l.013.08h.068l.013.081h.068l.013.08h.068l.013.081h.068l.013.08h.068l.013.081h.068l.013.08h9.096z" fill="#543e31"/><path d="M29.23 41.621c.105-.594.21-1.187.313-1.783.145-.823.285-1.649.428-2.474a.905.905 0 0 1 .175-.428c.427-.53.852-1.067 1.278-1.601.022-.03.058-.042.098-.071.054.182.104.346.151.512.047.167.092.336.138.503l.145.538c.046.167.093.334.138.503.045.168.09.337.138.504l.137.504c.049.178.096.358.148.535.047.161.07.337.173.531.008-.141.016-.22.018-.299.003-.31.005-.621.005-.932l.006-2.757c0-.089-.027-.192.052-.279.037.065.078.124.112.192.188.375.374.751.562 1.124.027.055.048.136.13.107.019-.108.043-.22.059-.335.06-.41.118-.82.172-1.231.037-.28.124-.546.121-.838 0-.068.008-.163.09-.22.051.13.098.242.143.355.03.072.052.15.086.219.076.159.162.312.233.474.24.543.475 1.088.714 1.63.049.11.083.237.185.327.109-.35.143-.72.214-1.072.073-.357.12-.724.2-1.075.082-.354.112-.72.187-1.074.074-.351.115-.713.209-1.062.027.022.05.029.056.046.156.48.31.96.464 1.44.024.076.045.155.072.229.065.182.133.364.2.544.027.072.056.141.094.231.403-.302.718-.745 1.11-1.034.075-.055.136-.143.206-.22.09.064.121.18.157.283.055.164.12.317.21.45.048.07.086.151.124.232.317.687.636 1.372.95 2.063.05.109.086.235.11.358.046.23.08.465.117.699l.583 3.652h9.096a20.145 20.145 0 0 0-.475-1.446c-.558-1.31-1.128-2.613-1.69-3.921a1.684 1.684 0 0 1-.096-.33c-.084-.427-.165-.855-.246-1.283-.076-.405-.15-.81-.22-1.216-.073-.43-.135-.863-.209-1.292-.034-.197-.086-.388-.13-.583a.493.493 0 0 0-.137-.252c-.256-.251-.51-.506-.768-.755-.029-.029-.073-.03-.134-.055.035.412-.023.794.039 1.172.01.056.032.138-.031.18-.016-.02-.037-.03-.04-.048-.046-.256-.133-.49-.203-.732-.241-.845-.475-1.695-.71-2.544-.179-.647-.356-1.297-.539-1.943-.034-.119-.05-.254-.142-.35-.062-.005-.131-.013-.2-.018l-.237-.013-.21-.018-.211-.019c-.08-.006-.157-.01-.237-.014l-.21-.012-.21-.01c-.08-.004-.158-.009-.237-.015l-.21-.018c-.072-.005-.142-.01-.211-.013l-.237-.013-.21-.01a8.746 8.746 0 0 1-.21-.012c-.08-.005-.158-.013-.237-.018l-.21-.014c-.07-.005-.142-.009-.211-.012-.08-.005-.157-.006-.237-.013-.063-.004-.13.01-.238-.058.442-.183.855-.254 1.319-.43-.404-.36-.773-.644-1.132-.944-.366-.305-.737-.6-1.106-.9s-.736-.604-1.105-.905c-.367-.301-.735-.607-1.106-.901-.369-.293-.724-.621-1.112-.893-.075.092-.141.167-.204.25-1.189 1.554-2.378 3.108-3.565 4.664l-1.48 1.934c-.039.051-.07.14-.157.103.031-.087.055-.163.083-.235.244-.648.489-1.295.73-1.944.03-.079.09-.157.024-.284l-1.27-.094c-.09-.006-.148.053-.205.135-.165.248-.332.493-.497.739l-3.448 5.12c-.058.085-.12.166-.21.29.021-.326.112-.559.163-.807.052-.24.119-.474.17-.714.054-.25.135-.49.169-.768-.058-.004-.1-.01-.143-.01-.218.015-.437.027-.654.047-.209.021-.42.055-.628.084a.197.197 0 0 0-.173.139c-.179.465-.36.93-.533 1.396-.083.222-.146.459-.232.68-.319.821-.615 1.658-.968 2.456-.194.44-.33.92-.5 1.378-.58 1.552-1.18 3.092-1.766 4.642-.051.136-.15.963-.257 1.47h8.971z" fill="#fff"/></svg>