<svg fill="none" height="70" viewBox="0 0 70 70" width="70" xmlns="http://www.w3.org/2000/svg"><g fill="#346a6e"><path d="M35 70C15.7 70 0 54.399 0 35.222v-.446C0 15.601 15.701 0 35 0s35 15.601 35 34.776v.446c0 19.177-15.701 34.776-35 34.776z"/><path d="M35 70C15.7 70 0 54.399 0 35.222v-.446C0 15.601 15.701 0 35 0s35 15.601 35 34.776v.446c0 19.177-15.701 34.776-35 34.776z"/><path d="M34.999 2.092c-18.138 0-32.894 14.661-32.894 32.684v.446c0 18.023 14.756 32.685 32.894 32.685s32.896-14.664 32.896-32.685v-.446c0-18.023-14.758-32.684-32.896-32.684z"/></g><path d="M65.354 34.778c0 16.657-13.59 30.16-30.355 30.16S4.646 51.435 4.646 34.778 18.236 4.616 34.999 4.616c16.764 0 30.355 13.504 30.355 30.162z" fill="#003538"/><path d="M17.466 12.789s-5.894 6.341-5.541 9.216c.043.369.908 4.25.908 4.25l-3.347 1.99c-.917 1.29-1.12 4.015-1.16 6.531-.07 4.332.073 7.407 1.14 9.286.33.58 3.615 1.883 5.001 2.488l-.918 4.838c7.553 7.76 18.776 8.884 22.872 8.884 4.37 0 12.574-3.543 15.53-5.4 0 0-.848-3.324-2.048-4.559 0 0 8.25-.732 8.643-1.345 3.71-5.773 2.722-15.418 2.722-15.418-.938-1.05-3.964-4.278-3.964-4.278l3.386-2.806c-2.742-9.09-4.018-12.74-17.007-17.735-13.476-5.186-26.219 4.058-26.219 4.058z" fill="#20666b"/><path d="M58.349 54.323c.468-.6 1.56-2.3 1.982-2.933h-6.052zM7.047 46.551c.352.826 1.285 2.552 1.707 3.34l3.17-2.493z" fill="#346a6e"/><path d="M35 7.67c16.248 0 29.514 12.686 30.315 28.633.026-.505.04-1.015.04-1.527 0-16.657-13.59-30.161-30.356-30.161-16.765 0-30.353 13.505-30.353 30.163 0 .512.013 1.022.039 1.527C5.485 20.356 18.75 7.67 34.999 7.67z" fill="#3cc6af"/><path d="M22.3 8.715c.379.666-.269 1.744-1.451 2.407-1.18.663-2.444.66-2.823-.007-.38-.664.27-1.742 1.45-2.405 1.182-.663 2.445-.66 2.822.005zM27.919 6.653c.196.53-.274 1.188-1.048 1.47-.777.283-1.564.083-1.758-.446-.195-.528.275-1.188 1.05-1.47.776-.284 1.563-.083 1.758.446z" fill="#fff"/><path d="M48.665 47.222c-.105.053-.212.102-.318.152.08-.078.16-.153.237-.232-.105.053-.212.101-.318.151.08-.077.16-.153.237-.232-.105.054-.212.102-.318.152.08-.077.16-.153.237-.232-.105.053-.212.101-.317.151.079-.077.158-.153.236-.231-.105.053-.212.1-.317.15.079-.076.158-.152.236-.23-.105.052-.212.1-.317.15.079-.077.158-.152.236-.231-.105.053-.212.101-.317.15.079-.076.158-.152.236-.23-.105.052-.212.1-.317.15.079-.077.158-.152.236-.231-.105.053-.212.101-.317.151.079-.077.158-.153.236-.232-.105.053-.212.102-.317.152.079-.078.158-.153.236-.232-.105.053-.212.101-.317.151.079-.077.158-.153.236-.232-.105.054-.212.102-.317.152.08-.078.158-.153.236-.232-.105.053-.212.101-.317.151.08-.077.158-.153.236-.231-.105.053-.212.1-.317.15.08-.076.159-.152.236-.231-.105.053-.212.101-.317.151.08-.077.159-.153.236-.231-.105.053-.212.1-.317.15.08-.076.159-.152.236-.23-.105.052-.212.1-.317.15.08-.077.159-.152.236-.231-.105.053-.212.101-.317.15.08-.076.159-.152.236-.23-.076.038-.153.073-.231.11a8.183 8.183 0 0 0 3.502-5.517c-.045.087-.093.17-.14.256.022-.111.042-.224.06-.337-.046.087-.094.17-.141.256a7.62 7.62 0 0 0 .06-.336c-.046.087-.094.17-.141.256.022-.111.042-.224.06-.337-.046.087-.094.171-.141.256a7.77 7.77 0 0 0 .06-.336c-.046.087-.094.17-.141.256.022-.111.042-.224.06-.336-.046.086-.094.17-.141.255a7.62 7.62 0 0 0 .06-.336c-.046.087-.094.17-.141.256.022-.111.042-.224.06-.336-.046.087-.094.17-.141.256a7.62 7.62 0 0 0 .06-.337c-.046.087-.094.17-.141.256.023-.111.042-.224.06-.336-.046.087-.094.17-.141.256.023-.111.042-.224.06-.337-.046.087-.094.17-.141.256.023-.11.042-.223.06-.336-.045.087-.094.17-.141.256.023-.111.042-.224.06-.337-.045.087-.094.17-.141.256.023-.11.042-.223.06-.336-.045.087-.094.17-.141.256.023-.111.042-.224.06-.336-.045.086-.094.17-.141.255.023-.11.042-.223.06-.336-.045.087-.094.17-.141.256.023-.111.042-.224.06-.336-.045.087-.094.17-.14.255a7.77 7.77 0 0 0 .059-.336c-.045.087-.094.17-.14.256.022-.111.041-.224.059-.336-.045.087-.094.17-.14.256a7.62 7.62 0 0 0 .059-.337c-.045.087-.094.17-.14.256.022-.111.041-.224.06-.336a8.181 8.181 0 0 1-5.14 4.138 8.25 8.25 0 0 1-7.115-1.358 8.12 8.12 0 0 1-1.557-6.145 5.16 5.16 0 0 0-.123.253c.013-.111.025-.222.042-.333a5.248 5.248 0 0 0-.123.252c.013-.11.025-.222.042-.333a5.157 5.157 0 0 0-.123.253c.013-.111.026-.222.042-.333a5.156 5.156 0 0 0-.123.253c.01-.102.024-.203.039-.303.043-.055.085-.11.13-.162 1.063-1.24 2.5-2.155 4.368-2.334.339.795.705 1.432 1.26 1.963.026.028.053.055.08.08.027.028.054.056.082.081.026.028.053.055.08.08.027.028.054.056.082.081.026.028.053.055.08.08.027.028.054.055.082.081.026.028.053.055.08.08.027.028.054.055.082.081.026.027.053.055.08.08.027.028.054.055.082.08.026.028.053.056.08.081.027.028.054.055.082.08.025.028.053.056.08.081.026.028.054.055.082.08.025.028.053.055.08.081.026.028.054.055.081.08.026.028.054.055.081.081.026.028.054.055.081.08.026.028.054.055.081.081.397.4.893.745 1.555 1.05.254.118.486.249.698.387.36.523.562.948.724 1.072a.474.474 0 0 0 .08.08.48.48 0 0 0 .082.08.474.474 0 0 0 .08.08.473.473 0 0 0 .082.081.477.477 0 0 0 .08.08.473.473 0 0 0 .082.081.474.474 0 0 0 .08.08.476.476 0 0 0 .081.081.474.474 0 0 0 .081.08.47.47 0 0 0 .081.081.474.474 0 0 0 .081.08.476.476 0 0 0 .081.08.47.47 0 0 0 .081.081.473.473 0 0 0 .081.08.477.477 0 0 0 .081.081.473.473 0 0 0 .081.08.474.474 0 0 0 .081.081.476.476 0 0 0 .081.08.474.474 0 0 0 .081.081c.11.132.2.163.293.039 1.441-1.896-.089-4.92-.089-4.92-.018-.004-.032-.01-.05-.015-.02-.04-.03-.065-.03-.065-.019-.004-.033-.01-.051-.016-.02-.04-.03-.064-.03-.064l-.051-.016c-.02-.04-.03-.065-.03-.065-.019-.004-.033-.01-.051-.016-.02-.04-.03-.064-.03-.064l-.051-.016c-.02-.04-.03-.064-.03-.064-.019-.005-.033-.012-.05-.017l-.032-.064-.05-.016c-.02-.04-.03-.064-.03-.064-.018-.005-.033-.012-.05-.016l-.032-.065-.05-.016c-.02-.04-.03-.064-.03-.064l-.05-.016-.032-.065-.05-.016c-.02-.04-.03-.064-.03-.064l-.05-.016-.031-.065c-.018-.004-.033-.01-.05-.016l-.031-.064-.05-.016-.031-.065c-.018-.004-.033-.01-.05-.016l-.031-.064-.05-.016-.031-.064c-.018-.005-.033-.012-.05-.017l-.031-.064-.05-.016-.031-.064c-.018-.005-.033-.012-.05-.016l-.031-.065-.05-.016-.009-.016a2.04 2.04 0 0 1-.061-.302l.023.02c.024.028.053.054.08.081.025.027.054.053.082.08.259.279.69.59 1.27.678a27.143 27.143 0 0 1-.398-1.843s.028-1.527.972-2.6c0 0-.094.039-.243.12.05-.067.105-.134.162-.2 0 0-.094.038-.243.12.05-.067.105-.135.162-.2 0 0-.094.038-.243.12.05-.068.105-.135.162-.201 0 0-.094.038-.243.12.05-.067.105-.135.162-.2 0 0-.094.038-.243.12.05-.068.105-.135.162-.201 0 0-.094.039-.243.12.05-.067.105-.135.162-.2 0 0-.094.038-.243.12.05-.067.106-.135.162-.2 0 0-.094.038-.243.12.05-.068.106-.135.162-.201 0 0-.094.038-.243.12.05-.067.106-.135.162-.2 0 0-.094.038-.243.12.05-.068.106-.135.162-.201 0 0-.094.038-.243.12.05-.067.106-.135.162-.2 0 0-.094.038-.243.12.05-.068.106-.135.162-.201 0 0-.094.038-.243.12.05-.067.106-.135.162-.2 0 0-.094.038-.243.12.05-.068.106-.135.162-.201 0 0-.093.038-.242.12.05-.067.105-.135.161-.2 0 0-.093.038-.242.12a3.71 3.71 0 0 1 .161-.201s-.093.039-.242.12c.05-.067.105-.135.162-.2 0 0-.094.038-.243.12.05-.067.105-.135.162-.2 0 0-.094.038-.243.12.05-.068.105-.135.162-.201 0 0-.094.038-.243.12.05-.067.105-.135.162-.2 0 0-.238.097-.556.311a.55.55 0 0 0 .015-.032s-.06.045-.156.13l-.032.026c.032-.079.068-.157.107-.236 0 0-.076.056-.191.164.032-.082.07-.164.11-.245 0 0-.076.057-.191.164.032-.082.07-.164.11-.244 0 0-.076.056-.191.164.032-.082.07-.164.11-.245 0 0-.076.057-.191.164a2.95 2.95 0 0 1 .11-.244s-.076.056-.191.164c.032-.082.07-.164.11-.245 0 0-.076.057-.191.165.032-.083.07-.165.11-.245 0 0-.066.048-.167.142l-.008-.017c.03-.069.058-.138.094-.206 0 0-.053.04-.138.115-.004-.012-.011-.021-.017-.032.024-.055.047-.11.074-.163 0 0-.044.032-.113.093-.198-.354-.459-.688-.838-1.062v.004c-.027-.028-.051-.055-.08-.084v.003c-.028-.027-.052-.055-.081-.084v.004l-.081-.084v.003c-.028-.027-.052-.054-.081-.083v.003l-.081-.084v.003c-.028-.027-.052-.054-.081-.083v.003c-.028-.027-.052-.055-.081-.084v.003c-.028-.027-.052-.054-.081-.083v.003c-.028-.027-.052-.055-.081-.084v.004l-.081-.084v.003c-.028-.027-.052-.055-.081-.084v.004l-.081-.084v.003c-.028-.027-.052-.055-.081-.083v.003l-.081-.084v.003c-.028-.027-.052-.054-.081-.083v.003l-.081-.084v.003c-.028-.027-.052-.054-.081-.083v.003l-.081-.084v.003l-.081-.083v.003l-.08-.084s.203.924-.014 2.383c-.014-.014-.029-.029-.044-.041-.025-.028-.053-.054-.08-.08-.026-.028-.054-.054-.081-.081-.026-.028-.054-.053-.081-.08-.026-.028-.054-.054-.081-.081-.026-.028-.054-.053-.081-.08-.826-.836-2.272-1.85-4.643-2.247 0 0 .055.032.144.093-.021-.003-.042-.008-.063-.013 0 0 .055.033.144.094a.873.873 0 0 1-.063-.013s.055.032.144.093a.83.83 0 0 1-.063-.013s.055.033.144.094l-.063-.013s.055.032.144.093a.833.833 0 0 1-.063-.013s.055.032.144.094a.941.941 0 0 1-.063-.013s.055.032.144.093a.833.833 0 0 1-.063-.013s.055.032.144.094l-.063-.013s.055.032.144.093a.83.83 0 0 1-.063-.013s.055.032.144.093l-.063-.012s.055.032.144.093a.833.833 0 0 1-.063-.013s.055.032.144.093a.941.941 0 0 1-.063-.013s.051.03.134.086l.003.006-.058-.011s.034.02.087.055c.007.01.015.02.021.032-.01 0-.017-.003-.027-.005l.04.024c.219.348.39.77.43 1.266 0 0-2.002-1.837-4.577-1.202-.105-.946.426-2.143 2.272-3.6 0 0-.055-.009-.157-.02.026-.02.05-.042.076-.061l-.157-.02c.026-.02.05-.041.076-.06 0 0-.055-.009-.157-.02.026-.02.05-.042.076-.06 0 0-.055-.009-.157-.02.026-.021.05-.042.076-.061l-.157-.02c.026-.02.05-.042.076-.06 0 0-.055-.009-.157-.02.026-.021.05-.042.076-.061l-.157-.02c.026-.02.05-.041.076-.06 0 0-.055-.009-.157-.02.026-.02.05-.042.076-.061l-.157-.02c.026-.02.05-.041.076-.06 0 0-.055-.009-.157-.02.026-.02.05-.042.076-.061l-.157-.02c.026-.02.05-.041.076-.06 0 0-.055-.009-.157-.02.026-.02.05-.042.076-.061l-.157-.02c.026-.02.05-.041.077-.06 0 0-.056-.009-.158-.02.026-.02.05-.042.077-.06 0 0-.056-.009-.158-.02.026-.021.05-.042.077-.061l-.157-.02c.025-.02.05-.042.076-.06 0 0-.055-.009-.157-.02.025-.021.05-.042.076-.061l-.157-.02c.025-.02.05-.041.076-.06 0 0-.055-.009-.157-.02.026-.02.05-.042.076-.061l-.157-.02c.026-.02.05-.041.076-.06 0 0-17.784-2.574-16.221 22.145 0 0 .019-.094.061-.264l.02.344s.019-.093.061-.264l.02.345s.019-.094.061-.264l.02.344s.019-.093.061-.264l.02.344s.019-.093.061-.263l.02.344s.019-.093.061-.264l.02.344s.019-.093.06-.263l.02.344s.02-.093.062-.264l.02.344s.019-.093.06-.264l.02.345s.02-.094.062-.264l.02.344s.019-.093.06-.264l.02.345s.02-.094.062-.264l.02.344s.019-.093.06-.264l.02.345s.02-.094.062-.264l.02.344s.019-.093.06-.264l.02.344s.02-.093.062-.263l.02.344s.019-.093.06-.264l.02.344s.02-.093.062-.264l.019.345s.02-.094.062-.264l.019.344s.02-.093.062-.264l.019.345s1.156-5.453 4.474-10.01c-.814 2.013-1.255 4.206-.628 6.129 0 0 .006-.042.021-.118l.06.198s.006-.042.02-.117l.06.198.022-.118.06.198s.006-.042.02-.117l.06.198.022-.118.06.198s.006-.042.02-.117l.06.197.022-.117.06.198s.006-.042.02-.118l.06.198.022-.117.06.198s.006-.042.02-.118l.06.198.022-.117.06.198s.006-.042.02-.118l.06.198.022-.117.06.198s.006-.042.02-.118l.06.198.022-.117c.019.066.038.132.06.197l.02-.117.06.198.022-.118c.019.066.038.132.06.198l.02-.117.06.198.021-.118.06.198.021-.117.06.198s.405-2.507 1.961-4.687a11.638 11.638 0 0 0 3.419 8.1l.08.08.082.08c.026.028.053.054.08.081l.082.08c.026.028.053.053.08.08l.082.081c.026.028.053.053.08.08l.082.081c.025.028.053.053.08.08.026.028.054.054.082.081.025.027.053.053.08.08.026.028.054.054.081.081l.081.08c.026.028.054.054.081.08.026.028.054.054.081.081.026.028.054.053.081.08.026.028.054.054.081.081.026.028.054.053.081.08.026.028.054.054.081.081a11.67 11.67 0 0 0 4.296 2.77c4.471 1.649 9.312.41 12.447-2.771-.105.053-.212.1-.318.15.08-.076.159-.152.237-.23zm-9.414-.53a11.704 11.704 0 0 1-4.609-2.14 7.869 7.869 0 0 1-1.56-4.059 8.101 8.101 0 0 0 1.794 2.752l.08.08c.027.028.054.053.082.08.026.028.053.054.08.081l.082.08c.026.028.053.054.08.081l.082.08c.026.028.053.054.08.08l.082.081c.026.028.053.053.08.08l.082.081c.026.028.053.053.08.08l.082.081c.025.028.053.053.08.08.026.028.054.054.082.081.025.027.053.053.08.08.026.028.054.054.081.081l.081.08c.026.028.054.054.081.08.026.028.054.054.081.081a8.264 8.264 0 0 0 2.839 1.917zm-5.44-20.156c-.018.005-.035.008-.052.015l.132.066c-.017.005-.034.008-.051.014l.132.066c-.017.005-.034.008-.051.015l.132.066c-.017.005-.034.008-.051.014l.132.066c-.018.005-.034.008-.052.015l.133.066-.047.013a6.732 6.732 0 0 1-.424-.227 1.987 1.987 0 0 1-.115-.32c.023.01.055.027.102.051-.018.005-.034.008-.052.014l.133.066zm-.188-.154-.005-.023.032.016c-.008.004-.018.005-.026.007zm.978 8.945.011-.089c.026-.034.055-.066.08-.1a4.155 4.155 0 0 0-.091.19z" fill="#003932"/><path d="M37.72 46.244a11.745 11.745 0 0 1-3.396-1.944c-3.34-2.748-3.903-7.686-1.091-10.967 1.506-1.757 3.77-2.866 6.937-2.138a.08.08 0 0 1 .039.133c-.415.427-.834.509-1.079.58a.166.166 0 0 0-.108.22c.631 1.619 1.244 2.635 2.93 3.416 2.548 1.18 2.843 3.569 3.254 3.025 1.441-1.896-.089-4.919-.089-4.919-1.579-.426-1.663-1.92-1.663-1.92.2.306.703.803 1.46.916a27.147 27.147 0 0 1-.398-1.842s.028-1.527.972-2.6c0 0-.991.403-1.63 1.391-.017-.505.037-1.199.36-1.836 0 0-.56.414-.945 1.156l-.033-.005c-.364-1.876-.486-2.64-1.592-3.73 0 0 .21.944-.019 2.434-.698-.876-2.217-2.26-5.085-2.74 0 0 1.484.837 1.603 2.417 0 0-2.113-1.942-4.791-1.146 0 0 1.449.702 1.473 1.083 0 0-6.084-2.027-.605-6.35 0 0-17.784-2.574-16.221 22.145 0 0 2.378-11.231 10.116-14.921 0 0-6.379 7.35-4.651 12.65 0 0 .75-4.668 4.157-6.804-1.943 5.905 1.14 12.333 7.055 14.513 4.471 1.65 9.312.41 12.447-2.77a11.74 11.74 0 0 1-9.407.55z" fill="#fff"/><path d="M43.721 42.897c-4.377 1.19-8.896-1.372-10.093-5.722a8.083 8.083 0 0 1-.198-3.39 8.09 8.09 0 0 0-.62 5.89c1.197 4.35 5.716 6.912 10.094 5.723a8.183 8.183 0 0 0 5.956-6.64 8.181 8.181 0 0 1-5.139 4.138z" fill="#fff"/></svg>