<svg fill="none" height="140" viewBox="0 0 1440 140" width="1440" xmlns="http://www.w3.org/2000/svg"><clipPath id="a"><path d="M0 0h1440v140H0z"/></clipPath><g clip-path="url(#a)" fill="#111715"><path d="m934.504-16.646-1.347.813S899.236 8.889 809.598 16.28C726.985 23.078 692.824 7.318 687.964 4.8c4.523 2.437 34.883 17.438 102.917 22.285 0 0-72.268.38-116.678-22.61v8.205s-141.12-4.793-198.04-28.486c0 0 .048 0 .048-.027.048 0 .048-2.194.048-2.22l440.058-.759z"/><path d="m1091.17-17.106-300.866-1.68S804.979-5.651 835.243 7.02a269.494 269.494 0 0 0 25.934 9.315c43.929 13.322 79.438 9.992 83.094 10.696-22.325-5.064-50.52-16.924-51.386-17.303C979.588 29.25 1022.27 22.4 1023.42 22.21l-4.52 4.847c4.42-1.868 12.65-4.143 20.01-5.957 10.54-2.627 19.87-5.957 27.57-9.91l4.62-2.357 3.66 5.578c3.32-8.285-3.32-14.757-3.66-15.055 10.97 7.744 32.05 17.872 32.72 18.197l-20.64-15.977c22.85 9.748 41.18 15.652 53.94 19.117 12.46 3.385 19.67 4.495 20.59 4.604a189.199 189.199 0 0 1-15.25-5.01c-27.29-10.154-51.29-37.394-51.29-37.394zM492.33-21.385s-48.019 27.376-92.236 36.393l6.928-5.388S346.735 23.646 257.53 26.38l13.376-3.682s-96.47-7.69-141.65-21.04c0 0 34.498 16.383 59.614 23.098 0 0-70.488-12.645-97.384-21.473L8.97-17.783z"/><path clip-rule="evenodd" d="M469.956-10.905s-37.288 4.44-94.064 7.365l12.173-4.658s-71.017-7.013-145.932-1.814c-74.866 5.2-96.807 9.37-96.807 9.37l25.694 11.29s-31.227-6.173-41.764-9.016L69.45-10.553l22.036 13.81L5.41-18l486.921-3.412z" fill-rule="evenodd"/><path d="M1465.06-16.835s-12.07 22.04-72.41 46.465l21.41-24.614s-16.79 11.048-95.55 15.435c-78.77 4.387-145.55-12.646-145.55-12.646l46.43 18.332s-93.63-11.562-128.08-23.91c-51.43-18.413-48.98-20.064-48.98-20.064z"/><path clip-rule="evenodd" d="m1446.78 7.778 2.36-11.697s-123.46-5.362-203.38-1.869l96.52 9.992s-95.13-7.176-175.05-5.226L1140 5.368l19.68 9.396S1094.82 1.55 1072.5-14.75l392.52-2.085c.05 0-4.53 16.003-18.24 24.613z" fill-rule="evenodd"/><path d="M1348.92-18.73s-78.58 69.779-209.3 72.514c-130.73 2.762-380.35-87.95-380.35-87.95l-17.61-.08s256.596 89.465 393.29 90.386c136.65.92 226.96-74.086 226.96-74.086z"/><path d="M1142.41 62.693c32.76 0 74.96-10.723 115.95-29.461 36.38-16.626 65.54-36.69 74.34-51.123l-3.03-.109c-17.99 29.515-117.01 79.961-187.21 79.961h-.68c-71.06-.324-212.328-43.595-220.989-47.548-3.079-1.408-7.361-3.818-11.547-6.174-7.843-4.414-12.847-7.149-15.686-7.663-1.491-.271-4.33-.38-12.894-.623-19.583-.542-56.006-1.544-73.135-6.12-22.999-6.146-16.503-21.716-16.455-21.879l-3.031-.081c-.289.65-6.688 16.057 17.177 22.448C823.118-.887 860.311.142 880.279.684c5.629.162 11.403.325 12.365.487 2.406.434 8.276 4.279 13.761 7.366 4.186 2.355 8.516 4.792 11.644 6.228 8.757 3.98 151.461 47.603 223.641 47.928zM-48.484 19.078s71.96 41.427 161.157 43.666c69.682 1.746 307.029-88.43 307.029-88.43l4.878 5.628S197.891 61.869 120.199 64.554C29.553 67.678-49.524 22.088-49.524 22.088z"/><path d="M170.985 67.315c-15.281 4.198-29.601 6.91-40.721 6.756-19.609-.305-66.943-15.719-75.036-18.42 1.398 3.986 6.536 19.676.857 21.23l-.366.067c-6.236 1.03-29.72-22.573-35.957-28.976-.84 1.435-3.354 4.345-9.434 5.033-5.423.596-15.098-8.509-25.307-18.712-2.767-2.768-5.383-5.364-6.034-5.615-.531-.13-2.93.623-4.854 1.232-4.368 1.37-10.355 3.266-14.374 2.18-6.37-1.736-1.01-8.472-.762-8.745l1.061.26c-.061.07-5.128 6.438.225 7.905 3.474.93 9.125-.847 13.279-2.15 3.162-1.007 4.887-1.523 5.903-1.253.774.2 2.233 1.584 6.548 5.89 6.662 6.61 19.021 18.954 24.11 18.39 7.374-.81 8.949-5.257 8.919-5.309l.285-.906.766.799C31.44 58.702 51.077 77.059 55.422 76.348l.228-.042c3.924-1.09 1.03-13.517-1.815-21.226l-.265-.72 1.137.389c.56.182 54.86 18.362 75.595 18.689 44.132.707 140.204-45.135 141.199-45.602l.739.49c-.719.332-55.228 26.362-101.255 38.99z"/></g></svg>