<svg fill="none" height="70" viewBox="0 0 70 70" width="70" xmlns="http://www.w3.org/2000/svg"><path d="M35 70C15.7 70 0 54.399 0 35.222v-.446C0 15.601 15.701 0 35 0s35 15.601 35 34.776v.446c0 19.177-15.701 34.776-35 34.776z" fill="#62346e"/><path d="M35 70C15.7 70 0 54.399 0 35.222v-.446C0 15.601 15.701 0 35 0s35 15.601 35 34.776v.446c0 19.177-15.701 34.776-35 34.776z" fill="#62346e"/><path d="M34.999 2.092c-18.138 0-32.894 14.661-32.894 32.684v.446c0 18.023 14.756 32.685 32.894 32.685s32.896-14.664 32.896-32.685v-.446c0-18.023-14.758-32.684-32.896-32.684z" fill="#62346e"/><path d="M65.354 34.778c0 16.657-13.59 30.16-30.355 30.16S4.646 51.435 4.646 34.778 18.236 4.616 34.999 4.616c16.764 0 30.355 13.504 30.355 30.162z" fill="#4b0051"/><path d="M17.466 12.789s-5.894 6.341-5.541 9.216c.043.369.908 4.25.908 4.25l-3.347 1.99c-.917 1.29-1.12 4.015-1.16 6.531-.07 4.332.073 7.407 1.14 9.286.33.58 3.615 1.883 5.001 2.488l-.918 4.838c7.553 7.76 18.776 8.884 22.872 8.884 4.37 0 12.574-3.543 15.53-5.4 0 0-.848-3.324-2.048-4.559 0 0 8.25-.732 8.643-1.345 3.71-5.773 2.722-15.418 2.722-15.418-.938-1.05-3.964-4.278-3.964-4.278l3.386-2.806c-2.742-9.09-4.018-12.74-17.007-17.735-13.476-5.186-26.219 4.058-26.219 4.058z" fill="#8c3893"/><path d="M58.349 54.323c.468-.6 1.56-2.3 1.982-2.933h-6.052zM7.047 46.551c.352.826 1.285 2.552 1.707 3.34l3.17-2.493z" fill="#62346e"/><path d="M35 7.67c16.248 0 29.514 12.686 30.315 28.633.026-.505.04-1.015.04-1.527 0-16.657-13.59-30.161-30.356-30.161-16.765 0-30.353 13.505-30.353 30.163 0 .512.013 1.022.039 1.527C5.485 20.356 18.75 7.67 34.999 7.67z" fill="#c593d1"/><path d="M22.3 8.715c.379.666-.269 1.744-1.451 2.407-1.18.663-2.444.66-2.823-.007-.38-.664.27-1.742 1.45-2.405 1.182-.663 2.445-.66 2.822.005zM27.919 6.653c.196.53-.274 1.188-1.048 1.47-.777.283-1.564.083-1.758-.446-.195-.528.275-1.188 1.05-1.47.776-.284 1.563-.083 1.758.446z" fill="#fff"/><path d="m46.874 28.977.003-.02-.084-.06.003-.021-.084-.06.003-.02-.084-.06.003-.021-.084-.06.003-.02-.084-.06.003-.02-.084-.06.003-.021-.084-.06.003-.02-.084-.06.003-.021-.084-.06.003-.02-.084-.06.003-.021-.084-.06.003-.02-.084-.06.003-.021-.084-.06.003-.02-.084-.06.004-.02-.085-.06.004-.021-.085-.06.004-.02-.085-.06.004-.021-.085-.06.004-.02-.085-.06.004-.021-10.835-7.61-10.447 5.154 2.936 21.098.074.037.007.044.074.037.007.043.074.037.007.044.074.037.007.043.074.037.007.043.074.037.007.044.074.037.007.043.074.037.007.044.074.037.007.043.074.037.007.044.074.037.007.043.074.037.007.044.074.037.007.043.074.037.007.043.074.038.006.043.075.037.006.043.075.037.006.044.075.037.006.043.075.037.006.044.075.037.006.043 8.28 4.11 6.907-4.66 3.16-18.092z" fill="#440048"/><g fill="#fff"><path d="m37.684 27.682-7.297 3.115.696 14.17 3.372.376 3.229-3.476zM34.149 46.55l-3.644-.409-2.558.404 6.654 3.302zM38.924 27.426v14.405l3.38 2.976 2.93-16.77zM29.14 30.675l-4.945-4.718 2.712 19.503L29.845 45zM38.348 42.97l-2.996 3.226.494 3.598 5.804-3.917zM35.653 20.626l3.038 5.539 5.626.545zM29.88 29.672l7.553-3.224-3.473-6.333.544-.296-9.856 4.862z"/></g></svg>