<svg fill="none" height="300" preserveAspectRatio="none" viewBox="0 0 178 300" width="178" xmlns="http://www.w3.org/2000/svg"><path d="M0-.5c0-5.523 4.477-10 10-10H105.722c1.974 0 3.905.584 5.547 1.68l1.548 1.031a2.001 2.001 0 0 0 2.317-.069l.814-.616a10 10 0 0 1 6.034-2.026H168c5.523 0 10 4.477 10 10v36.378c0 .497-.037.994-.111 1.486l-3.777 25.143a2 2 0 0 0 .293 1.376l2.018 3.153a10 10 0 0 1 1.577 5.39V276c0 13.255-10.745 24-24 24h-42.25a5.7 5.7 0 0 1-4.699-2.472l-.136-.197a.993.993 0 0 0-1.69.086 4.964 4.964 0 0 1-4.357 2.583H70.65c-.929 0-1.853-.129-2.747-.385l-13.194-3.77a2 2 0 0 0-2.044.595l-.182.204A10 10 0 0 1 45.01 300H24c-13.255 0-24-10.745-24-24V111.424a9.046 9.046 0 0 1 3.492-7.14 1.81 1.81 0 0 0 .608-1.996L.504 91.403A10 10 0 0 1 0 88.266V63.25z" fill="#263c2b"/></svg>