<svg fill="none" height="70" viewBox="0 0 70 70" width="70" xmlns="http://www.w3.org/2000/svg"><g fill="#6e5634"><path d="M35 70C15.7 70 0 54.399 0 35.222v-.446C0 15.601 15.701 0 35 0s35 15.601 35 34.776v.446c0 19.177-15.701 34.776-35 34.776z"/><path d="M35 70C15.7 70 0 54.399 0 35.222v-.446C0 15.601 15.701 0 35 0s35 15.601 35 34.776v.446c0 19.177-15.701 34.776-35 34.776z"/><path d="M34.999 2.092c-18.138 0-32.894 14.661-32.894 32.684v.446c0 18.023 14.756 32.685 32.894 32.685s32.896-14.664 32.896-32.685v-.446c0-18.023-14.758-32.684-32.896-32.684z"/></g><path d="M65.354 34.778c0 16.657-13.59 30.16-30.355 30.16S4.646 51.435 4.646 34.778 18.236 4.616 34.999 4.616c16.764 0 30.355 13.504 30.355 30.162z" fill="#ad5a23"/><path d="M17.466 12.789s-5.894 6.341-5.541 9.216c.043.369.908 4.25.908 4.25l-3.347 1.99c-.917 1.29-1.12 4.015-1.16 6.531-.07 4.332.073 7.407 1.14 9.286.33.58 3.615 1.883 5.001 2.488l-.918 4.838c7.553 7.76 18.776 8.884 22.872 8.884 4.37 0 12.574-3.543 15.53-5.4 0 0-.848-3.324-2.048-4.559 0 0 8.25-.732 8.643-1.345 3.71-5.773 2.722-15.418 2.722-15.418-.938-1.05-3.964-4.278-3.964-4.278l3.386-2.806c-2.742-9.09-4.018-12.74-17.007-17.735-13.476-5.186-26.219 4.058-26.219 4.058z" fill="#db8042"/><path d="M58.349 54.323c.468-.6 1.56-2.3 1.982-2.933h-6.052zM7.047 46.551c.352.826 1.285 2.552 1.707 3.34l3.17-2.493z" fill="#6e5634"/><path d="M35 7.67c16.248 0 29.514 12.686 30.315 28.633.026-.505.04-1.015.04-1.527 0-16.657-13.59-30.161-30.356-30.161-16.765 0-30.353 13.505-30.353 30.163 0 .512.013 1.022.039 1.527C5.485 20.356 18.75 7.67 34.999 7.67z" fill="#ffb380"/><path d="M22.3 8.715c.379.666-.269 1.744-1.451 2.407-1.18.663-2.444.66-2.823-.007-.38-.664.27-1.742 1.45-2.405 1.182-.663 2.445-.66 2.822.005zM27.919 6.653c.196.53-.274 1.188-1.048 1.47-.777.283-1.564.083-1.758-.446-.195-.528.275-1.188 1.05-1.47.776-.284 1.563-.083 1.758.446z" fill="#fff"/><path d="M51.293 40.448c.005-.056.013-.11.016-.167l-.097.087c.005-.057.013-.111.016-.168l-.097.087c.005-.056.013-.11.016-.167l-.097.087c.005-.056.013-.111.016-.167l-.097.086c.005-.056.013-.11.016-.167l-.097.087c.005-.056.013-.111.016-.167l-.097.087.01-.097c.751-1.678.79-3.37-.334-5.052a4.281 4.281 0 0 0-.631-.745c-.028-.028-.054-.055-.081-.08-.028-.028-.054-.056-.081-.081-.028-.028-.053-.055-.08-.08-.029-.028-.054-.055-.082-.081-.027-.028-.053-.055-.08-.08-.028-.028-.054-.055-.082-.081-.027-.027-.053-.055-.08-.08-.028-.028-.054-.055-.082-.081-.027-.027-.053-.055-.08-.08-.028-.028-.054-.055-.082-.081-.027-.027-.053-.055-.08-.08-.028-.028-.054-.055-.082-.08-.027-.028-.053-.056-.08-.081-.028-.028-.054-.055-.082-.08l-.08-.081c-.028-.028-.054-.055-.082-.08l-.08-.081c-.028-.027-.054-.055-.082-.08l-.08-.081a4.055 4.055 0 0 0-3.76-1.086c-1.4.32-2.313 1.472-2.59 3.278-.01.059-.016.119-.024.178l-.008-.037c-.02.018-.036.037-.054.056l-.027-.136c-.02.017-.036.037-.054.056l-.027-.137c-.02.018-.036.037-.054.057l-.027-.137c-.02.017-.036.037-.054.056l-.027-.137c-.02.018-.036.037-.054.057l-.027-.137c-.02.018-.036.037-.054.056l-.027-.137c-.02.018-.036.037-.054.057l-.027-.137c-1.317 1.29-1.8 2.877-2.128 4.528a2.96 2.96 0 0 1-.03-.13 1.334 1.334 0 0 1-.043.083l-.039-.164c-.013.029-.027.056-.042.084l-.039-.164c-.013.029-.027.056-.042.083l-.039-.164a1.362 1.362 0 0 1-.042.084l-.039-.164a1.282 1.282 0 0 1-.042.083l-.039-.164c-.013.03-.027.057-.042.084l-.039-.164a1.362 1.362 0 0 1-.042.083l-.039-.164a1.305 1.305 0 0 1-.042.084l-.039-.164c-.18.383-.369.745-.57 1.09a12.033 12.033 0 0 0-1.706-2.078c-.028-.027-.054-.055-.081-.08l-.081-.081c-.028-.027-.054-.055-.081-.08-.028-.028-.054-.055-.081-.08-.028-.028-.054-.056-.081-.081-.028-.028-.054-.055-.081-.08-.028-.028-.054-.056-.081-.081-.028-.028-.054-.055-.081-.08l-.081-.081c-.028-.028-.053-.055-.08-.08-.029-.028-.054-.055-.082-.081-.027-.027-.053-.055-.08-.08-.028-.028-.054-.055-.082-.081-.027-.027-.053-.055-.08-.08-.028-.028-.054-.055-.082-.08-.027-.028-.053-.056-.08-.081-.028-.028-.054-.055-.082-.08l-.08-.081c-.028-.028-.054-.055-.082-.08-.375-.37-.777-.712-1.206-1.02l1.68.303a6.538 6.538 0 0 0-1.293-1.86l-.081-.08c-.026-.028-.054-.053-.081-.08-.026-.028-.053-.054-.081-.081l-.08-.08-.082-.081-.08-.08-.082-.081-.08-.08c-.027-.028-.054-.053-.082-.08-.026-.028-.053-.054-.08-.081-.027-.028-.054-.053-.082-.08-.026-.028-.053-.054-.08-.081-.027-.028-.054-.053-.082-.08-.026-.028-.053-.054-.08-.081l-.082-.08c-.026-.028-.053-.054-.08-.081l-.082-.08c-.025-.028-.053-.054-.08-.081l-.081-.08a6.563 6.563 0 0 0-.54-.5l.09.007.111-.164-.086-.074.005-.006-.086-.074.005-.007-.086-.074.005-.006-.086-.074.005-.007c-.029-.024-.056-.05-.086-.074l.005-.006c-.029-.024-.056-.05-.086-.074l.005-.007c-.029-.024-.056-.05-.086-.074l.005-.006c-.029-.024-.056-.05-.086-.074l.005-.006c-.029-.025-.056-.05-.086-.074l.005-.007-.085-.074.004-.006-.085-.074.004-.007-.085-.074.004-.006-.085-.074.004-.007-.085-.074.005-.006c-.03-.024-.057-.05-.086-.074l.005-.007c-.03-.024-.057-.05-.086-.074l.005-.006c-.03-.024-.057-.05-.086-.074l.005-.007c-.03-.024-.057-.05-.086-.074l.005-.006c-.03-.024-.057-.05-.086-.074l.005-.006-.086-.074.005-.007c-.361-.3-.698-.642-1.092-.893-.414-.264-.894-.428-1.33-.663-.074-.038-.142-.077-.21-.114-.09-.412-.066-.933.015-1.675.039-.362.112-.72.16-1.08.096-.688.042-1.343-.523-2.006 0 .005-.003.01-.005.014-.024-.032-.05-.063-.076-.095 0 .005-.003.01-.005.015-.024-.032-.05-.063-.076-.095 0 .005-.003.01-.005.014-.024-.032-.05-.062-.076-.095 0 .005-.003.01-.005.015-.024-.032-.05-.063-.076-.095 0 .005-.003.01-.005.014-.024-.032-.05-.062-.076-.095 0 .005-.003.01-.005.015-.024-.032-.05-.063-.076-.095 0 .005-.003.01-.005.015-.024-.033-.05-.063-.076-.095 0 .004-.003.01-.005.014-.024-.032-.05-.063-.076-.095 0 .005-.003.01-.005.015-.024-.033-.05-.063-.076-.095 0 .005-.003.01-.004.014l-.077-.095c0 .005-.003.01-.004.015l-.077-.095c0 .005-.003.01-.004.014l-.077-.095c0 .005-.003.01-.004.015l-.077-.095c0 .005-.003.01-.004.014l-.076-.095c0 .005-.004.01-.005.015l-.076-.095c0 .005-.004.01-.005.014l-.076-.094c0 .004-.004.01-.005.014l-.076-.095c0 .005-.004.01-.005.015-.025-.033-.05-.063-.076-.095 0 .004-.004.01-.005.014-.024-.032-.05-.063-.076-.095 0 .005-.004.01-.005.015-.024-.033-.05-.063-.076-.095-.063.212-.125.334-.133.458-.122 1.886-.342 3.777-.432 5.663-.009.006-.015.012-.023.019.008-.058.014-.116.024-.174-.035.029-.07.063-.105.093l.024-.173c-.035.029-.07.062-.105.093l.024-.174-.105.093.024-.173c-.035.029-.07.062-.105.093l.024-.174-.105.094.024-.174c-.035.029-.07.063-.105.093l.024-.174-.105.094.024-.174c-.035.029-.07.063-.105.093l.024-.174-.105.094.024-.174c-.035.029-.07.063-.105.093.008-.058.015-.116.025-.173-3.75 3.071-4.638 12.196-1.643 15.45l.005-.012c.026.03.05.063.076.092l.005-.011c.026.03.05.063.076.092l.005-.012c.026.03.05.063.076.092l.005-.011c.026.03.05.062.076.091l.005-.01c.026.03.05.062.076.09l.005-.01c.026.03.05.062.076.091l.005-.011c.026.03.05.063.076.092l.005-.012c.026.031.05.063.076.092l.005-.011c.026.03.05.063.076.092l.005-.012c.026.03.05.063.076.092l.005-.011.049.058c.066.37.163.738.29 1.107.114.338.257.616.464.801.026.029.054.055.081.08.026.03.054.055.081.081.026.029.054.055.081.08.026.03.054.055.081.08.026.03.054.056.081.081.026.03.053.055.081.08.026.03.053.056.081.081.026.03.053.055.081.08.026.03.053.055.081.081.026.03.053.055.08.08.027.03.054.055.082.081.026.029.053.055.08.08.027.03.054.055.082.08.013.015.027.032.042.046-.173.013-.347.024-.52.035l.118.078a.269.269 0 0 0-.037.003l.118.077a.269.269 0 0 0-.037.003l.118.078a.255.255 0 0 0-.037.003l.118.077a.269.269 0 0 0-.037.003l.118.077a.254.254 0 0 0-.037.004l.118.077a.27.27 0 0 0-.037.003l.118.077a.268.268 0 0 0-.037.004l.118.077a.269.269 0 0 0-.037.003l.118.077a.27.27 0 0 0-.037.004l.118.077a.27.27 0 0 0-.037.003l.118.077a.268.268 0 0 0-.037.003l.118.078a.267.267 0 0 0-.037.003l.118.077a.27.27 0 0 0-.037.003l.118.078a.269.269 0 0 0-.037.003l.118.077a.267.267 0 0 0-.037.003l.118.077a.27.27 0 0 0-.037.004l.118.077a.269.269 0 0 0-.037.003l.118.077a.269.269 0 0 0-.037.004l.118.077a.27.27 0 0 0-.038.003l.119.077a.269.269 0 0 0-.038.003c.357.232.583.396.826.533 2.713 1.522 5.668 2.188 8.742 2.166 1.156-.01 2.22-.193 3.191-.54l.141-.025a6.709 6.709 0 0 1-.176.124c.087-.013.171-.029.257-.043-.058.041-.116.083-.176.123.087-.012.171-.029.257-.043a6.709 6.709 0 0 1-.176.124c.087-.013.171-.03.257-.044-.058.042-.116.084-.176.124.087-.013.171-.029.257-.043a6.709 6.709 0 0 1-.176.124c.087-.013.171-.03.257-.044-.058.042-.116.084-.176.124.087-.013.171-.029.257-.043l-.176.124c.087-.013.171-.03.257-.044-.058.042-.117.084-.176.124.087-.013.171-.029.257-.043a6.854 6.854 0 0 1-.177.124c.088-.013.172-.03.258-.044-.058.042-.117.084-.177.124.088-.013.172-.029.258-.043l-.177.124c.088-.013.172-.03.258-.044a6.551 6.551 0 0 1-.177.124c.088-.013.172-.03.258-.043-.058.041-.117.083-.177.123 6.886-1.05 10.755-5.671 11.074-10.106l-.098.087zm-20.8 1.131.08.08.081.081.081.08.081.081.081.08.081.081.081.08.081.081.081.08.081.08.081.081.081.08.081.081.081.08.081.081.081.08.081.081.08.08c.299.298.61.588.932.871-.314.15-.635.288-.962.415l-.005-.005h.008c-.03-.027-.058-.054-.089-.08h.008c-.03-.028-.058-.055-.089-.08h.008c-.03-.028-.058-.055-.089-.081h.008c-.03-.027-.058-.055-.089-.08h.008c-.03-.028-.058-.055-.089-.08h.009c-.031-.028-.059-.056-.09-.081h.009c-.031-.028-.059-.055-.09-.08h.009c-.188-.167-.373-.33-.554-.496-2.19-2.379-3.697-4.977-4.44-7.86.867 2.27 2.226 4.308 4.05 6.107l.08.08z" fill="#b06543"/><path d="M49.771 38.752c-.32 4.435-4.19 9.056-11.073 10.107 2.055-1.408 3.546-3.062 4.08-5.643-.218.269-.322.365-.386.483-1.704 3.052-4.358 4.61-7.822 4.637-3.073.024-6.029-.642-8.741-2.166-.243-.137-.47-.302-.826-.533 5.818-.36 10.874-1.847 13.554-7.569l.34 1.424c.073-.003.146-.004.219-.008.333-1.876.76-3.712 2.247-5.168l.298 1.517.16-.004c.046-.364.085-.73.14-1.091.278-1.807 1.19-2.96 2.59-3.278 1.628-.372 3.34.298 4.31 1.75 1.294 1.938 1.05 3.888-.055 5.814-.162.282-.355.546-.392.943.449-.402.899-.803 1.354-1.212z" fill="#fff"/><path d="M25.828 21.14c.565.663.619 1.318.523 2.006-.05.36-.121.718-.16 1.08-.222 2.03-.021 2.41 1.814 3.398.435.235.915.397 1.33.663.394.251.731.592 1.092.893l-.111.164-1.92-.177c2.235.732 4.148 1.807 5.2 4.06l-3.66-.663-.074.256c.188.066.371.141.562.196 3.02.887 5.093 2.883 6.563 5.566.106.193.063.564-.056.767-.97 1.638-2.377 2.805-4.055 3.69-.471.25-.72.003-1.025-.246-4.178-3.42-6.455-7.835-6.617-13.188-.08-2.662.29-5.337.462-8.005.008-.124.07-.246.132-.459z" fill="#fff"/><path d="M24.457 26.302c-1.098 7.097 1.441 12.713 6.898 17.443-1.532.324-2.906.637-4.29.892-.535.098-1.104.012-1.643.098-.858.138-1.213-.312-1.456-1.025-.387-1.135-.518-2.277-.236-3.452.052-.218.087-.44.131-.66l-.223-.075-.825 2.23c-2.994-3.252-2.105-12.378 1.642-15.45z" fill="#fff"/></svg>