<svg fill="none" height="70" viewBox="0 0 70 70" width="70" xmlns="http://www.w3.org/2000/svg"><g fill="#703a36"><path d="M35 70C15.7 70 0 54.399 0 35.222v-.446C0 15.601 15.701 0 35 0s35 15.601 35 34.776v.446c0 19.177-15.701 34.776-35 34.776z"/><path d="M35 70C15.7 70 0 54.399 0 35.222v-.446C0 15.601 15.701 0 35 0s35 15.601 35 34.776v.446c0 19.177-15.701 34.776-35 34.776z"/><path d="M34.999 2.092c-18.138 0-32.894 14.661-32.894 32.684v.446c0 18.023 14.756 32.685 32.894 32.685s32.896-14.664 32.896-32.685v-.446c0-18.023-14.758-32.684-32.896-32.684z"/></g><path d="M65.354 34.778c0 16.657-13.59 30.16-30.355 30.16S4.646 51.435 4.646 34.778 18.236 4.616 34.999 4.616c16.764 0 30.355 13.504 30.355 30.162z" fill="#b52f28"/><path d="M17.466 12.789s-5.894 6.341-5.54 9.216c.043.369.908 4.25.908 4.25l-3.348 1.99c-.916 1.29-1.119 4.015-1.16 6.531-.07 4.332.074 7.407 1.14 9.286.33.58 3.615 1.883 5.002 2.488l-.919 4.838c7.553 7.76 18.777 8.884 22.872 8.884 4.37 0 12.574-3.543 15.53-5.4 0 0-.847-3.324-2.047-4.559 0 0 8.249-.732 8.642-1.345 3.71-5.773 2.722-15.418 2.722-15.418-.937-1.05-3.964-4.278-3.964-4.278l3.386-2.806c-2.741-9.09-4.017-12.74-17.006-17.735-13.476-5.186-26.22 4.058-26.22 4.058z" fill="#e25656"/><path d="M58.349 54.323c.468-.6 1.56-2.301 1.982-2.933h-6.052zM7.047 46.551c.352.826 1.285 2.552 1.707 3.339l3.17-2.492z" fill="#703a36"/><path d="M35 7.67c16.248 0 29.514 12.686 30.315 28.633.026-.505.04-1.015.04-1.527 0-16.657-13.59-30.161-30.356-30.161-16.765 0-30.353 13.505-30.353 30.163 0 .512.013 1.022.039 1.527C5.485 20.356 18.75 7.67 34.999 7.67z" fill="#ffa099"/><path d="M22.3 8.715c.38.666-.269 1.744-1.45 2.407s-2.444.66-2.823-.007c-.38-.664.269-1.742 1.45-2.405 1.181-.663 2.444-.66 2.822.005zM27.92 6.653c.195.53-.274 1.188-1.048 1.47-.777.283-1.564.083-1.759-.446-.194-.528.275-1.188 1.051-1.471.776-.283 1.563-.082 1.757.447z" fill="#fff"/><path d="M46.675 40.908c-.366-2.13-.933-3.562-1.39-4.712-.87-2.197-1.394-3.521.627-6.688l.584-.917-.158.042.077-.122-.158.042.077-.123-.158.042.078-.122-.16.042.079-.123-.16.042.079-.122-.16.042.079-.123-.159.042.078-.122-.159.042.078-.122-.159.041.078-.122-.159.042.078-.122-.159.041.078-.122-.159.042.078-.122-.159.042.078-.123-.159.042.078-.122-.159.042.078-.123-.159.042.078-.122-.159.042.078-.123-.159.042.078-.122-.159.042.078-.122-.159.041.078-.122-.782.203c-5.436 1.889-5.588 6.003-5.257 10.41.078 1.024-.158 1.838-.704 2.42-.573.615-1.388.832-1.912.832-.256 0-.527-.038-.796-.125a3.506 3.506 0 0 1-.161-.65c-.227-1.49-.034-2.856 1.637-5.793 3.216-5.064 3.645-7.495 3.661-9.05.023-2.084-.88-4.247-2.682-6.426l-.63-.762v.019l-.08-.1v.02l-.081-.1v.02l-.081-.1v.019l-.081-.1v.02l-.081-.1v.019l-.081-.1v.02l-.081-.1v.019l-.081-.1v.02l-.081-.1v.019l-.081-.1v.02l-.081-.1v.019l-.081-.1v.02l-.081-.1v.02l-.081-.1v.019l-.081-.1v.02l-.08-.1v.019l-.082-.1v.02l-.08-.1v.019l-.082-.1v.02l-.08-.1.066.984c.408 5.98-1.98 8.918-4.09 11.508l-.258.32a6.238 6.238 0 0 0-.817-.957c-.027-.027-.053-.055-.08-.08-.028-.028-.054-.055-.082-.08l-.08-.081c-.028-.028-.054-.055-.081-.08l-.081-.081c-.028-.027-.054-.055-.081-.08l-.081-.081c-.028-.027-.054-.055-.081-.08l-.081-.081c-.028-.027-.054-.055-.081-.08-.028-.028-.054-.055-.081-.08-.028-.028-.054-.056-.081-.081-.028-.028-.054-.055-.081-.08l-.081-.081c-.028-.028-.054-.055-.081-.08L29.239 27c-.028-.027-.054-.055-.081-.08-.028-.028-.053-.055-.081-.081-.028-.027-.053-.055-.08-.08-.791-.786-1.839-1.43-3.18-1.959l-.808-.318.431.81c1.135 3.344 1.605 4.73.329 8.942-1.999 6.604-.67 10.48.795 12.568a9.8 9.8 0 0 0 1.18 1.384c.028.028.054.055.081.08l.081.081c.028.028.054.055.081.08l.081.081c.028.027.054.055.081.08.028.028.054.055.081.08.028.028.053.056.081.081.028.028.053.055.081.08.028.028.053.056.081.081.027.028.053.055.081.08l.08.081c.028.028.054.055.082.08l.08.081c.028.027.054.055.082.08l.08.081c.028.027.054.055.082.08.027.028.053.055.08.08.028.028.054.056.082.081.027.028.053.055.08.08 1.83 1.819 4.363 2.886 7.174 2.98.14.004.277.006.415.006 3.187 0 5.956-1.194 7.797-3.362 1.85-2.178 2.56-5.171 2.002-8.43z" fill="#bc3f35"/><path d="M44.293 27.898c-2.021 3.166-1.497 4.492-.627 6.687.455 1.15 1.023 2.582 1.39 4.713.558 3.258-.153 6.25-2.002 8.43-1.841 2.167-4.61 3.36-7.797 3.36-.138 0-.276-.003-.415-.006-3.43-.112-6.445-1.673-8.275-4.28-1.465-2.088-2.793-5.966-.795-12.568 1.275-4.213.805-5.598-.329-8.942l-.43-.81.808.318c2.617 1.035 4.127 2.5 4.754 4.615l.173.584s.702-.874.865-1.073c2.107-2.592 4.496-5.529 4.089-11.508l-.066-.985.63.763c1.8 2.178 2.702 4.341 2.681 6.426-.016 1.555-.445 3.986-3.661 9.05-1.671 2.936-1.866 4.3-1.637 5.792.269 1.76 1.556 2.385 2.578 2.385.523 0 1.337-.219 1.912-.832.544-.583.78-1.397.705-2.42-.332-4.407-.18-8.522 5.256-10.41l.782-.203-.584.917z" fill="#fff"/></svg>