<svg fill="none" height="70" viewBox="0 0 70 70" width="70" xmlns="http://www.w3.org/2000/svg"><g fill="#6e3464"><path d="M35 70C15.7 70 0 54.399 0 35.222v-.446C0 15.601 15.701 0 35 0s35 15.601 35 34.776v.446c0 19.177-15.701 34.776-35 34.776z"/><path d="M35 70C15.7 70 0 54.399 0 35.222v-.446C0 15.601 15.701 0 35 0s35 15.601 35 34.776v.446c0 19.177-15.701 34.776-35 34.776z"/><path d="M34.999 2.092c-18.138 0-32.894 14.661-32.894 32.684v.446c0 18.023 14.756 32.685 32.894 32.685s32.896-14.664 32.896-32.685v-.446c0-18.023-14.758-32.684-32.896-32.684z"/></g><path d="M65.354 34.778c0 16.657-13.59 30.16-30.355 30.16S4.646 51.435 4.646 34.778 18.236 4.616 34.999 4.616c16.764 0 30.355 13.504 30.355 30.162z" fill="#b73576"/><path d="M17.466 12.789s-5.894 6.341-5.541 9.216c.043.369.908 4.25.908 4.25l-3.347 1.99c-.917 1.29-1.12 4.015-1.16 6.531-.07 4.332.073 7.407 1.14 9.286.33.58 3.615 1.883 5.001 2.488l-.918 4.838c7.553 7.76 18.776 8.884 22.872 8.884 4.37 0 12.574-3.543 15.53-5.4 0 0-.848-3.324-2.048-4.559 0 0 8.25-.732 8.643-1.345 3.71-5.773 2.722-15.418 2.722-15.418-.938-1.05-3.964-4.278-3.964-4.278l3.386-2.806c-2.742-9.09-4.018-12.74-17.007-17.735-13.476-5.186-26.219 4.058-26.219 4.058z" fill="#e573b2"/><path d="M58.349 54.323c.468-.6 1.56-2.3 1.982-2.933h-6.052zM7.047 46.551c.352.826 1.285 2.552 1.707 3.34l3.17-2.493z" fill="#6e3464"/><path d="M35 7.67c16.248 0 29.514 12.686 30.315 28.633.026-.505.04-1.015.04-1.527 0-16.657-13.59-30.161-30.356-30.161-16.765 0-30.353 13.505-30.353 30.163 0 .512.013 1.022.039 1.527C5.485 20.356 18.75 7.67 34.999 7.67z" fill="#ffb2d1"/><path d="M22.3 8.715c.379.666-.269 1.744-1.451 2.407-1.18.663-2.444.66-2.823-.007-.38-.664.27-1.742 1.45-2.405 1.182-.663 2.445-.66 2.822.005zM27.919 6.653c.196.53-.274 1.188-1.048 1.47-.777.283-1.564.083-1.758-.446-.195-.528.275-1.188 1.05-1.47.776-.284 1.563-.083 1.758.446z" fill="#fff"/><path d="M50.773 35.269a2.92 2.92 0 0 0-.502-.636l-.08-.08c-.027-.028-.054-.053-.082-.08-.026-.028-.053-.054-.08-.081-.027-.028-.054-.053-.082-.08-.026-.028-.053-.054-.08-.081-.026-.027-.054-.053-.082-.08-.025-.028-.053-.054-.08-.081l-.081-.08c-.026-.028-.054-.054-.081-.081l-.081-.08c-.026-.028-.054-.053-.081-.08-.026-.028-.054-.054-.081-.081-.026-.028-.054-.053-.081-.08-.026-.028-.054-.054-.081-.081-.026-.028-.054-.053-.081-.08-.026-.028-.054-.054-.081-.081l-.081-.08c-.026-.028-.054-.054-.081-.081l-.081-.08c-.666-.697-1.699-1.119-2.955-1.204 1.624-1.432 2.077-2.94 1.844-4.11a2.674 2.674 0 0 0-.797-1.444 1.917 1.917 0 0 0-.08-.08 1.983 1.983 0 0 0-.082-.081 1.92 1.92 0 0 0-.08-.08 1.92 1.92 0 0 0-.082-.081 1.98 1.98 0 0 0-.08-.08 1.922 1.922 0 0 0-.082-.081 1.861 1.861 0 0 0-.08-.08 1.92 1.92 0 0 0-.081-.081 1.92 1.92 0 0 0-.081-.08 1.809 1.809 0 0 0-.081-.081 1.859 1.859 0 0 0-.081-.08 1.863 1.863 0 0 0-.081-.08 1.864 1.864 0 0 0-.081-.081 1.917 1.917 0 0 0-.081-.08 1.922 1.922 0 0 0-.081-.081 1.861 1.861 0 0 0-.081-.08 1.92 1.92 0 0 0-.081-.081 1.92 1.92 0 0 0-.081-.08 1.864 1.864 0 0 0-.081-.081c-.5-.508-1.205-.81-2.005-.81-1.229 0-2.458.681-3.551 1.914-.057-.938-.298-1.752-.732-2.398a3.352 3.352 0 0 0-.483-.571c-.027-.027-.053-.055-.08-.08-.028-.028-.054-.055-.082-.08-.027-.028-.053-.056-.08-.081-.028-.028-.054-.055-.082-.08l-.08-.081c-.028-.028-.054-.055-.081-.08l-.081-.081c-.028-.027-.054-.055-.081-.08l-.081-.081c-.028-.027-.054-.055-.081-.08-.028-.028-.054-.055-.081-.08-.028-.028-.054-.056-.081-.081-.028-.028-.054-.055-.081-.08-.028-.028-.054-.056-.081-.081-.028-.028-.054-.055-.081-.08l-.081-.081c-.028-.028-.054-.055-.081-.08l-.081-.081c-.028-.028-.054-.055-.081-.08-.543-.548-1.239-.853-1.979-.853-.94 0-1.807.489-2.38 1.343-.983 1.463-.991 3.791-.05 6.48a9.123 9.123 0 0 0-1.121-1.323c-.028-.027-.054-.055-.081-.08-.028-.028-.054-.055-.081-.08l-.081-.081c-.028-.028-.053-.055-.081-.08l-.08-.081c-.029-.027-.054-.055-.082-.08l-.08-.081c-.028-.027-.054-.055-.082-.08-.027-.028-.053-.055-.08-.08-.028-.028-.054-.056-.082-.081-.027-.028-.053-.055-.08-.08-.028-.028-.054-.056-.082-.081-.027-.028-.053-.055-.08-.08-.028-.028-.054-.055-.082-.081-.027-.028-.053-.055-.08-.08-.028-.028-.054-.055-.082-.081-.027-.027-.053-.055-.08-.08-.028-.028-.054-.055-.082-.08-.027-.028-.053-.056-.08-.081-1.001-.993-2.098-1.535-3.194-1.535-1.367 0-2.46.873-2.72 2.173-.216 1.08.155 2.45 1.493 3.78l.08.08c.026.028.054.054.082.081.025.027.053.053.08.08.026.028.054.053.081.08.026.028.054.054.081.081.026.028.054.053.081.08.026.028.054.054.081.081.026.028.054.053.081.08.026.028.054.054.081.081l.081.08c.026.028.054.054.081.081l.081.08c.026.028.054.054.081.08.026.028.054.054.081.081.026.028.054.053.081.08.026.028.054.054.081.081.026.028.054.053.081.08.026.028.053.054.081.081.026.028.053.053.081.08.356.366.784.728 1.29 1.08-1.313-.453-2.529-.687-3.617-.687-2.9 0-4.22 1.616-4.22 3.117 0 .705.291 1.437.902 2.013.026.027.053.055.08.08.027.028.054.055.082.08.026.028.053.055.08.081.027.028.054.055.082.08.026.028.053.055.08.081.027.027.054.055.082.08.026.028.053.055.08.081.027.027.054.055.082.08.026.028.053.055.08.081.027.027.054.055.082.08.026.028.053.055.08.08.026.028.054.056.082.081.025.028.053.055.08.08.026.028.054.055.081.081.026.028.054.055.081.08.026.028.054.055.081.081.026.027.054.055.081.08.026.028.054.055.081.081.026.027.054.055.081.08.61.622 1.574 1.08 2.918 1.169-1.622 1.43-2.076 2.938-1.842 4.106.116.58.398 1.075.796 1.445.026.027.054.055.081.08.026.028.054.055.081.08.026.028.054.055.081.081.026.028.054.055.081.08.026.028.054.055.081.081.026.027.054.055.081.08.026.028.054.055.081.081.026.027.053.055.081.08.026.028.053.055.081.08.026.028.053.056.081.081.026.028.053.055.081.08.026.028.053.056.08.081.027.028.054.055.082.08.026.028.053.055.08.081.027.028.054.055.082.08.026.028.053.055.08.081.027.027.054.055.082.08.026.028.053.055.08.081.027.027.054.055.082.08.5.509 1.204.81 2.004.81 1.23 0 2.459-.68 3.552-1.913.056.938.298 1.753.732 2.397.144.214.306.406.482.571.028.028.054.055.081.08l.081.081c.028.028.054.055.081.08l.081.081c.028.027.054.055.081.08.028.028.053.055.081.081.028.027.053.055.081.08.028.028.053.055.081.081.027.027.053.055.081.08.027.028.053.055.08.08.028.028.054.056.082.081.027.028.053.055.08.08.028.028.054.055.082.081.027.028.053.055.08.08.028.028.054.055.082.081.027.027.053.055.08.08.028.028.054.055.082.081.027.027.053.055.08.08.028.028.054.055.082.081.542.547 1.238.853 1.978.853.94 0 1.808-.49 2.381-1.344.983-1.462.991-3.79.05-6.48.356.506.732.95 1.12 1.323.028.028.054.055.082.08l.08.081c.028.027.054.055.082.08l.08.081c.028.027.054.055.082.08.027.028.053.055.08.08.028.028.054.056.081.081.028.028.054.055.081.08l.081.081c.028.028.054.055.081.08l.081.081c.028.027.054.055.081.08l.081.081c.028.027.054.055.081.08l.081.081c.028.027.054.055.081.08.028.028.054.055.081.08.028.028.054.056.081.081.028.028.054.055.081.08 1 .994 2.097 1.536 3.193 1.536 1.367 0 2.46-.874 2.721-2.174.215-1.08-.155-2.449-1.493-3.78l-.081-.08c-.026-.028-.053-.053-.08-.08l-.082-.081-.08-.08c-.027-.028-.054-.054-.082-.08-.026-.028-.053-.054-.08-.081-.027-.028-.054-.054-.082-.08-.026-.028-.053-.054-.08-.081-.027-.028-.054-.053-.082-.08-.026-.028-.053-.054-.08-.081-.027-.028-.054-.053-.082-.08-.026-.028-.053-.054-.08-.081l-.082-.08c-.026-.028-.053-.054-.08-.081l-.082-.08c-.025-.028-.053-.054-.08-.08-.026-.028-.054-.054-.082-.081-.025-.028-.053-.053-.08-.08-.026-.028-.054-.054-.081-.081a8.775 8.775 0 0 0-1.291-1.08c1.313.454 2.528.687 3.618.687 1.792 0 3.198-.648 3.854-1.776a2.637 2.637 0 0 0 0-2.68zm-14.155-1.857c.468 0 .912.103 1.314.281.181.4.283.84.283 1.305 0 1.762-1.443 3.198-3.218 3.198-.468 0-.911-.103-1.313-.282-.181-.4-.283-.84-.283-1.305 0-1.762 1.443-3.197 3.217-3.197z" fill="#aa4875"/><path d="M49.154 33.66c-.656-1.13-2.062-1.778-3.854-1.778-1.347 0-2.883.35-4.565 1.042a.273.273 0 0 1-.35-.143.263.263 0 0 1 .144-.346c4.581-1.886 5.832-4.467 5.474-6.254-.261-1.3-1.353-2.174-2.72-2.174-2.137 0-4.27 2.055-5.704 5.495a.27.27 0 0 1-.348.143.264.264 0 0 1-.145-.346c1.28-3.07 1.387-5.762.295-7.385-.573-.853-1.441-1.344-2.382-1.344-.94 0-1.807.49-2.38 1.344-1.093 1.623-.985 4.315.294 7.387a.263.263 0 0 1-.144.344.27.27 0 0 1-.348-.143c-1.435-3.44-3.567-5.495-5.705-5.495-1.367 0-2.46.874-2.72 2.174-.358 1.788.892 4.368 5.473 6.254a.265.265 0 0 1 .144.346.271.271 0 0 1-.348.143c-1.683-.692-3.218-1.042-4.565-1.042-2.9 0-4.22 1.615-4.22 3.116s1.32 3.117 4.22 3.117c1.347 0 2.882-.35 4.563-1.042a.272.272 0 0 1 .35.143.27.27 0 0 1 .021.1.266.266 0 0 1-.165.246c-4.581 1.885-5.831 4.466-5.473 6.252.26 1.3 1.352 2.174 2.718 2.174 2.138 0 4.27-2.055 5.705-5.495a.267.267 0 0 1 .513.101c0 .036-.006.07-.02.102-1.28 3.07-1.386 5.762-.295 7.386.573.852 1.441 1.343 2.38 1.343.94 0 1.808-.489 2.381-1.343 1.093-1.624.985-4.317-.295-7.388a.263.263 0 0 1 .144-.344.27.27 0 0 1 .348.143c1.435 3.442 3.568 5.495 5.705 5.495 1.367 0 2.46-.873 2.721-2.174.358-1.786-.892-4.368-5.473-6.252a.267.267 0 0 1-.166-.245c0-.035.007-.07.021-.101a.272.272 0 0 1 .349-.143c1.68.691 3.217 1.042 4.565 1.042 1.792 0 3.198-.648 3.854-1.776a2.637 2.637 0 0 0 0-2.68zm-14.155 4.536c-1.773 0-3.217-1.434-3.217-3.198s1.442-3.197 3.217-3.197c1.775 0 3.218 1.434 3.218 3.197s-1.443 3.198-3.218 3.198z" fill="#fff"/></svg>