<svg fill="none" height="70" viewBox="0 0 70 70" width="70" xmlns="http://www.w3.org/2000/svg"><path d="M35 70C15.7 70 0 54.399 0 35.222v-.446C0 15.601 15.701 0 35 0s35 15.601 35 34.776v.446c0 19.177-15.701 34.776-35 34.776z" fill="#305b3f"/><path d="M46.675 40.908c-.366-2.13-.933-3.562-1.39-4.712-.87-2.197-1.394-3.521.627-6.688l.584-.917-.158.042.077-.122-.158.042.077-.123-.158.042.078-.122-.16.042.079-.123-.16.042.079-.122-.16.042.079-.123-.159.042.078-.122-.159.042.078-.122-.159.041.078-.122-.159.042.078-.122-.159.041.078-.122-.159.042.078-.122-.159.042.078-.123-.159.042.078-.122-.159.042.078-.123-.159.042.078-.122-.159.042.078-.123-.159.042.078-.122-.159.042.078-.122-.159.041.078-.122-.782.203c-5.436 1.889-5.588 6.003-5.257 10.41.078 1.024-.158 1.838-.704 2.42-.573.615-1.388.832-1.912.832-.256 0-.527-.038-.796-.125a3.506 3.506 0 0 1-.161-.65c-.227-1.49-.034-2.856 1.637-5.793 3.216-5.064 3.645-7.495 3.661-9.05.023-2.084-.88-4.247-2.682-6.426l-.63-.762v.019l-.08-.1v.02l-.081-.1v.02l-.081-.1v.019l-.081-.1v.02l-.081-.1v.019l-.081-.1v.02l-.081-.1v.019l-.081-.1v.02l-.081-.1v.019l-.081-.1v.02l-.081-.1v.019l-.081-.1v.02l-.081-.1v.02l-.081-.1v.019l-.081-.1v.02l-.08-.1v.019l-.082-.1v.02l-.08-.1v.019l-.082-.1v.02l-.08-.1.066.984c.408 5.98-1.98 8.918-4.09 11.508l-.258.32a6.238 6.238 0 0 0-.817-.957c-.027-.027-.053-.055-.08-.08-.028-.028-.054-.055-.082-.08l-.08-.081c-.028-.028-.054-.055-.081-.08l-.081-.081c-.028-.027-.054-.055-.081-.08l-.081-.081c-.028-.027-.054-.055-.081-.08l-.081-.081c-.028-.027-.054-.055-.081-.08-.028-.028-.054-.055-.081-.08-.028-.028-.054-.056-.081-.081-.028-.028-.054-.055-.081-.08l-.081-.081c-.028-.028-.054-.055-.081-.08L29.239 27c-.028-.027-.054-.055-.081-.08-.028-.028-.053-.055-.081-.081-.028-.027-.053-.055-.08-.08-.791-.786-1.839-1.43-3.18-1.959l-.808-.318.431.81c1.135 3.344 1.605 4.73.329 8.942-1.999 6.604-.67 10.48.795 12.568a9.8 9.8 0 0 0 1.18 1.384c.028.028.054.055.081.08l.081.081c.028.028.054.055.081.08l.081.081c.028.027.054.055.081.08.028.028.054.055.081.08.028.028.053.056.081.081.028.028.053.055.081.08.028.028.053.056.081.081.027.028.053.055.081.08l.08.081c.028.028.054.055.082.08l.08.081c.028.027.054.055.082.08l.08.081c.028.027.054.055.082.08.027.028.053.055.08.08.028.028.054.056.082.081.027.028.053.055.08.08 1.83 1.819 4.363 2.886 7.174 2.98.14.004.277.006.415.006 3.187 0 5.956-1.194 7.797-3.362 1.85-2.178 2.56-5.171 2.002-8.43z" fill="#bc3f35"/><path d="M35 70C15.7 70 0 54.399 0 35.222v-.446C0 15.601 15.701 0 35 0s35 15.601 35 34.776v.446c0 19.177-15.701 34.776-35 34.776z" fill="#305b3f"/><path d="M34.999 2.092c-18.138 0-32.894 14.661-32.894 32.684v.446c0 18.023 14.756 32.685 32.894 32.685s32.896-14.664 32.896-32.685v-.446c0-18.023-14.758-32.684-32.896-32.684z" fill="#305b3f"/><path d="M65.354 34.778c0 16.657-13.59 30.16-30.355 30.16S4.646 51.435 4.646 34.778 18.236 4.616 34.999 4.616c16.764 0 30.355 13.504 30.355 30.162z" fill="#308437"/><path d="M17.466 12.789s-5.894 6.341-5.541 9.216c.043.369.908 4.25.908 4.25l-3.347 1.99c-.917 1.29-1.12 4.015-1.16 6.531-.07 4.332.073 7.407 1.14 9.286.33.58 3.615 1.883 5.001 2.488l-.918 4.838c7.553 7.76 18.776 8.884 22.872 8.884 4.37 0 12.574-3.543 15.53-5.4 0 0-.848-3.324-2.048-4.559 0 0 8.25-.732 8.643-1.345 3.71-5.773 2.722-15.418 2.722-15.418-.938-1.05-3.964-4.278-3.964-4.278l3.386-2.806c-2.742-9.09-4.018-12.74-17.007-17.735-13.476-5.186-26.219 4.058-26.219 4.058z" fill="#4ead50"/><path d="M58.349 54.323c.468-.6 1.56-2.3 1.982-2.933h-6.052zM7.047 46.551c.352.826 1.285 2.552 1.707 3.34l3.17-2.493z" fill="#305b3f"/><path d="M35 7.67c16.248 0 29.514 12.686 30.315 28.633.026-.505.04-1.015.04-1.527 0-16.657-13.59-30.161-30.356-30.161-16.765 0-30.353 13.505-30.353 30.163 0 .512.013 1.022.039 1.527C5.485 20.356 18.75 7.67 34.999 7.67z" fill="#9ad87d"/><path d="M22.3 8.715c.379.666-.269 1.744-1.451 2.407-1.18.663-2.444.66-2.823-.007-.38-.664.27-1.742 1.45-2.405 1.182-.663 2.445-.66 2.822.005zM27.919 6.653c.196.53-.274 1.188-1.048 1.47-.777.283-1.564.083-1.758-.446-.195-.528.275-1.188 1.05-1.471.776-.283 1.563-.082 1.758.447z" fill="#fff"/><path d="m42.874 51.341-.081-.08c-.028-.027-.054-.055-.081-.08l-.081-.081c-.028-.027-.053-.055-.081-.08-.028-.028-.053-.055-.08-.08-.029-.028-.054-.056-.082-.081-.027-.028-.053-.055-.08-.08-.028-.028-.054-.055-.082-.081-.027-.028-.053-.055-.08-.08-.028-.028-.054-.055-.082-.081-.027-.027-.053-.055-.08-.08-.028-.028-.054-.055-.082-.081-.027-.027-.053-.055-.08-.08-.028-.028-.054-.055-.082-.08-.027-.028-.053-.056-.08-.081-.028-.028-.054-.055-.082-.08-.027-.028-.053-.056-.08-.081-.028-.028-.054-.055-.082-.08l-.08-.081c-1.168-1.168-2.833-1.933-4.72-2.17-.746-2.418-.892-4.7-.824-5.132.198-1.255 5.116-.875 7.245-4.35 2.389-3.887-.345-11.768-5.258-17.634l-.005.012-.076-.093-.004.013c-.026-.03-.05-.063-.077-.093l-.004.013c-.026-.031-.05-.063-.077-.094l-.004.013c-.026-.03-.05-.063-.077-.093l-.004.013-.076-.094-.005.013c-.026-.03-.05-.063-.076-.093l-.005.013c-.026-.03-.05-.063-.076-.094l-.005.013c-.026-.03-.05-.062-.076-.093l-.005.013c-.026-.03-.05-.063-.076-.093l-.005.012c-.026-.03-.05-.062-.076-.093l-.005.013c-.026-.03-.05-.063-.076-.093l-.005.012c-.026-.03-.05-.062-.076-.093l-.005.013c-.026-.03-.05-.063-.076-.093l-.005.013-.076-.094-.005.013c-.026-.03-.05-.063-.076-.093l-.005.013-.076-.094-.005.013c-.026-.03-.05-.063-.076-.093l-.005.013c-.026-.03-.05-.063-.076-.094l-.005.013c-.026-.03-.05-.062-.076-.093l-.005.013c-.026-.03-.05-.063-.076-.093-2.058 5.084-7.36 8.658-8.302 12.682-.614 2.54.72 5.08 2.597 6.941.028.028.053.054.081.08l.081.081.08.08.082.081.08.08.082.081.08.08.082.081.08.08.082.08.08.081.082.08.08.081.082.08.08.081.081.08.081.081.081.08.081.081c.268.27.548.526.834.767.025 3.02.97 5.72 1.52 6.778-2.172.21-4.109 1.088-5.333 2.417l.12.04a.881.881 0 0 0-.04.04c.041.015.082.027.12.04l-.038.04c.04.015.08.028.12.04a.882.882 0 0 0-.04.041l.12.04-.038.04c.04.015.08.028.12.04a.94.94 0 0 0-.04.04l.12.041a1 1 0 0 0-.038.04c.04.015.08.028.12.04a.881.881 0 0 0-.04.04l.12.041-.039.04c.041.015.081.028.12.04a.882.882 0 0 0-.039.04c.041.015.081.028.12.04l-.039.041c.041.015.081.027.12.04l-.039.04c.04.015.081.028.12.04a.941.941 0 0 0-.039.041l.12.04-.039.04c.04.015.081.028.12.04l-.039.041.12.04-.039.04c.04.015.081.028.12.04l-.039.04c.04.015.081.028.12.041l-.039.04c.04.015.081.028.12.04a.941.941 0 0 0-.039.04c.04.015.081.028.12.041l-.039.04c.04.015.081.028.12.04l-.039.04a19.034 19.034 0 0 0 6.285 1.053 19.267 19.267 0 0 0 6.257-1.043 6.024 6.024 0 0 0-.3-.307z" fill="#408948"/><path d="M27.856 31.599c.943-4.025 6.244-7.597 8.303-12.683 4.913 5.868 7.646 13.75 5.258 17.634-2.13 3.475-7.048 3.095-7.245 4.35-.081.52.149 3.758 1.38 6.664 2.443.043 4.624.95 6 2.473a19.325 19.325 0 0 1-12.542-.01c1.225-1.33 3.162-2.206 5.333-2.417-.714-1.377-2.102-5.53-1.256-9.553.947-4.505 4.233-5.818 3.164-13.337-.08 7.45-4.921 9.073-4.79 14.715-2.37-1.886-4.325-4.861-3.606-7.84z" fill="#fff"/></svg>