<svg fill="none" height="70" viewBox="0 0 70 70" width="70" xmlns="http://www.w3.org/2000/svg"><g fill="#304c5b"><path d="M35 70C15.7 70 0 54.399 0 35.222v-.446C0 15.601 15.701 0 35 0s35 15.601 35 34.776v.446c0 19.177-15.701 34.776-35 34.776z"/><path d="M35 70C15.7 70 0 54.399 0 35.222v-.446C0 15.601 15.701 0 35 0s35 15.601 35 34.776v.446c0 19.177-15.701 34.776-35 34.776z"/><path d="M34.999 2.092c-18.138 0-32.894 14.661-32.894 32.684v.446c0 18.023 14.756 32.685 32.894 32.685s32.896-14.664 32.896-32.685v-.446c0-18.023-14.758-32.684-32.896-32.684z"/></g><path d="M65.354 34.778c0 16.657-13.59 30.16-30.355 30.16S4.646 51.435 4.646 34.778 18.236 4.616 34.999 4.616c16.764 0 30.355 13.504 30.355 30.162z" fill="#70878e"/><path d="M17.466 12.789s-5.894 6.341-5.541 9.216c.043.369.908 4.25.908 4.25l-3.347 1.99c-.917 1.29-1.12 4.015-1.16 6.531-.07 4.332.073 7.407 1.14 9.286.33.58 3.615 1.883 5.001 2.488l-.918 4.838c7.553 7.76 18.776 8.884 22.872 8.884 4.37 0 12.574-3.543 15.53-5.4 0 0-.848-3.324-2.048-4.559 0 0 8.25-.732 8.643-1.345 3.71-5.773 2.722-15.418 2.722-15.418-.938-1.05-3.964-4.278-3.964-4.278l3.386-2.806c-2.742-9.09-4.018-12.74-17.007-17.735-13.476-5.186-26.219 4.058-26.219 4.058z" fill="#8cabb5"/><path d="M58.349 54.323c.468-.6 1.56-2.3 1.982-2.933h-6.052zM7.047 46.551c.352.826 1.285 2.552 1.707 3.34l3.17-2.493z" fill="#304c5b"/><path d="M35 7.67c16.248 0 29.514 12.686 30.315 28.633.026-.505.04-1.015.04-1.527 0-16.657-13.59-30.161-30.356-30.161-16.765 0-30.353 13.505-30.353 30.163 0 .512.013 1.022.039 1.527C5.485 20.356 18.75 7.67 34.999 7.67z" fill="#c6d6e0"/><path d="M22.3 8.715c.379.666-.269 1.744-1.451 2.407-1.18.663-2.444.66-2.823-.007-.38-.664.27-1.742 1.45-2.405 1.182-.663 2.445-.66 2.822.005zM27.919 6.653c.196.53-.274 1.188-1.048 1.47-.777.283-1.564.083-1.758-.446-.195-.528.275-1.188 1.05-1.47.776-.284 1.563-.083 1.758.446z" fill="#fff"/><path d="M52.208 35.838h-.08v-.08h-.082v-.08h-.08v-.081h-.082v-.08h-.08v-.08h-.082v-.081h-.08v-.08h-.082v-.081h-.08v-.08h-.082v-.081h-.08v-.08h-.081v-.081h-.081v-.08h-.081v-.081h-.081v-.08h-.081v-.08h-.081v-.081h-.081v-.08h-.081v-.081h-.081v-.08h-1.83l-.146-.145-.08-.081-.082-.08-.08-.08-.082-.081-.08-.08-.082-.081-.08-.08-.082-.081-.08-.08-.082-.081-.08-.08-.081-.081-.081-.08-.081-.08-.081-.081-.081-.08-.081-.081-.081-.08-.081-.081-.081-.08-1.668 1.657-.48-.477-.08-.08-.081-.08-.081-.08-.081-.081-.081-.08-.081-.081-.081-.08-.081-.081-.081-.08-.081-.081-.081-.08-.081-.081-.081-.08-.081-.08-.08-.081-.07-.07h2.352V30.84h-.08v-.08h-.082v-.08h-.08v-.081h-.082v-.08h-.08v-.081h-.082v-.08h-.08v-.081h-.081v-.08h-.081v-.081h-.081v-.08h-.081v-.081h-.081v-.08h-.081v-.08h-.081v-.081H44.7v-.044l2.594-2.577-1.096-1.09-.081-.08-.081-.08-.081-.081-.081-.08-.081-.081-.081-.08-.081-.081-.081-.08-.081-.08-.08-.081-.082-.08-.08-.081-.082-.08-.08-.081-.082-.08-.08-.081-.082-.08-.08-.08-.082-.081-.08-.08-2.595 2.577h-.044v-.08h-.08v-.081h-.082v-.08h-.08v-.081h-.081v-.08h-.081v-.08h-.081v-.081h-.081v-.08h-.081v-.081h-.081v-.08h-.081v-.081h-.081v-.08h-.081v-.081h-.081v-.08h-.081v-.08h-1.552v2.337l-.76-.756-.082-.08-.08-.081-.082-.08-.08-.081-.081-.08-.081-.081-.081-.08-.081-.08-.081-.081-.081-.08-.081-.081-.081-.08-.03-.031 1.665-1.656-.08-.08-.082-.08-.08-.081-.082-.08-.08-.081-.081-.08-.081-.081-.081-.08-.081-.081-.081-.08-.081-.08-.081-.081-.081-.08-.044-.044-.037-.037-.044-.044-.037-.037-.044-.043-.037-.037-.044-.044-.037-.037-.044-.043-.037-.037-.044-.044-.037-.037-.044-.043-.037-.037-.044-.043-.08-.08-.02-.02v-1.818h-.081v-.08h-.081v-.081h-.081v-.08h-.081v-.081h-.08v-.08h-.082v-.081h-.08v-.08h-.082v-.081h-.08v-.08h-.082v-.08h-.08v-.081h-.082v-.08h-.08v-.081h-.082v-.08h-.08v-.081H36.1v-.08h-.08v-.081h-.082v-.08h-.08v-.081h-.082v-.08h-1.55v3.145l-.02-.02-.081-.08-.081-.08-.081-.08-.081-.08-.081-.081-.081-.08-.081-.081-.081-.08-1.096 1.089 1.763 1.753v1.994l-.047-.047-.08-.08-.082-.08-.08-.08-.082-.081-.08-.08-.082-.081-.08-.08-.082-.081-.08-.08-.081-.081-.081-.08-.081-.081-.081-.08-1.097 1.089 2.198 2.183v1.872a4.248 4.248 0 0 0-1.608.663l-.254-.253v-3.918h-.081v-.08h-.081v-.081h-.081v-.08h-.081v-.08h-.081v-.081h-.081v-.08h-.081v-.081h-.081v-.08h-.081v-.081h-.081v-.08h-.081v-.081h-.081v-.08h-.081v-.08h-.081v-.081h-.081v-.08h-.08v-.081h-.082v-.08h-.08v-.081h-.082v-.08h-.08v-.081h-1.552v2.376l-2.152-2.138-.081-.08-.081-.08-.081-.081-.081-.08-.081-.081-.081-.08-.081-.081-.081-.08-.081-.081-.08-.08-.082-.08-.08-.081-.082-.08-.08-.081-.082-.08-.08-.081-.082-.08-.08-.081-.082-.08-.08-.081-1.097 1.09.081.08.081.08.081.08.08.081.082.08.08.081.082.08.08.08.082.081.08.08.082.081.08.08.082.081.08.08.082.081.08.08.081.081.081.08.081.08.081.081 2.152 2.139h-2.391v1.541h.08v.08h.082v.081h.08v.08h.082v.081h.08v.08h.082v.081h.08v.08h.081v.08h.081v.081h.081v.08h.081v.081h.081v.08h.081v.081h.081v.08h.081v.081h.081v.08h.081v.08h.081v.081h.081v.08h.081v.081h3.943l.254.253a4.168 4.168 0 0 0-.667 1.598h-1.883l-.577-.573-.08-.08-.081-.081-.081-.08-.081-.08-.081-.081-.081-.08-.081-.081-.081-.08-.081-.081-.081-.08-.081-.081-.081-.08-.081-.081-.081-.08-.081-.08-.081-.081-.08-.08-.082-.081-.08-.08-.082-.081-1.096 1.09.08.08.082.08.08.08.082.081.08.08.082.08.08.081.082.08.08.081.081.08.081.081.081.08.081.081.047.047h-2.006l-1.764-1.753-1.096 1.09.081.08.081.08.081.081.081.08.081.081.081.08.081.08.081.081.02.02h-3.166v1.541h.08v.08h.081v.081h.081v.08h.081v.081h.081v.08h.081v.08h.081v.081h.081v.08h.081v.081h.081v.08h.081v.081h.081v.08h.081v.081h.081v.08h.081v.081h.081v.08h.081v.08h.081v.081h.08v.08h.082v.081h1.83l.144.143.08.08.082.081.08.08.082.081.08.08.082.081.08.08.082.081.08.08.082.08.08.081.081.08.081.081.081.08.081.081.081.08.081.081.081.08.081.081.081.08 1.668-1.655.481.478.081.08.081.08.081.081.081.08.081.08.081.081.08.08.082.081.08.08.082.081.08.08.082.081.08.08.082.081.08.08.07.07h-2.353v1.541h.081v.08h.081v.081h.081v.08h.081v.08h.081v.081h.081v.08h.081v.081h.081v.08h.081v.081h.081v.08h.081v.081h.081v.08h.081v.081h.08v.08h.082v.044l-2.594 2.578 1.096 1.089.081.08.08.08.082.081.08.08.082.081.08.08.082.081.08.08.082.081.08.08.082.08.08.081.082.08.08.081.081.08.081.081.081.08.081.081.081.08.081.08 2.595-2.577h.043v.08h.081v.081h.081v.08h.081v.081h.081v.08h.081v.081h.081v.08h.081v.08h.081v.081h.081v.08h.081v.081h.08v.08h.082v.081h.08v.08h.082v.081h1.551v-2.338l.761.756.081.08.081.081.081.08.081.081.081.08.081.081.081.08.081.081.081.08.081.08.08.081.082.08.03.031-1.666 1.658 1.097 1.089.08.08.082.08.08.081.081.08.081.081.081.08.081.081.081.08.02.02v1.818h.08v.08h.082v.081h.08v.08h.082v.08h.08v.081h.082v.08h.08v.081h.082v.08h.08v.081h.081v.08h.081v.081h.081v.08h.081v.081h.081v.08h.081v.08h.081v.081h.081v.08h.081v.081h.081v.08h.081v.081h1.551v-3.146l.02.02.08.08.082.08.08.081.082.08.08.081.082.08.08.081.082.08 1.096-1.089-1.764-1.754v-1.993l1.1 1.092 1.096-1.09-.08-.08-.082-.08-.08-.08-.082-.081-.08-.08-.081-.08-.081-.081-.081-.08-.081-.081-.081-.08-.081-.081-.081-.08-.081-.081-.081-.08-.081-.08-.081-.081-.081-.08-.081-.081-.081-.08-.081-.081-.578-.575v-1.871a4.248 4.248 0 0 0 1.608-.663l.254.253v3.918h.081v.08h.081v.08h.081v.081h.081v.08h.081v.081h.081v.08h.08v.08h.082v.081h.08v.08h.082v.081h.08v.08h.082v.081h.08v.08h.082v.081h.08v.08h.082v.081h.08v.08h.082v.08h.08v.081h.081v.08h1.552v-2.376l2.152 2.139.081.08.08.08.082.081.08.08.082.08.08.081.082.08.08.081.082.08.08.081.082.08.08.081.082.08.08.081.081.08.081.08.081.081.081.08.081.081.081.08 1.097-1.089-.081-.08-.081-.08-.081-.081-.081-.08-.081-.08-.081-.081-.081-.08-.081-.081-.081-.08-.081-.081-.081-.08-.081-.081-.08-.08-.082-.08-.08-.081-.082-.08-.08-.081-.082-.08-.08-.081-.082-.08-2.152-2.14h2.392v-1.54h-.081v-.081h-.081v-.08h-.08v-.08h-.082v-.081h-.08v-.08h-.082v-.081h-.08v-.08h-.082v-.081h-.08v-.08h-.082v-.081h-.08v-.08h-.082v-.081h-.08v-.08h-.082v-.08h-.08v-.081h-.082v-.08h-.08v-.081h-.082v-.08h-.08v-.081h-.081v-.08h-3.944l-.254-.253c.332-.481.56-1.027.667-1.598h1.884l.576.573.081.08.081.08.081.081.081.08.081.081.081.08.081.081.081.08.08.08.082.081.08.08.082.081.08.08.082.081.08.08.082.081.08.08.082.081.08.08.082.08 1.096-1.089-1.1-1.092h2.007l1.765 1.752 1.096-1.09-.08-.08-.082-.08-.08-.08-.082-.08-.08-.081-.082-.08-.08-.081-.082-.08-.02-.02h3.167v-1.542zm-22.56 3.39h-.92l1.862-1.85h.92zm4.577 1.764-1.862 1.849v-.914l1.862-1.85v.914zm.776-3.337c-.314 0-.615-.056-.896-.156a2.618 2.618 0 0 1-.157-.89 2.666 2.666 0 0 1 3.568-2.499c.1.279.157.578.157.89A2.666 2.666 0 0 1 35 37.655zm4.256-7.973-1.863 1.85v-.913l1.863-1.85zm1.774 4.549h-.92l1.863-1.85h.92z" fill="#8bacc0"/><path d="M50.589 34.23h-3.166l.667-.664-1.096-1.089-1.765 1.754h-2.007l1.1-1.093-1.096-1.09-2.196 2.183h-1.884a4.194 4.194 0 0 0-.667-1.598l1.874-1.862h3.943V29.23h-2.392l3.772-3.748-1.097-1.089-3.771 3.748v-2.377h-1.551v3.918l-1.874 1.862a4.225 4.225 0 0 0-1.608-.663v-1.872l2.197-2.183-1.096-1.09-1.1 1.093v-1.993l1.764-1.754-1.096-1.09-.668.663V19.51h-1.55v3.145l-.668-.663-1.096 1.09 1.763 1.754v1.993l-1.1-1.092-1.096 1.089 2.198 2.183v1.872a4.25 4.25 0 0 0-1.608.663l-1.874-1.862v-3.918h-1.551v2.377l-3.772-3.748-1.096 1.09 3.772 3.747h-2.392v1.541h3.943l1.874 1.862a4.168 4.168 0 0 0-.668 1.598h-1.883l-2.196-2.182-1.096 1.09 1.1 1.092h-2.007l-1.763-1.752-1.097 1.089.667.663h-3.165v1.541h3.165l-.667.663 1.097 1.09 1.763-1.753h2.006l-1.1 1.093 1.097 1.09 2.196-2.183h1.883c.109.571.336 1.117.668 1.598l-1.874 1.862h-3.943v1.541h2.392l-3.772 3.748 1.096 1.089 3.772-3.748v2.377h1.551v-3.918l1.874-1.862c.484.33 1.033.557 1.608.663v1.872l-2.198 2.181 1.097 1.09 1.1-1.093v1.994l-1.764 1.754 1.096 1.09.667-.664v3.146h1.551v-3.146l.668.663 1.096-1.09-1.764-1.753v-1.994l1.1 1.093 1.096-1.09-2.197-2.181v-1.872a4.249 4.249 0 0 0 1.608-.663l1.873 1.862v3.918h1.552v-2.377l3.771 3.748 1.097-1.09-3.772-3.747h2.392v-1.541h-3.943l-1.874-1.862c.332-.481.56-1.027.667-1.598h1.884l2.196 2.182 1.096-1.09-1.1-1.092h2.007l1.765 1.752 1.096-1.089-.667-.663h3.166v-1.541zm-15.59 3.425A2.666 2.666 0 0 1 32.327 35 2.666 2.666 0 0 1 35 32.345 2.666 2.666 0 0 1 37.671 35 2.666 2.666 0 0 1 35 37.655z" fill="#fff"/></svg>