<svg width="1440" height="690" viewBox="0 0 1440 690" fill="none" xmlns="http://www.w3.org/2000/svg"><g clip-path="url(#clip0_1862_29289)"><path d="M1298.29 382c4.69 0 8.5-3.806 8.5-8.5s-3.81-8.5-8.5-8.5c-4.7 0-8.5 3.806-8.5 8.5s3.8 8.5 8.5 8.5Z" fill="url(#paint0_radial_1862_29289)"/><path d="M1334.29 281c4.69 0 8.5-3.806 8.5-8.5s-3.81-8.5-8.5-8.5c-4.7 0-8.5 3.806-8.5 8.5s3.8 8.5 8.5 8.5Z" fill="url(#paint1_radial_1862_29289)"/><path d="M138.836 375.829C102.024 359.797 30.799 358.127-.212 359.296V729H1439.79V388.876h-100.54c-45.51 0-93.03 41.583-163.55 71.644-70.53 30.06-86.03 42.024-101.54 43.026-15.5 1.002-7.5-14.028-46.01-4.008-38.518 10.02-197.35 27.477-232.362 19.962-35.012-7.515-77.984-21.532-123-5.5-45.016 16.032-185.331 2.071-241.35-14.462-56.019-16.533-106.537-45.05-157.555-41.042-51.017 4.008-89.031-62.626-135.047-82.667Z" fill="#111113"/><path d="M1363.53 409.445s-1.18-26.411-5.43-55.281c-.1-.716-14.56 2.493-14.66 1.77-.11-.805 15.73-5.144 15.62-5.959-1.56-11.971-.46-14.743-.28-26.694.02-1.531-7.87-5.081-7.8-6.608 1.98 1.124 7.87 1.22 6.39.384 1.02-14.357-1.97-19.496-3.67-31.55-7.99 14.482-17.26 17.202-17.01 35.104.02.992-.7 1.847-1.03 2.777-.4 1.107 6.22 3.743 5.85 4.873-.45 1.391-7.89 1.28-8.29 2.696-2.66 9.373-4.12 19.262-3.29 29.033.05.668 3.43 1.501 3.51 2.171.12 1.047-3.07 1.899-2.95 2.892 4.44 37.549 5.72 42.234 5.72 42.234s-5.98-26.384-15.03-52.817c-.53-1.543-1.07-3.095-1.62-4.643-.32-.889-.64-1.777-.97-2.666-.93-2.56-1.9-5.103-2.88-7.591-.51-1.266-7.94 2.14-8.46.894-.37-.882 7.75-5.462 7.37-6.323-3.24-7.431-6.79-14.276-10.65-19.845-.23-.336-7.19 9.331-7.44 9.002-.48-.649 5.8-11.292 5.32-11.899-2.85-3.672-5.86-6.609-9-8.555-.82-.508-3.91 11.866-4.69 11.352-.41-.257 1.45-13.604 1.06-13.859-.79-.517-2.67-.161-3.42-.666-21.91-14.741-25.87-24.492-25.87-24.492s6.9 32.623 17.37 55.835c.31.7 10.76-1.225 11.08-.548.39.844-10.2 3.731-9.79 4.55 2.38 4.702 4.96 8.862 7.73 12.086 5.18 6.014 7.48 15.823 12.78 24.718.34.582 12.22-2.88 12.83-3.141-2.74 1.359-10.11 6.429-11.25 6.743 2.16 3.799 7.01 13.377 8.93 16.964.46.839 11.93-7.319 12.36-6.5-3.74 1.475-5.51 8.526-9.5 8.845 4.75 9.164 11.38 16.203 11.38 16.203s-9.78-12.69-21.06-21.768c-.78-.637-2.63 4.831-3.44 4.199-.78-.594.53-6.62-.23-7.21-6.49-4.986-16.06-7.172-21.06-9.412-1.22-.545-.11 6.39-1.15 6.141-.95-.222-.68-8.05-1.92-8.578-6.89-2.933-18.78-10.931-29.11-18.435-1.03-.74-4.27 1.333-5.14 3.269-1.02-.751 3.77-4.306 2.77-5.049-12.1-9.02-24.85-19.121-24.85-19.121s1.61 27.32 23.03 50.406c.87.937 7.54-5.999 8.48-5.069.83.841-4.78 8.358-4.18 9.352 6.28 10.495 10.06 12.881 14.47 17.363 4.42 4.482 15.65 8.093 15.65 8.093l4.37-9.957-2.36 10.275 2.52.942 10.9 4.071s-29.39-6.325-36.1-2.13c-6.71 4.194-11.55 11.257-11.55 11.257s-2.39-7.146-6.05-16.926c-.25-.69-7.88 3.296-8.15 2.577-.28-.718 6.82-6.099 6.54-6.834-3.64-9.553-8.21-20.793-12.86-30.256-2.45 4.712-2.75 5.974-5.36 7.09 1.24-2.376 3.24-8.229 2.27-9.995-7.93-14.481-16.71-26.207-26.11-32.028 0 0 5.35 31.755 12.78 57.206.3.986 11.11 2.891 11.4 3.854.43 1.407-10.54-1.111-10.11.225 2.79 8.554 6.68 18.791 9.75 23.066 0 0-16.22-17.351-32.39-30.811-1.1-.92.66 2.325-1.08 5.665-.83-.659-.94-7.608-1.78-8.25-8.9-6.805-18.29-12.522-26.61-14.584 0 0 4.28 7.742 10.45 17.7.54.856 6.47 2.483 7.02 3.367 0 0-5.75-1.409-4.79.077 7.92 12.243 19.83 29.317 27.72 35.749 4.07 3.324 9.97 9.021 10.4 9.734-4.82-3.825-13.37-10.13-13.37-10.13s-7.22-3.939-17.34-9.765c-.64-.363-4.56 8.421-5.22 8.047-.72-.389 1.84-9.935 1.09-10.332-13.41-7.174-31.43-14.178-48.44-12.27 0 0 6.8 9.12 18 18.033.63.507 13.38 1.055 14.04 1.559 1.36 1.03-12.06.22-10.6 1.21 5.64 3.809 14.81 9.025 21.81 11.276-8.94-1-17.96-1.129-26.93-.385-.59.062-1.19.112-1.79.187l-.91.1c-10.04 1.158-20.47 3.875-27.51 9.699 0 0 19.77.002 37.82 2.038 1.41.157 5.06-7.094 6.43-6.908 1.27.169-3.64 8.318-2.41 8.5 7.64 1.196 18.18 2.34 21.87 4.468l190.06-52.081Z" fill="#111113"/><path d="M1349.25 413.357s-17.71-84.226 3.62-126.374c.29 1.064-18.71 34.527-1.94 125.914l-1.68.46ZM1238.14 443.804s-19.07-60.94-40.57-95.013c.22.809 16.43 27.623 38.63 95.544l1.94-.531ZM1334.76 417.328s-18.35-59.289-52.85-106.918c-5.18-7.165-13.31-16.954-20.44-31.453.12.429 8.23 15.27 20.86 30.284.07.108.15.208.23.305 15.18 19.896 37.27 54.809 54.04 107.261l-1.84.521ZM1313.64 422.95s-10.33-25.889-47.54-41.237c-29.34-11.668-39.38-33.684-45.36-43.067.06.193 18.46 33.798 47.59 41.904 7.6 2.114 38.23 18.877 48.16 41.619l-2.85.781ZM1229.05 446.296s-34.28-26.442-65.98-60.741c.12.454 31.96 37.472 64.04 61.273l1.94-.532ZM1199.24 454.465s-37.21-30.114-70.54-39.99c.12.445 38.39 14.88 68.6 40.521l1.94-.531ZM1189.17 457.224s-29.47-26.432-74.39-7.151c.12.454 42.25-17.96 72.46 7.682l1.93-.531Z" fill="#111113"/><g clip-path="url(#clip1_1862_29289)" fill="#111113"><path d="M1776.25 291.091c.15-.278.39-.578.84-.889 1.05-.832-.9-1.235-2.07-.447-.18.111-.35.255-.44.344-.83-.479-1.67-.991-2.5-1.47-.31-1.368-.71-2.714-1.02-4.082-1.31-5.84-4.36-13.427 1.2-19.936.59-.622-1.08-.668-1.57-.102-5.02 5.721-3.9 10.726-4.34 16.118-.18 1.479-.16 2.946-.15 4.381-3.02-1.916-5.94-3.888-8.58-5.959-.5-.412-2.23.186-1.72.632 3.44 2.873 6.97 5.69 10.39 8.496.36 3.881.91 7.718 1.17 11.621-.03.323.04.656.01.979-.69 2.89-1.09 5.714-1.39 8.549-2.19-1.47-4.27-2.93-6.46-4.367-5.14-3.541-10.19-7.628-16.32-10.982-.08-.367-.36-.69-.64-1.013-1.37-1.936-.63-5.082-6.31-4.155-.7.122-.77.733-.06.645 2.01-.242 3.34 1.071 4.08 3.007-1.15-.546-2.31-1.092-3.65-1.561-.68-.234-1.24-.457-1.9-.625.12 1.446.45 2.914.84 4.226-1.53-.846-3.14-1.571-4.9-2.018.01-.912.21-1.868.31-2.802a9.047 9.047 0 0 0-.94-.034l-.06-.267c.04-.289-.59-.29-1.07-.146-.77.244-1.45.432-2.13.654-.29.066-.36.222-.34.322-2.04.564-4.3 1.563-6.75 3.094-.72.444.11.923.93.457 2-1.221 4.05-1.752 6.11-1.794-1.23 1.889-3.98 4.821-4.37 5.366-2.6 3.177-5.51 6.32-7.58 9.52-3.42 5.5-6.63 10.989-9.02 16.468-2.57-5.485-6.34-10.737-10.17-15.834-3.29-4.485-7.65-8.727-10.44-13.323-.3-.422-1.95.054-1.74.532 1.32 4.961 4.15 9.723 6.55 14.441 3.09 5.93 5.2 12.081 7.61 18.2 1.19 2.992 2.19 6.063 3.18 9.099-1.16 3.59-2.21 7.192-3.15 10.805-1.01-4.961-2.44-9.933-4.63-14.594-.99-2.125-2.4-4.229-4.92-5.799a7.148 7.148 0 0 0-1.23 2.344 7.11 7.11 0 0 0-2.12-1.592c-1.61 2.5-1.97 5.001-1.96 7.347.02 5.149.85 10.254 2.06 15.17-2.4-2.861-4.89-5.666-7.47-8.415-.4-3.17-.81-6.373-1.02-9.586-.44-6.561-1.17-13.023-.91-19.705.15-5.293.67-10.807-.26-15.857-.11-.5-1.71-.246-1.8.265-.56 5.348-2.69 11.05-3.83 16.53-1.19 6.226-2.34 12.585-2.32 18.645-4.51-3.931-9.76-7.517-15.3-11.004-3.14-2.028-7.12-3.622-10.82-5.383-.59-.324-4.34-1.796-6.26-2.977a11.99 11.99 0 0 1 6.29-.993c.85.09 1.5-.721.65-.811-2.87-.337-5.33-.273-7.42.091-.03-.1-.16-.211-.45-.145-.7.088-1.5.232-2.2.32-.49.111-1.06.344-1 .611.02.1.14.178.16.244-.28.133-.66.289-.93.489.59.779 1.08 1.58 1.47 2.403a22.868 22.868 0 0 0-3.47 3.866c.55 2.435.63 4.659.96 5.672 1.62 6.262 3.53 12.457 5.53 18.598.34 1.045.68 2.124.92 3.192-3.19-5.452-6.08-10.971-8.79-16.567a51.802 51.802 0 0 1-2.14-4.461c.98-2.079 2.12-4.368 3.52-6.434-.2-1.357-.53-2.825-.95-4.205-.52.433-.94.878-1.44 1.377-.92.978-1.83 1.989-2.64 2.977-.16-2.068.48-3.824 2.4-4.467.68-.221.35-.744-.33-.556-5.53 1.594-3.52 4.121-3.92 6.456-.12.411-.13.8-.15 1.189-4.1 5.655-6.92 11.512-10.05 16.912-1.36 2.233-2.62 4.445-3.97 6.712-1.48-2.437-3.05-4.819-4.91-7.134-.07-.3-.15-.634-.41-.89-1.44-3.638-2.58-7.342-4.02-10.979 1.99-4.023 3.97-8.079 5.85-12.147.27-.622-1.54-.424-1.82.165-1.6 3.022-3.3 6.034-5.2 9.056-.61-1.302-1.22-2.637-2.02-3.894-2.7-4.685-3.83-9.69-10.82-12.711-.78-.279-2.16.486-1.47.788 7.91 3.478 8.4 11.64 9.72 17.479.21 1.391.51 2.759.82 4.127-.55.789-1.08 1.611-1.63 2.4a2.246 2.246 0 0 0-.55-.123c-1.39-.213-2.98.986-1.67 1.287.44.112.88.257 1.13.447-4.42 6.533-8.85 13.032-12.56 19.544-.83 1.378-1.55 2.733-2.28 4.122-1.64 2.823-3.08 5.601-4.62 8.401-2.17-.914-4.44-1.806-6.71-2.698.16-2.98.41-6.016.76-9.04-1.89-.591-3.78-1.183-5.77-1.752-.05-.234-.1-.467-.06-.723-.18-1.257-1.51-7.196-.69-11.376.09-.967.41-1.845.87-2.545.32-.878.74-1.778 1.06-2.656-4.48 1.251-5.33 3.896-6.29 6.074-1.39 2.979-2.38 5.969-3.15 8.948-2.31-.603-4.62-1.206-7.02-1.754 2.94-17.765 6.17-35.597 7.59-53.164.08-.578-1.65-.469-1.82.165-.96 5.858-2.62 11.805-4.48 17.763-3.19 9.759-7.07 19.606-10.26 29.332-.35 1.234-.8 2.457-1.14 3.69-.98-.234-2.06-.413-3.03-.615.12 1.902.23 3.803.45 5.683.33.1.56.19.89.29-.23.789-.47 1.578-.71 2.368.2 1.356.31 2.735.42 4.148a127.48 127.48 0 0 0-.97 12.241c-.74-1.902-1.47-3.771-2.3-5.618-1.92-4.406-4.12-8.678-6.91-12.818-1.08-1.58-2.15-3.127-3.32-4.651-1.48-1.981-3.06-3.94-4.92-5.766-.06.189-.22.4-.28.589-2.71-.548-5.51-1.074-8.41-1.544-.54-.09-1.07-.146-1.5-.225-.02-.1-.03-.166-.25-.222l-2.33-.703c-.45-.146-1.02.054-1.37.343-2.03-.281-4.15-.506-6.26-.697-.57-1.168-1.05-2.392-1.63-3.594-.22-.478-1.69-.146-1.68.376.02 1.012.14 2.002.26 2.992-2.72-.126-5.42-.218-8.1-.143-.07-2.191.1-4.648 2.36-6.558.42-.411-.44-.567-.98-.201-1.63 1.032-2.68 2.321-3.5 3.732-.2.044-.38.155-.46.277-1.7 3.012-2.57 6.013-3.04 8.992-.42 2.724-.44 5.393-.59 7.984-.24 4.892-.99 9.828-1.64 14.775a128.39 128.39 0 0 0-4.76-7.411c-3.05-4.362-6.59-8.581-10.6-12.622-.44-2.424-.89-4.882-1.53-7.262-.1-.467-1.58-.136-1.47.331.23 1.491.36 2.97.49 4.482a134.111 134.111 0 0 0-4.77-4.22c-.13-.078-.5-.345-1-.757a46.077 46.077 0 0 0-1.48 3.523c-.26.689-.53 1.345-.79 2.034 2.8 3.717 5.03 7.634 7.44 11.473a72.29 72.29 0 0 1-1.1 6.136c-.79 4.314-1.79 8.605-2.89 12.918-.67-1.602-1.44-3.215-2.41-4.751.28 1.69.55 3.348.82 5.038-3.57-2.106-7.06-4.3-9.18-6.838.51-2.29 1.13-4.602 1.75-6.914-1.06-1.514-2.14-3.061-3.5-4.508-1.81-2.081-4.33-4.108-5.95-6.233a1.906 1.906 0 0 0-.34-.168c-.5.989-1.01 1.978-1.5 3.001 1.02 3.626 2.93 7.053 3.66 10.779.66 3.359 1.6 6.651 2.66 9.955-2.09-2.371-3.88-4.808-5.08-7.412-.21-.445-1.49-.157-1.48.332-.01 3.191.99 6.228 2.37 9.143-2-2.882-4-5.798-6.47-8.536-.27-.256-.43-.534-.7-.79-.72 2.3-1.44 4.635-2.06 6.913a150.197 150.197 0 0 0-4.22 24.013c-.31 3.225-.52 6.427-.73 9.629-2.07-1.393-4.52-2.63-7.34-3.678-.01-.067-.12-.078-.23-.123.06-.189.02-.356-.02-.522a143.42 143.42 0 0 1-2.59-8.777 612.579 612.579 0 0 0-5.12-18.653c-1.02-3.593-2.77-7.264-3.64-11.101a79.633 79.633 0 0 1-2.94 4.377c.06 1.668.22 3.281.27 4.882.02 2.413.16 4.837.28 7.228.9-1.956 1.82-3.878 2.62-5.812-.16 7.116-.5 14.31-1.56 21.558.14 4.771.88 9.442 2.01 14.024-1.32-1.736-2.64-3.472-3.87-5.264-.48.6-.97 1.2-1.46 1.766l-.53-2.335c.05-.256-.01-.523.04-.779-.09-4.959-.36-9.874-.74-14.767.27-.656.53-1.311.81-1.934 0-.912-.01-1.857-.01-2.768.14-4.448.26-8.962.48-13.499l-.7 1c-.8 1.022-1.6 2.078-2.29 3.144-.62-3.681-1.34-7.34-2.26-10.955-.2-.901-.51-1.813-.81-2.692-.24.789-.56 1.634-.8 2.423-1.91 6.214-3.32 12.35-4.53 18.475l-.49.111c-.01 2.246.07 4.47.06 6.716-2.42 4.401-4.74 8.812-6.86 13.18-1.84-7.263-2.51-14.859-5.13-21.912.71 4.994.83 10.12 1.56 14.758.54 3.314 1.08 6.661 1.62 9.976-2.13-3.027-4.45-6.01-6.97-8.915-.37 5.237-.83 10.529-.24 15.478.11.956.23 1.946.44 2.88-1.39-2.981-2.88-5.941-4.57-8.856-2.89-5.485-6.36-10.805-10.6-15.88-1.24-1.369-2.28-2.782-3.42-4.174-.63.422-1.14.922-1.65 1.422-.1 5.982-.4 12.008-.9 18.045-.11 1.39-.2 2.813-.3 4.203-4.44-4.575-9.08-9.106-13.81-13.582-.54-.579-1.18-1.135-1.63-1.736-.82-.446-1.74-.836-2.56-1.282l.43-.833c-.66-.657-1.23-1.336-1.98-1.937-.31.488-.72.966-1.02 1.455-.57-.256-1.15-.513-1.73-.803.23-.822.46-1.611 1.03-2.334-.02-.066-.04-.166-.16-.211a26.984 26.984 0 0 0-1.99-1.515c-.78.667-1.52 1.533-2 2.622-2.86-1.248-5.9-2.353-9.14-3.413-.67-.234-1.44-.446-2.11-.681-.13 1.746-.44 3.569-.66 5.37.34.134.69.301.94.491 2.49 1.403 4.79 2.918 7 4.455.04-.255-.01-.489-.06-.722.41.434.72.89 1.02 1.346.24.123.37.268.61.39.01.067-.06.189-.05.256-.23 1.245-.48 2.457-.72 3.702-.36 2.535-.53 4.992-.71 7.416-.06.155-.03.322-.09.511-2.26 5.101-5.15 10.202-6.79 15.303-.13.345-.17.634-.3.979-2.08-2.827-3.97-5.698-5.36-8.68-.4-.857-.8-1.713-1.3-2.548-.2 5.549-.7 11.163-1.59 16.833-.01.423-.12.834-.14 1.223-.02-.1-.05-.233-.28-.323a148.013 148.013 0 0 1-8.84-21.393c-.86-2.436-1.41-4.905-1.98-7.407-.85 4.502-1.6 8.982-1.94 13.441-.1 2.301-.2 4.636-.1 6.894l-1.32-1.703c.64-2.702 1.17-5.381 1.41-8.027.69-5.203.19-10.174-.91-15.079a25.218 25.218 0 0 0-2.35-6.307c-.34-.59-3.26-3.929-1.84-4.039 1.02-.054 1.48-.787.72-.933-8.76-2.167-6.88 13.535-6.97 14.503-.33 2.701-.86 5.381-1.5 8.082.14.145.17.278.3.389.75 7.929 1.29 15.869 1.05 23.986-2.44-4.395-5.07-8.746-7.97-12.93-3.23-4.674-6.83-9.226-11.4-13.423-1.58-1.537-3.25-2.984-6.25-3.432.1-.023 1.83 1.692 3.85 3.796 0 0-.02.029-.08.089 1.8 1.558 3.08 3.584 4.11 5.42 0-.456.11-.901.11-1.357 1.61 1.637 2.85 3.006 3.22 3.273 3.44 3.785 5.73 8.002 7.81 12.229l-2.28 6.402c.84 2.37 1.57 4.695 2.32 7.086-1.27-1.046-2.45-2.149-3.72-3.195-.25.722-.51 1.411-.76 2.134-.39 1-.78 2.034-1.08 3.012-1.12-3.148-2.14-6.319-2.97-9.533a161.169 161.169 0 0 1-10.56-10.631c-.12-.078-.13-.145-.16-.245-.1.444-.21.889-.32 1.3a47.178 47.178 0 0 0-.97 5.37c-1.1-2.136-2.4-4.262-3.8-6.331-2-2.916-3.7-7.266-7.44-9.65.6-1.467 1.2-2.934 1.71-4.345-.76-2.003-1.82-3.939-3.45-5.675-1.23-1.369-2.01-2.527-2.93-3.406-.18-.345-.36-.69-.45-1.057-2.02 2.944-3.65 5.833-5.27 8.722-.07.156-.23.367-.3.523-1.4 2.522-2.79 5.078-4.08 7.612-1.43 2.811-2.87 5.623-4.3 8.468-1.15-.969-2.29-1.938-3.53-2.851-.71 2.857-1.5 5.769-2.18 8.237.8.801 1.5 1.625 2.19 2.415a183.069 183.069 0 0 0-5.33 13.537c.02.101-.04.256-.02.356-.09.089-.07.156-.16.211-.52 1.378-1.04 2.757-1.45 4.146-2.42-2.96-5.04-5.877-7.75-8.738-.24-1.979-.38-3.981-.52-5.982-.39-5.416.31-11.042 1.52-16.678.17-.177.43-.411.69-.611 2.01 2.004 4.01 4.008 5.92 6.067-.04-.166.02-.355-.02-.522-.13-2.424-.18-4.937-.03-7.528a1.463 1.463 0 0 1-.48-.279c-.47-.245-.84-.512-1.31-.757.55-.3 1.21-.588 1.77-.854-.07-.334.04-.745.06-1.134-.1.022-.2.044-.29.099-.95.388-1.78.821-2.62 1.22-.72-.468-1.56-.947-2.28-1.414 1.06-3.535 2.93-7.214 7.23-10.144-.01-.033.08-.122.07-.156.2-.5.3-.944.5-1.445-3.26 1.609-5.62 3.508-7.53 5.585-2.93 6.757-4.91 13.582-5.91 20.152-.27 1.568-.44 3.113-.61 4.658-.72-1.379-1.55-2.77-2.28-4.15-.55 2.157-.88 4.336-.96 6.315.02.067.03.133-.06.189-4.66-4.631-9.5-9.151-14.63-13.605-.28-.289-.65-.59-.93-.88a7.3 7.3 0 0 1 4.56-2.285c1.31-.121 1.69-1.188.38-1.067-3.05.23-4.95.973-6.37 2.028-.24-.123-.38-.301-.52-.446.78-3.468 1.65-6.925 2.73-10.393.47-1.612 1.03-3.246 1.6-4.88-1.31-2.581-2.62-5.196-3.92-7.777-1.8 3.49-3.5 6.99-5.09 10.469.85 3.803 2.09 7.485 3.43 11.145-1.63-2.648-3.16-5.318-4.79-7.967-.35.745-.7 1.489-.95 2.212-1.75-2.271-3.63-5.142-1.1-5.361-.26-.256-.44-.568-.7-.824-.3.033-.61.033-.92.066-.31 0-.59.133-.86.299-3.9 2.876.66 7.529 1.89 9.776.02.1.04.201.16.279-1.09 2.978-2.07 5.935-2.86 8.881-.78-1.647-1.27-3.36-1.16-5.172.04-.712-2.09-.548-2.13.197l-.15 2.068c.1 2.78 1 5.383 2.1 7.975-.24.79-.38 1.557-.61 2.346-1.25-3.26-1.87-6.941-3.9-9.99.42.045.85.123 1.38.146.44.145 1.09-.21 1.03-.477-.02-.066-.03-.1-.14-.144-1.99-1.026-1.19-.713-3.8-1.284 3.55 14.871 5.22 30.129 4.6 45.795-.16 3.403-.43 6.827-.79 10.274-1.07-6.139-1.45-12.433-1.32-18.738-.82-2.758-1.44-5.528-2.07-8.297-.99-5.317-1.88-10.655-2.27-16.07-.35-3.882-1.81-8.075-.37-12.221.19-.534 1.34-.966 2.11-.754l.1-.022c-1.37-5.617-2.92-11.156-4.77-16.629-5.55 5.242-5.18 11.925-5.13 16.751.64.557 1.18 1.102 1.31 1.703.71 2.68 1.42 5.361 1.92 8.086 1.03 5.483.27 11.297-.39 17.09-.12.411-.12.867-.22 1.312-.27-1.202-.73-2.325-1.2-3.482-.22-1.457-.35-2.936-.57-4.393-.51-6.372-.9-12.733-.81-19.204.03-.356.04-.745-.04-1.112-1.14-.935-2.58-1.838-3.38-2.606-.37-.267-.99-.268-1.48-.157-.24-.612-.49-1.257-.63-1.891-1.68 4.023-2.76 7.98-3.63 11.926-.55-.612-1.2-1.202-1.74-1.781.07.334-.06.679.01.979.89 12.243 2.34 24.221.45 36.95-.06.645-.22 1.312-.29 1.923.53 4.193 1.25 8.308 2.06 12.401-1.7-3.894-3.8-7.699-5.89-11.504-1.95-3.628-5.04-7.245-9.19-10.063-2.7-1.882-5.14-4.454-9.58-5.382-2.78-4.985-5.17-10.091-7.75-15.12-1.23-2.281-2.08-4.684-3.22-6.987-.2-.445-.63-.946-.97-1.536l-.03-.133c-1.01-1.769-2.24-4.017-1.45-5.562.51-.922-2.04-.803-2.78.064-2.69 3.199-.59 7.038-.74 10.051-.09 2.824.41 5.516 1.11 8.163-3.01-2.372-6.39-4.522-9.69-6.761.91 2.636 1.81 5.273 2.62 7.965 1.05 3.27 1.43 6.795 1.51 10.387.06 3.036-.07 6.115-.12 9.107-.05 5.303-.61 10.651-1.78 15.998.99 4.861 1.59 9.843 2.2 14.858-1.71-1.614-3.32-3.25-4.93-4.92 1.21-3.357 2.12-6.647 2.73-9.938-1.02-4.504-2.23-8.965-4.04-13.359-.66-1.535-1.22-3.126-1.78-4.717a92.968 92.968 0 0 1-5.08 19.264c-4.31-4.886-8.22-9.894-11.47-15.124-2.92-4.707-5.15-9.602-7.29-14.52-.1 1.39 0 2.769 0 4.137.24 8.462.59 16.902.84 25.364-.64.844-1.28 1.689-1.82 2.478-3.54 4.966-6.67 9.91-9.78 14.888-.57-.679-1.04-1.38-1.61-2.059-.86-1.102-1.73-2.204-2.51-3.361l-.04-.167c4.06-4.031 8.88-7.884 14.76-11.169 1.66-.898-.22-1.879-1.88-.98-4.42 2.396-8.5 4.927-12.16 7.536.97-6.738 2.14-13.519 3-20.234.88-6.226 1.35-12.397 2.73-18.666.59-2.446.06-7.584 2.82-11.395-.23-.545-.35-1.112-.58-1.657-.06-.267-.22-.512-.38-.79-8.61 5.405-10.09 14.922-12.29 19.834-2.28 5.068-4.13 10.147-5.68 15.227-.19.077-.48.177-.65.321-3.13 2.176-3.69 4.299-3.63 6.39 0 0-.06.026-.19.077-4.38 2.597-7.63 5.607-10.12 8.795-.71-4.082-1.52-8.141-2.43-12.178-.43-1.48-.76-2.948-1.1-4.45 0 0 .08-.122.07-.155.08-.089.07-.156.15-.245-2.31-1.548-4.73-3.107-7.39-4.367l-.05-.234c.33-3.09.06-6.149-1.37-8.841-.9 2.901-1.39 5.78-1.37 8.616l-.03 4.003-1.67 2.266c-1.59 2.111-3.08 4.2-4.58 6.288.72 1.347 1.62 2.615 2.53 3.884a31.999 31.999 0 0 0-.27 4.336c-.08 2.858-.15 5.749-.13 8.618-.13 2.624-.17 5.225-.2 7.827-.88-.679-1.76-1.358-2.63-2.038-.4-.4-.9-.779-1.4-1.158-1.133-4.582-2.274-9.198-3.317-13.836-3.27 4.766-6.337 9.522-9.086 14.311-1.436-4.549-2.584-9.199-3.529-13.859-1.125-5.005-1.659-10.143-2.489-15.214-.181-.345-.256-.679-.339-1.046-.187-.834-2.746-.259-2.559.576a197.349 197.349 0 0 1 1.907 15.38c-4.209-2.629-8.616-5.214-13.113-7.743-.724-1.38-1.357-2.815-1.982-4.217-2.133-4.428-6.098-8.269-8.707-12.519-.619-.913-3.671.229-3.06 1.108 2.368 4.095 5.085 7.901 7.142 11.995-3.052-2.539-6.293-5-9.633-7.439-1.602-1.147-3.105-2.317-4.805-3.442-2.592-1.871-5.381-3.697-8.162-5.491-1.685-4.739-3.469-9.456-5.254-14.172-.504-1.324-4.44-.439-4.33.973.169 2.591.429 5.127.696 7.696-1.912-1.148-3.824-2.295-5.827-3.387-4.611-2.574-8.926-5.215-13.158-7.944-2.064-1.359-4.091-1.639-7.951-1.333-1.422.11-1.705 1.155-.373 1.101 5.933-.282 6.759 2.932 9.033 4.77 1.897 1.536 4.073 2.94 5.977 4.51 2.939 2.494 6.483 4.922 9.429 7.45.91-1.011 2.364-1.899 4.628-2.408 1.082-.243 1.255.524.187.834-2.922.798-3.729 3.187-3.606 6.034-.915-.39-1.731-.803-2.547-1.215-.185 1.479.047 2.969.09 4.081.216 5.56 1.529 10.943 2.54 16.36-1.808-3.905-3.912-7.744-6.522-11.539-.483-.768-3.391.096-3.006.886 1.432 2.693 2.267 5.485 2.707 8.365-2.601-8.354-5.695-16.597-9.463-24.618a58.086 58.086 0 0 0-3.575-1.65c1.813 12.667 2.333 25.555 4.055 38.278l2.397 16.181c-1.042-.957-2.092-1.948-3.134-2.906-8.422-7.571-16.909-17.266-31.572-21.786-.665-.201-1.65.476-1.174.755 11.202 6.139 16.751 16.109 21.993 24.71a6.07 6.07 0 0 0-2.165.487c-1.062-2.425-2.026-4.873-2.603-7.442-.195-.867-3.049-.226-2.854.642 1.192 5.305 1.689 10.732 2.881 16.037.563 2.503 2.162 5.018 3.943 7.421.195.868.299 1.791.494 2.659-4.842-7.745-9.882-15.446-15.686-22.869a167.51 167.51 0 0 0-8.938-10.785c-1.654-1.837-3.315-3.707-4.968-5.544 1.173 7.519 1.551 15.18 2.225 22.776.261 2.079.423 4.181.782 6.238-2.565-4.05-5.031-8.123-7.694-12.151-3.723-5.695-7.155-11.509-10.354-17.382-.457-.84-2.888.115-3.337-.727-.409-.764 1.144-3.32.713-4.076-1.44-2.525-2.943-5.019-4.155-7.579-.912-1.758-4.499-5.754-2.625-7.998.417-.445-.763-.635-1.279-.169-1.281 1.2-1.003 1.979-.748 3.113 1.053 3.304 1.516 6.74 2.667 10.022 2.845 7.598 5.403 15.295 8.831 22.727.196.412.384.79.58 1.202.289 3.124.979 6.194 2.252 9.098 1.213 2.637 2.812 5.151 4.601 7.589-4.857-4.131-9.707-8.229-14.474-12.415-2.147-4.495-4.499-8.979-7.328-13.286-.166-.278-1.249-.034-1.28.288-.155 2.068.196 4.092.745 6.072-1.292-1.147-2.576-2.26-3.762-3.396-1.556-1.403-3.104-2.772-4.653-4.142l-.127-.567c-.115-3.269-.434-6.527-.344-9.808.111-2.724-2.038-10.443 4.249-13.293.469-.211-.007-.49-.484-.312-7.232 2.782-7.059 10.911-7.663 14.201-.322 1.79-.643 3.58-.866 5.348-3.196-2.577-9.796-7.458-13.059-9.983-1.249-.967-1.602 3.137-2.876 2.181-1.288-.973-.03-4.723-1.276-5.728-2.248-1.813-4.507-3.623-7.064-5.235-2.177-1.403-4.263-2.862-6.439-4.266-2.539-1.638-6.722-2.766-8.791-4.614-.385-.334-1.529.099-1.242.455 2.288 2.36 6.492 4.044 8.893 6.448 3.316 3.251 7.055 6.547 9.31 10.141 1.971 2.983 4.3 5.908 6.78 8.796.507.59 5.093-1.28 5.611-.693.476.54-3.117 3.539-2.635 4.076a533.566 533.566 0 0 0 2.768 3.058c.857 2.892 2.115 5.729 3.555 8.455-.954 4.035-1.409 7.993-2.264 12.006-.336 1.723-.771 3.468-1.115 5.158-2.418-1.559-4.928-3.063-7.437-4.567-.589-.324-1.088-.702-1.678-1.025l-2.879-1.772c-.008-.033-.106-.011-.015-.067-1.172-.612-2.245-1.248-3.318-1.883-.33-1.468.081-2.857 1.831-3.811.932-.455-.097-.89-.937-.491-1.864.91-2.751 2.021-3.117 3.155-.483-.312-1.058-.569-1.64-.859-1.5-2.992-3.106-5.997-4.409-9.034.235.123.461.212.688.301.227.09.704-.088.47-.21-.99-.724-1.7-1.581-2.122-2.538-.24-.612-2.11-.192-2.066.465.29 2.669.481 5.36.672 8.051-2.827-1.082-5.724-2.008-8.969-2.646-.65-.134-1.65.476-1.076.733 4.076 1.572 7.363 3.778 10.37 6.116.441 6.561.89 13.155 1.739 19.695 2.221 2.059 4.267 4.263 5.117 6.666 1.513 4.427.973 9.386.51 14.222-.632 5.47-2.065 11.051-3.9 16.686.143.178.378.301.521.479a96.652 96.652 0 0 1 3.626 3.251c.081.823.163 1.646.237 2.435.133 1.513.259 2.992.385 4.471l31.492-7.08c-2.473-4.562-5.135-9.046-7.896-13.508-.128-4.248-.346-8.44-.376-12.71.559.646 1.118 1.291 1.684 1.97 6.304 7.346 13.653 14.282 22.138 20.753l4.625-1.04c-1.02-.857-2.04-1.715-2.961-2.594-4.857-4.587-9.728-9.241-14.403-13.939-.142-.634.011-1.334-.034-1.99a833.565 833.565 0 0 1 15.138 13.528c1.578 1.503 3.149 2.972 4.72 4.442l14.467-3.252c-.428-1.446-.758-2.914-1.285-4.338-3.277-7.221-5.979-14.64-8.469-22.038 1.556 1.403 3.112 2.806 4.569 4.231 6.776 6.224 13.354 12.492 19.357 18.959l34.15-7.677c-2.284-4.639-4.166-9.334-5.965-14.117 3.036 2.928 6.148 5.733 9.653 8.451.149 1.579.297 3.158.543 4.715l22.144-4.978a555.327 555.327 0 0 0-2.021-3.472c-1.114.566-1.872 1.333-2.184 2.244a69.063 69.063 0 0 0-.488 1.968c-.491-.346-1.074-.636-1.557-.947l-1.477-10.71c-.119-.99-.231-1.946-.252-2.958-.67-5.283-.94-10.62-1.111-15.98 1.456 6.017 3.2 11.935 5.338 17.764 1.016 2.681 2.229 5.318 3.73 7.854.701 1.28 1.395 2.526 2.187 3.75l71.941-16.172c-1.78-2.404-3.75-4.73-5.72-7.056-.03-.59-.07-1.212-.1-1.835 2.59 2.816 5.19 5.632 7.59 8.493l101.76-22.876s.05-.222.03-.322c.02.1.05.2.07.3l68.2-15.332.39-3.769c.86 1.036 1.71 2.071 2.66 3.084l36.51-8.208c-1.55-1.403-3-2.795-4.56-4.198-.11-1.412-.23-2.857-.34-4.27-.34-4.726-.67-9.419-.81-14.189.77-3.012 1.74-6.069 2.61-9.104.12.112.25.223.29.39.21 10.608 2.1 20.84 6.36 30.574l38.97-8.761.96-4.001c-.14-.178-.19-.379-.33-.557l.39-1.033a266.25 266.25 0 0 0 4.41-10.703c.54 2.858.98 5.739 1.32 8.608.24 2.013.39 4.048.53 6.049l61.61-13.849c.37-2.045.73-4.091 1-6.114.52 1.39.94 2.803 1.46 4.193.1.434.39.824.49 1.257l57.97-13.03c-.06-.267-.23-.545-.29-.812.07-.156.13-.345.2-.501l-.05-.2s.12.078.14.145l.88 1.169 16.14-3.629c-.45-4.77-.61-9.608-.57-14.489-1.51-2.57-2.73-5.24-3.95-7.91.96 1.502 1.93 3.037 3.18 4.473.28.323.47.701.75 1.024-.03.812-.05 1.624.02 2.413 1.96 3.661 4.12 7.277 6.66 10.738.55.646 1.02 1.347 1.59 2.026l32.38-7.279c-.04-.623.03-1.234-.01-1.857l.09.4c.11.468.3.879.41 1.346l11.32-2.544a188.4 188.4 0 0 1-8.92-6.548c.08-.123.05-.256.11-.412.53-4.569.95-9.15.98-13.609 4.01 5.409 7.24 11.061 9.9 16.913.43-1.778.86-3.523 1.29-5.302-.26-2.991-.62-5.961-1.18-8.919.93.913 1.75 1.814 2.68 2.727-.56 2.09-1.04 4.124-1.5 6.192.29 2.669.58 5.338.67 8.051l44.98-10.11.82-4.603c.49.768.87 1.558 1.35 2.326-.07.611-.04 1.201-.01 1.79l43.89-9.867-.93-4.138c1.45-2.778 2.88-5.589 4.23-8.345 1.04 3.693 2.77 7.264 4.77 10.669l21.85-4.912c.47-1.155.83-2.289 1.2-3.423 1.54-4.168 3.18-8.358 4.93-12.537l.34.134a69.928 69.928 0 0 1-1.72-6.307c.35-1.167.7-2.367 1.05-3.601 1.04 3.726 2.09 7.486 3.04 11.234 3.28 1.716 6.57 3.466 9.75 5.204.07 1.702.24 3.347.5 5.004l14.87-3.34c-1.14-3.215-2.47-6.352-3.9-9.501l-4.19-2.106c-.48-2.592-.96-5.183-1.25-7.852a29.3 29.3 0 0 1-.62-4.137c-.56-4.782-4.16-11.614 3.54-16.886.72-.511-.59-.779-1.31-.302-5.22 3.419-6.28 8.388-6.64 11.834-.02.39-.04.745-.15 1.157-.27 2.479-.53 5.025-.69 7.516-1.74-2.66-5.43-7.612-1.18-10.743-.32-.523-.65-1.08-.88-1.625.43-.866.75-1.711 1.08-2.556 2.8-6.412 5.51-12.77 8.11-19.138.33 1.468.76 2.948 1.1 4.449 3.36 12.636 8.68 24.34 17.2 35.569.85 1.035 1.7 2.037 2.65 3.05.31.456.72.923 1.13 1.358-.16.667-.33 1.3-.49 1.967.07.756.22 1.457.39 2.191.19.834.28 1.691.46 2.525l21.06-4.735c-2.1-1.559-4.02-3.196-6.04-4.81-.75-.602-1.51-1.203-2.17-1.86-.07.189-.12.412-.18.6-.08-.367-.17-.734-.35-1.078-.36-.234-.62-.49-.9-.78-.19-1.323-.38-2.613-.57-3.937.56 1.558 1.02 3.137 1.47 4.717.15.178.39.334.53.478 3.12-9.992 5.29-20.12 4.23-29.45 2.57 3.172 4.95 6.388 7.33 9.605 2.24 8.119 4.17 16.239 5.12 24.613l13.09-2.943c.9-5.636 1.81-11.239 2.41-16.843.55-5.381.99-10.807.53-16.067 1.83 4.951 4.55 9.669 7.35 14.297 2.94 4.807 6.16 9.481 9.39 14.189l13.09-2.943c-2.72-7.976-4.46-16.139-5.91-24.436.78-3.891 1.55-7.815 2.43-11.728 3.12 8.832 9.41 17.024 16.51 24.682.05-.222.2-.467.26-.689-.25-1.557-.49-3.114-.64-4.66-1.05-6.528-1.6-13.134-1.86-19.806 3.12 2.873 5.52 6.189 7.53 9.594 1.43-5.613 2.44-11.205 2.87-16.664l-.1-.434c1.32 10.009 3.74 19.841 6.25 29.618.42-1.323.76-2.59 1.09-3.891 2.89-13.795 2.69-26.649.32-39.506-.34-1.502-.58-3.025-.91-4.494 4.98 4.665 10.24 9.23 15.52 13.829.65.623 1.31 1.247 2.07 1.848.02.589-.04 1.234-.11 1.846 5.19 1.007 3.97 7.065 3.54 10.212-1.21-2.181-2.53-4.373-3.84-6.499-.25 2.546-.5 5.126-.85 7.694-.06.678-.21 1.379-.27 2.057.88 2.536 1.56 5.083 2.24 7.63l-2.89 3.7c.05 3.458.19 6.86.54 10.252l14.96-3.362c-.56-1.591-1.12-3.149-1.78-4.717 2.13-2.933 4.35-5.922 6.58-8.877-.74-3.792-1.4-7.641-2.05-11.455.83.968 1.66 1.903 2.49 2.805.48 2.135.86 4.293 1.14 6.439l.25-.266c3.36 3.028 6.64 6.112 9.82 9.218.82.868 1.63 1.737 2.55 2.583l16.04-3.606c-.64-.557-1.19-1.136-1.82-1.659 1.75-5.547 3.2-11.06 4.34-16.541.59-2.901 1.09-5.747 1.38-8.582-1.22-.847-2.35-1.716-3.47-2.584-1.26 4.98-3.23 10.015-5.1 15.061-.14.277-.19.533-.33.811-.02 1.267-.25 2.579-.47 3.891-.23 1.279-.55 2.613-.78 3.891-.1-.011-.12-.078-.23-.089-1.01-.824-4.75-3.664-9.31-7.405-.03-.134-.07-.301-.2-.412-1.63-1.281-3.36-2.539-4.89-3.842.82-.922 1.54-1.855 2.46-2.833-.1-.433-.2-.901-.49-1.29-1.19-2.993-2.66-5.852-4.24-8.723-.54-1.034-1.09-2.102-1.74-3.148l-.02-.067c-.81-1.324-1.53-2.704-2.35-4.028 2.71 1.46 4.5 3.441 6.06 5.333.68-.644 1.26-1.266 1.95-1.91 1.86-1.821 3.73-3.643 5.7-5.453-1.24-.913-2.58-1.804-3.82-2.718-6.13-4.299-12.92-8.276-19.72-12.287l.29-.1Zm-628.64 140.057c-.17-.767-.36-1.568-.63-2.347-.67-2.514-1.54-4.983-2.49-7.397 2.11 2.96 2.96 6.275 3.12 9.744ZM819.469 555.845c-.1.934-.2 1.868-.202 2.78-1.383-1.091-3.007-2.339-4.654-3.686-1.413-8.586-3.614-16.995-6.109-25.337-.677-2.091-1.256-4.205-1.932-6.296-.617-1.824-1.242-3.682-1.957-5.484 1.749 3.182 3.695 6.32 5.452 9.536 1.35 2.325 2.707 4.684 4.156 6.988a179.985 179.985 0 0 0 6.02 8.846c-.189 4.215-.478 8.451-.774 12.653Zm4.662-50.087c-.005-.945-.109-1.868-.115-2.813.151.211.309.456.46.667-.069.612-.237 1.246-.306 1.857l.06.267-.099.022Zm10.462 20.783c-.069-3.525-.145-7.083-.312-10.586.174.312.445.601.717.891 2.952 3.472 6.192 6.845 9.62 10.141.676 3.003 1.358 6.039 2.23 8.998-3.928-3.218-7.948-6.381-12.255-9.444Zm71.108-12.059c-.593-2.18-1.096-4.415-1.697-6.629 3.629 5.564 7.545 11.028 11.265 16.537-3.505-3.173-6.73-6.48-9.568-9.908Zm40.554-43.573c1.028.89 1.957 1.803 2.976 2.661 3.845 3.762 7.598 7.581 11.359 11.432-1.375 2.623-2.962 5.223-4.261 7.723l-1.071 2.134a1136.788 1136.788 0 0 1-9.759-24.096c.31 0 .537.09.756.146Zm-17.914-13.465c1.043.502 1.98.992 3.024 1.494 1.133 8.263 2.562 16.459 4.575 24.49-1.376-4.739-2.744-9.444-4.119-14.182-.466-1.613-3.179-7.243-3.48-11.802Zm33.569 52.289c-.392-.823-.693-1.702-1.092-2.558.076-.123.046-.256.023-.356.151.211.295.389.332.556.761 1.547 1.712 3.016 2.663 4.485l-.433.833c-.06-.267-.31-.456-.468-.701-.279-.779-.648-1.502-1.025-2.259Zm14.447 21.956c-2.958-3.962-5.629-8.024-8.299-12.085l-.075-.334c.129-.345.167-.634.198-.956 2.748 3.483 5.685 6.889 8.417 10.306-.078 1.034-.261 2.057-.339 3.091l.098-.022Zm-4.929-25.147c.29-1.011.579-2.023.975-3.023.692 1.702 1.385 3.404 1.98 5.128-.763-.634-1.852-1.336-2.955-2.105Zm55.362-26.01c.25.223.61.423.87.646 1.11.835 2.22 1.637 3.44 2.45-.07.156-.04.289-.1.478-1.14-.935-2.27-1.837-3.41-2.772-.65-.557-1.39-1.125-2.04-1.682.38.301.86.579 1.24.88Zm-22.54 28.517-.44-1.968c.25.222.42.5.68.756l.02 1.468s-.14-.178-.26-.256Zm57.73 2.025c-1.13-1.814-2.35-3.572-3.48-5.386l3.94-7.301c-.09 4.225-.27 8.473-.46 12.687Zm64.3-25.777c-.16-1.19-.33-2.414-.5-3.637.6.846 1.2 1.692 1.71 2.559-.45.311-.88.689-1.21 1.078Zm-.46-11.71c-3.04-6.641-5.99-13.305-9.52-19.803 3.09 2.216 4.81 5.754 5.57 7.756 1.6 3.883 3.07 7.654 3.97 11.692.03.1-.04.255-.02.355Zm46.33-38.596c.46.701.83 1.424 1.4 2.103l.03.133c2.39 3.739 5.08 7.412 7.86 11.029-.96-1.013-1.9-1.993-2.75-3.028a33.399 33.399 0 0 1-3.2-4.084c-1.16-1.492-2.12-3.027-3-4.618l-.34-1.535Zm68.58 8.453c-.32-1.891-.63-3.748-1.05-5.583-1-5.839-2.78-11.468-3.87-17.251l-.09-.367 1.65-3.734c1.74 3.149 2.3 7.019 3.3 10.089 1.62 4.438 2.74 8.988 3.87 13.537.97 3.426 1.85 6.874 2.72 10.288-1.98-2.393-4.26-4.719-6.53-6.979Zm53.22 9.525c-.56-.646-1.64-.858-2.87-.793l.69-5.203c1.51 3.026 3.21 5.975 5 8.901-.94-.979-1.88-1.926-2.82-2.905Zm33.75-32.44c-.24-1.068-.28-2.18-.43-3.27-.3-3.192-.7-6.361-1.11-9.564-.23-1.49-.37-3.036-.61-4.526-.01-.067-.03-.134.07-.189a94.48 94.48 0 0 1 5.48 5.077c-.53 1.311-1.07 2.623-1.4 3.89-1 2.923-1.6 5.758-2 8.582Zm36.29 8.282c-.15-.212-.3-.39-.45-.601.01-.423.03-.812.04-1.235.2.445.4.89.71 1.313-.17.178-.23.367-.3.523Zm76.1-39.507c-.59-1.269-1.19-2.537-1.88-3.783.58.746 1.05 1.48 1.64 2.226.11.5.13 1.056.24 1.557Zm3.93 4.13c-.44-1.024-.88-2.081-1.22-3.126.01.033.12.078.23.089 1.13.446 1.29 1.603.99 3.037Zm15.64-28.826c1.93 3.983 3.67 8.044 5.12 12.171.38-.122.69-.122.93.001 3.13 1.961 3.29 4.062 1.59 7.074.62 1.824 1.13 3.637 1.74 5.461-1.22-.846-2.44-1.693-3.57-2.561.52-.889 1.15-1.767 1.68-2.656.08-.089.07-.155.15-.244a96.911 96.911 0 0 0-2.52-7.075c-.49.144-.93.488-.67.711 2.59 1.837 1.57 4.694-.73 7.771-.28-.289-.64-.523-1-.757-.28-2.18-.67-4.371-1.16-6.54-.41-1.835-1.02-3.592-1.72-5.328.12-2.69.14-5.359.16-8.028Zm42.95-22.377c1.55 1.403 2.83 2.939 3.72 4.596-.51-.412-1.22-.813-2.01-1.125-.58-.256-1.78.365-1.2.655 8.44 3.957 5.9 11.048 4.58 17.618-.64 3.58-1.59 7.192-2.63 10.827-.15-2.035-.39-4.014-.83-5.983-2.02-9.921-6.51-19.289-10.79-28.667 3.14.593 6.19 1.308 9.16 2.079Zm-20.7 8.193c-.31-3.225-.77-6.662-.49-9.986 0-.489-.03-1.045-.06-1.635 2.82.104 5.56.329 8.13.733.58 5.794 1.66 11.51 2.34 17.315-.25-1.134-.8-2.202-1.72-3.048-2.06-1.815-4.44-2.296-7.98-1.922-.1-.467-.21-.968-.22-1.457Zm.3 2.246c1.92-.187 3.42.071 4.11 1.284.83 1.391 1.24 3.226 1.29 4.827.2 2.725.49 5.394.58 8.107.02 2.835-.06 5.693-.44 8.583-.06 1.135-.21 2.291-.37 3.414-2.17-8.732-5.02-17.275-8.17-25.751.98-.222 2.08-.398 3-.464Zm22.95 53.8c-.31 1.401-.52 2.78-.82 4.18-.29-.356-.48-.734-.76-1.057.74-2.267 1.56-4.557 2.2-6.802-.14 1.223-.39 2.434-.62 3.679Zm92.66-48.627c-.25-2.047-.51-4.093-.77-6.172.38 1.668.84 3.281 1.21 4.916-.11.411-.33.844-.44 1.256Zm-11.74-7.175c1.3-2.923 2.59-5.912 4-8.857-.62 3.224-1.53 6.547-1.74 9.749-.02.356-.05.678-.07 1.034 1.32-1.944 3.36-3.876 6.29-5.552 1.01-.577 2.18.003 1.17.58-4.66 2.729-6.89 6.141-7.87 9.62.17-1.546.24-3.102.41-4.648-1.83 2.478-2.59 5.034-3.3 7.435-.79-.312-1.68-.602-2.47-.881 1.23-2.834 2.45-5.668 3.58-8.48Zm1.24 10.131c.05-1.134.21-2.29.56-3.491-.14 1.223-.18 2.424-.23 3.592-.11-.045-.22-.056-.33-.101Zm-24.06 17.607a43.5 43.5 0 0 1 .09-5.103c.39.823.88 1.591 1.36 2.359-.42.9-.93 1.822-1.45 2.744Zm11.39-1.298c1.31-2.923 2.71-5.902 3.91-8.836 1.47.58 2.95 1.194 4.43 1.807-.55 3.98-.8 7.927-.86 11.797.02 1.923.03 3.814.15 5.715-1.29-1.113-2.49-2.316-3.68-3.485-1.55-2.281-2.8-4.629-3.95-6.998Zm13.67 1.939s-.07.156-.15.245c-.24-2.436-.48-4.871-.62-7.362 0 .033 0 .033.01.067 1.25.491 2.3 1.025 3.44 1.505-.83 1.834-1.85 3.712-2.78 5.567l.1-.022Zm20.12-9.85c-.69-.301-1.39-.636-2.07-.937.27-.622.53-1.278.81-1.9.56 1.135.99 2.092 1.23 2.737l.03.1Zm169.3-58.145c.66 1.991 1.3 3.949 1.95 5.907-.28-.323-.66-.624-.94-.947-.36-1.635-.63-3.292-1.01-4.96Zm-2.79 20.712-.02-.1c-.15-.667-.08-1.735-.05-3.002.51.445 1.03.924 1.54 1.369-.49.567-.97 1.167-1.47 1.733Z"/><path d="M1020.58 444.677c-2.02-.73-3.73-.32-5.18-1.211-1.48-.917-2.44-2.173-2.6-3.9-.15-1.736.83-2.903 2.41-3.232 1.43-.294 1.63-1.3 2.2-2.36 2.13-3.909 4.82-3.936 7.32-.249.84 1.237 1.68 2.537 1.76 4.024.17 2.761 1.83 4.194 4.04 5.343 2.35 1.229 4.59 2.689 6.38 4.693 1.45 1.62 1.12 2.537-1.06 2.965-.99.196-2.07.294-3.06.125-1.92-.321-3.63-.419-5.49.632-2.25 1.273-4.26-.169-6.05-1.496-1.83-1.363-1.99-3.17-.68-5.343l.01.009Z"/></g><path d="M1260.03 334c-.79-.13-1.81-.183-2.17-1.018-.45-1.042-1.22-1.176-2.07-1.419-.82-.232-1.53-.722-2.15-1.331-1.18-1.147-1.16-1.597.21-2.405 1.48-.88 3.11-1.415 4.81-1.322 1.78.098 2.84-.795 3.64-2.263.88-1.642 2.2-2.806 3.71-3.767 1.23-.791 1.59-.641 2.1.807.35.985.42 1.971-.08 2.936-.37.706-.37 1.253.2 1.975.85 1.079.68 2.251-.19 3.301-.95 1.156-2.38 1.529-3.59.937-.86-.426-1.18-.239-1.29.771-.2 1.788-1.34 2.822-3.13 2.794V334ZM1419.53 14.353s-13.22 27.657-14.67 40.752c-1.45 13.096 7.66 25.687 1.33 38.184-6.34 12.497-20.89 42.456-25.44 47.432-4.55 4.977-10.15 13.224-10.15 13.224s11.8 1.323 17.13-3.292c5.33-4.616 21.21-19.968 21.21-19.968s-12.07 25.894-17.11 31.477c-5.04 5.584-10.31 19.41-10.31 19.41s11.9-2.803 15.04-8.021c3.14-5.218 24.26-44.644 24.26-44.644s3.34 26.602 4.66 31.394c2.84 10.293 7.84 19.504 7.84 19.504.14-9.035-.53-18.065-1.99-26.982-2.43-14.905.85-28.294.85-28.294l8.49 10.843c4.86 6.175 9.79 11.965 13.33 14.84a119.857 119.857 0 0 0 18.43 12.338s-13.39-17.922-16.19-25.072c-2.8-7.151-2.47-19.523-6-29.085-3.53-9.562-14.35-23.377-14.35-23.377l15.59 7.24s-14.32-18.769-20.15-24.823c-5.82-6.055-16.42-16.826-11.2-28.592 5.21-11.766-.6-24.488-.6-24.488Z" fill="#111113"/><path d="M1417.43 2.798s-1.28 33.588-9.22 46.244c-7.95 12.657-15.55 31.158-15.55 31.158s16.92-15.832 18.63-20.612l1.69-4.781s-1.06 22.882-.69 30.43l.37 7.551s3.2-24.814 6.92-30.217l3.73-5.401s7.28 19.468 9.39 23.936l2.09 4.466s-2.3-18.022-2.38-23.104c-.07-5.082-2.3-9.934-2.3-9.934l13.21 7.44s-16.75-14.438-18.46-27.53c-1.72-13.092-7.43-29.646-7.43-29.646ZM1416.39 118.818s-23.74 57.951-47.47 77.233c-23.73 19.282-43.23 35.67-43.23 35.67s12.88-1.706 21.04-4.475c0 0-8.88 7.354-12.32 11.193-3.44 3.839-6.29 12.135-6.29 12.135s12.03-3.131 16.38-5.041c4.35-1.91 16.2-6.537 16.2-6.537s-2.67 9.796 2.18 11.849c4.86 2.053 15.55.558 17.68-1.65 2.13-2.208 20.01-10.926 25.08-17.406 5.06-6.48 12.71-18.257 14.33-15.895 1.61 2.362-8.39 21.369-7.37 29.307a57.332 57.332 0 0 0 3.79 14.215s10.78-18.084 10.07-23.535c-.7-5.452 2.72-18.329 2.72-18.329s8.12 15.823 12 20.472c3.88 4.649 10.93 8.522 10.93 8.522s-6.13-17.006-6.05-21.531c.07-4.524-.29-27.589-.29-27.589s10.08 17.135 15.57 24.157c5.49 7.023 17.24 27.013 17.24 27.013s-6.69-26.493-8.81-32.822c-2.13-6.33-4.32-13.156-4.32-13.156s11.17 10.511 19.9 17.225c8.72 6.713 26.55 33.153 26.55 33.153s-8.68-31.827-16.96-40.093c-8.27-8.266-28.26-36.228-28.26-36.228s11.6 8.665 14.74 7.61l3.14-1.044s-29.43-12.308-41.46-53.373l-26.71-11.05Z" fill="#111113"/><path d="M1392.52 230.218s-31.68 55.853-34.58 62.615c-2.9 6.763-13.92 17.112-18.63 26.569-4.72 9.456-33.14 39.181-33.14 39.181s15.8-5.93 19.48-8.612c3.69-2.683 12.62-9.524 12.62-9.524s-7.52 11.185-8.39 13.288c-.86 2.102-9.78 10.488-9.57 12.756.21 2.268-2.11 12.392-2.11 12.392s4.57-9.419 7.9-11.646c3.33-2.226 9.88-7.037 12.98-9.984 3.1-2.946 16.61-20.755 16.61-20.755s-5 19.154-6.56 22.172c-1.56 3.018-4.58 9.415-5.33 14.953 0 0 3.43-4.555 10.28-7.885 6.85-3.331 15.29-8.511 15.29-8.511l3.35 10.504c1.51 4.705 9.94 15.326 9.94 15.326s-2.71-16.419.3-22.823c3.01-6.405 12.74-26.523 12.74-26.523s1.99 8.853 3.13 18.26a44.129 44.129 0 0 0 5.08 15.933s2.22-20.51 5.1-25.728c2.88-5.218 3.48-14.983 3.48-14.983s2.93 10.202 5.08 15.932c2.16 5.731 12.27 13.695 17.54 20.722 5.26 7.026 13.67 9.546 13.67 9.546s-4.43-10.665 1.44-19.191c5.86-8.526 3.25-16.102 3.25-16.102s4.59 13.34 5.22 16.309l.63 2.954s6.47-9.796 10.06-14.4c3.58-4.603 4.51-15.962 4.51-15.962s7.74 8.443 8.55 10.978c.81 2.536 12.14 6.405 18.84 13.122l6.69 6.733s-6.02-15.741-10.47-23.321c-4.45-7.58-5.82-11.924-5.82-11.924l8.65 11.344s3.42-13.043 3.79-15.044c.37-2 3.01-7.949 6.45-8.266 3.45-.316 5.23-2.61 18.43 2.4 13.21 5.011 27.31 6.367 27.31 6.367s-30.49-15.367-36.06-23.87c-5.58-8.504-63.35-80.395-76.78-89.222-13.43-8.827-50.95 23.92-50.95 23.92Z" fill="#111113"/><path d="M1380.5 326.666s-17.28 29.858-18.17 38.229c-.88 8.371-19.15 17.854-37.76 36.168-18.61 18.313-22.26 30.697-22.26 30.697s20.02-12.433 25.99-16.984c5.96-4.551 16.2-11.558 16.2-11.558s-12.65 18.758-15.96 23.584c-3.31 4.826-5.59 12.576-5.59 12.576s11.34-8.594 16.79-12.112c5.45-3.519 14.84-11.932 14.84-11.932l1.6 12.406s7-6.683 13.74-10.323c0 0-2.35 12.271 1.59 17.429 3.95 5.157 4.93-2.468 11.8-10.142 6.88-7.675 19.62-19.908 19.62-19.908s-1.09 12.655 1.92 14.889c3 2.235 12.92 7.829 15.81 15.093 2.89 7.264 7.29 15.891 7.29 15.891s5.01-22.062 5.81-31.172c.79-9.11 3.61-17.914 3.61-17.914s6.82 12.432 7 18.931c.18 6.499 2.3 17.361 2.3 17.361s14.79-16.954 12.61-28.795c-2.18-11.841-3.56-27.785-3.56-27.785s17.18 16.471 18 27.943a153.64 153.64 0 0 0 2.52 19.35s9.13-20.435 8.37-26.372c-.76-5.938-2.05-15.877-2.05-15.877s7.55 12.851 14.67 22.229c7.11 9.377 25.98 18.641 25.98 18.641s-9.88-15.646-11.62-24.021a27.155 27.155 0 0 1 1.32-15.187s13.58 8.774 18.11 13.374a51.194 51.194 0 0 0 8.79 7.211s-12.66-11.875-11.33-27.05c1.32-15.175-52.98-75.41-52.98-75.41l-95.27 18.431" fill="#111113"/><g clip-path="url(#clip2_1862_29289)"><path d="M1572.27 471.25c.24-.304.59-.61 1.19-.874 1.43-.747-.74-1.761-2.29-1.099-.23.088-.47.22-.59.308-.85-.812-1.69-1.666-2.54-2.477-.02-1.768-.15-3.534-.17-5.302-.07-7.546-1.73-17.706 6.35-24.254.83-.611-1.09-1.11-1.81-.543-7.24 5.72-7.18 12.188-9.03 18.717-.58 1.774-.92 3.589-1.26 5.36-3.03-3.162-5.93-6.367-8.48-9.62-.48-.642-2.63-.362-2.15.323 3.28 4.453 6.67 8.861 9.95 13.228-.55 4.878-.87 9.754-1.54 14.633-.11.389-.11.82-.22 1.21-1.53 3.378-2.69 6.753-3.73 10.17-2.18-2.394-4.24-4.745-6.42-7.096-5.08-5.728-9.93-12.106-16.21-17.866-.01-.475-.25-.947-.49-1.419-1.11-2.749.53-6.43-6.29-6.795-.84-.034-1.07.701-.24.779 2.4.235 3.62 2.207 4 4.791-1.21-.98-2.41-1.96-3.86-2.895-.72-.467-1.32-.893-2.05-1.274-.22 1.814-.2 3.711-.06 5.434-1.57-1.451-3.26-2.771-5.19-3.787.23-1.123.7-2.249 1.05-3.374a10.29 10.29 0 0 0-1.08-.291l-.01-.345c.12-.346-.6-.511-1.2-.462-.95.095-1.79.146-2.63.241-.36.003-.47.177-.47.306-2.52.154-5.38.786-8.6 2.025-.96.354-.11 1.165.96.81 2.63-.975 5.14-1.085 7.54-.591-1.9 2.002-5.82 4.886-6.41 5.453-3.8 3.228-7.96 6.33-11.16 9.725-5.33 5.873-10.42 11.788-14.55 17.908-1.62-7.444-4.69-14.917-7.87-22.217-2.7-6.399-6.71-12.785-8.81-19.189-.24-.602-2.28-.453-2.15.193.3 6.465 2.4 13.086 4.02 19.538 2.11 8.13 3.03 16.271 4.31 24.451.64 4.004 1.04 8.054 1.43 12.061a268.253 268.253 0 0 0-6.34 12.481c.06-6.383-.36-12.89-1.74-19.216-.63-2.883-1.74-5.847-4.27-8.453-.95.829-1.54 1.697-2.01 2.564-.49-.858-1.1-1.714-2.06-2.524-2.49 2.654-3.54 5.64-4.11 8.535-1.25 6.351-1.55 12.865-1.37 19.246a257.526 257.526 0 0 0-6.58-12.355c.32-4.014.64-8.07 1.2-12.086 1.11-8.204 1.87-16.362 3.83-24.531 1.49-6.483 3.46-13.143 3.64-19.613-.01-.646-1.93-.757-2.16-.151-1.97 6.444-5.86 12.907-8.55 19.359-2.92 7.359-5.84 14.891-7.32 22.366-4.25-6.039-9.45-11.853-15.02-17.62-3.14-3.333-7.36-6.353-11.22-9.507-.6-.554-4.58-3.361-6.52-5.326 2.39-.541 4.91-.479 7.55.444.96.335 1.91-.493.95-.829-3.24-1.176-6.12-1.751-8.64-1.856 0-.129-.12-.301-.48-.297-.84-.078-1.8-.112-2.63-.19-.6.006-1.32.142-1.32.487.01.129.13.258.13.344-.36.09-.84.18-1.2.356.49 1.117.86 2.234 1.11 3.353-1.78 1.053-3.44 2.362-4.99 3.844.03 3.147-.42 5.911-.28 7.247.31 8.147.99 16.29 1.79 24.389.13 1.379.27 2.801.28 4.181-2.35-7.567-4.34-15.137-6.09-22.752a66.63 66.63 0 0 1-1.37-6.067c1.65-2.302 3.54-4.821 5.67-6.998.11-1.726.09-3.623-.05-5.433-.71.395-1.31.832-2.02 1.313-1.31.962-2.62 1.966-3.8 2.97.33-2.591 1.51-4.586 3.9-4.868.84-.095.59-.825-.25-.774-6.81.498-5.1 4.147-6.15 6.917-.24.476-.35.952-.47 1.427-6.16 5.882-10.89 12.353-15.86 18.18-2.13 2.393-4.14 4.784-6.27 7.22-1.11-3.396-2.34-6.748-3.93-10.096-.01-.388-.01-.819-.25-1.205-.77-4.865-1.18-9.734-1.94-14.599 3.31-4.431 6.61-8.905 9.8-13.42.47-.695-1.68-.933-2.15-.281-2.61 3.302-5.33 6.563-8.29 9.783-.37-1.764-.75-3.572-1.37-5.334-1.98-6.492-2.04-12.959-9.39-18.536-.85-.553-2.64.025-1.91.579 8.32 6.387 6.86 16.578 6.93 24.123-.1 1.769-.08 3.537-.06 5.305-.83.828-1.66 1.698-2.49 2.525a2.694 2.694 0 0 0-.6-.295c-1.57-.632-3.71.424-2.27 1.143.49.254.97.551 1.21.85-6.76 6.88-13.51 13.716-19.43 20.759-1.3 1.479-2.48 2.957-3.66 4.478-2.61 3.044-4.97 6.085-7.46 9.128-2.29-1.702-4.7-3.404-7.11-5.105a180.02 180.02 0 0 1 3.13-10.94c-2.05-1.231-4.1-2.461-6.26-3.691-.01-.302-.01-.603.11-.906.1-1.597.03-9.272 2.01-14.207.35-1.168.94-2.165 1.65-2.905.59-.998 1.3-1.997 1.89-2.994-5.51.355-7.15 3.39-8.8 5.821-2.37 3.3-4.6 41.16-6.24 44.625-33.48-17.955-12.38-25.694-16.3-48.113-.71 1.43-1.53 2.817-2.23 4.247-1.09-.55-2.29-1.055-3.37-1.562-.34 2.375-.67 4.75-.89 7.124.36.212.6.382.96.594-.47.91-.94 1.82-1.4 2.73-.11 1.726-.33 3.453-.55 5.223a167.593 167.593 0 0 0-4.17 14.832c-.38-2.54-.76-5.038-1.27-7.534-1.13-5.94-2.63-11.79-4.84-17.633-.86-2.234-1.72-4.424-2.7-6.614-1.22-2.834-2.56-5.667-4.27-8.41-.11.216-.35.434-.47.651a252.159 252.159 0 0 0-9.38-4.134c-.6-.253-1.2-.463-1.68-.674 0-.129 0-.215-.24-.342l-2.53-1.485c-.48-.297-1.2-.204-1.67.06-2.29-.884-4.69-1.723-7.09-2.518-.38-1.592-.63-3.228-1.01-4.863-.12-.646-1.92-.628-2.03.019-.23 1.253-.34 2.505-.44 3.756-3.12-.875-6.24-1.707-9.36-2.323.45-2.721 1.26-5.704 4.35-7.46.6-.393-.36-.815-1.08-.506-2.14.84-3.69 2.149-4.99 3.671-.24.002-.48.09-.6.221-2.72 3.261-4.48 6.728-5.76 10.276-1.17 3.246-1.85 6.53-2.66 9.686-1.5 5.965-3.59 11.85-5.57 17.777a168.053 168.053 0 0 0-3.69-10.399c-2.46-6.186-5.51-12.323-9.16-18.367.09-3.106.18-6.255.03-9.358-.01-.603-1.8-.586-1.8.018-.1 1.898-.32 3.754-.54 5.654-1.46-2.185-2.91-4.327-4.49-6.468-.12-.128-5.95-8.786-6.44-9.428-1.11 1.534-.72 5.145.36 9.549.19.789 3.21.484 3.44 1.316.16.553-2.48 2.232-2.31 2.797 1.73 5.816 4.14 12.24 5.75 16.932a87.177 87.177 0 0 1-2.8 7.271c-1.98 5.108-4.21 10.132-6.55 15.157-.38-2.152-.88-4.347-1.62-6.495l-.3 6.428c-3.62-3.544-7.13-7.175-8.96-10.866 1.17-2.685 2.46-5.371 3.75-8.057-.86-2.148-1.72-4.339-2.94-6.483-1.58-3.046-4.01-6.213-5.35-9.262-.12-.128-.25-.213-.37-.298-.82 1.086-1.65 2.172-2.48 3.301.29 4.741 1.65 9.471 1.58 14.258-.08 4.313.2 8.623.6 12.974-1.83-3.475-3.3-6.953-4.05-10.482-.12-.603-1.68-.587-1.79.017-.8 3.932-.4 7.939.47 11.898-1.59-4.081-3.19-8.206-5.38-12.238-.25-.385-.37-.772-.61-1.158-1.41 2.644-2.82 5.332-4.12 7.975a202.749 202.749 0 0 0-4.72 10.833c-.68 1.687 6.82 7.361 6.19 9.05-.7 1.91-9.53-.166-10.16 1.742-.77 2.288-1.49 4.574-2.16 6.855-1.16 3.892-2.2 7.783-3.24 11.675-2.05-2.266-4.59-4.44-7.6-6.481 0-.086-.12-.128-.24-.213.12-.217.11-.432.11-.648-.39-3.834-.67-7.669-.83-11.505-.32-8.147-.76-16.25-1.31-24.351-.29-4.698-1.42-9.689-1.46-14.648a95.136 95.136 0 0 1-4.51 4.615c-.34 2.073-.56 4.102-.9 6.089-.56 2.981-1.01 6.004-1.46 8.984 1.53-2.171 3.07-4.299 4.48-6.469-1.95 8.73-4.14 17.505-7.16 26.159-1.02 5.917-1.32 11.871-1.15 17.82-1.1-2.49-2.2-4.98-3.18-7.515-.71.611-1.43 1.221-2.14 1.789l-.03-3.018c.12-.303.12-.648.23-.951 1.14-6.135 2.04-12.267 2.81-18.398.48-.737.95-1.475 1.42-2.17.23-1.123.46-2.289.68-3.413 1.27-5.446 2.53-10.978 3.91-16.511l-1.06 1.046c-1.19 1.046-2.38 2.136-3.44 3.267.19-4.702.26-9.403.1-14.101-.01-1.165-.14-2.371-.28-3.534-.47.91-1.05 1.865-1.52 2.775-3.77 7.152-6.93 14.341-9.85 21.571l-.6.006c-.57 2.765-1.02 5.529-1.59 8.295-3.9 4.781-7.69 9.605-11.23 14.426-.33-9.44.77-18.981-.52-28.369-.41 6.343-1.55 12.693-1.85 18.603-.2 4.228-.4 8.499-.59 12.727a145.8 145.8 0 0 0-5.88-12.836c-1.73 6.356-3.58 12.756-4.12 19.014-.11 1.209-.21 2.46-.2 3.667-.88-4.044-1.88-8.088-3.11-12.13-1.99-7.526-4.7-15.003-8.36-22.384-1.1-2.016-1.96-4.035-2.93-6.052-.84.353-1.55.834-2.26 1.316a368.986 368.986 0 0 1-5.53 22.003c-.47 1.686-.93 3.416-1.39 5.102-4.02-6.817-8.27-13.632-12.65-20.403-.49-.857-1.09-1.714-1.46-2.573-.85-.768-1.81-1.491-2.66-2.259l.71-.913c-.6-.986-1.09-1.973-1.82-2.914-.47.522-1.07 1.002-1.54 1.524-.6-.468-1.21-.937-1.81-1.448.47-.954.94-1.864 1.77-2.605 0-.086 0-.216-.12-.301a37.064 37.064 0 0 0-1.94-2.396c-1.07.615-2.14 1.488-2.97 2.703-3.01-2.299-6.27-4.467-9.76-6.632-.72-.467-1.56-.933-2.29-1.4-.57 2.118-1.39 4.282-2.09 6.445.36.256.73.554.97.853 2.53 2.39 4.83 4.869 7.01 7.349.12-.303.12-.605.11-.907.37.643.61 1.288.86 1.932.24.213.36.428.6.641.01.086-.11.217-.11.303-.59 1.472-1.17 2.901-1.76 4.373-1.04 3.028-1.85 6.012-2.66 8.952-.12.174-.12.389-.23.606-3.9 5.687-8.51 11.209-11.687 17.061-.236.39-.352.737-.588 1.127-1.715-4.037-3.191-8.076-4.068-12.121-.251-1.162-.502-2.323-.872-3.484-1.609 6.786-3.578 13.575-6.025 20.326-.115.519-.35.995-.465 1.471a.502.502 0 0 0-.244-.472 198.008 198.008 0 0 1-4.949-28.714c-.39-3.231-.421-6.421-.453-9.655-2.102 5.324-4.085 10.648-5.588 16.053-.691 2.809-1.381 5.662-1.833 8.47l-1.101-2.448c1.405-3.161 2.691-6.322 3.618-9.522 1.903-5.663 2.619-11.349 2.687-17.098.006-.576-4.426-2.498-4.432-3.076-.009-.897 4.378-.465 4.293-1.385a33.135 33.135 0 0 0-1.019-5.666c-.247-.817-2.809-5.708-1.131-5.465 1.199.204 1.91-.579 1.068-.959-6.975-3.62-9.799 5.813-10.958 11.723-.44 2.245 3.291 4.864 3.196 5.185-.377 1.168-4.715 1.444-5.148 2.594-.77 2.045-1.62 4.067-2.52 6.09.122.215.124.387.245.559-1.1 9.972-2.439 19.903-4.736 29.843-1.735-6.063-3.709-12.124-6.041-18.052-2.578-6.616-5.635-13.183-9.886-19.567-1.459-2.314-3.037-4.541-6.402-5.888.12-.001 1.701 2.57 3.527 5.7l-.119.088c1.699 2.398 2.685 5.235 3.427 7.771.115-.561.349-1.081.463-1.643 1.46 2.444 2.557 4.46 2.921 4.888 3.047 5.576 4.659 11.381 6.032 17.146l-4.238 7.286c.39 3.144.66 6.203.93 9.349-1.213-1.627-2.307-3.298-3.52-4.925-.47.824-.942 1.605-1.412 2.429-16.155 25.771-36.018-28.941-68.49-2.522-2.077-4.292-4.393-8.582-6.829-12.827 6.829-34.666-13.426 44.929-43.562-36.099.153.054-3.489 38.976-7.362 55.096a242.549 242.549 0 0 1-3.469 12.453c.282-7.851 1.402-15.71 3.122-23.446-.274-3.619-.309-7.198-.344-10.777.172-6.815.465-13.631 1.356-20.41 1.055-9.341 8.395-20.756-5.454-17.557 2.387 3.369.712 8.581.617 12.473-.171 7.031-2.497 13.996-4.703 20.96-.235.477-.349 1.038-.583 1.558-.015-1.552-.269-3.059-.524-4.609.102-1.855.323-3.711.424-5.567 1-7.987 2.119-15.932 3.837-23.884.115-.432-.068-.931.932-.931-1.091-1.455-3.249-3.401-3.978-4.558-.364-.428-1.083-.594-1.682-.588-.127-.818-.256-1.679-.264-2.498-2.948 4.513-5.177 9.106-7.167 13.739-.487-.9-1.095-1.8-1.582-2.658.004.432-.231.822-.227 1.21-2.005 15.328-3.293 30.476-8.651 45.664-.232.779-.583 1.559-.815 2.294-.427 5.308-.615 10.571-.684 15.832-1.008-5.251-2.496-10.497-3.984-15.743-1.365-4.989-4.05-10.267-8.164-14.841-2.663-3.035-4.855-6.852-9.785-9.175-1.983-6.881-3.487-13.809-5.23-20.691-.868-3.139-1.258-6.327-2.007-9.467-.126-.603-.492-1.332-.739-2.149l-.002-.173c-.742-2.45-1.61-5.547-.31-7.241.828-1-2.17-1.531-3.238-.658-3.919 3.229-2.431 8.518-3.352 12.193-.804 3.457-.89 6.908-.737 10.356-2.909-3.723-6.295-7.269-9.563-10.902.394 3.489.787 6.978 1.061 10.511.401 4.308-.034 8.754-.829 13.203-.681 3.759-1.602 7.519-2.404 11.193-1.373 6.524-3.344 12.969-6.036 19.248-.059 6.253-.596 12.554-1.132 18.898-1.58-2.442-3.04-4.886-4.501-7.373 2.237-3.816 4.115-7.629 5.633-11.525-.057-5.821-.353-11.64-1.368-17.537-.38-2.067-.64-4.177-.9-6.288a119.127 119.127 0 0 1-10.673 22.399c-3.781-7.165-7.083-14.377-9.548-21.683-2.219-6.576-3.6-13.204-4.862-19.832-.462 1.686-.685 3.413-1.027 5.098-1.813 10.497-3.506 20.992-5.319 31.488-.949.872-1.898 1.744-2.727 2.571-5.336 5.184-10.192 10.449-15.048 15.757-.488-.987-.857-1.975-1.345-2.962-.734-1.588-1.468-3.177-2.082-4.809l-.002-.216c5.707-3.894 12.256-7.364 19.893-9.854 2.148-.668.216-2.374-1.932-1.706-5.728 1.781-11.095 3.817-15.98 6.064 2.794-8.048 5.827-16.098 8.502-24.145 2.56-7.442 4.642-14.922 7.802-22.284 1.288-2.859 1.943-9.333 6.094-13.298-.127-.732-.134-1.465-.261-2.197-.003-.345-.126-.688-.25-1.075-11.328 4.379-15.407 15.717-19.184 21.187-3.894 5.644-7.309 11.413-10.364 17.264-.239.046-.598.092-.836.224-4.171 1.852-5.344 4.321-5.797 6.913l-.239.046c-5.726 2.039-10.246 4.886-13.925 8.156.189-5.219.257-10.438.206-15.655-.138-1.939-.157-3.836-.176-5.777 0 0 .119-.13.118-.173.119-.088.118-.174.237-.261-2.299-2.522-4.718-5.086-7.493-7.344l-.003-.302c1.161-3.72 1.602-7.562.608-11.261-1.762 3.338-3.046 6.757-3.73 10.257l-1.029 4.926-2.49 2.353c-2.373 2.179-4.626 4.357-6.879 6.535.497 1.849 1.233 3.653 1.969 5.457a42.845 42.845 0 0 0-1.385 5.275c-.804 3.501-1.607 7.044-2.291 10.587-.806 3.199-1.493 6.397-2.18 9.594l-2.545-3.209c-.365-.6-.85-1.199-1.334-1.798-.178-5.949-.356-11.941-.415-17.935-4.978 5.008-9.717 10.056-14.095 15.231-.537-5.989-.716-12.024-.655-18.019-.063-6.468.592-12.942.888-19.413-.124-.474-.129-.905-.133-1.379-.011-1.078-3.123-1.048-3.112.03a264.645 264.645 0 0 1-1.605 19.464c-4.232-4.357-8.703-8.712-13.294-13.022-.497-1.893-.875-3.83-1.253-5.723-1.375-6.024-5.023-11.81-6.996-17.741-.491-1.289-4.316-.691-3.825.555 1.732 5.675 3.939 11.087 5.31 16.679-2.911-3.939-6.061-7.832-9.331-11.724-1.574-1.839-3.028-3.679-4.722-5.517-2.543-2.994-5.325-5.985-8.107-8.933-.779-6.288-1.679-12.575-2.578-18.862-.256-1.766-5.044-1.719-5.266.051-.447 3.239-.775 6.433-1.102 9.67-1.934-1.921-3.868-3.843-5.921-5.72-4.711-4.396-9.063-8.795-13.297-13.281-2.056-2.223-4.339-3.106-8.894-3.751-1.678-.243-2.264.971-.706 1.257 6.955 1.226 7.115 5.407 9.298 8.275 1.819 2.397 3.996 4.704 5.815 7.145 2.791 3.853 6.3 7.786 9.091 11.683 1.307-1.005 3.215-1.713 5.968-1.74 1.317-.013 1.326.979.011 1.078-3.589.207-5.119 2.939-5.682 6.481-.965-.724-1.81-1.449-2.655-2.174-.581 1.774-.682 3.672-.908 5.054-1.13 6.911-.942 13.895-1.113 20.839-1.129-5.293-2.617-10.582-4.704-15.952-.37-1.074-3.958-.781-3.708.295.994 3.699 1.269 7.361 1.065 11.029-.945-10.987-2.489-21.968-4.869-32.855a70.246 70.246 0 0 0-3.74-2.982c-1.04 16.095-3.636 32.119-4.795 48.257l-1.235 20.582c-.972-1.457-1.944-2.957-2.916-4.413-7.893-11.566-15.333-25.767-31.226-35.228-.722-.424-2.033.149-1.55.619 11.474 10.539 15.439 24.299 19.387 36.292a6.763 6.763 0 0 0-2.633.026c-.631-3.271-1.142-6.544-1.174-9.864-.011-1.121-3.482-1.087-3.471.034.067 6.856-.704 13.677-.637 20.532.031 3.234 1.263 6.758 2.733 10.194.011 1.121-.098 2.286-.087 3.407-3.696-10.831-7.632-21.659-12.525-32.348-2.325-5.282-4.89-10.474-7.694-15.665-1.462-2.702-2.925-5.448-4.388-8.15-.505 9.578-1.968 19.122-3.072 28.663-.213 2.632-.547 5.266-.641 7.898-1.97-5.673-3.821-11.347-5.911-17.019-3.321-9.153-6.165-18.396-8.649-27.643-1.241-4.559-2.842-9.071-3.843-13.589-.622-2.409-3.792-8.285-1.061-10.555.594-.437-.728-.984-1.442-.546-1.784 1.139-1.654 2.172-1.64 3.638.402 4.352.085 8.71.607 13.06 1.415 10.12 2.472 20.287 4.605 30.356.125.56.25 1.076.375 1.635-.44 3.929-.401 7.896.355 11.812.753 3.572 1.984 7.096 3.455 10.575-4.611-6.381-9.221-12.718-13.713-19.142-1.376-6.11-2.992-12.261-5.206-18.319-.123-.387-1.44-.374-1.556.015-.693 2.508-.788 5.096-.643 7.682-1.214-1.756-2.428-3.469-3.522-5.183-1.457-2.142-2.914-4.241-4.371-6.34l-.007-.733c.679-4.06 1.117-8.161 2.036-12.18.805-3.328.228-13.413 8.229-15.259.597-.136.114-.605-.484-.513-9.082 1.512-10.898 11.577-12.416 15.473-.818 2.121-1.635 4.242-2.332 6.361-4.244-5.564-8.487-11.085-12.969-16.561-3.514-4.321-6.55-8.862-10.541-13.006-2.177-2.307-4.235-4.659-6.412-6.966-2.54-2.692-7.112-5.192-9.055-8.019-.364-.514-1.798-.284-1.554.231 2.069 3.516 6.529 6.706 8.719 10.307 3.04 4.886 6.56 9.94 8.285 14.969 2.705 7.347 6.728 14.768 10.749 22.103.277 3.792 1.032 7.622 2.027 11.364-2.109 4.721-3.618 9.479-5.607 14.199-.818 2.035-1.756 4.07-2.574 6.062-2.419-2.564-4.957-5.083-7.496-7.602-.603-.555-1.088-1.154-1.692-1.709l-2.901-2.947c-.001-.043-.121-.042-.001-.086-1.208-1.066-2.295-2.134-3.383-3.201-.019-1.897.804-3.501 3.071-4.213 1.194-.314.109-1.122-.966-.853-2.388.627-3.693 1.761-4.399 3.061-.484-.512-1.087-.981-1.69-1.492-.998-4.087-2.115-8.216-2.873-12.305.241.213.482.383.723.553.241.171.839.078.597-.135-.968-1.155-1.579-2.399-1.831-3.69-.128-.818-2.402-.796-2.513.024-.327 3.367-.772 6.735-1.218 10.103-3.013-2.084-6.144-3.994-9.751-5.64-.721-.338-2.033.149-1.43.617 4.338 3.02 7.605 6.61 10.514 10.29-1.117 8.204-2.233 16.451-2.87 24.737 2.065 3.128 3.892 6.387 4.282 9.574.656 5.859-1.201 11.828-2.939 17.666-2.09 6.575-5.139 13.073-8.667 19.533.123.257.364.47.486.728a120.335 120.335 0 0 1 3.4 4.969 567.226 567.226 0 0 1-.329 3.065c-.221 1.899-.442 3.756-.663 5.612l38.299-.374c-1.738-6.279-3.714-12.512-5.809-18.744.906-5.27 1.693-10.496 2.718-15.767.488.944.976 1.888 1.465 2.875 5.491 10.727 12.296 21.226 20.536 31.451l5.625-.055c-.971-1.327-1.941-2.654-2.792-3.983-4.497-6.942-8.994-13.97-13.252-21-.008-.819.343-1.642.455-2.463a1059.58 1059.58 0 0 1 14.206 20.69 949.517 949.517 0 0 0 4.375 6.727l17.593-.172c-.138-1.896-.156-3.793-.414-5.688-2.011-9.769-3.304-19.631-4.357-29.41 1.457 2.142 2.914 4.284 4.252 6.427 6.316 9.468 12.394 18.939 17.754 28.503l41.53-.406c-1.498-6.324-2.517-12.61-3.417-18.983 2.796 4.414 5.71 8.697 9.104 12.977-.22 1.985-.44 3.971-.541 5.956l26.929-.263c-.495-1.634-.989-3.225-1.483-4.816-1.433.402-2.503 1.146-3.091 2.187-.235.476-.586 1.256-1.055 2.295-.484-.555-1.087-1.067-1.571-1.58l.944-13.592c.108-1.252.216-2.46.443-3.713.533-6.689 1.545-13.34 2.677-19.992.196 7.803.751 15.56 1.784 23.312.514 3.574 1.267 7.146 2.378 10.671.496 1.763.992 3.483 1.607 5.202l87.489-.855c-1.47-3.435-3.179-6.825-4.888-10.215.113-.734.225-1.512.337-2.289 2.315 4.16 4.63 8.32 6.705 12.483l123.753-1.209s.117-.26.116-.389l.004.388 82.941-.811 1.391-4.541c.733 1.502 1.466 3.004 2.319 4.505l44.402-.434c-1.457-2.142-2.794-4.242-4.251-6.384.222-1.77.443-3.583.665-5.353.781-5.916 1.561-11.788 2.58-17.705 1.642-3.509 3.523-7.021 5.284-10.531.121.172.243.343.245.558-2.386 13.133-2.736 26.245-.214 39.373l47.395-.463 2.108-4.678c-.122-.257-.124-.516-.247-.774l.707-1.171a342.618 342.618 0 0 0 7.783-12.021 166.696 166.696 0 0 1-.611 10.959c-.215 2.547-.549 5.094-.884 7.598l74.922-.732c.93-2.424 1.87-4.848 2.68-7.27.26 1.851.4 3.704.65 5.556.01.561.26 1.119.26 1.679l70.49-.689c0-.344-.12-.731-.13-1.076.12-.174.24-.391.36-.564v-.259s.12.128.12.214l.73 1.675 19.63-.192c.66-6 1.68-12.004 2.94-18.01-1.12-3.569-1.87-7.184-2.62-10.798.74 2.105 1.47 4.254 2.57 6.356.25.472.37.989.62 1.461-.23.994-.46 1.988-.57 2.981 1.36 5.032 2.97 10.061 5.05 15 .49.944.86 1.932 1.34 2.919l39.38-.385c.11-.777.35-1.512.46-2.29v.518c.01.603.13 1.163.14 1.766l13.76-.134c-3.02-3.42-5.93-6.885-8.72-10.437.12-.13.12-.303.24-.476 1.74-5.494 3.36-11.029 4.5-16.517 3.31 7.73 5.66 15.555 7.3 23.473.93-2.079 1.87-4.114 2.81-6.194.44-3.755.76-7.51.84-11.306.86 1.372 1.59 2.701 2.44 4.073a193.127 193.127 0 0 0-3.28 7.233c-.33 3.367-.65 6.734-1.22 10.103l54.7-.534 2.1-5.454c.37 1.074.62 2.15.99 3.224-.24.735-.35 1.47-.46 2.204l53.38-.522-.06-5.346c2.37-3.042 4.73-6.127 6.98-9.167.28 4.827 1.41 9.688 2.89 14.417l26.57-.259c.83-1.302 1.53-2.603 2.24-3.903 2.82-4.728 5.77-9.457 8.84-14.144l.36.255a89.905 89.905 0 0 1-.44-8.232c.7-1.344 1.41-2.73 2.11-4.16.29 4.87.58 9.783.74 14.654 3.38 2.985 6.77 6.014 10.03 9.001a56.163 56.163 0 0 0-.66 6.302l18.07-.177c-.52-4.264-1.28-8.482-2.16-12.743l-4.34-3.709c.08-3.321.17-6.642.5-10.009a37.58 37.58 0 0 1 .31-5.264c.53-6.042-1.95-15.419 8.3-19.874.95-.441-.49-1.117-1.44-.719-6.92 2.827-9.37 8.673-10.65 12.825-.12.475-.23.908-.47 1.384-.92 2.985-1.85 6.056-2.66 9.082-1.35-3.738-4.42-10.824 1.3-13.553-.24-.731-.49-1.504-.62-2.236.71-.956 1.3-1.91 1.89-2.865 4.84-7.162 9.56-14.28 14.15-21.44.02 1.897.16 3.836.18 5.776.76 16.465 4.03 32.302 11.13 48.404.73 1.502 1.46 2.961 2.31 4.462.25.644.62 1.331.98 1.974-.35.78-.7 1.516-1.05 2.296-.11.95-.11 1.855-.1 2.804.01 1.078-.09 2.157-.08 3.235l25.61-.251c-2.06-2.481-3.88-5.007-5.82-7.532-.73-.942-1.46-1.883-2.06-2.869-.12.216-.24.476-.36.693 0-.474-.01-.949-.13-1.422-.36-.384-.61-.77-.85-1.199.1-1.683.21-3.322.31-5.005.26 2.067.4 4.136.54 6.204.12.258.36.514.49.729 6.11-11.487 11.14-23.395 12.22-35.178 2.2 4.593 4.16 9.188 6.12 13.782.58 10.603.8 21.122-.17 31.697l15.92-.156c2.45-6.708 4.9-13.372 6.98-20.12 1.98-6.487 3.83-13.06 4.6-19.665.9 6.589 2.88 13.124 4.98 19.572 2.22 6.705 4.8 13.321 7.38 19.979l15.91-.155c-1.18-10.554-1.16-21.075-.79-31.687 1.88-4.589 3.75-9.222 5.74-13.812 1.43 11.715 6.69 23.479 13.02 34.801.12-.259.36-.52.47-.78.1-1.985.2-3.97.42-5.912.4-8.327 1.4-16.616 2.75-24.908 2.92 4.37 4.88 9.094 6.36 13.823 3.05-6.541 5.62-13.164 7.47-19.78 0-.172 0-.388-.01-.561-.95 12.688-.58 25.448-.1 38.165a79.033 79.033 0 0 0 2.23-4.507c6.78-16.237 9.74-32.135 10.18-48.612-.02-1.94.08-3.881.06-5.779 4.62 7.07 9.59 14.094 14.57 21.16.61.943 1.22 1.886 1.94 2.827-.11.734-.34 1.513-.57 2.248 5.77 2.617 2.84 9.761 1.57 13.525-.87-3.01-1.86-6.062-2.85-9.028-.92 3.071-1.85 6.185-2.9 9.257-.23.821-.58 1.644-.81 2.466.39 3.359.54 6.678.69 9.997l-4.27 3.794c-.79 4.277-1.47 8.509-1.91 12.782l18.19-.177c-.26-2.111-.52-4.178-.89-6.287 3.2-3.05 6.52-6.144 9.84-9.195.07-4.874.26-9.792.46-14.666.73 1.416 1.46 2.788 2.19 4.118.03 2.76-.07 5.52-.28 8.239l.36-.262c3.16 4.626 6.19 9.297 9.11 13.969.73 1.286 1.46 2.573 2.31 3.858l19.51-.191c-.61-.856-1.09-1.714-1.7-2.527a221.058 221.058 0 0 0 9.15-19.236c1.4-3.42 2.69-6.796 3.73-10.213-1.21-1.368-2.3-2.737-3.39-4.107-2.7 5.805-6.23 11.489-9.65 17.214-.23.304-.35.607-.59.911-.34 1.556-.93 3.114-1.51 4.672-.58 1.515-1.28 3.075-1.87 4.59-.12-.042-.12-.129-.24-.171-.97-1.284-4.6-5.776-8.97-11.598 0-.172 0-.388-.13-.559-1.57-2.012-3.27-4.022-4.72-6.034 1.19-.918 2.25-1.877 3.56-2.838-.01-.561-.01-1.164-.26-1.722-.63-4.005-1.63-7.919-2.74-11.875-.38-1.42-.75-2.882-1.24-4.344l-.01-.086c-.61-1.848-1.11-3.74-1.73-5.589 2.78 2.517 4.37 5.434 5.71 8.181.95-.613 1.78-1.225 2.73-1.838 2.62-1.75 5.24-3.501 7.97-5.209-1.21-1.455-2.54-2.908-3.75-4.362-6.05-6.927-12.94-13.63-19.83-20.376l.36-.046Zm-764.195 5.914c-.01-.992-.02-2.026-.149-3.06-.152-3.276-.543-6.549-1.054-9.778 1.717 4.209 1.879 8.519 1.203 12.838Zm-411.698 66.679c-.348 1.125-.696 2.249-.924 3.373-1.334-1.712-2.909-3.68-4.486-5.778.492-10.958.026-21.906-.799-32.851-.267-2.757-.413-5.516-.68-8.273-.263-2.412-.526-4.868-.909-7.279 1.24 4.387 2.719 8.771 3.96 13.2.989 3.225 1.978 6.492 3.087 9.715a234.334 234.334 0 0 0 4.79 12.502c-1.266 5.144-2.652 10.289-4.039 15.391Zm17.842-60.502c.228-1.167.336-2.332.564-3.498.123.3.246.644.369.945-.232.735-.584 1.472-.817 2.207l.004.345-.12.001Zm6.98 28.392c.796-4.363 1.59-8.769 2.266-13.131.124.43.368.859.611 1.288 2.563 5.063 5.485 10.08 8.646 15.051.037 3.881.076 7.805.353 11.683-3.759-5.009-7.638-9.973-11.876-14.891Zm85.502 3.995c-.148-2.845-.176-5.734-.324-8.622 2.83 7.821 6.018 15.595 8.966 23.371-3.279-4.841-6.2-9.771-8.642-14.749Zm57.872-42.955c.97 1.371 1.822 2.742 2.792 4.07 3.527 5.657 6.934 11.359 10.341 17.104-2.246 2.868-4.732 5.652-6.86 8.39l-1.772 2.346a1504.927 1504.927 0 0 1-5.343-32.29c.36.083.601.253.842.38Zm-17.445-21.347c1.086.895 2.052 1.748 3.138 2.643-.736 10.486-1.112 20.968-.771 31.4-.419-6.205-.839-12.368-1.258-18.573-.141-2.112-1.891-9.77-1.109-15.47Zm25.972 73.355c-.25-1.118-.381-2.281-.632-3.443.119-.131.117-.303.116-.433.122.301.244.559.247.774.499 2.108 1.237 4.171 1.976 6.234l-.71.912c-.003-.345-.245-.644-.368-.988-.13-1.034-.379-2.023-.629-3.056Zm11.314 30.894c-2.449-5.668-4.54-11.382-6.631-17.097a43.715 43.715 0 0 0-.004-.431c.236-.391.352-.737.468-1.126 2.323 5.022 4.886 9.999 7.208 14.936-.347 1.254-.814 2.466-1.161 3.72l.12-.002Zm.522-32.303c.587-1.17 1.174-2.34 1.882-3.468.381 2.282.762 4.563 1.024 6.846-.728-.984-1.816-2.138-2.906-3.378Zm70.69-17.379c.243.343.605.684.848 1.027a98.189 98.189 0 0 0 3.39 3.934c-.118.173-.117.346-.234.563-1.092-1.456-2.183-2.868-3.274-4.324-.607-.856-1.334-1.755-1.941-2.611.364.471.847.94 1.211 1.411Zm-33.23 29.173-.024-2.544c.242.343.366.73.609 1.116l-.341 1.814s-.123-.257-.244-.386Zm66.485 17.807c-.862-2.536-1.844-5.027-2.707-7.563l6.386-7.954c-1.146 5.186-2.412 10.373-3.679 15.517Zm81.01-14.72c.105-1.51.209-3.064.314-4.617.49 1.203.981 2.405 1.352 3.609a7.372 7.372 0 0 0-1.666 1.008Zm2.371-14.555c-1.883-8.994-3.647-17.99-6.128-26.935 3.027 3.55 4.151 8.368 4.537 11.038.888 5.209 1.656 10.247 1.707 15.464.001.13-.117.303-.116.433Zm63.333-35.289c.369.988.618 1.977 1.106 2.964l.002.173c1.847 5.243 4.052 10.482 6.377 15.677-1.902-3.35-3.778-6.724-5.128-10.342-.978-2.147-1.718-4.296-2.337-6.489l-.02-1.983Zm136.865 54.462c-.488-.943-1.69-1.492-3.129-1.737l2.094-6.23c.997 4.13 2.234 8.214 3.591 12.298-.852-1.458-1.704-2.873-2.556-4.331Zm47.22-31.034c-.02-1.38.21-2.762.31-4.143.44-4.015.76-8.028 1.08-12.085.1-1.898.32-3.841.43-5.739 0-.087-.01-.173.11-.217 1.82 2.526 3.52 5.097 5.11 7.712-.95 1.475-1.89 2.951-2.59 4.424-1.89 3.339-3.29 6.673-4.45 10.048Zm40.05 19.832c-.12-.3-.25-.558-.37-.858.11-.519.23-.994.34-1.513.13.602.26 1.205.5 1.806-.24.175-.35.392-.47.565Zm98.11-28.513c-.38-1.721-.75-3.442-1.25-5.163.49 1.074.86 2.105 1.35 3.178.01.647-.11 1.338-.1 1.985Zm3.53 6.132c-.25-1.378-.51-2.798-.64-4.177 0 .043.12.128.24.17 1.21.851 1.1 2.318.4 4.007Zm25.31-31.382c1.25 5.422 2.26 10.888 2.91 16.358.48-.047.84.035 1.08.249 3.14 3.246 2.81 5.88.09 9.141.26 2.412.41 4.782.67 7.194-1.21-1.368-2.42-2.736-3.51-4.105.83-.957 1.77-1.872 2.6-2.828.12-.088.12-.174.24-.261-.27-3.146-.66-6.247-1.17-9.39-.6.049-1.19.357-.95.7 2.54 2.95.66 6.203-2.78 9.384-.24-.429-.61-.813-.97-1.198.21-2.762.3-5.565.28-8.368-.03-2.372-.29-4.698-.67-7.022.81-3.286 1.49-6.57 2.18-9.854Zm55.38-16.194c1.46 2.142 2.55 4.374 3.18 6.653-.49-.642-1.21-1.325-2.06-1.92-.6-.469-2.15-.023-1.55.489 8.81 7.115 4.1 15.182.94 22.932-1.63 4.242-3.63 8.444-5.74 12.647.34-2.547.55-5.05.53-7.594.11-12.765-2.77-25.501-5.41-38.197 3.49 1.562 6.86 3.254 10.11 4.99Zm-26.05 4.61c.44-4.058.76-8.416 1.91-12.438.12-.605.23-1.296.34-2.03 3.24.874 6.36 1.878 9.25 3.058-.77 7.295-.94 14.627-1.58 21.964-.02-1.466-.39-2.928-1.24-4.214-1.94-2.784-4.59-4.008-8.78-4.485-.01-.604-.01-1.25.1-1.855Zm-.21 2.848c2.27.28 3.96.996 4.45 2.673.62 1.935.64 4.306.3 6.293-.44 3.411-.77 6.778-1.33 10.147-.69 3.499-1.49 7-2.65 10.461-.35 1.384-.82 2.768-1.28 4.109-.35-11.337-1.54-22.624-3.09-33.907 1.2-.011 2.52.062 3.6.224Zm13.27 72.402c-.7 1.645-1.28 3.289-1.98 4.935-.25-.515-.37-1.031-.62-1.503 1.41-2.602 2.95-5.204 4.24-7.804-.47 1.471-1.05 2.9-1.64 4.372Zm119.59-35.365c.22-2.589.43-5.178.64-7.811.03 2.156.17 4.267.19 6.38-.24.477-.59.955-.83 1.431Zm-11.84-11.958c2.24-3.256 4.48-6.598 6.84-9.856-1.52 3.81-3.39 7.666-4.43 11.557-.12.433-.24.822-.35 1.254 2.01-2.046 4.87-3.885 8.69-5.173 1.31-.444 2.52.579 1.2 1.023-6.08 2.129-9.52 5.742-11.51 9.772.58-1.86 1.04-3.762 1.62-5.622-2.73 2.571-4.26 5.518-5.67 8.292-.84-.596-1.8-1.19-2.65-1.742 2.13-3.169 4.25-6.338 6.26-9.505Zm-1.08 12.818c.35-1.384.81-2.768 1.52-4.155-.47 1.471-.81 2.94-1.16 4.367-.12-.085-.24-.127-.36-.212Zm-32.28 15.322c.33-2.117.79-4.191 1.37-6.267.25 1.119.62 2.194.99 3.268-.71.999-1.54 1.999-2.36 2.999Zm13.54 1.42c2.24-3.256 4.6-6.557 6.72-9.855 1.57 1.106 3.14 2.255 4.7 3.404-1.63 4.759-2.9 9.558-3.93 14.312-.45 2.376-.91 4.709-1.24 7.084-1.22-1.713-2.31-3.513-3.41-5.271-1.23-3.222-2.1-6.447-2.84-9.674Zm15.38 6.016s-.12.173-.24.261c.33-3.065.66-6.13 1.1-9.239.01.043.01.043.01.086 1.32.936 2.41 1.874 3.61 2.768-1.41 2.04-3.07 4.083-4.6 6.125l.12-.001Zm25.78-6.807c-.72-.553-1.44-1.15-2.17-1.703.47-.695.95-1.433 1.42-2.127.37 1.549.62 2.84.75 3.701v.129Zm210.88-26.769c.27 2.628.53 5.213.8 7.797-.25-.472-.61-.942-.85-1.414-.02-2.113.07-4.227.05-6.383Zm-8.37 24.791v-.13c-.01-.862.33-2.159.68-3.715.48.685.97 1.414 1.45 2.099-.71.567-1.42 1.178-2.13 1.746Z" fill="#111113"/><path d="M947.06 555.448c-.32-12.54-1.691-25.315.095-37.84.331-2.298 1.263-5.095 3.561-5.356 1.017-.112 1.993.339 2.931.739a30.788 30.788 0 0 0 10.261 2.426c1.433.085 2.916.068 4.239-.485 1.877-.784 3.162-2.507 4.798-3.726 2.505-1.863 5.914-2.458 8.894-1.546-4.734-6.621-13.457-9.463-21.589-9.063-5.542.283-11.676 2.435-13.855 7.534-1.889 4.398-.263 9.665-1.997 14.116a34.948 34.948 0 0 0-2.131-16.984c-2.248-5.731-3.694-10.405-.936-16.196 1.318-2.779 2.639-5.55 3.967-8.332-1.341-.687-2.921.197-4.163 1.051-1.62 1.108-3.24 2.216-4.851 3.321-1.935 1.332-3.905 2.685-5.351 4.526-2.781 3.54-3.284 9.443-.685 13.251 2.672 3.898 7.285 6.264 9.687 10.613 1.959 3.538 2.523 7.697 2.53 11.739-1.929-5.133-8.722-7.108-13.861-5.198-5.135 1.919-8.698 6.673-10.992 11.652 6.976-4.622 16.236-5.584 24.018-2.497.586.234 1.185.506 1.573.998.439.548.544 1.294.624 1.995a151.147 151.147 0 0 1 .635 28.651c2.177-.336 2.656-3.223 2.598-5.42v.031Z" fill="#111113"/><path d="M763.288 489a8.5 8.5 0 1 0-.001-17.001 8.5 8.5 0 0 0 .001 17.001Z" fill="url(#paint2_radial_1862_29289)"/></g><path d="M34.788 139a5 5 0 1 0 0-10 5 5 0 0 0 0 10Z" fill="url(#paint3_radial_1862_29289)"/><path d="M38.288 180a3.5 3.5 0 1 0 0-7 3.5 3.5 0 0 0 0 7Z" fill="url(#paint4_radial_1862_29289)"/><path fill-rule="evenodd" clip-rule="evenodd" d="m197.378 389.475 57.967 12.639 62.827 3.596 57.487 28.041 17.567-1.51 2.824 5.354-8.371 5.578 25.977 17.4 37.722 38.805 27.3 6.673-1.238 1.955-22.712-3.755 7.487 11.655 4.266 9.385-5.888 5.7-15.253-23.14-38.538-37.398-58.422-29.078 11.664 17.009 18.541 32.921 18.327 7.123 10.842 6.891-.403.635-11.595-6.926-17.285-5.312 4.948 17.939 22.755 6.681-.316 1.023-23.904-6.967-7.267-21.639-20.563-31.311-34.716-30.472-93.573 6.313-35.058-15.513 6.601-30.295Z" fill="#111113"/><path fill-rule="evenodd" clip-rule="evenodd" d="m190.778 419.771 31.585 2.964 15.305-12.169 17.678-8.452-2.608-1.337-16.945 6.91-25.745 7.218-19.27 4.866ZM225.836 435.283l37.187-15.499 16.109-11.563 39.04-2.511 8.542 4.168 11.856 5.784-12.343-3.983-44.122-.456-35.936 18.984-1.266 3.789-19.067 1.287Z" fill="#111113"/><path fill-rule="evenodd" clip-rule="evenodd" d="m280.182 431.616 32.867-13.629 21.676-3.566 18.945 8.605-16.913-4.507-16.37 4.725-4.744 3.26 3.765 2.466-39.226 2.646ZM364.406 428.263l11.123 21.424 10.629 10.49 13.226 6.585-14.083-11.458-7.524-14.724-2.117-6.828-11.254-5.489ZM393.713 447.212l6.923 12.291 6.166 10.951 5.842 5.669-7.795-11.583-5.028-9.758.701-3.008-6.809-4.562Z" fill="#111113"/><path fill-rule="evenodd" clip-rule="evenodd" d="m348.379 441.376-6.674-7.178-12.881-5.252-9.416.024 19.594 17.197-6.433-8.904 7.454-1.466 8.356 5.579ZM353.131 448.303l6.511 12.942 5.489 14.959 3.521 5.361-4.511-12.271-5.253-12.592-5.757-8.399ZM369.679 451.975l-8.836-10.137-14.793-11.924 10.583 10.61 4.599 7.248 8.447 4.203ZM413.656 460.574l16.591 22.854 8.274 17.805 4.005 3.889-11.281-20.746-1.067-2.345-4.355-8.942-12.167-12.515ZM439.309 486.958l4.704 9.102 3.077 11.96 1.634 5.57 4.518 7.664-2.003-9.507-5.895-12.738-.88-3.341 1.044-2.331-6.199-6.379ZM451.378 499.379l.069 1.526 3.282 3.346-.627-2.4 24.576 4.2-26.667-6.27-.633-.402ZM458.088 509.466s3.993 9.459 4.229 9.61c.236.152-.144 10.558-.144 10.558l.514.871 2.351-2.919-2.807-11.685-4.143-6.435ZM326.227 411.679l-14.071 4.901-29.954 8.892-37.3 8.524 1.266-3.789 35.937-18.984 44.122.456ZM270.366 411.662l-30.35 14.635-14.18 8.986-16.363-7.239-18.695-8.273 31.585 2.964 15.305-12.169 11.391-3.987 21.307 5.083Z" fill="#111113"/><path fill-rule="evenodd" clip-rule="evenodd" d="m351.953 422.569-15.195-4.049-16.37 4.724-4.744 3.26 3.765 2.466 10.69-2.15 15.951 3.094 14.793 11.924-13.588-13.827-6.195-2.603 1.188-1.173 20.432 6.75 4.684 2.975-2.284-4.398-13.127-6.993ZM358.889 456.702l10.825 23.19 7.344 12.294 1.989 3.614-.575-2.084.113-2.41-19.696-34.604ZM376.429 436.228l12.216 11.26 9.933 13.289 5.108 8.289-5.573-3.339-12.811-10.423-6.909-13.518-1.964-5.558Z" fill="#111113"/><path opacity=".5" fill-rule="evenodd" clip-rule="evenodd" d="m241.648 405.299-42.358 1.045-8.512 13.427 45.015-12.084 5.855-2.388Z" fill="#111113"/><path fill-rule="evenodd" clip-rule="evenodd" d="m400.522 451.774-.7 3.008 4.109 9.692 9.372 12.289 17.472 16.953-9.848-19.624-12.945-12.974-7.46-9.344ZM425.823 473.089l6.843 13.9 9.861 18.133 2.813 2.73-5.038-9.68-7.725-14.668.209-3.017-6.963-7.398ZM445.505 493.336l-1.044 2.331 1.328 4.309 5.447 11.77 9.908 16.326 1.169-8.988-4.229-9.61-3.355-5.223-3.35-4.872-5.874-6.043ZM246.168 430.207l35.937-18.984 9.071.094-17.116 7.58-3.6 3.002-1.599 2.523 46.204-12.432 11.162-.311-51.798 14.456 2.024 3.111 25.469-6.645-21.739 9.015-35.281 2.38 1.266-3.789Z" fill="#111113"/><path opacity=".5" fill-rule="evenodd" clip-rule="evenodd" d="m222.362 422.735 3.473 12.548-35.058-15.512 31.585 2.964Z" fill="#111113"/><path fill-rule="evenodd" clip-rule="evenodd" d="m252.737 400.776-11.09 4.523-45.469-.363 1.015-12.325 37.445 7.328 18.099.837Z" fill="#111113"/><path d="m325.047 465.095-.093-.018a1.557 1.557 0 0 1-1.033-.907c-2.141-4.425 1.458-29.328 4.479-35.992 4.238-9.345 18.059-9.222 18.7-9.218a.653.653 0 1 1-.007 1.309c-.15 0-13.617-.119-17.501 8.45-3.11 6.858-6.504 31.95-4.299 34.514 2.205 2.564 10.261-9.382 12.748-17.898.325.266.96.842.96.842-3.807 11.293-9.99 19.665-13.954 18.918Z" fill="#111113"/><path d="M332.205 442.017a4.954 4.954 0 0 1-2.933-1.642c-1.388-1.662-1.598-4.302-.62-7.849 2.687-9.742 20.706-11.625 21.439-11.695a.655.655 0 0 1 .126 1.304c-.172.017-17.857 1.866-20.304 10.739-.843 3.056-.72 5.354.358 6.64a3.382 3.382 0 0 0 2.839 1.256c-.02-.004 1.238 1.295 1.238 1.295-.714.059-1.433.043-2.143-.048ZM374.878 469.201c-1.54 1.26-13.701 5.873-7.165-19.938.517-2.1.948-3.853 1.244-5.087 2.018-8.416.789-12.946.778-12.997a.51.51 0 0 1 .348-.627.507.507 0 0 1 .625.348c.055.191 1.322 4.8-.765 13.505-.299 1.238-.73 2.99-1.249 5.104-1.004 3.345-3.857 18.383 1.531 19.399 5.388 1.016 8.814-7.584 9.575-11.621.549-2.663 4.061-12.335 14.344-10.396l.154.029a.502.502 0 0 1 .292.22.505.505 0 0 1-.479.771l-.15-.028c-9.655-1.82-12.644 7.096-13.162 9.607-.77 4.086-2.677 9.057-5.921 11.711ZM-2.455 53.705S8.326 76.26 9.507 86.94c1.181 10.68-6.245 20.948-1.08 31.139 5.166 10.191 17.03 34.623 20.742 38.681 3.711 4.059 8.282 10.784 8.282 10.784s-9.623 1.079-13.969-2.685c-4.346-3.764-17.3-16.284-17.3-16.284s9.84 21.117 13.954 25.67c4.113 4.554 8.41 15.829 8.41 15.829s-9.711-2.286-12.27-6.541c-2.557-4.255-19.78-36.408-19.78-36.408s-2.727 21.694-3.804 25.603c-2.316 8.393-6.39 15.905-6.39 15.905a123.97 123.97 0 0 1 1.62-22.004c1.985-12.155-.696-23.074-.696-23.074l-6.923 8.842c-3.957 5.036-7.984 9.758-10.87 12.103a97.73 97.73 0 0 1-15.03 10.062s10.922-14.616 13.207-20.447c2.285-5.831 2.01-15.921 4.89-23.719 2.88-7.798 11.702-19.064 11.702-19.064l-12.714 5.905s11.68-15.307 16.431-20.244c4.752-4.937 13.392-13.721 9.14-23.316-4.25-9.595.486-19.97.486-19.97Z" fill="#111113"/><path d="M-.743 44.282s1.041 27.39 7.521 37.712c6.48 10.322 12.68 25.41 12.68 25.41s-13.8-12.911-15.192-16.81l-1.378-3.899s.86 18.661.558 24.815l-.3 6.159S.54 97.433-2.495 93.027l-3.04-4.405s-5.94 15.876-7.657 19.52l-1.709 3.643s1.877-14.698 1.94-18.842c.063-4.144 1.882-8.1 1.882-8.1l-10.775 6.065S-8.199 79.135-6.8 68.458C-5.402 57.781-.743 44.282-.743 44.282ZM.106 138.896s19.358 47.26 38.71 62.984a3127.571 3127.571 0 0 1 35.259 29.089s-10.509-1.391-17.162-3.65c0 0 7.242 5.998 10.046 9.129 2.803 3.13 5.134 9.896 5.134 9.896s-9.815-2.553-13.361-4.111c-3.546-1.558-13.211-5.331-13.211-5.331s2.18 7.988-1.78 9.663c-3.959 1.674-12.683.455-14.416-1.346-1.733-1.8-16.321-8.91-20.45-14.194-4.128-5.285-10.37-14.889-11.686-12.963-1.316 1.927 6.84 17.427 6.006 23.9a46.519 46.519 0 0 1-3.09 11.593s-8.787-14.748-8.213-19.194c.573-4.445-2.215-14.947-2.215-14.947s-6.622 12.904-9.788 16.696c-3.165 3.791-8.91 6.949-8.91 6.949s4.996-13.868 4.935-17.558c-.062-3.69.23-22.5.23-22.5s-8.215 13.974-12.693 19.701-14.064 22.029-14.064 22.029 5.457-21.605 7.19-26.767c1.733-5.162 3.522-10.729 3.522-10.729s-9.11 8.572-16.227 14.047c-7.116 5.475-21.655 27.037-21.655 27.037s7.082-25.955 13.83-32.696c6.749-6.741 23.049-29.544 23.049-29.544s-9.463 7.066-12.024 6.206l-2.562-.851s24.002-10.038 33.818-43.527l21.778-9.011Z" fill="#111113"/><path d="M19.57 229.743s25.84 45.549 28.202 51.063c2.362 5.515 11.349 13.955 15.195 21.667 3.847 7.712 27.02 31.953 27.02 31.953s-12.882-4.836-15.885-7.024c-3.003-2.187-10.288-7.767-10.288-7.767s6.135 9.122 6.84 10.837c.706 1.714 7.975 8.553 7.803 10.403-.171 1.849 1.721 10.105 1.721 10.105s-3.727-7.681-6.441-9.497c-2.715-1.816-8.055-5.739-10.586-8.142-2.53-2.402-13.548-16.926-13.548-16.926s4.083 15.621 5.355 18.082c1.273 2.461 3.733 7.677 4.347 12.194 0 0-2.797-3.715-8.386-6.431-5.589-2.716-12.472-6.94-12.472-6.94l-2.73 8.566c-1.227 3.837-8.104 12.498-8.104 12.498s2.212-13.389-.245-18.612c-2.457-5.223-10.392-21.63-10.392-21.63s-1.617 7.22-2.552 14.892a35.942 35.942 0 0 1-4.144 12.993s-1.804-16.726-4.154-20.981c-2.35-4.256-2.84-12.219-2.84-12.219S.9 317.147-.858 321.82s-10.006 11.168-14.3 16.898c-4.294 5.73-11.15 7.785-11.15 7.785s3.614-8.698-1.171-15.65c-4.785-6.953-2.657-13.132-2.657-13.132s-3.742 10.88-4.254 13.301l-.516 2.408s-5.275-7.988-8.199-11.742c-2.923-3.755-3.68-13.018-3.68-13.018s-6.316 6.885-6.975 8.953c-.66 2.068-9.896 5.223-15.359 10.701l-5.456 5.49s4.907-12.836 8.536-19.018c3.629-6.181 4.748-9.724 4.748-9.724l-7.055 9.251s-2.788-10.636-3.091-12.268c-.304-1.631-2.454-6.483-5.264-6.741s-4.264-2.129-15.03 1.957c-10.766 4.087-22.269 5.193-22.269 5.193s24.864-12.533 29.41-19.467c4.546-6.934 51.657-65.562 62.61-72.76 10.954-7.199 41.55 19.506 41.55 19.506Z" fill="#111113"/><path d="M29.371 308.397s14.095 24.349 14.819 31.176c.724 6.827 15.622 14.56 30.799 29.495s18.15 25.034 18.15 25.034-16.328-10.139-21.193-13.851c-4.865-3.711-13.214-9.426-13.214-9.426s10.319 15.298 13.018 19.233c2.699 3.936 4.558 10.256 4.558 10.256s-9.251-7.008-13.693-9.878c-4.441-2.869-12.107-9.73-12.107-9.73l-1.303 10.117s-5.709-5.45-11.205-8.418c0 0 1.917 10.007-1.298 14.213-3.214 4.206-4.015-2.012-9.622-8.271-5.607-6.258-15.996-16.234-15.996-16.234s.886 10.32-1.565 12.142c-2.45 1.822-10.542 6.384-12.898 12.308-2.355 5.923-5.938 12.959-5.938 12.959s-4.092-17.992-4.74-25.421c-.646-7.429-2.944-14.609-2.944-14.609s-5.564 10.139-5.711 15.439c-.147 5.299-1.874 14.157-1.874 14.157s-12.064-13.826-10.285-23.482c1.779-9.657 2.905-22.659 2.905-22.659s-14.009 13.432-14.678 22.788a126.253 126.253 0 0 1-2.055 15.78s-7.45-16.665-6.828-21.507c.623-4.842 1.672-12.947 1.672-12.947s-6.16 10.48-11.963 18.127c-5.803 7.647-21.189 15.202-21.189 15.202s8.061-12.759 9.475-19.589a22.08 22.08 0 0 0-1.076-12.385s-11.077 7.155-14.763 10.907a42.095 42.095 0 0 1-7.172 5.88s10.325-9.684 9.242-22.059c-1.083-12.376 43.204-61.497 43.204-61.497l77.69 15.03" fill="#111113"/><path d="M-9.173 353.566s4.5-27.688 12.543-57.585c.195-.742 15.033 4.442 15.228 3.693.22-.834-15.94-7.383-15.722-8.228 3.12-12.422 2.306-15.48 3.587-28.099.168-1.616 8.926-4.373 9.038-5.991-2.224.937-8.445.304-6.784-.394.703-15.258 4.487-20.301 7.767-32.793 6.626 16.259 16.056 20.282 13.587 39.118-.143 1.043.506 2.034.742 3.056.285 1.217-7.02 3.168-6.768 4.406.307 1.522 8.153 2.332 8.4 3.874 1.653 10.212 1.964 20.815-.112 31.01-.141.698-3.8 1.154-3.97 1.85-.255 1.089 3 2.385 2.755 3.417-9.312 39.021-11.243 43.798-11.243 43.798s9.562-27.06 22.354-53.792c.755-1.56 1.513-3.128 2.286-4.691.446-.896.893-1.793 1.35-2.689a321.27 321.27 0 0 1 3.972-7.641c.695-1.271 8.103 3.245 8.806 1.998.495-.884-7.495-6.724-6.992-7.584 4.33-7.429 8.923-14.199 13.673-19.588.287-.325 6.423 10.731 6.722 10.415.589-.624-4.71-12.623-4.131-13.204 3.46-3.514 6.992-6.235 10.543-7.893.922-.434 2.647 12.993 3.537 12.548.462-.22.152-14.518.597-14.738.89-.448 2.826.162 3.682-.275 24.9-12.806 30.277-22.589 30.277-22.589s-11.294 33.522-25.187 56.682c-.42.698-11.185-2.633-11.609-1.959-.52.839 10.284 5.204 9.75 6.015-3.083 4.66-6.322 8.722-9.634 11.774-6.201 5.693-9.84 15.743-16.513 24.458-.436.571-12.522-4.558-13.13-4.909 2.71 1.772 9.85 8.035 11.02 8.509-2.744 3.734-9.044 13.224-11.508 16.765-.583.827-11.66-9.201-12.223-8.392 3.763 2.021 4.752 9.673 8.917 10.507-6.13 9.066-13.985 15.658-13.985 15.658s11.867-12.156 24.873-20.317c.904-.573 2.18 5.421 3.111 4.855.887-.529.255-7.043 1.133-7.57 7.45-4.446 17.8-5.556 23.352-7.293 1.348-.424-.677 6.747.45 6.615 1.025-.117 1.713-8.399 3.08-8.801 7.627-2.233 21.134-9.18 32.949-15.8 1.174-.652 4.337 1.937 5.009 4.086 1.17-.664-3.439-5.009-2.299-5.668 13.868-7.997 28.544-17.054 28.544-17.054s-5.071 28.593-30.483 50.254c-1.029.88-7.203-7.262-8.305-6.399-.988.782 3.996 9.404 3.25 10.378-7.92 10.277-12.192 12.32-17.4 16.493-5.207 4.174-17.48 6.58-17.48 6.58l-3.38-11.04 1.22 11.124-2.769.679-11.992 2.931s31.745-3.002 38.298 2.256c6.553 5.257 10.785 13.305 10.785 13.305s3.401-7.233 8.456-17.086c.355-.695 7.903 4.457 8.279 3.734.376-.723-6.442-7.28-6.056-8.019 5.022-9.613 11.225-20.89 17.285-30.285 2.005 5.272 2.162 6.639 4.779 8.142-1.02-2.66-2.401-9.077-1.162-10.818 10.14-14.274 20.846-25.537 31.463-30.5 0 0-9.559 32.801-20.531 58.697-.435 1.003-12.054 1.663-12.482 2.641-.629 1.43 11.243.144 10.621 1.498-3.991 8.668-9.35 18.973-13.114 23.095 0 0 19.227-16.265 37.929-28.435 1.271-.832-.988 2.368.437 6.105.952-.591 1.929-7.9 2.893-8.472 10.215-6.064 20.812-10.918 29.841-12.052 0 0-5.466 7.625-13.203 17.35-.674.835-7.12 1.811-7.806 2.675 0 0 6.226-.77 5.036.677-9.86 11.916-24.51 28.427-33.617 34.221-4.698 2.996-11.622 8.265-12.16 8.963 5.553-3.43 15.33-9.011 15.33-9.011s8.099-3.25 19.482-8.128c.715-.303 3.762 9.443 4.507 9.132.802-.321-.718-10.702.126-11.026 15.013-5.889 34.868-11.024 52.549-6.892 0 0-8.287 8.764-21.189 16.762-.732.454-14.233-.558-14.984-.108-1.563.916 12.678 1.736 11.012 2.596-6.409 3.312-16.71 7.666-24.367 9.166 9.547.061 19.064 1.05 28.42 2.952.616.139 1.237.266 1.868.42l.947.219c10.433 2.473 21.083 6.636 27.787 13.652 0 0-20.834-2.463-40.105-2.568-1.505-.011-4.456-8.108-5.922-8.083-1.354.021 2.806 9.221 1.489 9.26-8.194.308-19.445.199-23.595 1.981L-9.173 353.566Z" fill="#111113"/><path d="M5.383 359.469s29.062-86.56 11.795-133.641c-.439 1.085 15.448 38.721-13.508 132.946l1.713.695ZM118.691 405.413s27.618-61.849 54.476-95.079c-.333.825-20.717 27.064-52.5 95.881l-1.976-.802ZM20.168 365.462s26.652-60.199 68.878-106.096c6.342-6.906 16.117-16.208 25.418-30.6-.177.436-10.549 15.068-25.71 29.317-.09.105-.188.2-.283.292-18.447 19.077-46.036 53.119-70.184 106.308l1.88.779ZM41.718 374.02s14.079-25.997 55.184-37.533c32.351-8.64 45.652-30.591 53.104-39.734-.08.196-23.622 33.319-55.308 38.231-8.274 1.279-42.613 15.127-55.886 37.858l2.906 1.178ZM127.962 409.172s39.382-23.595 77.021-55.791c-.187.463-38.299 35.509-75.042 56.594l-1.979-.803ZM158.359 421.497s42.927-27.099 79.26-33.352c-.183.454-42.282 10.897-77.284 34.153l-1.976-.801ZM168.627 425.661s34.321-24.182 79.269 1.739c-.187.463-42.297-24.196-77.292-.938l-1.977-.801ZM806.788 448.179l-.229-.244h-.013c-2.587-1.105-5.59.493-5.621.505 0 0 0 .005-.012.005-.031-.028-.056-.051-.081-.068.292-.136 3.109-1.451 4.697-1.258l.192.266s.05.029.068.012c.025-.017.031-.046.013-.068l-.217-.301h-.025c-1.694-.221-4.678 1.213-4.802 1.276-.012 0-.019.011-.019.022-.31-.13-.484.244-.484.244l-.533.249s5.528-5.237 2.81-11.382c0 0-.664-1.173-1.296.324-.633 1.49-1.043 4.682-2.587 4.738 0 0-2.618-5.062-4.61-5.005-1.985.057-1.483 6.672-.502 7.522 0 0-4.926-.675-4.61 4.036 0 0-2.401.555-2.115 1.139.285.584 2.301-.38 2.301-.38s.726 2.432 2.587 1.61c0 0-.223 1.055.217 1.174 0 0-1.228.997-.912 1.349.317.351 1.39-1.055 1.39-1.055s.819.641 1.421.119c.602-.527 2.177-2.783 3.691-2.488 0 0-1.892 2.052-1.359 2.194.534.147 1.638-2.784 4.418-3.719 0 0 .769-.051.409-.476.161-.085 3.028-1.553 5.509-.51l.211.227s.05.022.074 0c.019-.017.025-.046 0-.068l.019.011ZM89.788 192.043l-.436-.459h-.024c-4.915-2.081-10.62.928-10.679.949 0 0 0 .011-.023.011-.06-.053-.107-.096-.154-.128.554-.256 5.906-2.731 8.923-2.369l.366.502s.094.053.13.021c.046-.032.058-.085.023-.128l-.413-.565h-.047c-3.218-.416-8.887 2.283-9.123 2.4-.024 0-.036.022-.036.043-.589-.245-.919.459-.919.459l-1.014.469s10.503-9.858 5.34-21.424c0 0-1.261-2.209-2.464.608-1.202 2.806-1.98 8.813-4.915 8.92 0 0-4.974-9.528-8.758-9.422-3.772.107-2.817 12.559-.955 14.159 0 0-9.359-1.27-8.758 7.597 0 0-4.561 1.045-4.02 2.144.543 1.099 4.374-.714 4.374-.714s1.38 4.577 4.915 3.03c0 0-.424 1.984.413 2.208 0 0-2.334 1.878-1.733 2.54.601.661 2.64-1.985 2.64-1.985s1.556 1.206 2.7.224c1.143-.992 4.137-5.239 7.013-4.684 0 0-3.595 3.863-2.581 4.129 1.014.278 3.112-5.238 8.392-6.999 0 0 1.462-.096.778-.896.307-.16 5.753-2.924 10.468-.96l.4.426s.095.043.142 0c.035-.032.047-.085 0-.128l.035.022Z" fill="#111113"/><path d="M1408.29 259c1.93 0 3.5-1.567 3.5-3.5s-1.57-3.5-3.5-3.5-3.5 1.567-3.5 3.5 1.57 3.5 3.5 3.5Z" fill="url(#paint5_radial_1862_29289)"/><path d="M1366.29 331c3.04 0 5.5-2.462 5.5-5.5s-2.46-5.5-5.5-5.5-5.5 2.462-5.5 5.5 2.46 5.5 5.5 5.5Z" fill="url(#paint6_radial_1862_29289)"/><path d="M145.288 319a8.5 8.5 0 1 0-.001-17.001 8.5 8.5 0 0 0 .001 17.001Z" fill="url(#paint7_radial_1862_29289)"/></g><defs><radialGradient id="paint0_radial_1862_29289" cx="0" cy="0" r="1" gradientUnits="userSpaceOnUse" gradientTransform="translate(1298.33 373.497) scale(8.53757)"><stop stop-color="#F8F8F8"/><stop offset=".002" stop-color="#F8F8F7"/><stop offset=".079" stop-color="#F8EAB7"/><stop offset=".15" stop-color="#F8E085"/><stop offset=".211" stop-color="#F8D861"/><stop offset=".261" stop-color="#F8D44B"/><stop offset=".293" stop-color="#F8D243"/><stop offset=".352" stop-color="#F5D343" stop-opacity=".887"/><stop offset=".4" stop-color="#EBD443" stop-opacity=".795"/><stop offset=".444" stop-color="#DAD843" stop-opacity=".71"/><stop offset=".486" stop-color="#C1DC43" stop-opacity=".63"/><stop offset=".527" stop-color="#A2E243" stop-opacity=".552"/><stop offset=".566" stop-color="#7CE843" stop-opacity=".477"/><stop offset=".604" stop-color="#4FF144" stop-opacity=".404"/><stop offset=".641" stop-color="#1CFA44" stop-opacity=".334"/><stop offset=".659" stop-color="#0F4" stop-opacity=".3"/><stop offset="1" stop-color="#204531" stop-opacity="0"/></radialGradient><radialGradient id="paint1_radial_1862_29289" cx="0" cy="0" r="1" gradientUnits="userSpaceOnUse" gradientTransform="translate(1334.33 272.497) scale(8.53757)"><stop stop-color="#F8F8F8"/><stop offset=".002" stop-color="#F8F8F7"/><stop offset=".079" stop-color="#F8EAB7"/><stop offset=".15" stop-color="#F8E085"/><stop offset=".211" stop-color="#F8D861"/><stop offset=".261" stop-color="#F8D44B"/><stop offset=".293" stop-color="#F8D243"/><stop offset=".352" stop-color="#F5D343" stop-opacity=".887"/><stop offset=".4" stop-color="#EBD443" stop-opacity=".795"/><stop offset=".444" stop-color="#DAD843" stop-opacity=".71"/><stop offset=".486" stop-color="#C1DC43" stop-opacity=".63"/><stop offset=".527" stop-color="#A2E243" stop-opacity=".552"/><stop offset=".566" stop-color="#7CE843" stop-opacity=".477"/><stop offset=".604" stop-color="#4FF144" stop-opacity=".404"/><stop offset=".641" stop-color="#1CFA44" stop-opacity=".334"/><stop offset=".659" stop-color="#0F4" stop-opacity=".3"/><stop offset="1" stop-color="#204531" stop-opacity="0"/></radialGradient><radialGradient id="paint2_radial_1862_29289" cx="0" cy="0" r="1" gradientUnits="userSpaceOnUse" gradientTransform="translate(763.331 480.497) scale(8.53757)"><stop stop-color="#F8F8F8"/><stop offset=".002" stop-color="#F8F8F7"/><stop offset=".079" stop-color="#F8EAB7"/><stop offset=".15" stop-color="#F8E085"/><stop offset=".211" stop-color="#F8D861"/><stop offset=".261" stop-color="#F8D44B"/><stop offset=".293" stop-color="#F8D243"/><stop offset=".352" stop-color="#F5D343" stop-opacity=".887"/><stop offset=".4" stop-color="#EBD443" stop-opacity=".795"/><stop offset=".444" stop-color="#DAD843" stop-opacity=".71"/><stop offset=".486" stop-color="#C1DC43" stop-opacity=".63"/><stop offset=".527" stop-color="#A2E243" stop-opacity=".552"/><stop offset=".566" stop-color="#7CE843" stop-opacity=".477"/><stop offset=".604" stop-color="#4FF144" stop-opacity=".404"/><stop offset=".641" stop-color="#1CFA44" stop-opacity=".334"/><stop offset=".659" stop-color="#0F4" stop-opacity=".3"/><stop offset="1" stop-color="#204531" stop-opacity="0"/></radialGradient><radialGradient id="paint3_radial_1862_29289" cx="0" cy="0" r="1" gradientUnits="userSpaceOnUse" gradientTransform="translate(34.813 133.998) scale(5.0221)"><stop stop-color="#F8F8F8"/><stop offset=".002" stop-color="#F8F8F7"/><stop offset=".079" stop-color="#F8EAB7"/><stop offset=".15" stop-color="#F8E085"/><stop offset=".211" stop-color="#F8D861"/><stop offset=".261" stop-color="#F8D44B"/><stop offset=".293" stop-color="#F8D243"/><stop offset=".352" stop-color="#F5D343" stop-opacity=".887"/><stop offset=".4" stop-color="#EBD443" stop-opacity=".795"/><stop offset=".444" stop-color="#DAD843" stop-opacity=".71"/><stop offset=".486" stop-color="#C1DC43" stop-opacity=".63"/><stop offset=".527" stop-color="#A2E243" stop-opacity=".552"/><stop offset=".566" stop-color="#7CE843" stop-opacity=".477"/><stop offset=".604" stop-color="#4FF144" stop-opacity=".404"/><stop offset=".641" stop-color="#1CFA44" stop-opacity=".334"/><stop offset=".659" stop-color="#0F4" stop-opacity=".3"/><stop offset="1" stop-color="#204531" stop-opacity="0"/></radialGradient><radialGradient id="paint4_radial_1862_29289" cx="0" cy="0" r="1" gradientUnits="userSpaceOnUse" gradientTransform="translate(38.306 176.499) scale(3.51547)"><stop stop-color="#F8F8F8"/><stop offset=".002" stop-color="#F8F8F7"/><stop offset=".079" stop-color="#F8EAB7"/><stop offset=".15" stop-color="#F8E085"/><stop offset=".211" stop-color="#F8D861"/><stop offset=".261" stop-color="#F8D44B"/><stop offset=".293" stop-color="#F8D243"/><stop offset=".352" stop-color="#F5D343" stop-opacity=".887"/><stop offset=".4" stop-color="#EBD443" stop-opacity=".795"/><stop offset=".444" stop-color="#DAD843" stop-opacity=".71"/><stop offset=".486" stop-color="#C1DC43" stop-opacity=".63"/><stop offset=".527" stop-color="#A2E243" stop-opacity=".552"/><stop offset=".566" stop-color="#7CE843" stop-opacity=".477"/><stop offset=".604" stop-color="#4FF144" stop-opacity=".404"/><stop offset=".641" stop-color="#1CFA44" stop-opacity=".334"/><stop offset=".659" stop-color="#0F4" stop-opacity=".3"/><stop offset="1" stop-color="#204531" stop-opacity="0"/></radialGradient><radialGradient id="paint5_radial_1862_29289" cx="0" cy="0" r="1" gradientUnits="userSpaceOnUse" gradientTransform="translate(1408.31 255.499) scale(3.51547)"><stop stop-color="#F8F8F8"/><stop offset=".002" stop-color="#F8F8F7"/><stop offset=".079" stop-color="#F8EAB7"/><stop offset=".15" stop-color="#F8E085"/><stop offset=".211" stop-color="#F8D861"/><stop offset=".261" stop-color="#F8D44B"/><stop offset=".293" stop-color="#F8D243"/><stop offset=".352" stop-color="#F5D343" stop-opacity=".887"/><stop offset=".4" stop-color="#EBD443" stop-opacity=".795"/><stop offset=".444" stop-color="#DAD843" stop-opacity=".71"/><stop offset=".486" stop-color="#C1DC43" stop-opacity=".63"/><stop offset=".527" stop-color="#A2E243" stop-opacity=".552"/><stop offset=".566" stop-color="#7CE843" stop-opacity=".477"/><stop offset=".604" stop-color="#4FF144" stop-opacity=".404"/><stop offset=".641" stop-color="#1CFA44" stop-opacity=".334"/><stop offset=".659" stop-color="#0F4" stop-opacity=".3"/><stop offset="1" stop-color="#204531" stop-opacity="0"/></radialGradient><radialGradient id="paint6_radial_1862_29289" cx="0" cy="0" r="1" gradientUnits="userSpaceOnUse" gradientTransform="translate(1366.32 325.498) scale(5.52431)"><stop stop-color="#F8F8F8"/><stop offset=".002" stop-color="#F8F8F7"/><stop offset=".079" stop-color="#F8EAB7"/><stop offset=".15" stop-color="#F8E085"/><stop offset=".211" stop-color="#F8D861"/><stop offset=".261" stop-color="#F8D44B"/><stop offset=".293" stop-color="#F8D243"/><stop offset=".352" stop-color="#F5D343" stop-opacity=".887"/><stop offset=".4" stop-color="#EBD443" stop-opacity=".795"/><stop offset=".444" stop-color="#DAD843" stop-opacity=".71"/><stop offset=".486" stop-color="#C1DC43" stop-opacity=".63"/><stop offset=".527" stop-color="#A2E243" stop-opacity=".552"/><stop offset=".566" stop-color="#7CE843" stop-opacity=".477"/><stop offset=".604" stop-color="#4FF144" stop-opacity=".404"/><stop offset=".641" stop-color="#1CFA44" stop-opacity=".334"/><stop offset=".659" stop-color="#0F4" stop-opacity=".3"/><stop offset="1" stop-color="#204531" stop-opacity="0"/></radialGradient><radialGradient id="paint7_radial_1862_29289" cx="0" cy="0" r="1" gradientUnits="userSpaceOnUse" gradientTransform="translate(145.331 310.497) scale(8.53757)"><stop stop-color="#F8F8F8"/><stop offset=".002" stop-color="#F8F8F7"/><stop offset=".079" stop-color="#F8EAB7"/><stop offset=".15" stop-color="#F8E085"/><stop offset=".211" stop-color="#F8D861"/><stop offset=".261" stop-color="#F8D44B"/><stop offset=".293" stop-color="#F8D243"/><stop offset=".352" stop-color="#F5D343" stop-opacity=".887"/><stop offset=".4" stop-color="#EBD443" stop-opacity=".795"/><stop offset=".444" stop-color="#DAD843" stop-opacity=".71"/><stop offset=".486" stop-color="#C1DC43" stop-opacity=".63"/><stop offset=".527" stop-color="#A2E243" stop-opacity=".552"/><stop offset=".566" stop-color="#7CE843" stop-opacity=".477"/><stop offset=".604" stop-color="#4FF144" stop-opacity=".404"/><stop offset=".641" stop-color="#1CFA44" stop-opacity=".334"/><stop offset=".659" stop-color="#0F4" stop-opacity=".3"/><stop offset="1" stop-color="#204531" stop-opacity="0"/></radialGradient><clipPath id="clip0_1862_29289"><path fill="#fff" d="M0 0h1440v690H0z"/></clipPath><clipPath id="clip1_1862_29289"><path fill="#fff" transform="rotate(-12.669 2462.1 -3250.153)" d="M0 0h565.089v115.834H0z"/></clipPath><clipPath id="clip2_1862_29289"><path fill="#fff" transform="rotate(-.56 42594.899 -37230.672)" d="M0 0h556.991v146.047H0z"/></clipPath></defs></svg>