<svg fill="none" height="70" viewBox="0 0 70 70" width="70" xmlns="http://www.w3.org/2000/svg"><g fill="#586638"><path d="M35 70C15.7 70 0 54.399 0 35.222v-.446C0 15.601 15.701 0 35 0s35 15.601 35 34.776v.446c0 19.177-15.701 34.776-35 34.776z"/><path d="M35 70C15.7 70 0 54.399 0 35.222v-.446C0 15.601 15.701 0 35 0s35 15.601 35 34.776v.446c0 19.177-15.701 34.776-35 34.776z"/><path d="M34.999 2.092c-18.138 0-32.894 14.661-32.894 32.684v.446c0 18.023 14.756 32.685 32.894 32.685s32.896-14.664 32.896-32.685v-.446c0-18.023-14.758-32.684-32.896-32.684z"/></g><path d="M65.354 34.778c0 16.657-13.59 30.16-30.355 30.16S4.646 51.435 4.646 34.778 18.236 4.616 34.999 4.616c16.764 0 30.355 13.504 30.355 30.162z" fill="#7a7829"/><path d="M17.466 12.789s-5.894 6.341-5.541 9.216c.043.369.908 4.25.908 4.25l-3.347 1.99c-.917 1.29-1.12 4.015-1.16 6.531-.07 4.332.073 7.407 1.14 9.286.33.58 3.615 1.883 5.001 2.488l-.918 4.838c7.553 7.76 18.776 8.884 22.872 8.884 4.37 0 12.574-3.543 15.53-5.4 0 0-.848-3.324-2.048-4.559 0 0 8.25-.732 8.643-1.345 3.71-5.773 2.722-15.418 2.722-15.418-.938-1.05-3.964-4.278-3.964-4.278l3.386-2.806c-2.742-9.09-4.018-12.74-17.007-17.735-13.476-5.186-26.219 4.058-26.219 4.058z" fill="#a3a54e"/><path d="M58.349 54.323c.468-.6 1.56-2.3 1.982-2.933h-6.052zM7.047 46.551c.352.826 1.285 2.552 1.707 3.34l3.17-2.493z" fill="#586638"/><path d="M35 7.67c16.248 0 29.514 12.686 30.315 28.633.026-.505.04-1.015.04-1.527 0-16.657-13.59-30.161-30.356-30.161-16.765 0-30.353 13.505-30.353 30.163 0 .512.013 1.022.039 1.527C5.485 20.356 18.75 7.67 34.999 7.67z" fill="#d1c77d"/><path d="M22.3 8.715c.379.666-.269 1.744-1.451 2.407-1.18.663-2.444.66-2.823-.007-.38-.664.27-1.742 1.45-2.405 1.182-.663 2.445-.66 2.822.005zM27.919 6.653c.196.53-.274 1.188-1.048 1.47-.777.283-1.564.083-1.758-.446-.195-.528.275-1.188 1.05-1.47.776-.284 1.563-.083 1.758.446z" fill="#fff"/><path d="M51.763 35.65a.961.961 0 0 0-.08-.08.962.962 0 0 0-.082-.08.948.948 0 0 0-.08-.081.96.96 0 0 0-.082-.08.963.963 0 0 0-.08-.081.947.947 0 0 0-.082-.08.961.961 0 0 0-.08-.081.962.962 0 0 0-.082-.08.948.948 0 0 0-.08-.081.947.947 0 0 0-.082-.08.946.946 0 0 0-.08-.08.947.947 0 0 0-.082-.081.948.948 0 0 0-.08-.08.946.946 0 0 0-.082-.081.934.934 0 0 0-.08-.08.933.933 0 0 0-.082-.081.932.932 0 0 0-.08-.08.948.948 0 0 0-.081-.081.947.947 0 0 0-.081-.08 1.408 1.408 0 0 0-.1-.099c-.34-.299-.809-.543-1.254-.62a17.832 17.832 0 0 0-1.375-.176l.013-.007c1.07-.579 2.244-.963 3.34-1.5.456-.221.91-.543 1.222-.934.442-.555.413-1.13.01-1.485a1.28 1.28 0 0 0-.082-.08c-.026-.028-.051-.055-.08-.081a1.257 1.257 0 0 0-.082-.08c-.025-.028-.051-.055-.08-.081a1.28 1.28 0 0 0-.081-.08c-.026-.028-.052-.055-.081-.08a1.257 1.257 0 0 0-.081-.081c-.026-.028-.052-.055-.081-.08a1.257 1.257 0 0 0-.081-.081c-.026-.028-.052-.055-.081-.08a1.28 1.28 0 0 0-.081-.081c-.026-.027-.052-.055-.081-.08a1.257 1.257 0 0 0-.081-.081c-.026-.027-.052-.055-.081-.08a1.231 1.231 0 0 0-.081-.081c-.026-.027-.052-.055-.081-.08-.026-.028-.052-.055-.081-.08a1.283 1.283 0 0 0-.081-.081c-.026-.028-.052-.055-.081-.08-.17-.19-.43-.33-.774-.393a7.19 7.19 0 0 0-1.95-.071c-1.626.154-3.148.698-4.628 1.37-.217.097-.442.215-.672.237-1.148.118-2.291.253-3.415.54a1.195 1.195 0 0 0-.297-.416c-.024-.027-.053-.053-.08-.08-.025-.028-.054-.053-.081-.08-.025-.028-.054-.054-.081-.081-.025-.028-.054-.053-.081-.08-.025-.028-.054-.054-.081-.081-.025-.027-.054-.053-.081-.08-.025-.028-.054-.054-.081-.081-.025-.027-.054-.053-.081-.08-.025-.028-.054-.054-.081-.08-.025-.028-.054-.054-.081-.081-.024-.028-.054-.054-.081-.08-.024-.028-.054-.054-.081-.081-.024-.028-.054-.053-.081-.08-.024-.028-.054-.054-.081-.081-.024-.028-.053-.053-.081-.08-.024-.028-.053-.054-.08-.081-.025-.028-.054-.053-.082-.08-.024-.028-.053-.054-.08-.081-.025-.027-.054-.053-.082-.08a2.117 2.117 0 0 0-.444-.358c-.055-.034-.111-.067-.163-.108-1.01-.79-2.113-.125-2.724.509-.146.151-.2.507-.134.718.102.328.345.611.588 1.015l-.065.944c-1.283-.65-2.619-.986-3.984-1.123-1.213-.12-2.333-.445-3.45-.914-.838-.352-1.738-.579-2.632-.775-.918-.201-1.86-.31-2.795-.05-.94.259-1.21 1-.666 1.81.093.137.198.258.311.365.026.028.054.055.081.08.026.028.054.055.081.081.026.028.054.055.081.08.026.028.053.055.081.081.026.027.053.055.081.08.026.028.053.055.081.081.026.027.053.055.081.08.026.028.053.055.08.081.027.027.054.055.082.08.026.028.053.055.08.08.027.028.054.056.082.081.026.028.053.055.08.08.027.028.054.055.082.081.026.028.053.055.08.08.027.028.054.055.082.081.026.028.053.055.08.08.027.028.054.055.082.081.026.027.053.055.08.08.026.028.054.055.082.081.29.304.65.513 1.054.682 1.026.43 2.07.83 3.059 1.337-1.06.047-2.12.087-3.177.152a7.94 7.94 0 0 0-1.74.29c-.547.162-.958.558-1.021 1.158-.04.375.1.645.327.85.026.028.051.056.08.081.027.028.052.055.082.08.025.028.051.056.08.081.026.028.052.055.082.08.025.028.051.055.08.081.026.028.052.055.081.08.026.028.052.055.081.081.026.027.052.055.081.08.026.028.052.055.081.081.026.027.052.055.081.08.026.028.052.055.081.08.026.028.052.056.081.081.026.028.052.055.081.08.026.028.052.055.081.081.026.028.052.055.081.08.026.028.052.055.081.081.026.027.052.055.081.08.026.028.052.055.081.081.026.027.052.055.081.08.157.173.374.303.61.408.358.157.73.308 1.11.386 1.56.315 3.124.637 4.698.88.835.129 1.697.141 2.545.129.761-.012 1.522-.187 2.283-.177.456.006.828-.1 1.157-.317.006 1.443.013 2.888.022 4.331.007 1 0 2 .04 2.998.02.487.067.994.52 1.462l.002-.004c.025.029.05.058.078.085l.003-.005c.025.03.05.058.078.085l.003-.004c.024.028.05.057.078.085l.003-.005c.024.029.05.058.078.085L36 47.49c.024.03.05.058.078.086l.003-.005c.024.029.05.058.078.085l.003-.005c.024.03.05.058.078.086l.003-.005c.024.029.05.058.078.085l.003-.005c.024.03.05.058.078.086l.003-.005c.024.029.05.058.078.085l.003-.005c.024.03.05.058.078.085l.003-.004c.024.029.05.058.078.085l.003-.005c.024.029.05.058.078.085l.003-.005c.024.03.05.058.078.086l.003-.005c.024.029.05.058.078.085l.003-.005c.024.03.05.058.078.086l.003-.005c.024.029.05.058.077.085l.004-.005c.024.03.05.058.077.086l.004-.005c.024.029.05.058.077.085l.004-.005c.024.03.05.058.077.085.125-.263.274-.458.306-.67.098-.643.203-1.29.21-1.938.025-2.824.016-5.65.022-8.473 0-.219.021-.44.034-.658l.107-.027.034.033c.027.028.053.055.08.08.028.028.054.055.082.081.027.028.053.055.08.08.028.028.054.055.082.081.027.027.053.055.08.08.028.028.054.055.082.081.027.027.053.055.08.08.028.028.054.055.082.081.027.027.053.055.08.08.028.028.054.055.082.08.027.028.053.056.08.081.028.028.054.055.082.08.451.463.957.773 1.656.677.275-.039.565.028.849.045 1.086.06 2.162.307 3.263.101 1.63-.304 3.276-.533 4.9-.867a6.879 6.879 0 0 0 1.941-.734c.626-.35.698-1.105.175-1.585z" fill="#767c28"/><path d="M35.675 47.172c-.452-.468-.5-.975-.518-1.462-.041-.998-.034-1.999-.041-2.998-.013-2.217-.02-4.433-.034-6.65 0-.21-.036-.423-.065-.751-.434.424-.798.759-1.138 1.118-.428.452-.91.668-1.561.658-.76-.01-1.52.166-2.284.177-.848.011-1.71 0-2.545-.129-1.574-.243-3.137-.565-4.698-.88-.38-.077-.753-.227-1.11-.386-.503-.224-.922-.562-.856-1.178.063-.6.475-.997 1.022-1.157a7.94 7.94 0 0 1 1.74-.291c1.81-.11 3.625-.15 5.435-.267 1.657-.108 3.31-.277 4.964-.427.139-.012.273-.078.41-.12l-.009-.158c-.303 0-.605-.011-.908.002-1.506.066-3.01.186-4.515.196a7.594 7.594 0 0 1-3.648-.898c-1.038-.548-2.144-.97-3.231-1.424-.518-.217-.97-.499-1.284-.967-.544-.81-.272-1.551.665-1.81.935-.26 1.877-.151 2.795.05.893.196 1.795.423 2.634.775 1.115.469 2.236.794 3.449.914 1.365.137 2.7.473 3.983 1.123.028-.41.05-.748.065-.944-.244-.404-.486-.689-.588-1.015-.066-.211-.011-.565.135-.718.612-.636 1.713-1.299 2.724-.508.051.04.108.074.163.107.943.583.955 1.328.036 1.971l.082 1.117c1.804-.896 3.684-1.136 5.576-1.329.23-.024.455-.142.672-.238 1.478-.671 3-1.215 4.628-1.37a7.2 7.2 0 0 1 1.95.071c.992.182 1.311 1.01.685 1.798-.311.39-.766.713-1.221.935-1.097.534-2.27.92-3.341 1.5-1.534.828-3.177.908-4.84.892-1.09-.011-2.178-.156-3.27-.231-.285-.02-.572-.004-.858-.004l-.013.182c.175.039.348.1.523.111 2.856.187 5.715.36 8.57.554.958.064 1.923.122 2.867.286.446.077.914.322 1.255.621.545.478.477 1.25-.157 1.603-.599.334-1.27.595-1.941.733-1.624.335-3.27.564-4.9.868-1.102.206-2.177-.044-3.263-.102-.284-.016-.574-.082-.849-.045-.71.098-1.221-.225-1.68-.698l-.947-.985-.142.037c-.011.22-.032.44-.034.658-.007 2.824.003 5.65-.023 8.474-.006.646-.111 1.295-.209 1.937-.032.212-.181.407-.306.67z" fill="#fff"/></svg>