<svg width="32" height="32" viewBox="0 0 32 32" fill="none" xmlns="http://www.w3.org/2000/svg"><path d="M15 11.835A4.174 4.174 0 0 1 19.166 16 4.174 4.174 0 0 1 15 20.166 4.175 4.175 0 0 1 10.834 16 4.174 4.174 0 0 1 15 11.835ZM2.506 16c0-1.725-.016-3.434.081-5.156.097-2 .553-3.775 2.016-5.237C6.069 4.14 7.84 3.687 9.84 3.59c1.726-.097 3.435-.081 5.157-.081 1.725 0 3.434-.016 5.156.081 2 .097 3.775.553 5.238 2.016 1.465 1.465 1.918 3.237 2.015 5.237.097 1.725.081 3.434.081 5.156 0 1.722.016 3.435-.08 5.157-.098 2-.554 3.775-2.017 5.237-1.465 1.466-3.237 1.919-5.237 2.016-1.725.097-3.434.081-5.156.081-1.725 0-3.435.016-5.157-.081-2-.097-3.775-.553-5.237-2.016-1.466-1.465-1.919-3.237-2.016-5.237-.1-1.722-.08-3.432-.08-5.157ZM15 22.41A6.4 6.4 0 0 0 21.41 16 6.4 6.4 0 0 0 15 9.591a6.4 6.4 0 0 0-6.41 6.41A6.4 6.4 0 0 0 15 22.41ZM8.328 10.825c.828 0 1.497-.668 1.497-1.497 0-.828-.669-1.496-1.497-1.496a1.495 1.495 0 0 0-1.383 2.07 1.496 1.496 0 0 0 1.383.923Z" fill="#fff"/></svg>