<svg fill="none" height="361" viewBox="0 0 593 361" width="593" xmlns="http://www.w3.org/2000/svg"><path clip-rule="evenodd" d="M276.57 354.926c11.392-3.708 62.861-17.858 179.007-14.473 59.001 1.746 101.869 7.074 131.379 12.457l-1.33-8.767V317.5l-3.747-30.117v-41.71l-5.621-20.864V121.695l2.81-33.61 3.748-18.523 7.494-27.813-.937-2.322.937-5.797-2.81 5.797c1.498-7.417 0-6.95-.937-5.797-2.192 6.193-6.371 17.39-5.621 12.745.937-5.778 4.684-18.524 8.431-19.694 2.998-.918-.618-1.926-2.81-2.304-1.256.378-3.373.684-1.874-1.17 1.874-2.322 4.684-3.474 7.495 0 1.513 1.871.309-.963-1.124-4.337-1.228-2.89-2.624-6.175-2.624-7.238 0-1.08-.206-5.905-.449-10.963-7.045 2.142-18.324 5.166-33.969 8.137a483.128 483.128 0 0 1-24.732 4.032c-34.005 4.661-62.714 4.59-74.195 4.562-2.664-.007-4.4-.011-5.06.046 21.303-2.178 48.19-7.308 49.014-7.47-81.483 8.32-122.188 5.556-124.411 5.405l-.073-.005 4.31 2.088c-4.216-.81-12.067-1.782-19.093-2.574-10.042-1.134-18.942-2.574-26.287-4.284l-4.403-1.008-3.485 2.412c-3.016-3.403 2.548-6.103 3.391-6.48-9.906 3.15-28.327 7.217-30.833 7.77l-.269.06 19.673-6.895c-21.79 4.195-39.271 6.751-51.431 8.245-11.879 1.476-18.774 1.944-19.636 1.998a406.152 406.152 0 0 0 14.54-2.16c5.639-.954 11.129-2.25 16.263-3.708-39.159 3.852-89.953 6.84-89.953 6.84l44.255-8.298c-3.391.396-65.821 7.65-139.08 5.706-49.464-1.296-73.371-3.906-83.976-5.544v2.592l13.06 7.129c-4.647-.9-8.994-1.783-13.06-2.647v3.547l-4.684 5.4 2.81 14.402v20.702l3.748 23.402v32.403l5.62 16.202v80.108l-2.81 26.103-3.747 14.401-7.495 21.602.937 1.8-.937 4.501 2.81-4.501c-1.498 5.761 0 5.401.938 4.501 2.192-4.807 6.37-13.502 5.62-9.901-.936 4.5-4.684 14.401-8.43 15.301-2.999.72.617 1.494 2.81 1.8 1.255-.306 3.372-.54 1.873.901-1.705 1.638-4.178 2.52-6.726.648v2.07l.382.699c1.22 2.232 2.597 4.754 2.597 5.583 0 1.441.618 11.396.937 16.202l2.81-3.6c-.937 1.8-2.81 6.3-2.81 9.901 0 3.6 1.255 6.894 1.873 8.101l.937 11.701-6.726 20.072c12.122-2.106 25.238-4.069 38.934-5.869-2.98-2.16-20.142-3.942-31.383-3.222 13.302-2.016 26.661-2.016 49.688.936 3.942-.463 7.94.063 11.96.592 3.948.52 7.917 1.042 11.873.632 94-4.969 187.476-4.374 187.476-4.374l-14.952 6.894c65.521-23.294 173.011-25.382 173.011-25.382-94.974 6.498-140.279 20.342-150.921 24.05z" fill="#9ad87d" fill-rule="evenodd"/></svg>