<svg width="32" height="32" viewBox="0 0 32 32" fill="none" xmlns="http://www.w3.org/2000/svg"><path d="M17.23 16c0 4.349-3.41 7.875-7.616 7.875a7.368 7.368 0 0 1-2.91-.596 7.59 7.59 0 0 1-2.47-1.706 7.91 7.91 0 0 1-1.651-2.556A8.14 8.14 0 0 1 2 16c0-4.35 3.409-7.875 7.614-7.875.999-.002 1.988.2 2.911.596a7.59 7.59 0 0 1 2.47 1.706 7.91 7.91 0 0 1 1.652 2.556c.383.956.581 1.981.583 3.017Zm8.353 0c0 4.095-1.705 7.413-3.807 7.413-2.103 0-3.807-3.32-3.807-7.413 0-4.095 1.704-7.413 3.807-7.413 2.102 0 3.807 3.32 3.807 7.413ZM29 16c0 3.668-.6 6.641-1.34 6.641-.739 0-1.338-2.975-1.338-6.641 0-3.668.599-6.641 1.34-6.641C28.4 9.359 29 12.332 29 16Z" fill="#fff"/></svg>