<svg fill="none" height="243" viewBox="0 0 375 243" width="375" xmlns="http://www.w3.org/2000/svg"><clipPath id="a"><path d="M0 0h375v243H0z"/></clipPath><g clip-path="url(#a)" fill="#101615"><path d="m150.561 27.315-.956 2.39s-24.079 31.184-87.71 40.508C3.251 78.786-20.999 58.908-24.448 55.732c3.21 3.074 24.762 21.996 73.057 28.11 0 0-51.3.477-82.826-28.52v10.349s-100.176-6.046-140.581-35.931c0 0 .034 0 .034-.034.034 0 .034-1.4.034-1.435z"/><path d="M261.805 28.134 48.234 26.017s10.417 16.565 31.9 32.55c5.431 4.03 11.545 8.06 18.41 11.748 31.184 16.805 56.39 12.604 58.986 13.492-15.848-6.387-35.863-21.347-36.478-21.825 61.547 24.625 91.843 15.984 92.662 15.745l-3.21 6.114c3.142-2.357 8.983-5.226 14.208-7.514 7.48-3.313 14.106-7.514 19.571-12.5l3.279-2.972 2.596 7.036c2.356-10.452-2.357-18.615-2.596-18.99 7.787 9.768 22.747 22.542 23.225 22.952L256.135 51.7c16.223 12.296 29.237 19.742 38.288 24.114 8.846 4.269 13.969 5.67 14.618 5.806-3.826-1.913-7.446-4.065-10.827-6.319-19.4-12.808-36.409-47.168-36.409-47.168z"/><path d="M527.222 28.441s-8.573 27.803-51.403 58.61l15.199-31.047s-11.92 13.936-67.832 19.469-103.319-15.985-103.319-15.985l32.926 23.123s-66.466-14.584-90.921-30.159c-36.511-23.225-34.769-21.551-34.769-21.551z"/><path clip-rule="evenodd" d="m514.243 59.488 1.674-14.72s-87.642-6.763-144.373-2.357l68.515 12.569s-67.525-9.051-124.256-6.592l-19.332 8.06 13.97 11.852S264.4 51.633 248.552 31.071l278.636-2.63c.034 0-3.211 20.186-12.945 31.047z" fill-rule="evenodd"/><path d="M563.632 26.051s-55.775 88.017-148.574 91.467C322.259 121.002 145.063 6.583 145.063 6.583l-12.501-.103s182.149 112.848 279.183 114.01c97 1.161 161.109-93.448 161.109-93.448z"/><path d="M417.039 128.789c23.259 0 53.213-13.526 82.313-37.161 25.821-20.971 46.519-46.28 52.77-64.485l-2.152-.136C537.196 64.2 466.871 127.832 417.073 127.832h-.478c-50.447-.41-150.726-54.99-156.874-59.976-2.186-1.776-5.225-4.816-8.197-7.787-5.567-5.568-9.119-9.017-11.134-9.666-1.059-.342-3.074-.478-9.154-.786-13.901-.683-39.756-1.946-51.915-7.719-16.326-7.753-11.716-27.392-11.681-27.597l-2.152-.102c-.205.82-4.748 20.254 12.193 28.314 12.706 6.046 39.108 7.343 53.282 8.027 3.996.204 8.095.41 8.778.614 1.707.547 5.874 5.397 9.768 9.29 2.971 2.972 6.045 6.046 8.265 7.856 6.217 5.02 107.52 60.044 158.753 60.454.17.034.341.035.512.035zM97.998 64.44s-4.303.786-5.089 2.494c-.786 1.708-3.313 9.768-9.188 10.964-5.874 1.161-7.309 2.22-7.309 2.22s1.23-6.524 5.533-9.256c4.304-2.732 8.095-4.68 9.871-5.226 1.776-.512 3.006-1.434 3.757-1.81.786-.376 1.981 0 2.425-.922z"/><path d="M91.816 63.724s4.132 1.502 4.61 3.278c.479 1.81 1.674 10.179 7.276 12.296 5.601 2.118 6.865 3.382 6.865 3.382s-.137-6.627-3.962-10.042c-3.826-3.416-7.207-5.943-8.88-6.763s-2.733-1.912-3.416-2.425c-.717-.512-1.981-.307-2.254-1.298zM30.207 56.987l-2.645 180.048-.935 1.403 1.914-181.465z"/><path d="M28.19 89.671s-4.485 3.565-5.434 12.01c0 0 4.222-1.738 5.58-6.18zM28.278 115.109s-4.485 3.565-5.435 12.01c0 0 4.222-1.739 5.581-6.181zM27.577 188.294s-4.486 3.565-5.435 12.01c0 0 4.222-1.739 5.581-6.18zM27.241 217.019s-2.893 2.293-3.507 7.743c0 0 2.718-1.125 3.595-3.988zM27.329 228.619s-2.893 2.294-3.507 7.744c0 0 2.718-1.125 3.594-3.989zM28.527 135.798s-6.093 1.008-7.043 9.438c0 0 5.845.818 7.203-3.609zM27.372 162.448s-1.87 4.529-2.82 12.974c0 0 1.608-2.703 2.966-7.145zM27.635 235.311s.526 3.2.176 4.676c-.365 1.475-1.768 3.01-1.768 3.01s-.35-4.384.614-6.517zM27.709 227.465s2.688 3.098 3.053 6.195c0 0-1.958-1.081-3.258-3.17zM27.782 211.481s3.2 2.177 3.623 7.422c0 0-3.054-2.498-3.77-4.763zM28.015 181.792s3.2 2.177 3.624 7.422c0 0-3.054-2.498-3.77-4.763zM28.22 154.265s4.018 2.733 4.544 9.337c0 0-3.843-3.142-4.749-5.991zM29.886 76.814s5.946 4.032 6.735 13.807c0 0-5.684-4.631-7.028-8.869zM28.658 122.107s4.018 2.733 4.544 9.337c0 0-3.842-3.142-4.748-5.991zM50.892 52.09l-1.824 64.866 1.824 1.132 2.91-65.353z"/><path d="M50.562 97.41s-6.683 3.742-8.193 10.488c0 0 5.614-1.525 7.768-5.236zM50.059 107.081s-6.055 5.96-5.96 14.027c0 0 4.12-1.463 5.96-3.884zM50.232 117.68s-.315 8.145 3.57 11.07c0 0 .408-7.155-3.24-14.656zM52.024 90.334s3.994 4.921 5.708 12.816c0 0-6.4-.74-6.4-8.083zM51.977 73.209s3.35 1.399 4.843 8.208c0 0-4.749-.126-5.425-4.12zM50.656 76.668s-5.708 4.262-5.944 11.496c0 0 5.19-2.14 6.62-7.203zM51.427 54.276s-7.989 5.96-8.319 16.071c0 0 7.25-2.988 9.262-10.08zM0 0h377v39H0z"/></g></svg>