<svg fill="none" height="70" viewBox="0 0 70 70" width="70" xmlns="http://www.w3.org/2000/svg"><g fill="#6e5a34"><path d="M35 70C15.7 70 0 54.399 0 35.222v-.446C0 15.601 15.701 0 35 0s35 15.601 35 34.776v.446c0 19.177-15.701 34.776-35 34.776z"/><path d="M35 70C15.7 70 0 54.399 0 35.222v-.446C0 15.601 15.701 0 35 0s35 15.601 35 34.776v.446c0 19.177-15.701 34.776-35 34.776z"/><path d="M34.999 2.092c-18.138 0-32.894 14.661-32.894 32.684v.446c0 18.023 14.756 32.685 32.894 32.685s32.896-14.664 32.896-32.685v-.446c0-18.023-14.758-32.684-32.896-32.684z"/></g><path d="M65.354 34.778c0 16.657-13.59 30.16-30.355 30.16S4.646 51.435 4.646 34.778 18.236 4.616 34.999 4.616c16.764 0 30.355 13.504 30.355 30.162z" fill="#6c3e00"/><path d="M17.466 12.789s-5.894 6.341-5.541 9.216c.043.369.908 4.25.908 4.25l-3.347 1.99c-.917 1.29-1.12 4.015-1.16 6.531-.07 4.332.073 7.407 1.14 9.286.33.58 3.615 1.883 5.001 2.488l-.918 4.838c7.553 7.76 18.776 8.884 22.872 8.884 4.37 0 12.574-3.543 15.53-5.4 0 0-.848-3.324-2.048-4.559 0 0 8.25-.732 8.643-1.345 3.71-5.773 2.722-15.418 2.722-15.418-.938-1.05-3.964-4.278-3.964-4.278l3.386-2.806c-2.742-9.09-4.018-12.74-17.007-17.735-13.476-5.186-26.219 4.058-26.219 4.058z" fill="#a87a29"/><path d="M58.349 54.323c.468-.6 1.56-2.3 1.982-2.933h-6.052zM7.047 46.551c.352.826 1.285 2.552 1.707 3.34l3.17-2.493z" fill="#6e5a34"/><path d="M35 7.67c16.248 0 29.514 12.686 30.315 28.633.026-.505.04-1.015.04-1.527 0-16.657-13.59-30.161-30.356-30.161-16.765 0-30.353 13.505-30.353 30.163 0 .512.013 1.022.039 1.527C5.485 20.356 18.75 7.67 34.999 7.67z" fill="#e0c194"/><path d="M22.3 8.715c.379.666-.269 1.744-1.451 2.407-1.18.663-2.444.66-2.823-.007-.38-.664.27-1.742 1.45-2.405 1.182-.663 2.445-.66 2.822.005zM27.919 6.653c.196.53-.274 1.188-1.048 1.47-.777.283-1.564.083-1.758-.446-.195-.528.275-1.188 1.05-1.47.776-.284 1.563-.083 1.758.446z" fill="#fff"/><path d="m49.318 39.724-.08-.072v-.008l-.08-.073v-.008l-.082-.072v-.008l-.08-.073v-.008l-.082-.072v-.008l-.08-.073v-.008l-.082-.072v-.008l-.08-.072v-.008l-.081-.073V39l-.081-.072v-.008l-.081-.073v-.008l-.081-.072v-.008l-.081-.073v-.008l-.081-.072v-.008l-.081-.073v-.008l-.081-.072v-.008l-.081-.072v-.009l-.081-.072v-.008l-.081-.072v-.008l-.081-.073v-.008l-.196-.177-1.381-3.82-.078-.072-.003-.008-.078-.073-.003-.008-.078-.072-.003-.008-.078-.073-.003-.008-.078-.072-.003-.008-.078-.072-.003-.008-.078-.073-.003-.008-.078-.072-.003-.008-.078-.073-.003-.008-.078-.072-.003-.008-.078-.073-.003-.008-.078-.072-.003-.008-.078-.073-.003-.008-.078-.072-.003-.008-.078-.073-.003-.008-.078-.072-.003-.008-.078-.072-.003-.008-.078-.073-.003-.008-.078-.072-.003-.008-.077-.073-.004-.008-1.679-1.55-4.275-8.428-.02.042-.061-.122-.02.042-.061-.122-.02.041-.06-.122-.02.042-.062-.122-.02.042-.06-.123-.02.042-.062-.122-.02.042-.06-.123-.02.042-.062-.122-.02.042-.06-.123-.02.042-.062-.122-.02.042-.06-.122-.02.041-.062-.122-.02.042-.06-.122-.02.041-.062-.122-.019.042-.062-.122-.019.042-.062-.123-.019.042-.062-.122-.019.042-.062-.123-.019.042-.061-.122-.02.042-.061-.123-3.356 7.455.883.966v-.007l.08.087v-.006l.082.086v-.006l.08.087v-.006l.082.086v-.006l.08.087v-.007l.082.087v-.006l.08.087v-.007l.082.087v-.006l.08.087v-.007l.081.087v-.006l.081.087v-.007l.081.087v-.006l.081.086v-.006l.081.087v-.007l.081.087v-.006l.081.087v-.007l.081.087v-.006l.081.087v-.007l.081.087v-.006l.081.087.04-.126.877-1.947.12 1.262 1.538 2.63.044.018.037.063.044.018.037.062.044.018.037.063.044.018.037.062.044.018.037.063.043.017.038.063.043.018.038.063.043.017.038.063.043.018.038.063.043.017.038.063.043.018.038.062.043.018.038.063.043.018.038.062.043.018.037.063.044.017.037.063.044.018.037.063.044.017.037.063.044.018.037.063.044.017.037.063.044.018.01.016 1.488 2.703.45 3.028-.965.443-.2-.53L38.29 36.3l-.737-2.151-5.206-5.704-.003.005-.078-.086-.003.005-.078-.085-.003.005-.078-.086-.003.005-.078-.085-.003.005-.078-.086-.003.005-.078-.085-.003.005-.078-.085-.003.004-.078-.085-.003.005-.078-.085-.003.004-.078-.085-.003.005-.078-.085-.003.005-.078-.086-.003.005-.078-.085-.003.005-.078-.086-.003.005-.078-.085-.003.005-.078-.086-.003.005-.078-.085-.003.005-.078-.085-.003.004-.078-.085-.003.005-.078-.085-4.226 6.13-2.444 1.625-1.124 3.08-1.81 2.65.264-.187-.183.268.264-.187-.183.267.264-.187-.183.267.264-.186-.183.267.264-.187-.183.267.264-.186-.183.267.264-.187-.183.267.264-.186-.183.267.264-.187-.183.267.264-.186-.183.267.264-.187-.183.267.264-.187-.183.268.264-.187-.183.267.264-.187-.114.166-.171.097.082.08.083.08.082.081.083.08c.027.028.055.054.082.08l.083.081.083.08.082.081.083.08.082.081.083.08.083.081.082.08.083.081.082.08.083.08c.027.028.055.054.083.081.027.028.055.053.082.08l.083.081c.027.028.055.053.082.08a17.706 17.706 0 0 0 12.511 5.156c5.477 0 10.38-2.484 13.63-6.377l-.602-2.106zm-22.621-2.777 2.24-1.49 1.909-2.766.312 2.357-2.077 1.382-.831 3.01-2.471-.015.92-2.476z" fill="#6c3e00"/><path d="M34.67 46.598c-4.879 0-9.304-1.971-12.51-5.155l3.58-2.021 2.508.014.831-3.009 2.078-1.382-.752-5.675-3.088 4.476-2.24 1.49-1.1 2.966-2.85 2.018 1.811-2.65 1.124-3.08 2.444-1.626 4.226-6.13 5.207 5.704.736 2.151 2.726 3.679 1.05 2.762.551-.523 1.184-.543-.45-3.029-2.147-3.9-.935-.367-1.538-2.63-.531-5.557-2.086 4.633-.04.125-.883-.965 3.355-7.455 4.384 8.64 3.19 2.947 1.448 4.003 1.745 1.601.603 2.107a17.717 17.717 0 0 1-13.63 6.376z" fill="#fff"/></svg>