<svg fill="none" height="70" viewBox="0 0 70 70" width="70" xmlns="http://www.w3.org/2000/svg"><g fill="#5b615d"><path d="M35 70C15.7 70 0 54.399 0 35.222v-.446C0 15.601 15.701 0 35 0s35 15.601 35 34.776v.446c0 19.177-15.701 34.776-35 34.776z"/><path d="M35 70C15.7 70 0 54.399 0 35.222v-.446C0 15.601 15.701 0 35 0s35 15.601 35 34.776v.446c0 19.177-15.701 34.776-35 34.776z"/><path d="M34.999 2.092c-18.138 0-32.894 14.661-32.894 32.684v.446c0 18.023 14.756 32.685 32.894 32.685s32.896-14.664 32.896-32.685v-.446c0-18.023-14.758-32.684-32.896-32.684z"/></g><path d="M65.354 34.778c0 16.657-13.59 30.16-30.355 30.16S4.646 51.435 4.646 34.778 18.236 4.616 34.999 4.616c16.764 0 30.355 13.504 30.355 30.162z" fill="#c4c4c4"/><path d="M17.466 12.789s-5.894 6.341-5.541 9.216c.043.369.908 4.25.908 4.25l-3.347 1.99c-.917 1.29-1.12 4.015-1.16 6.531-.07 4.332.073 7.407 1.14 9.286.33.58 3.615 1.883 5.001 2.488l-.918 4.838c7.553 7.76 18.776 8.884 22.872 8.884 4.37 0 12.574-3.543 15.53-5.4 0 0-.848-3.324-2.048-4.559 0 0 8.25-.732 8.643-1.345 3.71-5.773 2.722-15.418 2.722-15.418-.938-1.05-3.964-4.278-3.964-4.278l3.386-2.806c-2.742-9.09-4.018-12.74-17.007-17.735-13.476-5.186-26.219 4.058-26.219 4.058z" fill="#eaeaea"/><path d="M35 7.67c16.248 0 29.514 12.686 30.315 28.633.026-.505.04-1.015.04-1.527 0-16.657-13.59-30.161-30.356-30.161-16.765 0-30.353 13.505-30.353 30.163 0 .512.013 1.022.039 1.527C5.485 20.356 18.75 7.67 34.999 7.67z" fill="#fff"/><path d="M22.3 8.715c.379.666-.269 1.744-1.451 2.407-1.18.663-2.444.66-2.823-.007-.38-.664.27-1.742 1.45-2.405 1.182-.663 2.445-.66 2.822.005zM27.919 6.653c.196.53-.274 1.188-1.048 1.47-.777.283-1.564.083-1.758-.446-.195-.528.275-1.188 1.05-1.47.776-.284 1.563-.083 1.758.446z" fill="#fff"/><path d="M58.349 54.323c.468-.6 1.56-2.3 1.982-2.933h-6.052zM7.047 46.551c.352.826 1.285 2.552 1.707 3.34l3.17-2.493z" fill="#5b615d"/><path d="M48.974 40.862a5.37 5.37 0 0 0-.704-.845l-.081-.08c-.026-.028-.054-.053-.081-.08-.026-.028-.054-.054-.081-.081-.026-.028-.054-.053-.081-.08-.026-.028-.054-.054-.081-.081-.026-.028-.054-.053-.081-.08-.026-.028-.054-.054-.081-.081l-.081-.08c-.026-.028-.054-.054-.081-.081l-.081-.08c-.026-.028-.054-.054-.081-.081l-.081-.08c-.026-.028-.053-.053-.081-.08-.026-.028-.053-.054-.08-.081-.027-.028-.054-.053-.082-.08-.026-.028-.053-.054-.08-.081-.027-.028-.054-.053-.082-.08-.026-.028-.053-.054-.08-.081l-.082-.08a6.863 6.863 0 0 0-.77-.678c-.593-.45-1.235-.81-1.899-1.123.247-.132.49-.275.728-.43.597-.39 1.143-.84 1.531-1.443.634-.986.666-2 .012-2.977a4.913 4.913 0 0 0-.729-.838c-.027-.026-.053-.055-.08-.08-.028-.026-.054-.055-.082-.081-.027-.026-.053-.055-.08-.08-.028-.026-.054-.055-.082-.08-.027-.027-.053-.056-.08-.081-.028-.026-.054-.055-.082-.08l-.08-.081c-.028-.026-.054-.055-.082-.08s-.053-.055-.08-.081c-.028-.026-.054-.055-.082-.08l-.08-.081c-.028-.026-.054-.055-.082-.08l-.08-.081c-.028-.026-.054-.055-.081-.08-.028-.026-.054-.055-.081-.08-.028-.027-.054-.056-.081-.081-.028-.026-.054-.055-.081-.08-.028-.026-.054-.055-.081-.081-.028-.026-.054-.055-.081-.08a7.358 7.358 0 0 0-.353-.324c-.504-.43-1.067-.751-1.662-1.023.573-.268 1.106-.599 1.561-1.051 1.058-1.046 1.056-2.314-.026-3.345l-.022-.021-.059-.06-.022-.02c-.02-.02-.038-.041-.059-.06l-.022-.021c-.02-.02-.037-.04-.059-.06a.292.292 0 0 1-.022-.02c-.02-.02-.037-.04-.058-.06l-.023-.021c-.02-.02-.037-.04-.058-.06-.009-.006-.017-.014-.023-.02-.02-.02-.037-.04-.058-.06-.009-.006-.017-.015-.023-.021-.02-.02-.037-.04-.058-.06a.293.293 0 0 1-.023-.02c-.02-.02-.037-.04-.058-.06l-.023-.02c-.02-.02-.037-.041-.058-.06a.293.293 0 0 1-.023-.021c-.02-.02-.037-.04-.058-.06l-.023-.02c-.02-.02-.037-.041-.058-.06a.293.293 0 0 1-.023-.021c-.02-.02-.037-.04-.058-.06l-.023-.02c-.02-.02-.037-.04-.058-.06a.29.29 0 0 1-.023-.021c-.02-.02-.037-.04-.058-.06l-.023-.02c-.02-.02-.037-.04-.058-.06a.274.274 0 0 1-.023-.021c-.02-.02-.037-.04-.058-.06l-.023-.02c-.02-.02-.037-.04-.058-.06a.274.274 0 0 1-.023-.021c-.02-.02-.037-.04-.058-.06l-.023-.02c-.02-.02-.037-.04-.058-.06a.257.257 0 0 1-.023-.02c-.02-.02-.037-.041-.058-.06a4.707 4.707 0 0 0-1.022-.752 10.821 10.821 0 0 0-1.655-.713c-2.383-.775-4.814-.801-7.256-.349-.977.182-1.938.46-2.8.974-.453.27-.908.566-1.28.934-.96.956-.964 2.113-.048 3.108.067.072.136.141.207.21.028.028.054.055.081.08l.081.081c.028.028.054.055.081.08l.081.081c.028.027.054.055.081.08l.081.081c.028.027.054.055.081.08l.081.081c.028.027.054.055.081.08.028.028.054.055.081.08.028.028.054.056.081.081.028.028.053.055.081.08.028.028.053.055.081.081.028.028.053.055.081.08.027.028.053.055.081.081.027.027.053.055.08.08.028.028.054.055.082.081.027.027.053.055.08.08.028.028.054.055.082.081.205.208.434.399.682.55.027.016.055.032.082.05l-.058-.02c-.43-.149-.818-.131-1.239.019-.77.276-1.512.603-2.206 1.04-.574.363-1.085.797-1.486 1.344-.773 1.053-.787 2.308.034 3.33.112.14.235.271.363.4l.08.08c.027.028.054.053.082.08.025.028.053.054.08.081.026.028.054.053.082.08.025.028.053.054.08.081l.081.08c.026.028.054.054.081.081l.081.08c.026.028.054.054.081.081l.081.08c.026.028.054.053.081.08.026.028.054.054.081.081.026.028.054.053.081.08.026.028.054.054.081.081.026.028.054.053.081.08.026.028.054.054.081.081l.081.08c.026.028.054.054.081.081l.081.08a7.367 7.367 0 0 0 1.359 1.107c-.167-.059-.332-.122-.499-.19-.343-.136-.667-.196-1.027-.057-1.13.434-2.228.933-3.172 1.696a7.474 7.474 0 0 0-1.26 1.276c-.963 1.268-.962 2.867.011 4.119.203.26.428.507.668.738.027.028.053.055.08.08l.081.081c.028.028.054.055.081.08l.081.081c.028.027.054.055.081.08l.081.081c.028.027.054.055.081.08l.081.081c.028.027.054.055.081.08.028.028.054.055.081.08.028.028.054.056.081.081.028.028.054.055.081.08l.081.081c.028.028.054.055.081.08l.081.081c.028.027.054.055.081.08.028.028.053.055.081.081.028.027.053.055.081.08.028.028.053.055.081.081.241.241.497.468.763.676 1.183.928 2.557 1.501 3.987 1.948 2.254.707 4.577.93 6.906.98 1.76-.04 3.493-.169 5.197-.537 1.706-.369 3.348-.917 4.856-1.817.89-.53 1.692-1.162 2.277-2.03.81-1.204.811-2.678.006-3.878z" fill="#afafaf"/><path d="M35.017 47.514c-2.328-.052-4.652-.276-6.906-.98-1.429-.448-2.803-1.02-3.987-1.949a7.88 7.88 0 0 1-1.35-1.334c-.972-1.252-.974-2.851-.012-4.119a7.54 7.54 0 0 1 1.26-1.276c.944-.763 2.042-1.262 3.172-1.696.36-.138.683-.079 1.027.06 2.479.99 5.07 1.298 7.718 1.19 1.995-.082 3.95-.408 5.807-1.171.422-.174.804-.2 1.226-.027 1.052.43 2.076.909 2.986 1.599.539.41 1.017.878 1.392 1.442.803 1.2.803 2.674-.006 3.877-.585.87-1.386 1.5-2.277 2.031-1.508.898-3.15 1.448-4.856 1.817-1.706.367-3.437.497-5.197.537z" fill="#fff"/><path d="M35.023 36.71c-1.79-.05-3.546-.26-5.26-.767-1.06-.312-2.085-.716-2.982-1.361-.483-.348-.949-.75-1.32-1.21-.82-1.022-.805-2.277-.034-3.33.402-.546.912-.981 1.487-1.343.693-.438 1.434-.763 2.205-1.041.42-.151.808-.167 1.24-.018 1.212.42 2.477.612 3.754.694 1.86.119 3.688-.103 5.46-.663.508-.161.95-.161 1.44.024.969.364 1.91.776 2.7 1.45.372.317.73.679 1 1.083.657.976.623 1.992-.01 2.976-.39.605-.935 1.053-1.533 1.444-1.45.949-3.075 1.446-4.765 1.718-1.118.18-2.255.233-3.382.344z" fill="#fff"/><path d="M34.884 27.556c-1.54.009-3.19-.186-4.757-.828A9.923 9.923 0 0 1 28.715 26a3.874 3.874 0 0 1-.808-.681c-.915-.994-.912-2.151.048-3.107.371-.369.826-.665 1.28-.935.861-.513 1.823-.792 2.8-.974 2.441-.453 4.872-.426 7.256.35.57.185 1.125.432 1.655.712.37.195.717.46 1.022.752 1.081 1.031 1.083 2.298.025 3.345-.562.557-1.238.933-1.969 1.23-1.603.648-3.282.87-5.14.867z" fill="#fff"/></svg>