<svg fill="none" height="146" viewBox="0 0 768 146" width="768" xmlns="http://www.w3.org/2000/svg"><filter id="a" color-interpolation-filters="sRGB" filterUnits="userSpaceOnUse" height="160.788" width="144.788" x="-20.394" y="-16.394"><feFlood flood-opacity="0" result="BackgroundImageFix"/><feBlend in="SourceGraphic" in2="BackgroundImageFix" result="shape"/><feGaussianBlur result="effect1_foregroundBlur_600_5960" stdDeviation="3.197"/></filter><filter id="b" color-interpolation-filters="sRGB" filterUnits="userSpaceOnUse" height="155.788" width="143.788" x="638.606" y="-12.394"><feFlood flood-opacity="0" result="BackgroundImageFix"/><feBlend in="SourceGraphic" in2="BackgroundImageFix" result="shape"/><feGaussianBlur result="effect1_foregroundBlur_600_5960" stdDeviation="3.197"/></filter><clipPath id="c"><path d="M0 0h768v146H0z"/></clipPath><g clip-path="url(#c)"><g filter="url(#a)"><path d="M4.576 134.774c-1.351-.225-3.19-1.403-3.94-1.964H-14V-9.995c31.616.094 97.494.225 108.077 0C107.305-10.275 118 .386 118 1.79c0 1.403-7.318 7.856-21.672 8.417-14.354.561-13.51-1.123-15.48-3.087-1.97-1.963-2.251-4.769-5.91-4.769-3.659 0-21.39.842-23.923 1.683-2.533.842-18.013 11.503-17.45 12.064s7.036-2.805 12.384-5.891c5.347-3.086 9.288-3.367 14.354-2.525 5.066.841 13.79 5.891 20.546 8.978 6.754 3.086 18.857 11.222 18.857 12.064 0 .841-5.63 2.525-12.947 3.086s-9.006-2.806-9.288-1.684c-.281 1.123 5.066 3.648 4.785 4.49-.282.841-2.252 1.122-16.887.56-11.708-.448-19.514-8.416-21.953-12.344-1.407 0-2.533 1.964-2.252 4.208.282 2.245 5.91 5.33 5.91 6.173 0 .841-7.317.56-8.161.56-.845 0-1.97 1.123-1.69 3.087.282 1.964 1.127 3.366 9.007 2.244 7.88-1.122 9.57 1.683 11.54 3.647 1.97 1.964 9.85 10.662 9.85 12.064s-14.353.281-14.635 3.648c-.281 3.366 5.066 4.208 6.755 4.77s4.785-.562 12.947-.562c8.162 0 14.354 19.92 16.887 24.97 2.533 5.05 4.221 12.905 3.377 13.467-.844.561-2.814.28-5.066-.562-2.252-.841-11.821-10.66-13.791-10.38-1.97.28-1.407 5.611-4.222 5.611S57.77 89.604 54.955 84.834s-1.407-8.697-1.126-11.222c.282-2.525 1.69-3.928-1.125-5.611-2.815-1.684-4.504 2.244-5.348 4.208-.844 1.964.563 11.503.282 11.503-.282 0-14.073-11.222-14.354-11.503-.282-.28 0-5.33-.845-5.33-.844 0 0 1.963-1.688 2.805-1.69.842-5.067-1.122-6.755-2.244-1.689-1.123-7.036-6.453-8.725-6.734-1.689-.28 3.096 8.136 5.066 15.43 1.576 5.836 1.595 14.964 1.407 18.798-.281 1.31-.788 4.32-.563 5.892.225 1.571.657 4.769.845 6.172-2.252-1.964-6.417-5.274-5.066-2.805 1.688 3.086 2.251 12.064 2.251 15.15s-.563 3.086-.844 4.208c-.282 1.122-.563 5.892-1.126 7.014s-1.407 6.453-2.252 7.014c-.844.561-1.97.561-2.533 0s-1.688-.561-2.814-.561c-1.126 0-3.66-5.05-5.63-5.611s2.252 3.647.564 3.367z" fill="#101615"/></g><g filter="url(#b)"><path d="M757.874 133.882c1.318-.216 3.113-1.355 3.845-1.897H776V-5.997c-30.85.09-95.133.217-105.459 0C657.633-6.267 645 9.726 645 11.082c0 1.355 6.042-4.069 20.048-3.526 14.007.542 16.478 4.881 18.401 2.984 1.922-1.898 2.197-4.609 5.767-4.609 2.197 0-3.312 4.609-3.312 9.067 0 4.952 4.136 1.777-2.455 4.759-6.592 2.981-18.401 10.843-18.401 11.656 0 .813 5.493 2.44 12.633 2.982 7.141.542 8.789-2.71 9.063-1.627.275 1.085-4.943 3.525-4.669 4.338.275.813 2.198 1.084 16.478.542 11.425-.434 19.042-8.133 21.422-11.928 1.373 0 2.472 1.898 2.197 4.067-.275 2.168-5.767 5.15-5.767 5.963 0 .814 7.14.543 7.964.543s1.922 1.084 1.648 2.982c-.275 1.897-1.099 3.252-8.788 2.168-7.69-1.084-9.338 1.627-11.26 3.524-1.923 1.898-9.613 10.301-9.613 11.657s5.314-1.022 5.589 2.231 3.749 5.36 2.101 5.901c-1.648.542-4.669-.542-12.633-.542s-14.006 19.247-16.478 24.126-4.119 12.47-3.296 13.013c.824.542 2.747.271 4.944-.543 2.197-.813 11.534-10.3 13.457-10.03 1.922.271 1.373 5.422 4.119 5.422 2.747 0 11.81-5.964 14.556-10.572s1.373-8.404 1.098-10.844c-.274-2.44-1.647-3.795 1.099-5.421s2.507 3.524 3.331 5.421c.824 1.898 1.338 9.76 1.612 9.76.275 0 13.732-10.844 14.007-11.115.274-.271 0-5.15.824-5.15.823 0 0 1.897 1.647 2.71 1.648.813 4.323-19.026 5.971-20.11 1.648-1.084.153 20.398-1.069 21.53-5.217 4.827-5.451 8.881-7.373 15.93-1.538 5.638 11.077 3.343 11.26 7.048.274 1.265.769 4.174.549 5.692-.22 1.519-.641 4.609-.824 5.964 2.197-1.897 6.262-5.096 4.943-2.711-1.647 2.982-2.197 11.657-2.197 14.639s.55 2.982.824 4.066c.275 1.085.549 5.693 1.099 6.777.549 1.085 1.373 6.235 2.197 6.777.824.543 1.922.543 2.471 0 .55-.542 1.648-.542 2.747-.542 1.098 0 3.57-4.879 5.492-5.421 1.923-.543-2.197 3.524-.549 3.252z" fill="#101615"/></g></g></svg>