<svg fill="none" height="126" viewBox="0 0 375 126" width="375" xmlns="http://www.w3.org/2000/svg"><filter id="a" color-interpolation-filters="sRGB" filterUnits="userSpaceOnUse" height="130.788" width="118.788" x="-21.394" y="-6.394"><feFlood flood-opacity="0" result="BackgroundImageFix"/><feBlend in="SourceGraphic" in2="BackgroundImageFix" result="shape"/><feGaussianBlur result="effect1_foregroundBlur_600_5966" stdDeviation="3.197"/></filter><filter id="b" color-interpolation-filters="sRGB" filterUnits="userSpaceOnUse" height="142.788" width="132.788" x="266.606" y="-14.394"><feFlood flood-opacity="0" result="BackgroundImageFix"/><feBlend in="SourceGraphic" in2="BackgroundImageFix" result="shape"/><feGaussianBlur result="effect1_foregroundBlur_600_5966" stdDeviation="3.197"/></filter><clipPath id="c"><path d="M0 0h375v126H0z"/></clipPath><g clip-path="url(#c)"><g filter="url(#a)"><path d="M-.083 115.428c-1.085-.179-2.562-1.119-3.164-1.566H-15V.004c25.389.075 78.29.18 86.789 0C82.41-.219 91 8.281 91 9.4c0 1.119-5.876 6.263-17.403 6.711-11.527.447-10.849-.895-12.43-2.46-1.583-1.567-1.809-3.803-4.747-3.803-2.938 0-17.177.67-19.211 1.342-2.034.67-14.465 9.171-14.013 9.618.452.448 5.65-2.236 9.945-4.697 4.294-2.46 7.458-2.684 11.526-2.013 4.069.67 11.075 4.697 16.5 7.158 5.424 2.46 15.142 8.947 15.142 9.618 0 .671-4.52 2.014-10.396 2.461-5.877.447-7.233-2.237-7.459-1.342-.226.895 4.068 2.908 3.842 3.579s-1.808.895-13.56.447c-9.402-.358-15.67-6.71-17.63-9.842-1.13 0-2.034 1.566-1.808 3.355s4.747 4.25 4.747 4.921c0 .671-5.877.448-6.555.448s-1.582.895-1.356 2.46.904 2.685 7.233 1.79c6.328-.895 7.684 1.342 9.266 2.908s7.91 8.5 7.91 9.618c0 1.119-11.526.224-11.752 2.908-.226 2.685 4.068 3.356 5.424 3.803 1.356.447 3.843-.447 10.397-.447s11.527 15.881 13.56 19.908 3.39 10.29 2.713 10.737c-.678.447-2.26.224-4.068-.447s-9.493-8.5-11.075-8.277-1.13 4.474-3.39 4.474-9.719-4.921-11.979-8.724-1.13-6.934-.904-8.948 1.356-3.131-.904-4.473c-2.26-1.342-3.616 1.79-4.294 3.355-.678 1.566.452 9.171.226 9.171s-11.3-8.947-11.527-9.17c-.226-.225 0-4.251-.678-4.251s0 1.566-1.356 2.237c-1.356.67-4.068-.895-5.424-1.79-1.356-.894-5.65-5.145-7.007-5.368s2.486 6.487 4.069 12.303c1.265 4.652 1.28 11.93 1.13 14.987-.226 1.044-.633 3.445-.452 4.697.18 1.253.527 3.803.678 4.921-1.809-1.565-5.153-4.205-4.069-2.237 1.356 2.461 1.808 9.619 1.808 12.08 0 2.46-.452 2.46-.678 3.355s-.452 4.697-.904 5.592-1.13 5.145-1.808 5.592c-.678.448-1.582.448-2.034 0-.452-.447-1.356-.447-2.26-.447-.904 0-2.938-4.026-4.52-4.474-1.582-.447 1.808 2.908.452 2.685z" fill="#101615"/></g><g filter="url(#b)"><path d="M376.396 119.166c1.208-.197 2.851-1.232 3.522-1.725H393V-7.997c-28.26.082-87.145.197-96.604 0C284.572-8.243 273 6.297 273 7.53s5.535-3.699 18.365-3.206 15.094 4.438 16.855 2.713 2.013-4.19 5.283-4.19c2.013 0-3.034 4.19-3.034 8.243 0 4.502 3.789 1.615-2.249 4.326-6.038 2.71-16.855 9.858-16.855 10.597s5.031 2.218 11.572 2.71 8.05-2.464 8.302-1.478c.252.986-4.528 3.204-4.277 3.943.252.74 2.013.986 15.095.493 10.465-.394 17.442-7.393 19.622-10.843 1.258 0 2.264 1.725 2.013 3.696-.252 1.972-5.283 4.683-5.283 5.422s6.541.493 7.295.493c.755 0 1.761.986 1.51 2.71-.252 1.726-1.006 2.958-8.05 1.972-7.045-.986-8.554 1.479-10.315 3.204-1.761 1.725-8.805 9.364-8.805 10.597s4.868-.93 5.119 2.028c.252 2.957 3.434 4.872 1.925 5.365-1.509.493-4.277-.493-11.572-.493-7.296 0-12.83 17.497-15.095 21.933-2.264 4.436-3.773 11.336-3.018 11.83.754.492 2.515.246 4.528-.494 2.012-.739 10.566-9.364 12.327-9.118 1.761.246 1.258 4.929 3.773 4.929 2.516 0 10.818-5.422 13.334-9.611s1.258-7.64 1.006-9.858c-.252-2.218-1.509-3.45 1.006-4.929 2.516-1.478 2.297 3.204 3.052 4.93.754 1.724 1.225 8.871 1.477 8.871.251 0 12.578-9.858 12.83-10.104.251-.247 0-4.682.755-4.682.754 0 0 1.725 1.509 2.464s3.96-17.296 5.469-18.282c1.51-.986.141 18.544-.979 19.572-4.779 4.39-4.993 8.075-6.754 14.482-1.409 5.126 10.147 3.04 10.314 6.407.252 1.15.705 3.796.503 5.176-.201 1.38-.587 4.19-.754 5.421 2.012-1.725 5.736-4.633 4.528-2.464-1.509 2.71-2.013 10.597-2.013 13.308s.504 2.711.755 3.696c.252.986.503 5.176 1.006 6.161.504.986 1.258 5.668 2.013 6.161s1.761.493 2.264 0 1.51-.493 2.516-.493 3.27-4.435 5.031-4.928-2.012 3.203-.503 2.957z" fill="#101615"/></g></g></svg>