<svg fill="none" height="29" viewBox="0 0 29 29" width="29" xmlns="http://www.w3.org/2000/svg"><mask id="a" fill="#fff"><path d="M28.063 14.5c.518 0 .94.42.907.936a14.5 14.5 0 1 1-5.324-12.188c.401.327.422.922.07 1.302-.35.38-.942.399-1.346.076a12.626 12.626 0 1 0 4.722 10.81c.038-.516.454-.936.971-.936z"/></mask><path d="M28.063 14.5c.518 0 .94.42.907.936a14.5 14.5 0 1 1-5.324-12.188c.401.327.422.922.07 1.302-.35.38-.942.399-1.346.076a12.626 12.626 0 1 0 4.722 10.81c.038-.516.454-.936.971-.936z" mask="url(#a)" stroke="#d9d9d9" stroke-width="2"/><circle cx="27" cy="9" fill="#fff" r="2"/></svg>