<svg fill="none" height="70" viewBox="0 0 70 70" width="70" xmlns="http://www.w3.org/2000/svg"><path d="M35 70C15.7 70 0 54.399 0 35.222v-.446C0 15.601 15.701 0 35 0s35 15.601 35 34.776v.446c0 19.177-15.701 34.776-35 34.776z" fill="#1a506e"/><path d="M46.675 40.908c-.366-2.13-.933-3.562-1.39-4.712-.87-2.197-1.394-3.521.627-6.688l.584-.917-.158.042.077-.122-.158.042.077-.123-.158.042.078-.122-.16.042.079-.123-.16.042.079-.122-.16.042.079-.123-.159.042.078-.122-.159.042.078-.122-.159.041.078-.122-.159.042.078-.122-.159.041.078-.122-.159.042.078-.122-.159.042.078-.123-.159.042.078-.122-.159.042.078-.123-.159.042.078-.122-.159.042.078-.123-.159.042.078-.122-.159.042.078-.122-.159.041.078-.122-.782.203c-5.436 1.889-5.588 6.003-5.257 10.41.078 1.024-.158 1.838-.704 2.42-.573.615-1.388.832-1.912.832-.256 0-.527-.038-.796-.125a3.506 3.506 0 0 1-.161-.65c-.227-1.49-.034-2.856 1.637-5.793 3.216-5.064 3.645-7.495 3.661-9.05.023-2.084-.88-4.247-2.682-6.426l-.63-.762v.019l-.08-.1v.02l-.081-.1v.02l-.081-.1v.019l-.081-.1v.02l-.081-.1v.019l-.081-.1v.02l-.081-.1v.019l-.081-.1v.02l-.081-.1v.019l-.081-.1v.02l-.081-.1v.019l-.081-.1v.02l-.081-.1v.02l-.081-.1v.019l-.081-.1v.02l-.08-.1v.019l-.082-.1v.02l-.08-.1v.019l-.082-.1v.02l-.08-.1.066.984c.408 5.98-1.98 8.918-4.09 11.508l-.258.32a6.238 6.238 0 0 0-.817-.957c-.027-.027-.053-.055-.08-.08-.028-.028-.054-.055-.082-.08l-.08-.081c-.028-.028-.054-.055-.081-.08l-.081-.081c-.028-.027-.054-.055-.081-.08l-.081-.081c-.028-.027-.054-.055-.081-.08l-.081-.081c-.028-.027-.054-.055-.081-.08-.028-.028-.054-.055-.081-.08-.028-.028-.054-.056-.081-.081-.028-.028-.054-.055-.081-.08l-.081-.081c-.028-.028-.054-.055-.081-.08L29.239 27c-.028-.027-.054-.055-.081-.08-.028-.028-.053-.055-.081-.081-.028-.027-.053-.055-.08-.08-.791-.786-1.839-1.43-3.18-1.959l-.808-.318.431.81c1.135 3.344 1.605 4.73.329 8.942-1.999 6.604-.67 10.48.795 12.568a9.8 9.8 0 0 0 1.18 1.384c.028.028.054.055.081.08l.081.081c.028.028.054.055.081.08l.081.081c.028.027.054.055.081.08.028.028.054.055.081.08.028.028.053.056.081.081.028.028.053.055.081.08.028.028.053.056.081.081.027.028.053.055.081.08l.08.081c.028.028.054.055.082.08l.08.081c.028.027.054.055.082.08l.08.081c.028.027.054.055.082.08.027.028.053.055.08.08.028.028.054.056.082.081.027.028.053.055.08.08 1.83 1.819 4.363 2.886 7.174 2.98.14.004.277.006.415.006 3.187 0 5.956-1.194 7.797-3.362 1.85-2.178 2.56-5.171 2.002-8.43z" fill="#bc3f35"/><path d="M35 70C15.7 70 0 54.399 0 35.222v-.446C0 15.601 15.701 0 35 0s35 15.601 35 34.776v.446c0 19.177-15.701 34.776-35 34.776z" fill="#1a506e"/><path d="M34.999 2.092c-18.138 0-32.894 14.661-32.894 32.684v.446c0 18.023 14.756 32.685 32.894 32.685s32.896-14.664 32.896-32.685v-.446c0-18.023-14.758-32.684-32.896-32.684z" fill="#1a506e"/><path d="M65.354 34.778c0 16.657-13.59 30.16-30.355 30.16S4.646 51.435 4.646 34.778 18.236 4.616 34.999 4.616c16.764 0 30.355 13.504 30.355 30.162z" fill="#005a82"/><path d="M17.466 12.789s-5.894 6.341-5.541 9.216c.043.369.908 4.25.908 4.25l-3.347 1.99c-.917 1.29-1.12 4.015-1.16 6.531-.07 4.332.073 7.407 1.14 9.286.33.58 3.615 1.883 5.001 2.488l-.918 4.838c7.553 7.76 18.776 8.884 22.872 8.884 4.37 0 12.574-3.543 15.53-5.4 0 0-.848-3.324-2.048-4.559 0 0 8.25-.732 8.643-1.345 3.71-5.773 2.722-15.418 2.722-15.418-.938-1.05-3.964-4.278-3.964-4.278l3.386-2.806c-2.742-9.09-4.018-12.74-17.007-17.735-13.476-5.186-26.219 4.058-26.219 4.058z" fill="#0088b7"/><path d="M58.349 54.323c.468-.6 1.56-2.301 1.982-2.933h-6.052zM7.047 46.551c.352.826 1.285 2.552 1.707 3.339l3.17-2.492z" fill="#1a506e"/><path d="M35 7.67c16.248 0 29.514 12.686 30.315 28.633.026-.505.04-1.015.04-1.527 0-16.657-13.59-30.161-30.356-30.161-16.765 0-30.353 13.505-30.353 30.163 0 .512.013 1.022.039 1.527C5.485 20.356 18.75 7.67 34.999 7.67z" fill="#80dbe5"/><path d="M22.3 8.715c.379.666-.269 1.744-1.451 2.407-1.18.663-2.444.66-2.823-.007-.38-.664.27-1.742 1.45-2.405 1.182-.663 2.445-.66 2.822.005zM27.919 6.653c.196.53-.274 1.188-1.048 1.47-.777.283-1.564.083-1.758-.446-.195-.528.275-1.188 1.05-1.471.776-.283 1.563-.082 1.758.447z" fill="#fff"/><g fill="#006b84"><path d="M41.373 30.61c-2.29-3.631-4.384-6.8-4.753-8.708-.37 1.905-2.463 5.075-4.753 8.708-2.291 3.62-4.975 7.7-4.967 11.113.01 5.303 4.329 9.636 9.759 9.591h.04c5.372-.002 9.63-4.328 9.64-9.591.008-3.413-2.675-7.494-4.966-11.112zm-11.05 15.254a5.1 5.1 0 0 1-.174-.252c-2.465-4.1-.28-8.815 2.226-12.043-2.416 5.697-1.988 9.455 1.435 12.564.067.06.22.217.238.236 1.028 1.101-1.517 2.578-3.724-.505z"/><path d="M41.292 30.53c-2.29-3.632-4.384-6.801-4.753-8.708-.369 1.905-2.463 5.075-4.753 8.708-2.291 3.619-4.974 7.7-4.966 11.112.01 5.303 4.328 9.637 9.758 9.592h.04c5.372-.002 9.63-4.329 9.64-9.592.009-3.413-2.675-7.493-4.966-11.112zM30.243 45.784a4.985 4.985 0 0 1-.175-.253c-2.464-4.1-.28-8.814 2.227-12.042-2.416 5.696-1.989 9.455 1.435 12.563.066.06.22.218.238.237 1.028 1.1-1.518 2.578-3.725-.505z"/><path d="M41.211 30.45c-2.29-3.632-4.384-6.802-4.753-8.708-.369 1.905-2.463 5.074-4.753 8.708-2.291 3.618-4.974 7.699-4.966 11.112.01 5.303 4.328 9.636 9.758 9.591h.04c5.372-.001 9.63-4.328 9.64-9.591.009-3.413-2.675-7.494-4.966-11.112zM30.162 45.703a4.985 4.985 0 0 1-.175-.252c-2.464-4.1-.28-8.815 2.227-12.042-2.416 5.696-1.989 9.454 1.435 12.563.066.06.22.217.238.237 1.028 1.1-1.518 2.577-3.725-.506z"/><path d="M41.13 30.37c-2.29-3.633-4.384-6.802-4.753-8.71-.37 1.906-2.463 5.076-4.753 8.71-2.291 3.618-4.974 7.698-4.966 11.111.01 5.304 4.328 9.637 9.758 9.592h.04c5.372-.002 9.63-4.329 9.64-9.592.009-3.413-2.675-7.493-4.966-11.112zM30.08 45.622a4.92 4.92 0 0 1-.175-.253c-2.465-4.1-.28-8.814 2.227-12.042-2.416 5.696-1.989 9.455 1.434 12.563.067.06.22.218.239.237 1.028 1.1-1.518 2.578-3.725-.505z"/><path d="M41.049 30.289c-2.29-3.632-4.384-6.802-4.753-8.708-.37 1.905-2.463 5.074-4.753 8.708-2.291 3.618-4.974 7.699-4.966 11.112.01 5.303 4.328 9.636 9.758 9.591h.04c5.372-.001 9.63-4.328 9.64-9.591.009-3.413-2.675-7.493-4.966-11.112zM30 45.542a4.985 4.985 0 0 1-.175-.252c-2.465-4.1-.28-8.815 2.227-12.042-2.416 5.696-1.989 9.455 1.435 12.563.066.06.22.217.238.237 1.028 1.1-1.518 2.577-3.725-.506z"/><path d="M40.968 30.208c-2.29-3.631-4.384-6.801-4.753-8.708-.37 1.905-2.463 5.075-4.753 8.708-2.291 3.619-4.975 7.7-4.966 11.112.01 5.304 4.328 9.637 9.758 9.592h.04c5.372-.002 9.63-4.329 9.64-9.592.008-3.413-2.675-7.493-4.966-11.112zm-11.05 15.254a4.995 4.995 0 0 1-.174-.253c-2.465-4.1-.28-8.814 2.227-12.042-2.416 5.696-1.989 9.455 1.434 12.564.067.06.22.217.238.236 1.029 1.1-1.517 2.578-3.724-.505z"/><path d="M40.887 30.128c-2.29-3.632-4.383-6.802-4.753-8.709-.369 1.906-2.463 5.075-4.752 8.709-2.292 3.618-4.975 7.699-4.967 11.112.01 5.303 4.329 9.636 9.758 9.591h.04c5.372-.001 9.631-4.328 9.64-9.591.009-3.413-2.674-7.494-4.966-11.112zM29.838 45.38a4.996 4.996 0 0 1-.174-.252c-2.465-4.1-.28-8.815 2.226-12.042-2.416 5.696-1.988 9.454 1.435 12.563.066.06.22.217.238.237 1.028 1.1-1.517 2.577-3.725-.506z"/><path d="M40.806 30.047c-2.29-3.631-4.383-6.801-4.753-8.708-.369 1.905-2.463 5.075-4.752 8.708-2.292 3.619-4.975 7.7-4.967 11.112.01 5.304 4.328 9.637 9.758 9.592h.04c5.372-.002 9.631-4.328 9.64-9.592.009-3.412-2.674-7.493-4.966-11.112zM29.757 45.301a5.052 5.052 0 0 1-.175-.253c-2.464-4.1-.28-8.814 2.227-12.042-2.416 5.696-1.989 9.455 1.435 12.564.066.06.22.217.238.236 1.028 1.1-1.517 2.578-3.725-.505z"/><path d="M40.725 29.967c-2.29-3.632-4.383-6.802-4.753-8.708-.369 1.905-2.463 5.074-4.752 8.708-2.292 3.618-4.975 7.699-4.967 11.112.01 5.303 4.329 9.636 9.758 9.591h.04c5.372-.001 9.631-4.328 9.64-9.591.009-3.413-2.674-7.493-4.966-11.112zM29.676 45.22a5.032 5.032 0 0 1-.175-.253c-2.464-4.1-.28-8.815 2.227-12.042-2.416 5.696-1.989 9.454 1.435 12.563.066.06.22.217.238.237 1.028 1.1-1.517 2.577-3.725-.506z"/><path d="M40.644 29.886c-2.29-3.631-4.383-6.801-4.753-8.708-.369 1.905-2.463 5.075-4.752 8.708-2.292 3.62-4.975 7.7-4.967 11.112.01 5.304 4.328 9.637 9.758 9.592h.04c5.372-.002 9.631-4.328 9.64-9.592.009-3.412-2.674-7.493-4.966-11.112zM29.595 45.14a4.996 4.996 0 0 1-.175-.253c-2.464-4.1-.28-8.814 2.227-12.042-2.416 5.697-1.989 9.455 1.435 12.564.066.06.22.217.238.236 1.028 1.101-1.518 2.578-3.725-.505z"/><path d="M40.563 29.806c-2.29-3.632-4.384-6.802-4.753-8.708-.369 1.905-2.463 5.075-4.753 8.708-2.291 3.619-4.974 7.7-4.966 11.112.01 5.303 4.328 9.637 9.758 9.591h.04c5.372-.001 9.63-4.328 9.64-9.591.009-3.413-2.675-7.493-4.966-11.112zM29.514 45.06a4.985 4.985 0 0 1-.175-.253c-2.464-4.1-.28-8.814 2.227-12.042C29.15 38.46 29.577 42.22 33 45.328c.066.06.22.218.238.237 1.028 1.1-1.518 2.578-3.725-.505z"/><path d="M40.482 29.726c-2.29-3.632-4.384-6.802-4.753-8.709-.369 1.905-2.463 5.075-4.753 8.708-2.291 3.62-4.974 7.7-4.966 11.113.01 5.303 4.328 9.636 9.758 9.591h.04c5.372-.002 9.63-4.328 9.64-9.591.009-3.413-2.675-7.494-4.966-11.113zM29.433 44.978a4.996 4.996 0 0 1-.175-.252c-2.464-4.1-.28-8.815 2.227-12.042-2.416 5.696-1.989 9.454 1.435 12.563.066.06.22.217.238.237 1.028 1.1-1.518 2.577-3.725-.506z"/><path d="M40.401 29.645c-2.29-3.632-4.383-6.801-4.752-8.708-.37 1.905-2.463 5.075-4.753 8.708-2.292 3.619-4.975 7.7-4.967 11.112.01 5.303 4.329 9.637 9.759 9.591h.04c5.371-.001 9.63-4.328 9.64-9.591.008-3.413-2.675-7.493-4.967-11.112zM29.352 44.899a5.052 5.052 0 0 1-.174-.253c-2.465-4.1-.28-8.814 2.226-12.042-2.416 5.696-1.988 9.455 1.435 12.563.066.06.22.218.238.237 1.028 1.1-1.517 2.578-3.724-.505z"/><path d="M40.32 29.565c-2.29-3.632-4.383-6.802-4.752-8.709-.37 1.906-2.463 5.075-4.753 8.709-2.292 3.618-4.975 7.699-4.967 11.112.01 5.303 4.329 9.636 9.758 9.591h.04c5.372-.001 9.631-4.328 9.64-9.591.009-3.413-2.674-7.494-4.966-11.112zM29.271 44.818a5.032 5.032 0 0 1-.174-.252c-2.465-4.1-.28-8.815 2.226-12.042-2.416 5.696-1.988 9.454 1.435 12.563.066.06.22.217.238.237 1.028 1.1-1.517 2.577-3.724-.506z"/><path d="M40.24 29.484c-2.29-3.632-4.384-6.801-4.754-8.708-.369 1.905-2.462 5.075-4.752 8.708-2.292 3.619-4.975 7.7-4.967 11.112.01 5.304 4.329 9.637 9.758 9.592h.04c5.372-.002 9.631-4.329 9.64-9.592.009-3.413-2.674-7.493-4.966-11.112zM29.19 44.738a5.052 5.052 0 0 1-.175-.253c-2.464-4.1-.28-8.814 2.227-12.042-2.416 5.696-1.988 9.455 1.435 12.564.066.06.22.217.238.236 1.028 1.1-1.517 2.578-3.725-.505z"/><path d="M40.158 29.404c-2.29-3.632-4.383-6.802-4.753-8.708-.369 1.905-2.463 5.074-4.752 8.708-2.292 3.619-4.975 7.699-4.967 11.112.01 5.303 4.329 9.636 9.758 9.591h.04c5.372-.001 9.631-4.328 9.64-9.591.009-3.413-2.674-7.493-4.966-11.112zM29.11 44.658a4.985 4.985 0 0 1-.175-.253c-2.464-4.1-.28-8.815 2.227-12.042-2.416 5.696-1.989 9.455 1.435 12.563.066.06.22.217.238.237 1.028 1.1-1.517 2.577-3.725-.505z"/><path d="M40.077 29.323c-2.29-3.632-4.383-6.801-4.753-8.708-.369 1.905-2.463 5.075-4.752 8.708-2.292 3.619-4.975 7.7-4.967 11.112.01 5.304 4.328 9.637 9.758 9.592h.04c5.372-.002 9.631-4.329 9.64-9.592.009-3.413-2.674-7.493-4.966-11.112zM29.028 44.577a4.985 4.985 0 0 1-.175-.253c-2.464-4.1-.28-8.814 2.227-12.042-2.416 5.696-1.988 9.455 1.435 12.564.066.06.22.217.238.236 1.028 1.1-1.517 2.578-3.725-.505z"/><path d="M39.996 29.243c-2.29-3.632-4.384-6.802-4.753-8.708-.369 1.905-2.463 5.075-4.752 8.708-2.292 3.619-4.975 7.7-4.967 11.112.01 5.303 4.329 9.637 9.758 9.591h.04c5.372-.001 9.631-4.328 9.64-9.591.009-3.413-2.674-7.493-4.966-11.112zM28.947 44.497a4.985 4.985 0 0 1-.175-.253c-2.464-4.1-.28-8.814 2.227-12.042-2.416 5.696-1.989 9.455 1.435 12.563.066.06.22.218.238.237 1.028 1.1-1.517 2.578-3.725-.505z"/><path d="M39.916 29.162c-2.29-3.631-4.384-6.801-4.753-8.708-.37 1.905-2.463 5.075-4.753 8.708-2.291 3.619-4.975 7.7-4.967 11.112.01 5.304 4.329 9.637 9.759 9.592h.04c5.372-.002 9.63-4.329 9.64-9.592.008-3.412-2.675-7.493-4.966-11.112zm-11.05 15.254a4.985 4.985 0 0 1-.174-.253c-2.465-4.1-.28-8.814 2.226-12.042-2.416 5.696-1.988 9.455 1.435 12.564.067.06.22.217.238.236 1.028 1.1-1.517 2.578-3.724-.505z"/><path d="M39.834 29.082c-2.29-3.632-4.383-6.801-4.752-8.708-.37 1.905-2.463 5.075-4.753 8.708-2.292 3.619-4.975 7.7-4.967 11.112.01 5.303 4.329 9.637 9.759 9.592h.04c5.371-.002 9.63-4.329 9.64-9.592.008-3.413-2.675-7.493-4.967-11.112zM28.786 44.336a4.995 4.995 0 0 1-.175-.253c-2.465-4.1-.28-8.814 2.226-12.042-2.416 5.696-1.988 9.455 1.435 12.563.067.06.22.218.238.237 1.029 1.1-1.517 2.578-3.724-.505z"/><path d="M39.754 29.001C37.464 25.37 35.37 22.2 35 20.293c-.37 1.905-2.463 5.075-4.753 8.708-2.292 3.62-4.975 7.7-4.967 11.112.01 5.304 4.329 9.637 9.759 9.592h.04c5.371-.002 9.63-4.328 9.64-9.591.008-3.413-2.675-7.494-4.966-11.113zm-11.05 15.254a5.043 5.043 0 0 1-.174-.253c-2.465-4.1-.28-8.814 2.226-12.042-2.416 5.696-1.988 9.455 1.435 12.564.067.06.22.217.238.236 1.028 1.101-1.517 2.578-3.724-.505z"/></g><path d="M39.754 29.001C37.464 25.37 35.37 22.2 35 20.293c-.37 1.905-2.463 5.075-4.753 8.708-2.292 3.62-4.975 7.7-4.967 11.112.01 5.304 4.329 9.637 9.759 9.592h.04c5.371-.002 9.63-4.328 9.64-9.591.008-3.413-2.675-7.494-4.966-11.113zm-11.05 15.254a5.043 5.043 0 0 1-.174-.253c-2.465-4.1-.28-8.814 2.226-12.042-2.416 5.696-1.988 9.455 1.435 12.564.067.06.22.217.238.236 1.028 1.101-1.517 2.578-3.724-.505z" fill="#fff"/></svg>