<svg width="1440" height="650" viewBox="0 0 1440 650" fill="none" xmlns="http://www.w3.org/2000/svg"><g clip-path="url(#clip0_1857_28839)"><path d="m0 474 706 7 8 13.5 68.5-13.5 303 .5L1448 474v176H0V474Z" fill="#101615"/><path fill-rule="evenodd" clip-rule="evenodd" d="M1034.85 482.561s88.01-58.774 170.94-114.122c10.43-6.958 80.73.263 90.69-6.273 44.51-29.519 16.51-62.148 29.57-65.785 36.01-10.12 25.63-33.103 44.66-60.092 22.75 3.585 41.62-21.664 48.43-21.19 0 0 39.84-27.832 60.24-29.413 20.44-1.582 105.78-69.686 105.78-69.686v366.561h-550.31Z" fill="#101615"/><path fill-rule="evenodd" clip-rule="evenodd" d="M1584.11 117.054s-49.9 24.774-74.07 50.182c-38.16 7.59-60.6 17.289-79.57 25.407-19.76 10.437-22.49 13.073-36.64 26.409-15.52 2.846-31.82 25.829-31.82 25.829s40.94 7.38 90.21 15.286c22.44 2.794 40.84-17.289 43.51-18.66 2.2-1.107-32.39-14.337-65.47-6.747 17.66-11.228 64.48-55.453 82.77-61.304-9.59 19.609 2.15 44.542 5.03 42.328 9.28-21.823 30.25-46.809 43.78-58.616 9.33-8.171 22.27-40.114 22.27-40.114Z" fill="#13221C"/><path fill-rule="evenodd" clip-rule="evenodd" d="M1512.72 176.355s-10.33 2.899-13.16 4.533c-2.83 1.634-9.75 1.845-9.75 1.845l-13.89 2.478 18.5-.633s-4.72 4.639-8.23 6.537c-3.93 2.055-6.39 5.482-6.39 5.482l-11.54 7.432s11.64-11.597 10.23-11.07c-1.42.528-2.84-3.848-2.84-3.848s-2.83.264-4.61 1.107c-1.78.844-1.78-2.741-1.78-2.741s-6.03.844-7.81 0c-1.78-.843-3.57 2.741-3.57 2.741s7.13.264 3.94 2.741c-3.2 2.478-5.35 3.163-4.98 4.059.36.896 5.5-.474 4.56 2.425-1 2.899-1.68 4.006-1.68 4.006s1.78 1.634 4.24 1.634c2.47 0 5.35.527 5.35.527l2.99 3.954c-1.21.474-1.36 2.53-5.03 4.797-3.67 2.266-34.71 20.241-37.54 20.557.37-1.37 21.08-21.032 19.66-21.295-1.41-.264-1.41-4.112 1.78-3.848 3.2.263 2.15-2.214.37-2.214-1.78 0-5.5-.106-5.03-1.687.42-1.581 1.52-2.688 1.52-2.688s-2.73.896-6.4 1.37c-6.39.844-3.19-3.848-3.19-3.848s-10.86 8.329-14.16 10.701c-10.48 1.528-29.93 8.117-29.93 8.117s22.91-23.351 35.12-24.3c1.42.264 8.13.474 9.49-3.11 1.36-3.532 2.31-3.215 4.46-3.532 2.15-.263 6.92-3.795 8.59-4.217 1.68-.421 12.37-3.479 15.57-4.269 3.2-.844 26.21-3.163 26.21-3.163l-5.03-2.056 9.28-2.53 11.85-4.691c5.4-2.109.78 6.799 2.83 8.697Z" fill="#13221C"/><path fill-rule="evenodd" clip-rule="evenodd" d="M1044.81 389.524s22.85 29.149 21.91 42.749c-1 13.547-4.88 50.34-4.88 50.34H774s41.308-20.979 53.364-32.576c16.513-7.959 124.553-41.642 142.061-41.642-21.02 10.753 53.525-19.082 75.385-18.871Z" fill="#101615"/><path fill-rule="evenodd" clip-rule="evenodd" d="M1044.33 390.789s24.59 59.143 10.02 59.143c-7.29 0-49.65-19.082-52.53-17.448-13.104-4.428-62.275 14.285-65.211 17.448.472 18.66 17.299 32.629 17.299 32.629h170.162c.05 0-53.47-82.179-79.74-91.772Z" fill="#101615"/><path fill-rule="evenodd" clip-rule="evenodd" d="M1007.9 435.911c-2.83-.369-18.083-7.222-26.051-8.75 0 0-9.279.474-22.856 6.852-46.392-10.49-126.911 13.336-126.911 13.336s70.559-27.199 101.015-32.418c8.755-4.006 26.997-7.01 26.997-7.01s8.702-9.172 20.864-13.442c0 0 22.962-9.33 27.832-8.487 4.88.791 36.02 3.532 36.02 3.532s-21.71 23.931-36.91 46.387Z" fill="#13221C"/><path fill-rule="evenodd" clip-rule="evenodd" d="M830.405 448.192s-.996 5.587 11.69 13.547c12.634 7.959 59.341 20.821 59.341 20.821H774.053c-.053 0 34.545-21.981 56.352-34.368ZM1479.27 317.098s17.67 46.07 30.2 54.557c4.35 2.952 47.49-34.79 54.62-50.709 2.62 1.95-13.47 40.272-10.9 42.275 19.44 15.128-21.44 30.678-15.63 33.103 5.82 2.372 47.65 2.478 47.65 2.478v83.812s-43.24-57.298-51-78.858c-2.36-6.483-40.78-.79-57.3-3.215-4.92-3.637 13.74-22.245 8.13-25.987-31.66-21.19-66.16-43.435-75.96-49.075-16.51-9.594-77.06 11.755-83.82 12.545-6.82.791 33.29-30.889 44.92-40.43 1.94-9.594 70.82-14.443 70.82-14.443s21.08 19.872 38.27 33.947Z" fill="#101615"/><path fill-rule="evenodd" clip-rule="evenodd" d="M1512.56 222.584s50.95 40.641 46.08 68.579c-.89 5.113-49.17-44.173-63.43-50.288-2.47 7.538-40.05 11.017-43.3 18.871-36.7 59.091 111.81 74.799 109.4 80.228-6.5 14.549-45.5 35.845-45.5 35.845-17.56 15.339-34.7 16.077-43.51 26.672 20.23 1.002 61.18-2.003 61.18-2.003s17.5-16.763 27.25-25.513c12.32-1.581 24.43-1.581 24.43-1.581V252.841s-57.03-34.21-72.6-30.257ZM1210.98 482.561s-6.97-14.285-.26-30.679c7.13-17.342 28.2-36.951 36.17-43.962 15.57-13.547 25-23.562 25-23.562s-59.34-15.128-64.16-15.972c-4.87-.79-32.5 12.019-32.5 12.019l-84.19 57.403 32.35 44.753h87.59Z" fill="#101615"/><path fill-rule="evenodd" clip-rule="evenodd" d="M1390.58 404.335s16.51 22.35 21.38 33.473c4.88 11.175 25.27 44.752 25.27 44.752h-237.89s34.92-47.704 46.61-58.088c11.69-10.385 26.42-38.691 31.29-40.273 4.88-1.581 45.97 45.807 61.54 46.598 15.57.791 30.46-22.455 38.22-20.083 7.81 2.424 13.58-6.379 13.58-6.379Z" fill="#101615"/><path fill-rule="evenodd" clip-rule="evenodd" d="M1409.03 321.314s12.63 24.195 11.69 44.12c-1 19.925-19.24 57.246-19.24 57.246s-15.57-18.344-18.45-20.716c-2.94-2.372-32.08-12.757-36.96-15.129-4.87-2.372-31.14-17.553-37.9-21.506-6.81-4.006-24.32-6.378-24.32-6.378s47.65-27.094 71.97-30.31c24.22-3.268 35.7-11.333 53.21-7.327Z" fill="#13221C"/><path fill-rule="evenodd" clip-rule="evenodd" d="m1535.47 403.335 49.69 79.226H1421.5s-44.13-80.491-47.07-82.073c-1.73-.949-27.05-10.279-26-14.021 1.73-6.009-47.65-7.011-47.13-10.016.58-3.479 95.04-18.923 112.86-26.408 2-.844 18.72 9.172 18.56 8.539-.21-.791-16.09-12.335-16.3-13.125-.21-.791-.42-1.529-.63-2.32-3.2-11.175-7.65-21.77-7.65-21.77s66.73 32.102 80.72 51.816c2.15 3.058-32.13 49.023-37.06 57.088 9.65 8.065 83.14-30.521 83.67-26.936Z" fill="#101615"/><path fill-rule="evenodd" clip-rule="evenodd" d="M1256.69 357s31.72-2.056 51.17 5.904c19.44 7.96 66.36 37.373 66.36 37.373s-43.51-10.384-59.13-12.493c-25.95-3.532-47.6.527-47.6.527s-38.21-10.384-56.46-15.866c-5.61-1.687-35.69 9.33-38.21 9.33 0 0 27.47-19.082 34.96-21.348 11.48-3.427 40.63-3.901 48.91-3.427Z" fill="#13221C"/><path fill-rule="evenodd" clip-rule="evenodd" d="M1207.68 360.954s-2.99 2.899 23.75 10.49c20.65 5.851 40.67 14.285 40.67 14.285-13.31 9.066-58.39 59.407-59.13 65.047-1.31-37.584 7.71-42.855 7.71-42.855s-46.5 17.869-77.53 23.246c-18.98 0-49.59 6.694-52.11 6.694 0-.052 83.51-69.316 116.64-76.907ZM1357.39 277.352s26.27-2.952 40.32.369c14.1 3.321 43.5 5.218 43.5 5.218s-25.84 16.499-37.16 15.603c-18.77-1.476-48.02 8.17-48.02 8.17s-25.27-3.953-29.83-9.91c0 0 18.35-14.759 31.19-19.45Z" fill="#13221C"/><path fill-rule="evenodd" clip-rule="evenodd" d="M1426.54 356.737s12.63 27.779 17.45 38.954c3.41 14.127 13.32 20.083 13.32 35.212l6.29 42.697s-30.2-32.366-32.29-38.322c-13.27-5.957-44.35 1.581-57.19-33.631-1.42-3.953-60.29-33.788-44.77-32.998 15.57.791 76.9-14.601 85.29-17.289 7.81 2.372 11.9 5.377 11.9 5.377Z" fill="#101615"/><path fill-rule="evenodd" clip-rule="evenodd" d="M1378.57 433.17s35.12-7.274 49.17-3.953c14.1 3.32 21.6 8.592 21.6 8.592s56.88 13.652 57.98 21.559c-32.82-5.271-117.58 5.166-117.58 5.166s-66.05 6.536-103.59 18.08c.06-.053 62.44-41.326 92.42-49.444Z" fill="#101615"/><path d="M-79.822 289.546s-4.287 28.344-1.265 40.289c-4.639 4.806-31.912.848-36.27 4.594-14.339 12.157-10.965 34.28-15.042 48.275-.492 1.767 18.697 1.343 17.854 3.252-1.336 2.827-40.699 13.924-42.526 16.963-6.889 11.168 1.827 16.893 2.32 23.82.632 9.966 102.413 129.983 129.264 155.782l784.516-4.312-19.4-22.972s-.492-20.992 1.546-28.625c1.687-6.362-4.582 20.076-11.682-11.943-3.585-2.686-17.151-7.704-19.33-10.461-13.706-16.61-29.662-39.016-29.662-39.016s-224.228-76.689-242.504-85.524c-18.205-8.836-79.991 10.178-79.991 10.178s-14.044-9.333-12.498 14.346c0 0-77.249-41.702-131.233-78.952-13.566-6.856-30.154-2.615-39.855-7.562-11.106-5.655-17.994-4.524-20.384-6.362-12.301.778-29.522 4.17-38.73 1.414-5.413-1.626-3.163-8.835-8.435-10.744-9.911-3.534-20.033-4.947-24.32-7.775-19.682-1.272-109.162-4.594-162.373-4.665Z" fill="#101615"/><path d="M-116.443 333.157s53.28 22.477 84.7 40.996c31.42 18.518 99.181 54.778 123.22 79.869 24.04 25.092 53 57.676 53 57.676s-38.168-87.503-50.258-101.215c-12.09-13.642-25.586-27.142-26.078-34.917-.492-7.775-28.327-19.296-37.746-25.869-14.55-2.615-33.107-6.362-49.906-9.118-17.362-2.686-43.721-7.351-43.721-7.351s-19.26-6.927-53.211-.071Z" fill="#13221C"/><path d="M-125.089 344.183s-8.505 34.846-7.38 38.451c.211.636 21.86 10.319 21.157 12.086-.773 2.05-46.392 5.655-47.797 8.482-4.147 8.199 1.124 12.299-1.758 14.419-16.026 11.804 2.531 46.155 7.311 50.891 4.779 4.665-77.812 80.859-45.268 98.176 32.475 17.317 312.021 23.325 347.237 2.262 6.678-4.029-20.736-42.338-31.209-48.912-10.473-6.573-89.34-37.319-99.602-40.571-10.333-3.251-106.913-44.176-110.849-52.799-3.936-8.623-16.799-23.395-13.496-25.304 3.234-1.908 37.395 32.16 49.063 39.228 11.528 6.998 134.678 47.993 134.678 47.993s-157.17-94.147-165.676-104.184c-8.505-10.037-35.005-34.775-36.411-40.218Z" fill="#101615"/><path d="M155.161 311.458s5.061 3.675 17.362 5.371c14.761 2.05 37.465 2.686 42.175 8.553-17.573 11.309-27.343 23.537-35.005 24.597-2.671.353 9.981 112.171-.281 107.294 13.917 10.037-47.728-46.296-78.445-108.849-6.888-9.683-4.639-12.228-5.904-13.712-1.055-1.273-32.264-.919-35.427-.636-13.355 1.201-43.44-.424-61.223-1.202-2.18-.071 14.128-3.958 37.887-5.867a245.703 245.703 0 0 1-9.138-2.756c-22.001-7.21-60.31-22.406-71.205-26.435-12.652-4.736-34.161-8.34-34.161-8.34 6.467-2.616 61.434-8.765 90.042-5.584 33.74-.848 72.822 5.16 72.822 5.16s12.863 7.775 21.438 12.086c-12.09 1.626-44.494 15.338-42.807 15.691 18.627-3.675 44.846-6.361 52.718-6.432 14.129-.07 30.015-1.131 39.152 1.061Z" fill="#13221C"/><path d="M101.6 329.623s23.266-5.018 29.803-6.785c1.687.636-26.921 9.683-24.883 10.955 3.796 2.333 5.061 5.231 9.349 10.814 14.55 34.634 52.437 100.58 70.361 118.816 17.994 18.306 71.275 52.799 80.553 57.181 9.279 4.382-60.52-77.396-62.699-93.37-2.179-15.974-33.74-65.451-22.212-77.891-.914-4.311-52.507-5.866-61.926-15.338-1.968-1.979 55.108-15.62 53.21-17.246-6.818-2.827-16.448-4.877-17.924-5.372-9.419 1.909-37.395 15.338-58.552 17.246-21.158 1.909-66.636 3.747-66.636 3.747s78.304-1.485 71.556-2.757ZM298 454.309s76.336 37.178 95.034 48.417c20.032 12.086 28.257 11.662 26.71 21.769-1.546 10.108 61.083 81.567 69.237 86.585 8.153 5.018 36.691 30.11 36.691 30.11l102.625-2.191-18.557-1.131c-20.103-11.167-51.101-18.73-61.645-34.704-16.167-24.527-25.445-65.027-30.155-68.066-4.709-3.04 46.814 13.641 76.477 21.699 29.663 8.058 37.605 9.754 37.605 9.754s-53.702-33.786-96.157-48.77c-42.456-14.985-110.498-45.095-125.47-51.88-14.972-6.786-57.287-37.391-61.082-43.257-3.726-5.867-12.161-26.223-12.161-26.223S292.518 432.327 298 454.309Z" fill="#101615"/><path d="M669.655 461.926s3.233 19.225-29.171 20.215c-32.404.989-48.992 5.371-60.942 10.602-12.02 5.23-9.208 31.17-9.208 31.17s-130.179-55.484-146.767-69.974c-16.589-14.49-44.424-28.273-48.009-32.443-3.655-4.241-28.186-26.152-21.228-27.848 7.029-1.767 37.817-9.896 47.868-11.097 9.982-1.202 30.015-4.17 33.459-2.191.773.424 1.898 4.453 16.448 9.542 5.764 1.979 25.234-.142 32.334 2.332 7.943 2.757 12.09 9.401 21.017 12.511 55.108 18.942 124.133 42.479 133.06 45.872 14.902 5.725 30.014 8.411 31.139 11.309Z" fill="#13221C"/><path d="M692.101 474.004s19.541 9.188 20.947 13.57c1.406 4.383 3.936 24.809 3.936 24.809s-32.474 3.676-50.117 4.948c-16.729 1.202-61.575 1.202-69.166 5.019-7.592 3.816 30.787 25.233 30.787 25.233s-42.315-18.236-48.219-22.901c-5.905-4.594-22.985-9.825-25.516-14.702-2.53-4.806-21.087-13.995-21.087-13.995s36.129-7.633 52.999-7.068c23.056-3.675 38.238-8.481 51.313-12.44 15.253-4.594 27.905-12.793 37.816-15.125 8.083 8.34 9.419 10.319 16.307 12.652ZM413.058 470.914s-22.633 13.713-43.299 23.396c-20.665 9.683-10.192 16.257-6.115 27.071 4.077 10.885 44.002 39.369 44.002 39.369s16.588-18.094 27.202-10.461c10.544 7.634 30.507 24.173 30.507 24.173l76.827 6.291s-61.363-33.644-67.198-37.178c-5.834-3.534-44.423-46.014-45.9-52.022-1.476-6.008-11.668-24.243-11.668-24.243l-4.358 3.604ZM148.835 482.365c2.882.707 38.589 21.982 66.846 38.663 21.79 25.799 64.527 30.464 84.42 43.045 19.892 12.581 69.447 2.05 69.447 2.05l-128.351 8.34s-62.489-1.555-71.345-17.67c-8.857-16.116-250.868-24.173-307.734-75.205 162.302 26.505 239.973 32.018 278.704 33.008-15.183-9.542-154.78-48.134-154.78-48.134s147.961 12.44 162.793 15.903Z" fill="#101615"/><path d="M269.313 532.125s16.729 16.115 43.018 23.89c26.289 7.775 72.4-3.958 88.567 3.322 16.167 7.281 48.36 21.417 48.36 21.417s-47.939-17.176-59.536-23.113c-11.598-5.937-30.999-20.71-30.296-27.495.703-6.715-11.106-7.987-11.106-7.987s-10.543-7.068-15.183-9.542c-4.639-2.474-61.856-30.746-66.846-38.239-4.991-7.492-27.695-29.05-31.28-32.16-3.584-3.11-26.148-29.12-31.912-32.089-5.764-2.968-23.196-48.699-23.196-48.699s25.024 74.781 26.289 77.466c1.265 2.686 25.375 46.155 32.615 54.001 7.17 7.916 24.742 36.825 30.506 39.228Z" fill="#101615"/><path d="M594.065 471.413s38.239-10.602 13.004-19.508c-25.234-8.906-63.261-42.692-121.533-39.723-7.942.424-44.564 9.471-46.04 4.029-1.476-5.443 24.25-21.841 24.25-21.841s-39.925-.141-56.865 2.262c4.147-5.301 11.457-13.5 11.457-13.5s-31.982 8.199-44.002 12.864c-12.019 4.665-13.003 6.997-13.003 6.997s3.725-6.007 16.799-11.309c13.074-5.301 28.819-8.764 28.819-8.764s-29.381.283-52.085 7.633c-9.911 2.333-17.924 5.796-17.924 5.796s17.221 17.6 25.375 23.184c8.224 5.584 35.637 27.424 45.267 33.361 11.879 7.351 20.384 11.097 35.708 20.145 13.074 7.633 64.527 34.916 73.524 33.997-23.266-8.411-45.689-51.244-52.578-54.636-6.958-3.464 12.161 9.33 12.161 9.33s9.208 18.023 33.107 23.678c19.751 4.665 55.74-3.888 70.572-5.937-1.969 2.332-18.206 4.099-24.813 6.785-6.537 2.615-47.868 9.754-47.868 9.754s68.533-3.393 103.749-7.28c13.426.212 67.268.777 74.93-1.979-2.39-3.11-20.384-11.733-20.384-11.733s-26.359.424-38.59 1.767c-12.23 1.343 14.48-13.43 23.407-14.561.07 0-47.798 3.605-56.444 9.189Z" fill="#13221C"/></g><defs><clipPath id="clip0_1857_28839"><path fill="#fff" d="M0 0h1440v650H0z"/></clipPath></defs></svg>