<svg fill="none" height="70" viewBox="0 0 70 70" width="70" xmlns="http://www.w3.org/2000/svg"><g fill="#38346e"><path d="M35 70C15.7 70 0 54.399 0 35.222v-.446C0 15.601 15.701 0 35 0s35 15.601 35 34.776v.446c0 19.177-15.701 34.776-35 34.776z"/><path d="M35 70C15.7 70 0 54.399 0 35.222v-.446C0 15.601 15.701 0 35 0s35 15.601 35 34.776v.446c0 19.177-15.701 34.776-35 34.776z"/><path d="M34.999 2.092c-18.138 0-32.894 14.661-32.894 32.684v.446c0 18.023 14.756 32.685 32.894 32.685s32.896-14.664 32.896-32.685v-.446c0-18.023-14.758-32.684-32.896-32.684z"/></g><path d="M65.354 34.778c0 16.657-13.59 30.16-30.355 30.16S4.646 51.435 4.646 34.778 18.236 4.616 34.999 4.616c16.764 0 30.355 13.504 30.355 30.162z" fill="#1f1d44"/><path d="M17.466 12.789s-5.894 6.341-5.541 9.216c.043.369.908 4.25.908 4.25l-3.347 1.99c-.917 1.29-1.12 4.015-1.16 6.531-.07 4.332.073 7.407 1.14 9.286.33.58 3.615 1.883 5.001 2.488l-.918 4.838c7.553 7.76 18.776 8.884 22.872 8.884 4.37 0 12.574-3.543 15.53-5.4 0 0-.848-3.324-2.048-4.559 0 0 8.25-.732 8.643-1.345 3.71-5.773 2.722-15.418 2.722-15.418-.938-1.05-3.964-4.278-3.964-4.278l3.386-2.806c-2.742-9.09-4.018-12.74-17.007-17.735-13.476-5.186-26.219 4.058-26.219 4.058z" fill="#3e437f"/><path d="M58.349 54.323c.468-.6 1.56-2.3 1.982-2.933h-6.052zM7.047 46.551c.352.826 1.285 2.552 1.707 3.34l3.17-2.493z" fill="#38346e"/><path d="M35 7.67c16.248 0 29.514 12.686 30.315 28.633.026-.505.04-1.015.04-1.527 0-16.657-13.59-30.161-30.356-30.161-16.765 0-30.353 13.505-30.353 30.163 0 .512.013 1.022.039 1.527C5.485 20.356 18.75 7.67 34.999 7.67z" fill="#6080ba"/><path d="M22.3 8.715c.379.666-.269 1.744-1.451 2.407-1.18.663-2.444.66-2.823-.007-.38-.664.27-1.742 1.45-2.405 1.182-.663 2.445-.66 2.822.005zM27.919 6.653c.196.53-.274 1.188-1.048 1.47-.777.283-1.564.083-1.758-.446-.195-.528.275-1.188 1.05-1.47.776-.284 1.563-.083 1.758.446z" fill="#fff"/><path d="M50.697 37.655a.274.274 0 0 0-.08-.08.274.274 0 0 0-.082-.08.276.276 0 0 0-.08-.081.275.275 0 0 0-.082-.08.275.275 0 0 0-.08-.081.276.276 0 0 0-.082-.08.275.275 0 0 0-.08-.081.274.274 0 0 0-.082-.08.276.276 0 0 0-.08-.081.275.275 0 0 0-.082-.08.274.274 0 0 0-.08-.081.275.275 0 0 0-.081-.08.275.275 0 0 0-.081-.08.273.273 0 0 0-.081-.081.275.275 0 0 0-.081-.08.275.275 0 0 0-.081-.081.275.275 0 0 0-.081-.08.275.275 0 0 0-.081-.081.275.275 0 0 0-.081-.08.254.254 0 0 0-.216-.12 6.342 6.342 0 0 1-3.596-1.115 6.23 6.23 0 0 1-1.122-3.573.254.254 0 0 0-.12-.214.274.274 0 0 0-.081-.08.273.273 0 0 0-.081-.081.275.275 0 0 0-.081-.08.275.275 0 0 0-.081-.081.274.274 0 0 0-.081-.08.275.275 0 0 0-.081-.081.275.275 0 0 0-.081-.08.274.274 0 0 0-.08-.081.275.275 0 0 0-.082-.08.276.276 0 0 0-.08-.081.276.276 0 0 0-.082-.08.276.276 0 0 0-.08-.08.276.276 0 0 0-.082-.081.276.276 0 0 0-.08-.08.276.276 0 0 0-.082-.081.276.276 0 0 0-.08-.08.275.275 0 0 0-.082-.081.274.274 0 0 0-.08-.08.275.275 0 0 0-.082-.081.254.254 0 0 0-.47.134c0 3.472-2.843 6.297-6.337 6.297a.253.253 0 0 0-.135.467c.021.032.049.06.081.08.021.033.049.06.081.08.021.033.049.06.081.081.021.032.049.06.081.08.021.033.049.06.081.081.021.032.049.06.081.08.021.033.049.06.081.081.021.032.049.06.081.08.021.033.049.06.08.081.022.032.05.06.082.08.021.033.048.06.08.08.022.033.05.06.082.081.02.033.048.06.08.08.022.033.05.06.082.081.02.032.048.06.08.08.022.033.05.06.082.081.02.032.048.06.08.08.022.033.05.06.082.081.02.032.048.06.08.08.046.071.124.12.216.12 1.334 0 2.573.413 3.597 1.115a6.23 6.23 0 0 1 1.122 3.573c0 .09.048.17.12.214.02.033.048.06.08.08.022.033.05.06.082.081.02.032.048.06.08.08.022.033.05.06.081.081.022.032.05.06.081.08.021.033.05.06.081.081.021.032.049.06.081.08.021.033.049.06.081.081.021.032.049.06.081.08.021.033.049.06.081.08.021.033.049.06.081.081.021.033.049.06.081.08.021.033.049.06.081.081.021.032.049.06.081.08.021.033.049.06.081.081.021.032.049.06.081.08.021.033.049.06.081.081.021.032.049.06.081.08.021.033.049.06.081.081a.254.254 0 0 0 .47-.134c0-3.472 2.843-6.297 6.338-6.297a.253.253 0 0 0 .134-.467zM39.542 45.213a.276.276 0 0 0-.081-.08.274.274 0 0 0-.081-.081.276.276 0 0 0-.081-.08.276.276 0 0 0-.081-.081.275.275 0 0 0-.081-.08.275.275 0 0 0-.081-.081.275.275 0 0 0-.081-.08.274.274 0 0 0-.08-.081.275.275 0 0 0-.082-.08.275.275 0 0 0-.08-.08.275.275 0 0 0-.082-.081.275.275 0 0 0-.08-.08.275.275 0 0 0-.082-.081.274.274 0 0 0-.08-.08.274.274 0 0 0-.082-.081.275.275 0 0 0-.08-.08.274.274 0 0 0-.082-.081.275.275 0 0 0-.08-.08.276.276 0 0 0-.082-.081.254.254 0 0 0-.215-.12c-.913 0-1.77-.253-2.499-.694a4.735 4.735 0 0 1-.7-2.483.254.254 0 0 0-.119-.214.275.275 0 0 0-.081-.08.274.274 0 0 0-.081-.08.274.274 0 0 0-.08-.081.276.276 0 0 0-.082-.08.276.276 0 0 0-.08-.081.275.275 0 0 0-.082-.08.276.276 0 0 0-.08-.081.276.276 0 0 0-.082-.08.276.276 0 0 0-.08-.081.276.276 0 0 0-.082-.08.276.276 0 0 0-.08-.08.275.275 0 0 0-.082-.081.275.275 0 0 0-.08-.08.275.275 0 0 0-.082-.081.274.274 0 0 0-.08-.08.275.275 0 0 0-.082-.081.275.275 0 0 0-.08-.08.274.274 0 0 0-.082-.081.273.273 0 0 0-.08-.08.254.254 0 0 0-.47.133c0 2.639-2.162 4.787-4.818 4.787a.253.253 0 0 0-.254.253c0 .09.049.169.12.214.021.032.049.06.08.08.022.032.05.06.082.08.021.033.048.06.08.08.022.033.05.06.082.081.02.033.048.06.08.08.022.033.05.06.082.081.02.032.048.06.08.08.022.033.05.06.082.081.02.032.048.06.08.08.022.033.05.06.082.081.02.032.048.06.08.08.022.033.05.06.082.081.02.032.048.06.08.08.022.033.05.06.081.08.022.033.05.06.081.081.021.033.05.06.081.08.021.033.049.06.081.081.021.032.049.06.081.08.021.033.049.06.081.081.046.07.123.12.216.12.913 0 1.77.253 2.498.694.444.724.7 1.574.7 2.483 0 .09.048.169.12.214.02.032.048.06.08.08.022.033.05.06.082.081.02.032.048.06.08.08.022.033.05.06.082.08.02.033.048.06.08.081.022.032.05.06.082.08.02.033.048.06.08.081.022.032.05.06.081.08.022.033.05.06.081.081.022.032.05.06.081.08.021.033.05.06.081.081.021.032.049.06.081.08.021.033.049.06.081.081.021.032.049.06.081.08.021.033.049.06.081.08.021.033.049.06.081.081.021.032.049.06.081.08.021.033.049.06.081.081.021.032.049.06.081.08a.254.254 0 0 0 .47-.133c0-2.639 2.16-4.787 4.817-4.787a.253.253 0 0 0 .135-.466zM28.915 37.267c0 .09.049.17.12.214.021.032.049.06.081.08.021.033.049.06.081.081.021.032.049.06.081.08.021.033.049.06.081.081.021.032.049.06.081.08.021.033.049.06.081.08.021.033.049.06.081.081.021.032.049.06.081.08.021.033.049.06.08.081.022.032.05.06.082.08.021.033.049.06.08.081.022.032.05.06.082.08.02.033.048.06.08.081.022.032.05.06.082.08.02.033.048.06.08.081.022.032.05.06.082.08.02.033.048.06.08.08.022.033.05.06.082.081.02.032.048.06.08.08a.254.254 0 0 0 .47-.133c0-4.306 3.526-7.81 7.86-7.81a.253.253 0 0 0 .135-.467.275.275 0 0 0-.081-.08.274.274 0 0 0-.08-.08.275.275 0 0 0-.082-.081.275.275 0 0 0-.08-.08.275.275 0 0 0-.082-.081.275.275 0 0 0-.08-.08.275.275 0 0 0-.082-.08.274.274 0 0 0-.08-.081.275.275 0 0 0-.082-.08.276.276 0 0 0-.08-.081.275.275 0 0 0-.082-.08.275.275 0 0 0-.08-.081.276.276 0 0 0-.082-.08.275.275 0 0 0-.08-.081.274.274 0 0 0-.082-.08.276.276 0 0 0-.08-.081.275.275 0 0 0-.082-.08.274.274 0 0 0-.08-.08.275.275 0 0 0-.081-.081.254.254 0 0 0-.216-.12 7.847 7.847 0 0 1-4.686-1.544 7.731 7.731 0 0 1-1.555-4.657.254.254 0 0 0-.12-.214.276.276 0 0 0-.08-.08.275.275 0 0 0-.082-.08.275.275 0 0 0-.08-.081.275.275 0 0 0-.082-.08.274.274 0 0 0-.08-.08.275.275 0 0 0-.081-.081.275.275 0 0 0-.081-.08.274.274 0 0 0-.081-.081.273.273 0 0 0-.081-.08.275.275 0 0 0-.081-.081.274.274 0 0 0-.081-.08.274.274 0 0 0-.081-.081.275.275 0 0 0-.081-.08.274.274 0 0 0-.081-.081.275.275 0 0 0-.081-.08.276.276 0 0 0-.081-.08.275.275 0 0 0-.081-.081.274.274 0 0 0-.081-.08.276.276 0 0 0-.081-.081.254.254 0 0 0-.47.133c0 4.306-3.525 7.81-7.86 7.81a.253.253 0 0 0-.134.467c.02.032.048.06.08.08.022.033.05.06.082.081.02.032.048.06.08.08.022.033.05.06.081.081.021.032.05.06.081.08.021.033.049.06.081.08.021.033.049.06.081.081.021.033.049.06.081.08.021.033.049.06.081.081.021.032.049.06.081.08.021.033.049.06.081.081.021.032.049.06.081.08.021.033.049.06.081.081.021.032.049.06.081.08.021.033.049.06.081.081.021.032.049.06.081.08.021.033.049.06.081.08.021.033.049.06.081.081.021.033.049.06.081.08.045.072.123.12.215.12 1.756 0 3.377.574 4.687 1.545a7.731 7.731 0 0 1 1.554 4.656z" fill="#131342"/><path d="M37.28 28.953c-4.333 0-7.86-3.503-7.86-7.81 0-.14-.113-.253-.254-.253s-.254.113-.254.253c0 4.306-3.525 7.81-7.86 7.81a.253.253 0 1 0 0 .505c4.333 0 7.86 3.503 7.86 7.81 0 .14.113.253.254.253s.254-.112.254-.252c0-4.306 3.526-7.81 7.86-7.81a.253.253 0 1 0 0-.506zM49.198 36.26a.253.253 0 0 0-.255-.253c-3.494 0-6.338-2.825-6.338-6.298a.253.253 0 0 0-.254-.252.253.253 0 0 0-.254.252c0 3.473-2.844 6.298-6.338 6.298a.253.253 0 1 0 0 .505c3.494 0 6.338 2.826 6.338 6.298 0 .14.113.253.254.253.14 0 .254-.113.254-.253 0-3.472 2.844-6.298 6.338-6.298.141 0 .255-.112.255-.252zM38.042 43.818a.253.253 0 0 0-.254-.253c-2.656 0-4.818-2.146-4.818-4.787 0-.14-.113-.253-.254-.253s-.255.113-.255.253c0 2.639-2.16 4.787-4.817 4.787a.253.253 0 1 0 0 .505c2.656 0 4.818 2.147 4.818 4.787 0 .14.113.253.254.253s.254-.113.254-.253c0-2.639 2.16-4.787 4.817-4.787.141 0 .255-.113.255-.252z" fill="#fff"/></svg>