<svg fill="none" height="314" viewBox="0 0 1440 314" width="1440" xmlns="http://www.w3.org/2000/svg" xmlns:xlink="http://www.w3.org/1999/xlink"><linearGradient id="a"><stop offset="0" stop-color="#202825"/><stop offset="1" stop-color="#202825" stop-opacity="0"/></linearGradient><linearGradient id="b" gradientUnits="userSpaceOnUse" x1="1344.93" x2="1340.59" xlink:href="#a" y1="121.613" y2="193.328"/><linearGradient id="c" gradientUnits="userSpaceOnUse" x1="1447.34" x2="1443.58" xlink:href="#a" y1="86.12" y2="193.311"/><linearGradient id="d" gradientUnits="userSpaceOnUse" x1="1414.72" x2="1413.79" xlink:href="#a" y1="118.891" y2="193.292"/><linearGradient id="e" gradientUnits="userSpaceOnUse" x1="1324.73" x2="1324.02" xlink:href="#a" y1="140.089" y2="193.531"/><linearGradient id="f" gradientUnits="userSpaceOnUse" x1="1288.73" x2="1288.39" xlink:href="#a" y1="153.262" y2="193.501"/><linearGradient id="g" gradientUnits="userSpaceOnUse" x1="1273.84" x2="1273.78" xlink:href="#a" y1="174.15" y2="193.447"/><clipPath id="h"><path d="M0 0h1440v314H0z"/></clipPath><g clip-path="url(#h)"><path d="M327.612 191.276s-2.454-11.312-8.369-14.015c5.131.248 13.696 12.617 13.696 12.617-1.008-7.303-2.668-12.493-4.301-17.341 3.116 4.102 4.795 10.442 6.307 17.061 0 0 4.795-13.238 10.738-17.776-7.51 13.767-7.66 17.59-7.66 17.59S342.035 177.23 357 168c-15.086 16.346-14.545 18.832-14.545 18.832 4.366-6.37 8.639-10.255 12.716-8.981-4.422 2.486-8.256 6.34-10.999 12.742l-.607 4.133L324.188 196c-4.628-9.882-12.334-13.114-21.188-13.86 8.219-2.486 17.997.994 24.612 9.136z" fill="#101615"/><path d="M1298.5 153.844s-9.87 6.338-14.53 9.996c-.41 4.117-.58 9.585-3.67 12.822-2.66 2.75-18.31 21.284-18.96 22.475-.64 1.192 19.42-13.434 21.44-14.993 2.01-1.559 8.7-15.863 11.42-16.459 2.69-.594 14.9 6.494 16.58 5.755 1.69-.706-23.78-9.781-23.12-10.459s10.37-7.584 11.64-9.349c.73-1.027 8.98-5.877 8.98-5.877s-7.3 4.452-9.78 6.089z" fill="#151c19"/><path d="M1293.49 166.722s7.26 3.506 13.78 5.811c6.53 2.34 3.55 4.606 2.6 7.986-.92 3.377-12.22 13.105-12.22 13.105s-5.54-5.003-8.52-2.393c-2.98 2.609-8.56 8.17-8.56 8.17l-23.11 4.075s17.68-11.9 19.32-13.115c1.66-1.219 12.16-15.123 12.46-17.003.28-1.842 2.86-7.637 2.86-7.637z" fill="#101615"/><path d="M1437.83 98.057s2.09 8.411 1.54 12.096c1.53 1.331 9.71-.632 11.14.332 4.69 3.265 4.3 10.021 5.91 14.122.22.494-5.63.937-5.31 1.49.49.811 12.73 3.063 13.36 3.896 2.42 3.168-.1 5.152-.01 7.235.07 3.01-27.38 42.083-34.81 50.627l-139.77 12.528s9.45-46.822 22.29-55.802c0 0 22.24-14.761 37.55-27.502 3.91-2.457 9.07-1.635 11.88-3.407 3.21-2.013 5.31-1.866 6.01-2.514 3.76-.111 9.05.423 11.76-.652 1.59-.628.74-2.777 2.25-3.467 2.93-1.336 5.95-2.063 7.16-3.033 5.88-.892 32.91-4.408 49.05-5.949z" fill="#101615"/><path d="M1450.14 110.177s-15.51 8.27-24.54 14.769c-9 6.462-28.54 19.324-35.1 27.582-6.57 8.258-14.46 18.902-14.46 18.902s9.09-27.487 12.38-31.942 6.99-8.914 6.94-11.275c-.09-2.358 8.05-6.614 10.69-8.883 4.34-1.194 9.84-2.872 14.87-4.164 5.19-1.307 13.04-3.446 13.04-3.446s5.69-2.656 16.18-1.543zM1453.1 113.26s3.56 10.261 3.33 11.38c-.05.211-6.34 3.712-6.09 4.237.3.589 14.23.386 14.76 1.228 1.48 2.364 0 3.737.95 4.3 5.19 3.115.55 14.005-.78 15.535-1.33 1.564 25.86 22.168 16.49 28.322s-93.93 15.861-105.23 10.504c-2.15-1.033 5.09-13.366 8.11-15.635 3.01-2.269 26.03-13.778 29.07-15.055 3.03-1.277 31.18-16.349 32.13-19.077.94-2.728 4.43-7.545 3.4-7.997-1.04-.486-10.45 10.78-13.79 13.217-3.4 2.444-39.57 18.297-39.57 18.297s45.01-32.826 47.31-36.092 9.63-11.457 9.91-13.164z" fill="#101615"/><path d="M1367.18 111.335s-1.43 1.23-5.12 2.123c-4.43 1.03-11.27 1.875-12.54 3.776 5.66 2.9 8.96 6.329 11.3 6.419.82.026.13 34.101 3.12 32.347-3.93 3.418 13.18-15.32 20.73-35.052 1.83-3.119 1.05-3.801 1.41-4.314.27-.437 9.77-1.186 10.72-1.206 4.08-.004 13.14-1.364 18.53-2.106.64-.094-4.4-.79-11.66-.695a68.09 68.09 0 0 0 2.68-1.107c6.46-2.797 17.65-8.47 20.83-10.001 3.71-1.786 10.1-3.479 10.1-3.479-2.04-.598-18.87-.913-27.45.881-10.25.717-21.94 3.625-21.94 3.625s-3.69 2.71-6.15 4.242c3.71.134 13.92 3.364 13.42 3.513-5.75-.595-13.77-.635-16.19-.443-4.21.427-9.07.537-11.79 1.477z" fill="#151c19"/><path d="M1383.94 115.291s-7.18-.839-9.24-1.195c-.49.217 8.43 2.161 7.86 2.592-1.1.788-1.39 1.706-2.52 3.526-3.44 10.847-13.08 31.802-18 37.815-4.93 6.013-20.13 17.923-22.8 19.509-2.69 1.589 16.18-25.028 16.38-29.915.19-4.886 8.38-20.701 4.53-24.113.16-1.317 15.75-3.252 18.37-6.376.52-.632-17.13-3.168-16.63-3.694 1.99-1.043 4.83-1.925 5.29-2.105 2.91.311 11.78 3.563 18.23 3.545 6.47-.022 20.32-.766 20.32-.766s-23.8 1.741-21.79 1.177zM1373.92 162.68c-.86.286-11.07 7.718-19.2 13.551-5.9 8.402-18.72 11.003-24.38 15.371s-20.98 2.575-20.98 2.575l39.15-1.116s18.92-2.245 21.15-7.356 75.38-14.405 91.18-31.375c-48.47 12.579-71.87 16.442-83.56 17.842 4.32-3.317 45.58-18.892 45.58-18.892s-44.55 7.928-48.94 9.4z" fill="#101615"/><path d="M1282.85 199.633s29.62-21.002 30.85-21.701c2.35-1.316 5.91-5.076 7.85-6.663 3-2.439 18.66-9.798 23.59-16.154 4.93-6.357 15.64-24.499 15.64-24.499s-19.64 22.094-21.64 24.51c-1.97 2.412-14.35 10.835-17.68 12.929-3.34 2.128-8.07 4.695-10.44 4.951-2.38.222-5.79-3.231-8.89-4.142-3.1-.91-18.4-5.037-18.4-5.037s19.46 7.269 25.05 11.308c2.5 1.823-15.73 12.232-25.93 24.498z" fill="#151c19"/><path d="M1338.79 181.077s-4.62 5.333-12.38 8.423c-7.74 3.088-22.07.86-26.76 3.525-4.69 2.666-14.05 7.825-14.05 7.825s14.07-6.523 17.4-8.651c3.34-2.094 8.83-7.133 8.41-9.15-.4-2.02 3.13-2.727 3.13-2.727s3-2.439 4.36-3.32c1.32-.878 17.89-11.029 19.18-13.412s7.58-9.552 8.58-10.571c1-1.054 7.1-9.542 8.78-10.591 1.69-1.048 5.67-15.339 5.67-15.339s-5.48 23.241-5.81 24.095-6.39 14.618-8.37 17.203c-1.95 2.616-6.44 11.812-8.14 12.69z" fill="#101615"/><path d="M1321.2 140.721c16.52 11.315 127.22 38.184 132.8 62.758h-196.57l-31.16 2.256-3.16-21.749s15.33-11.682 27.79-17.438c12.42-5.719 29.99-18.809 34.35-21.307 4.36-2.464 15.83-10.048 16.82-11.923.95-1.872 5.64-8.994 5.64-8.994s14.54 9.614 13.49 16.397z" fill="#101615"/><path d="M1214.02 153.841s-.44 5.904 9.41 5.293c9.85-.61 15.01.246 18.79 1.47s3.66 9.155 3.66 9.155 37.9-20.404 42.56-25.261c4.62-4.82 12.66-9.787 13.63-11.146s7.83-8.684 5.64-8.994c-2.16-.347-11.77-1.919-14.82-1.977-3.06-.092-9.23-.408-10.22.303-.23.158-.46 1.413-4.73 3.355-1.68.773-7.65.679-9.73 1.593-2.33 1.041-3.4 3.197-6.03 4.369-16.19 7.27-36.43 16.324-39.06 17.597-4.33 2.084-8.81 3.325-9.1 4.243z" fill="#101615"/><path d="M1210.1 157.327s-5.69 3.342-5.98 4.672c-.32 1.367-.49 7.588-.49 7.588s9.96.202 15.33.078c5.1-.133 18.7-1.367 21.11-.427 2.42.94-8.6 8.482-8.6 8.482s12.34-6.705 13.97-8.263c1.67-1.562 6.69-3.607 7.34-5.142.65-1.534 6-4.81 6-4.81s-11.16-1.29-16.28-.642c-7.11-.468-11.83-1.467-15.91-2.286-4.76-.962-8.83-3.085-11.92-3.482-2.18 2.706-2.53 3.322-4.57 4.232z" fill="#151c19"/><path d="M1222.46 184.698s.43 2.839 3.66 9.155c2.43 4.71 13.86 8.512 15.03 10.836.04.065-14.88 1.08-14.88 1.08l-34.61 3.059s4.14-11.083 3.74-16.154c-.09-.952 2.88-14.6 2.86-16.312-.05-2.018.2-3.756.2-3.756l7.89-5.09c19.14-.311 44.77-2.6 29.26 7.555 0 0-11.48 7.756-12.46 8.945-.99 1.19-.69.682-.69.682z" fill="#101615"/><path d="M1231.92 154.262s-11.88-2.113-4.49-5.512c7.4-3.399 17.97-14.67 35.73-15.401 2.42-.09 13.76 1.596 14.05-.077s-7.96-5.909-7.96-5.909 12.1-1.163 17.3-.928c-1.41-1.48-3.85-3.755-3.85-3.755s9.92 1.577 13.68 2.632c3.77 1.054 4.14 1.739 4.14 1.739s-1.29-1.697-5.41-2.923c-4.13-1.226-8.98-1.836-8.98-1.836s8.91-.763 15.98.84c3.09.397 5.6 1.26 5.6 1.26s-4.7 5.787-7.06 7.721c-2.32 1.897-10.03 9.267-12.79 11.341-3.4 2.546-5.87 3.942-10.27 7.096-3.73 2.679-18.6 12.329-21.34 12.345 6.83-3.175 12.39-16.722 14.4-17.972s-3.41 3.164-3.41 3.164-2.28 5.698-9.39 8.076c-5.85 1.986-17.01.386-21.58.196.64.66 5.65.741 7.7 1.339 2.04.598 14.79 1.603 14.79 1.603s-20.86.918-31.68.727c-4.07.449-20.37 2.141-22.76 1.507.66-1.022 5.85-4.112 5.85-4.112s8-.609 11.78-.55c3.74.062-4.76-3.636-7.51-3.722.09-.078 14.71-.344 17.48 1.111z" fill="#151c19"/><path d="M884.142 177.319c-31.202 15.768-42.999 35.931-49.855 61.666l189.553-17.687 63.16-6.51 2.44-22.273s-33-7.24-59.05-9.403-63.792-10.161-73.023-11.357c-9.201-1.232-33.697-5.461-36.006-7.062-2.272-1.571-12.988-7.291-12.988-7.291s-27.535 13.54-24.231 19.917z" fill="#101615"/><path d="M1102.28 160.291s1.97 5.679-17.99 7.816c-19.96 2.136-30.14 4.423-37.54 6.69-7.4 2.268-5.71 10.03-5.71 10.03s-80.015-9.505-90.212-12.976c-10.198-3.471-27.276-6.094-29.501-7.155-2.224-1.061-17.325-6.372-12.988-7.29 4.3-.95 23.312-5.158 29.463-6.109s18.474-2.993 20.604-2.574c.488.091 1.146 1.264 10.126 1.969 3.558.285 15.529-1.483 19.881-1.135 4.869.368 7.404 2.189 12.927 2.599 33.88 2.633 76.32 5.873 81.78 6.425 9.18.927 18.46.884 19.16 1.71z" fill="#101615"/><path d="M1110.79 162.617s70.35-8.141 71.76-7.656l21.54 7.041.94 7.523s-99.04 6.327-109.88 7.716c-10.3 1.304-37.9 3.879-42.58 5.482-4.69 1.603 18.89 5.95 18.89 5.95s-26-3.161-29.63-4.228c-3.64-1.067-14.12-1.7-15.68-3.028-1.56-1.329-12.94-3.079-12.94-3.079s22.26-4.373 32.64-5.17c14.2-2.423 23.55-4.769 31.63-6.689 9.39-2.248 17.22-5.481 23.34-6.771 4.96 2.074 5.76 2.582 9.97 2.909z" fill="#151c19"/><path d="M1090.86 193.034s-.34 2.912-5.71 10.03c-4.03 5.313-26.35 12.264-28.3 14.88-.03.071 30.12-3.085 30.12-3.085l158.1-14.855-38.06-30.595-28.72-9.079-43.82 6.214-11.48-1.363c-38.57 5.039-93.36 16.391-60.3 22.082 0 0 24.48 4.436 26.69 5.327 2.24.853 1.48.444 1.48.444z" fill="#101615"/><path d="M1066.37 165.665s23.56-5.422 8.05-6.683c-15.51-1.295-38.83-9.404-74.71-5.199-4.885.558-27.434 5.439-28.337 3.844-.903-1.596 14.951-8.047 14.951-8.047s-24.579 2.225-35.015 3.919c2.57-1.851 7.063-4.773 7.063-4.773s-19.689 4.305-27.101 6.437c-7.415 2.098-8.028 2.875-8.028 2.875s2.313-2.033 10.389-4.398 17.769-4.298 17.769-4.298-18.075 1.755-32.042 5.287c-6.122 1.257-11.054 2.78-11.054 2.78s9.922 7.379 14.938 8.591c5.053 1.243 22.154 4.235 28.066 5.5 7.279 1.584 12.878 1.333 22.308 3.196 8.033 1.582 39.633 6.965 45.143 6.176-14.31-1.236-27.988-13.022-32.267-13.685-4.279-.664 7.469 2.148 7.469 2.148s5.639 4.959 20.348 5.335c12.13.308 34.32-4.368 43.44-5.836-1.22.834-11.24 2.283-15.27 3.482-4.04 1.166-29.5 5.701-29.5 5.701s42.19-4.93 63.9-8.122c8.26-.703 41.39-3.587 46.1-4.85-1.48-.822-12.5-2.434-12.5-2.434s-16.23 1.652-23.78 2.733c-7.54 1.115 8.94-4.913 14.41-5.767.05.099-29.46 3.915-34.74 6.088zM1246.56 190.609s-23.6-5.649-46.91-1.245c-23.35 4.373-62.82 4.627-77.1 2.977-14.28-1.651-27.03-7.489-27.03-7.489s72.11-8.992 81.31-9.644c9.19-.686 43.09 1.807 48.17 2.911 5.03 1.073 18.15 10.511 21.56 12.49z" fill="#151c19"/><path d="M1146.44 212.156s.89-1.523 8.29-6.705 52.28-17.598 52.28-17.598-35.04 4.71-49.3 4.704c-14.27-.007-34.34.564-44.45-2.024-10.12-2.621-9.35-4.681-17.74-5.681-7.52 1.044-98.83 32.465-108.56 43.556z" fill="#101615"/><path d="m1250.23 203.809-2.29-4.655c-2.7-6.536 1.93-7.963-3.15-9.477-5.04-1.518-10.12-2.622-17.68-3.219-7.57-.631-59.84 5.687-59.84 5.687s-29.88 14.136-33.87 21.331zM1146.83 192.474s-13.24 6.139-25.64 10.656c-12.44 4.486-19.85 8.845-25.63 12.299-5.78 3.487-6.87-1.622-6.87-1.622l-33.48.964s17.71.885 25.92-5.127c8.22-6.012 24.01-10.194 24.77-13.11.75-2.916-3.46-4.031-6.87-6.01s-3.51-5.672-3.51-5.672 15.25 6.188 27.03 7.489c11.74 1.304 24.28.133 24.28.133zM819.72 183.536s-.496 8.652.724 12.172c-1.257 1.591 0 0 0 0l9.43 16.193.568 6.084.057 8.326 4.192 44.931 9.687-.903 139.676-13.548s-17.947-44.265-32.228-50.715c0 0-24.591-10.39-41.985-20.081-4.306-1.69-9.216.071-12.312-1.148-3.524-1.386-5.565-.852-6.367-1.36-3.716.586-8.821 2.091-11.684 1.536-1.676-.324-1.237-2.593-2.851-2.991-3.123-.772-6.223-.928-7.594-1.657-5.952.144-33.166 1.689-49.313 3.161z" fill="#101615"/><path d="M891.576 183.517s1.631.945 5.421 1.14c4.543.193 11.428-.244 13.02 1.39-5.019 3.897-7.63 7.877-9.913 8.399-.806.178 6.181 33.536 2.917 32.366 4.497 2.632-15.782-12.618-26.854-30.612-2.38-2.727-1.736-3.541-2.189-3.979-.344-.379-9.814.642-10.759.798-4.01.752-13.166 1.092-18.592 1.358-.649.026 4.171-1.589 11.323-2.839-.767-.134-1.747-.351-2.832-.593-6.865-1.554-18.917-5.057-22.328-5.973-3.974-1.069-10.567-1.551-10.567-1.551 1.898-.966 18.378-4.389 27.137-4.212 10.208-1.193 22.238-.498 22.238-.498s4.127 1.98 6.831 3.031c-3.626.818-13.062 5.881-12.543 5.935 5.538-1.648 13.418-3.171 15.828-3.431 4.248-.396 9.012-1.149 11.862-.729z" fill="#151c19"/><path d="M875.841 190.504s6.896-2.151 8.85-2.882c.526.122-7.884 3.684-7.237 4 1.219.572 1.675 1.421 3.125 3 5.392 10.022 18.735 28.833 24.687 33.832 5.952 4.998 23.1 13.889 26.011 14.954 2.945 1.063-20.529-21.603-21.625-26.369s-12.073-18.792-8.921-22.857c-.392-1.267-16.071-.284-19.226-2.869-.632-.524 16.247-6.281 15.658-6.706-2.152-.657-5.098-.999-5.587-1.09-2.801.844-10.92 5.681-17.256 6.855-6.37 1.177-20.118 3.009-20.118 3.009s23.747-2.696 21.639-2.877z" fill="#101615"/><g clip-rule="evenodd" fill-rule="evenodd"><path d="M211.735 225.288s-33.874-22.486-65.753-43.653c-4.021-2.67-31.075.097-34.871-2.413-17.114-11.291-6.369-23.772-11.388-25.188-13.864-3.86-9.876-12.674-17.178-23-8.75 1.383-16.02-8.268-18.626-8.107 0 0-15.312-10.648-23.193-11.259C32.876 111.057 0 85 0 85v140.256h211.735z" fill="#101615"/><path d="M.386 85.418s19.205 9.49 28.502 19.205c14.668 2.895 23.322 6.595 30.624 9.715 7.624 3.989 8.654 5.018 14.09 10.101 5.984 1.094 12.256 9.908 12.256 9.908s-15.762 2.831-34.71 5.855c-8.62 1.093-15.698-6.627-16.76-7.142-.836-.418 12.482-5.469 25.189-2.573-6.788-4.311-24.803-21.2-31.848-23.451 3.7 7.495-.836 17.049-1.93 16.213-3.57-8.364-11.645-17.918-16.856-22.422C5.373 97.642.386 85.418.386 85.418z" fill="#151c19"/><path d="M27.858 108.097s3.99 1.094 5.083 1.737c1.094.644 3.764.708 3.764.708l5.34.965-7.142-.257s1.802 1.769 3.153 2.509c1.512.804 2.445 2.091 2.445 2.091l4.439 2.831s-4.471-4.439-3.925-4.246c.547.225 1.094-1.48 1.094-1.48s1.094.096 1.77.418c.675.322.675-1.062.675-1.062s2.316.322 3.024 0c.675-.321 1.383 1.062 1.383 1.062s-2.734.096-1.512 1.062c1.223.932 2.059 1.222 1.898 1.544-.128.354-2.123-.193-1.737.933.386 1.093.643 1.511.643 1.511s-.675.644-1.64.644-2.059.225-2.059.225l-1.158 1.512c.482.193.515.965 1.93 1.834 1.416.868 13.35 7.752 14.444 7.849-.129-.515-8.107-8.042-7.56-8.139.547-.096.547-1.576-.675-1.48-1.223.097-.805-.836-.13-.836.677 0 2.124-.032 1.931-.643-.16-.612-.579-1.03-.579-1.03s1.062.354 2.477.515c2.477.322 1.222-1.48 1.222-1.48s4.182 3.185 5.47 4.086c4.02.579 11.516 3.088 11.516 3.088s-8.815-8.943-13.511-9.297c-.547.096-3.12.161-3.635-1.19s-.901-1.223-1.705-1.351c-.805-.097-2.67-1.448-3.314-1.609-.643-.161-4.76-1.319-5.983-1.64-1.222-.322-10.069-1.223-10.069-1.223l1.93-.804-3.57-.965-4.568-1.802c-2.156-.707-.387 2.703-1.159 3.41z" fill="#151c19"/><path d="M19.012 97.096c-.418-.033.547 1.383 1.769 1.254 1.222-.096 1.351 2.831 1.351 2.831s2.22.515 1.126 1.801c-1.094 1.255-6.434-2.026-1.094 1.255 5.34 3.281 7.142 10.069 6.563 13.028 1.35-2.477 1.576-9.136 1.576-9.136s-1.222-3.281-1.415-3.506c-2.027-2.348-6.595-7.206-9.876-7.527z" fill="#151c19"/><path d="M256.031 167.095s-15.055 17.982-14.411 26.41c.611 8.428 3.12 31.236 3.12 31.236H430s-26.571-13.028-34.356-20.234c-10.648-4.954-80.197-25.832-91.456-25.832 13.607 6.659-34.067-11.709-48.157-11.58z" fill="#101615"/><path d="M256.031 167.77s-15.827 36.705-6.433 36.705c4.696 0 31.975-11.87 33.809-10.841 8.46-2.767 40.082 8.846 41.948 10.841-.29 11.581-11.13 20.234-11.13 20.234H204.69s34.453-50.988 51.341-56.939z" fill="#101615"/><path d="M279.482 195.789c1.802-.225 11.646-4.471 16.76-5.436 0 0 19.656 14.508 28.405 18.497 29.885-6.531 68.005-5.952 68.005-5.952s-45.422-16.888-65.013-20.137c-5.629-2.477-16.792-1.287-16.792-1.287s-5.887-11.42-14.026-11.42c0 0-14.765-5.79-17.918-5.276-3.12.483-23.193 2.188-23.193 2.188s13.993 14.862 23.772 28.823z" fill="#151c19"/><path d="M290.388 212.131s.386 2.123-4.504 5.179c-4.857 3.056-22.84 7.978-22.84 7.978h49.025c.033 0-13.285-8.396-21.681-13.157zM40.726 161.98s-6.788 17.628-11.613 20.877c-1.673 1.126-18.272-13.318-21.006-19.397-1.03.739 5.179 15.408 4.214 16.18-7.496 5.791 8.267 11.742 6.015 12.643-2.252.9-18.336.933-18.336.933v32.072s16.631-21.939 19.623-30.174c.9-2.477 15.698-.29 22.036-1.223 1.898-1.383-5.276-8.525-3.12-9.94 12.191-8.106 25.445-16.599 29.208-18.787 6.37-3.667 29.628 4.504 32.266 4.794 2.605.289-12.803-11.806-17.307-15.474-.74-3.667-27.247-5.533-27.247-5.533s-8.139 7.624-14.733 13.029z" fill="#101615"/><path d="M27.922 125.822s-19.59 15.57-17.725 26.25c.354 1.962 18.916-16.889 24.417-19.237.965 2.895 15.409 4.214 16.663 7.206 14.122 22.614-43.042 28.63-42.109 30.689 2.51 5.565 17.532 13.704 17.532 13.704 6.756 5.854 13.35 6.144 16.728 10.229-7.785.386-23.548-.772-23.548-.772s-6.723-6.401-10.487-9.779c-4.729-.611-9.393-.611-9.393-.611v-46.13c-.032 0 21.94-13.093 27.922-11.549z" fill="#101615"/><path d="M67.747 163.588s-4.857 9.265-4.503 16.889c.386 7.624 7.399 21.907 7.399 21.907s5.983-7.013 7.109-7.946c1.126-.901 12.353-4.89 14.219-5.79 1.865-.901 11.966-6.724 14.604-8.236 2.606-1.511 9.361-2.444 9.361-2.444S97.6 167.577 88.239 166.387c-9.329-1.255-13.736-4.343-20.492-2.799z" fill="#151c19"/><path d="M19.108 194.953 0 225.256h62.986s16.986-30.786 18.112-31.397c.675-.354 10.422-3.924 10.004-5.372-.643-2.316 18.336-2.67 18.143-3.828-.225-1.319-36.576-7.238-43.428-10.101-.772-.322-7.205 3.506-7.141 3.281.064-.289 6.176-4.729 6.273-5.018.064-.29.16-.579.257-.901 1.223-4.278 2.96-8.332 2.96-8.332s-25.671 12.289-31.043 19.849c-.837 1.158 12.353 18.754 14.25 21.842-3.795 3.088-32.072-11.677-32.265-10.326zM186.611 225.288s3.732-7.367.129-15.763c-3.796-8.911-15.055-19.012-19.302-22.615-8.299-6.98-13.35-12.127-13.35-12.127s31.654-7.785 34.26-8.203c2.606-.419 17.339 6.176 17.339 6.176l44.94 29.499-17.243 23h-46.773z" fill="#101615"/><path d="M90.78 185.045s-8.814 11.484-11.42 17.242-13.478 23.001-13.478 23.001h153.541s-32.297-25.478-38.506-30.818c-6.241-5.34-27.054-18.947-29.659-19.784-2.606-.836-22.326 1.191-30.625 1.577-8.3.418-5.63.579-9.779 1.801-4.15 1.255-20.074 6.981-20.074 6.981z" fill="#101615"/><path d="M162.227 160.693s-16.921-1.062-27.311 3.056c-10.391 4.118-35.386 19.237-35.386 19.237s23.226-5.34 31.558-6.434c13.832-1.833 25.381.258 25.381.258s20.395-5.341 30.142-8.171c2.992-.869 19.044 4.793 20.395 4.793 0 0-14.669-9.812-18.658-10.97-6.176-1.769-21.714-2.026-26.121-1.769z" fill="#151c19"/><path d="M188.348 162.719s1.609 1.512-12.674 5.405c-11.034 3.024-21.714 7.334-21.714 7.334 7.109 4.665 31.139 30.561 31.557 33.456.708-19.334-4.117-22.036-4.117-22.036s24.802 9.2 41.401 11.935c10.133 0 25.059 1.93 26.378 1.93 0 0-43.138-34.131-60.831-38.024zM87.628 146.764s-10.101-1.126-15.506.161c-5.404 1.254-16.728 1.994-16.728 1.994s9.94 6.273 14.283 5.952c7.238-.579 18.497 3.12 18.497 3.12s9.715-1.512 11.485-3.796c-.032 0-7.11-5.662-12.031-7.431z" fill="#151c19"/><path d="M60.992 177.131s-4.857 10.648-6.723 14.894c-1.32 5.405-5.115 7.689-5.115 13.479l-2.413 16.342s11.613-12.385 12.417-14.669c5.115-2.284 17.082.611 22.004-12.868.547-1.512 23.193-12.931 17.21-12.642-5.983.29-29.595-5.597-32.812-6.627-2.96.933-4.568 2.091-4.568 2.091z" fill="#101615"/><path d="M79.49 206.373s-13.512-2.799-18.916-1.512c-5.405 1.255-8.3 3.281-8.3 3.281s-21.874 5.244-22.325 8.235c12.642-2.026 45.23 1.995 45.23 1.995s25.413 2.509 39.857 6.916c-.033 0-24.03-15.795-35.547-18.915z" fill="#101615"/></g><path d="m939 233.5-4.075-18.363s-50.372-24.258-183.545-31.523c-122.716-6.665-173.495 8.812-180.697 11.276 6.714-2.4 51.837-17.12 152.907-21.89 0 0-107.377-.379-173.373 22.206l15.095-6.791s-96.838 1.483-187.298 9.077c-7.992.671-15.935 1.39-23.757 2.159-22.924-3.607-36.261-3.93-49.598-2.159 11.253-.477 28.342 1.788 31.259 4.087-31.343 3.522-59.656 7.956-79.918 13.527 0 0 .041 0 .041.031.04 0 .081 2.054.081 2.054z" fill="#101615"/><path d="M500.931 190.276s-4.18-11.312-14.258-14.015c8.742.248 23.334 12.617 23.334 12.617-1.717-7.303-4.546-12.493-7.328-17.341 5.309 4.102 8.17 10.442 10.745 17.061 0 0 8.17-13.238 18.295-17.776-12.795 13.767-13.049 17.59-13.049 17.59S525.504 176.23 551 167c-25.702 16.346-24.78 18.832-24.78 18.832 7.439-6.37 14.718-10.255 21.665-8.981-7.535 2.486-14.067 6.34-18.741 12.742l-1.033 4.133L495.097 195c-7.883-9.882-21.013-13.114-36.097-13.86 14.003-2.486 30.661.994 41.931 9.136zM1488 193.101s6.23-31.497 10.01-67.213c.1-.883-15.7-1.766-15.6-2.649.1-.981 17.66-.981 17.76-2.011 1.76-14.767 3.68-17.662 7.26-31.84.44-1.816-6.67-8.586-6.18-10.401 1.71 1.962 7.75 4.023 6.47 2.551 5.11-16.73 3.49-23.843 5.11-38.708-12.32 14.62-22.62 14.816-27.43 36.206-.24 1.177-1.23 1.962-1.86 2.944-.74 1.177 5.34 6.476 4.66 7.702-.89 1.52-8.49-1.03-9.32.49-5.4 10.254-9.67 21.538-11.58 33.46-.15.834 3.14 2.894 2.99 3.728-.15 1.276-3.68 1.276-3.88 2.453-6.03 46.068-6.03 52.053-6.03 52.053s1.28-33.312-.59-67.703c-.1-2.011-.24-4.023-.34-6.034-.1-1.178-.15-2.306-.25-3.484-.24-3.336-.54-6.672-.83-9.959-.15-1.668-8.78-.049-8.98-1.717-.15-1.177 9.52-3.974 9.37-5.102-1.23-9.861-2.99-19.183-5.35-27.032-.14-.491-10.05 8.732-10.2 8.29-.3-.931 9.17-11.528 8.83-12.411-1.91-5.299-4.17-9.763-6.87-13.1-.69-.883-7.36 12.854-8.04 11.971-.35-.441 5.34-15.7 5-16.14-.69-.884-2.7-1.03-3.34-1.914C1420.4 12.854 1419.07 0 1419.07 0s-2.11 41.014 2.11 72.02c.15.933 11.43 2.06 11.58 2.944.2 1.128-11.58 1.128-11.38 2.208 1.13 6.378 2.6 12.167 4.56 16.876 3.63 8.831 3.24 21.243 6.18 33.557.2.785 13.39.54 14.08.442-3.19.736-12.21 4.366-13.49 4.366 1.18 5.201 3.43 18.202 4.42 23.108.24 1.128 14.32-4.808 14.57-3.729-4.27.54-8.1 8.34-12.27 7.408 2.31 12.462 7.16 22.96 7.16 22.96s-6.47-18.25-15.55-32.723c-.64-1.03-4.07 4.906-4.76 3.876-.63-.932 2.41-7.702 1.82-8.635-5.3-8.045-14.52-13.736-19.04-18.054-1.08-1.03-1.91 7.556-2.89 6.918-.93-.589 1.57-9.812.44-10.843-6.28-5.74-16.24-19.133-24.78-31.398-.83-1.226-4.75.196-6.23 2.208-.83-1.227 5.11-3.876 4.27-5.103-9.91-14.669-20.21-30.858-20.21-30.858s-6.08 33.017 9.47 67.408c.64 1.423 9.47-4.66 10.15-3.287.64 1.276-7.26 8.389-6.96 9.763 3.53 14.522 6.72 18.594 10.01 25.364 3.28 6.771 13.83 14.718 13.83 14.718l7.31-10.4-5.35 11.48 2.31 1.962 10.06 8.389s-28.51-17.073-36.6-14.276c-8.1 2.796-15.06 9.616-15.06 9.616s-.45-9.273-1.43-22.077c-.05-.884-9.07 1.324-9.12.392-.1-.932 8.73-5.053 8.68-5.985-1.08-12.56-2.6-27.376-4.71-40.181-3.87 4.808-4.51 6.182-7.5 6.673 1.96-2.453 5.64-8.733 5.15-11.137-4.08-19.82-9.82-36.599-17.86-46.607 0 0-3.44 39.493-2.99 72.167 0 1.276 10.59 7.065 10.64 8.291.05 1.816-10.55-4.758-10.45-3.041.44 11.087 1.57 24.53 3.53 30.613 0 0-11.82-25.903-24.67-47.196-.89-1.422 0 2.993-2.7 6.378-.69-1.03 1.18-9.37.49-10.401-7.26-10.989-15.31-20.85-23.3-26.001 0 0 2.2 10.597 5.79 24.432.29 1.177 5.93 5.053 6.27 6.279 0 0-5.49-3.532-4.95-1.472 4.71 17.122 12.17 41.309 18.45 51.514 3.23 5.298 7.75 13.982 7.94 14.963-3.87-6.133-10.89-16.386-10.89-16.386s-6.33-7.016-15.11-17.269c-.54-.638-7.06 8.536-7.65 7.849-.64-.687 4.71-11.234 4.02-11.921-11.77-12.903-28.35-27.082-46.41-30.369 0 0 4.42 13.05 13.44 27.278.49.834 13.5 5.593 14.03 6.427 1.13 1.668-12.51-3.68-11.23-2.012 4.71 6.378 12.71 15.552 19.28 20.507 0 0-12.61-6.083-27.62-9.223-.64-.147-1.28-.245-1.91-.392a6.542 6.542 0 0 1-.98-.197c-10.65-1.913-22.18-2.06-31.06 2.552 0 0 20.36 6.426 38.37 14.718 1.42.637 7.21-6.771 8.58-6.084 1.28.589-6.08 8.684-4.91 9.322 7.51 3.924 18.06 8.683 21.3 12.166H1488z" fill="#101615"/><path d="M1349.16 193.394s-2.45-78.643-14.96-126.182c0 1.03 9.12 38.168 12.8 126.182z" fill="url(#b)"/><path d="M1456.16 193.101S1454 116.91 1431.93 49.06c-3.34-10.205-8.93-24.481-12.17-44.056 0 .54 4.17 20.85 12.9 42.83l.15.441c10.01 28.602 22.91 77.27 25.41 144.875h-2.06z" fill="url(#c)"/><path d="M1432.81 193.1s-3.34-34.096-37.34-64.465c-26.93-23.401-31.05-52.886-34.58-65.986 0 .246 9.46 46.215 37.18 65.3 7.22 5.004 34.05 34.881 37.88 65.102h-3.14z" fill="url(#d)"/><path d="M1339.1 193.395s-27.86-42.633-50.82-93.705c0 .589 22.32 54.947 48.67 93.705z" fill="url(#e)"/><path d="M1306.09 193.394s-29.83-47.932-61.38-70.548c0 .588 35.33 30.221 59.22 70.548z" fill="url(#f)"/><path d="M1294.95 193.395s-22.91-41.015-74.62-32.724c0 .589 48.57-7.604 72.46 32.724z" fill="url(#g)"/><path d="M0 194h1440v120H0z" fill="#101615"/></g></svg>