<svg fill="none" height="70" viewBox="0 0 70 70" width="70" xmlns="http://www.w3.org/2000/svg"><g fill="#605e5e"><path d="M35 70C15.7 70 0 54.399 0 35.222v-.446C0 15.601 15.701 0 35 0s35 15.601 35 34.776v.446c0 19.177-15.701 34.776-35 34.776z"/><path d="M35 70C15.7 70 0 54.399 0 35.222v-.446C0 15.601 15.701 0 35 0s35 15.601 35 34.776v.446c0 19.177-15.701 34.776-35 34.776z"/><path d="M34.999 2.092c-18.138 0-32.894 14.661-32.894 32.684v.446c0 18.023 14.756 32.685 32.894 32.685s32.896-14.664 32.896-32.685v-.446c0-18.023-14.758-32.684-32.896-32.684z"/></g><path d="M65.354 34.778c0 16.657-13.59 30.16-30.355 30.16S4.646 51.435 4.646 34.778 18.236 4.616 34.999 4.616c16.764 0 30.355 13.504 30.355 30.162z" fill="#000"/><path d="M17.466 12.789s-5.894 6.34-5.541 9.216c.043.369.908 4.25.908 4.25l-3.347 1.99c-.917 1.289-1.12 4.015-1.16 6.531-.07 4.332.073 7.407 1.14 9.286.33.58 3.615 1.883 5.001 2.488l-.918 4.838c7.553 7.76 18.776 8.884 22.872 8.884 4.37 0 12.574-3.543 15.53-5.4 0 0-.848-3.325-2.048-4.559 0 0 8.25-.732 8.643-1.345 3.71-5.773 2.722-15.418 2.722-15.418-.938-1.05-3.964-4.278-3.964-4.278l3.386-2.806c-2.742-9.09-4.018-12.74-17.007-17.735-12.988-4.996-26.219 4.058-26.219 4.058z" fill="#181818"/><path d="M58.349 54.323c.468-.6 1.56-2.3 1.982-2.933h-6.052zM7.047 46.551c.352.826 1.285 2.552 1.707 3.34l3.17-2.493z" fill="#605e5e"/><path d="M35 7.67c16.248 0 29.514 12.686 30.315 28.633.026-.505.04-1.015.04-1.527 0-16.657-13.59-30.161-30.356-30.161-16.765 0-30.353 13.505-30.353 30.163 0 .512.013 1.022.039 1.527C5.485 20.356 18.75 7.67 34.999 7.67z" fill="#494949"/><path d="M22.3 8.715c.379.666-.269 1.744-1.451 2.407-1.18.663-2.444.66-2.823-.007-.38-.664.27-1.742 1.45-2.405 1.182-.663 2.445-.66 2.822.005zM27.919 6.653c.196.53-.274 1.188-1.048 1.47-.777.283-1.564.083-1.758-.446-.195-.528.275-1.188 1.05-1.47.776-.284 1.563-.083 1.758.446zM49.97 35.99a.1.1 0 0 0-.115.08l-.084.488c-.015.08-.026.162-.044.243l-.053.24-.054.242c-.017.08-.034.161-.058.24l-.133.476c-.02.08-.047.158-.073.237l-.077.235-.078.235c-.026.078-.058.154-.088.231l-.18.46-.202.451a13.555 13.555 0 0 1-2.163 3.292 13.744 13.744 0 0 1-6.617 4.142c-.157.05-.319.083-.48.122-.16.037-.32.08-.482.108l-.486.092-.49.067a13.29 13.29 0 0 1-1.976.105l-.248-.003-.247-.015c-.166-.011-.33-.02-.494-.032-.327-.04-.658-.066-.98-.127a10.78 10.78 0 0 1-5.284-2.471 10.92 10.92 0 0 1-2.458-3.032A10.684 10.684 0 0 1 25 36.446c.029-.653.108-1.303.27-1.934a8.56 8.56 0 0 1 1.772-3.446 8.682 8.682 0 0 1 3.114-2.333 8.752 8.752 0 0 1 3.831-.745c.164.011.329.016.49.032l.245.027c.081.008.164.018.245.032l.243.04.24.049.12.026.117.032c.08.02.16.042.237.064.312.095.62.21.916.345.295.14.585.292.859.47a6.958 6.958 0 0 1 2.552 2.905c.073.147.13.3.194.45.053.155.113.307.157.464.05.156.088.316.128.473.018.08.032.161.049.24l.024.12.018.121c.102.647.102 1.307.02 1.957a.1.1 0 0 0 .072.108.1.1 0 0 0 .123-.068l.003-.01a6.814 6.814 0 0 0 .243-2.05l-.003-.133-.011-.132c-.008-.087-.015-.175-.025-.264-.024-.175-.045-.35-.08-.526-.03-.177-.075-.347-.119-.523-.052-.17-.099-.346-.162-.513-.056-.17-.128-.338-.197-.505-.036-.084-.076-.164-.115-.248l-.06-.122-.065-.121a7.357 7.357 0 0 0-.585-.932 7.712 7.712 0 0 0-1.574-1.586l-.23-.168c-.077-.053-.158-.104-.237-.156l-.12-.077-.123-.072c-.083-.047-.166-.097-.25-.142a8.667 8.667 0 0 0-1.05-.473 8.083 8.083 0 0 0-1.113-.317c-.096-.022-.188-.037-.282-.053l-.28-.047c-.188-.029-.376-.046-.565-.069a9.748 9.748 0 0 0-2.29.063c-.761.111-1.52.3-2.236.592-.721.288-1.413.657-2.057 1.097-.16.113-.317.227-.471.348l-.227.187-.113.093-.11.098c-.146.13-.292.26-.43.402-.07.07-.139.139-.207.21l-.199.217c-1.064 1.158-1.828 2.595-2.253 4.119-.053.19-.095.384-.142.576-.039.193-.075.39-.105.582l-.073.57c-.02.19-.031.383-.046.574a12.206 12.206 0 0 0 .586 4.558c.239.735.546 1.447.917 2.125a12.835 12.835 0 0 0 2.926 3.562c.595.496 1.233.937 1.906 1.316.674.38 1.38.704 2.114.943.732.243 1.485.42 2.242.53.19.025.381.056.566.069.186.018.372.032.557.047.186.01.372.012.56.019.094.001.186.006.28.006l.28-.005c.745-.004 1.49-.077 2.222-.194l.547-.1.543-.125c.181-.039.358-.094.536-.144.178-.051.356-.098.53-.159l.522-.177c.172-.066.344-.135.514-.204.171-.066.337-.145.503-.222s.336-.15.496-.239l.487-.254.473-.275c.159-.088.311-.191.462-.291.15-.101.304-.198.45-.307l.439-.322.422-.341c.143-.111.274-.235.41-.354.134-.12.27-.238.395-.369l.38-.381.363-.398c.124-.13.234-.272.347-.408.113-.139.228-.274.332-.42 1.72-2.272 2.678-5.043 2.675-7.746v-.011a.098.098 0 0 0-.082-.097zM27.348 22.32l.466-.173c.078-.027.156-.06.233-.084l.238-.074.238-.074c.08-.024.157-.051.238-.069l.481-.124c.08-.022.16-.039.243-.055l.243-.05.243-.05c.081-.017.164-.025.245-.04l.49-.074.494-.051c1.32-.12 2.654-.047 3.951.217 1.297.258 2.556.7 3.725 1.313 1.17.612 2.25 1.392 3.193 2.31.122.112.232.234.347.351.113.12.23.235.335.363l.322.373.305.388c.396.524.766 1.07 1.078 1.647l.122.214c.038.073.073.147.11.22.073.147.147.294.218.442.13.3.27.598.38.907a10.644 10.644 0 0 1 .487 5.783 10.855 10.855 0 0 1-1.414 3.632 10.717 10.717 0 0 1-2.606 2.907c-.518.4-1.073.755-1.655 1.057a9.544 9.544 0 0 1-1.82.734 8.662 8.662 0 0 1-3.89.198 8.832 8.832 0 0 1-1.881-.554 8.668 8.668 0 0 1-4.275-3.883c-.073-.146-.15-.29-.219-.438l-.099-.224a3.001 3.001 0 0 1-.093-.225l-.088-.229-.076-.232-.037-.115-.033-.118c-.02-.079-.043-.156-.063-.235a7.423 7.423 0 0 1-.159-.96 6.919 6.919 0 0 1 1.237-4.623c.091-.137.197-.262.295-.391.107-.124.211-.251.326-.367.11-.122.231-.232.348-.346.06-.055.123-.108.185-.163l.092-.08.097-.076a7.082 7.082 0 0 1 1.696-.996.102.102 0 0 0 .058-.115.097.097 0 0 0-.12-.071l-.011.003a6.93 6.93 0 0 0-1.91.816l-.113.069-.108.076c-.073.05-.146.1-.219.152-.14.108-.283.214-.418.333-.139.113-.265.239-.397.364-.123.13-.25.258-.365.396-.12.135-.23.278-.342.423-.055.073-.105.148-.157.222l-.078.113-.073.116a7.536 7.536 0 0 0-1.116 3.118l-.03.282c-.008.093-.012.188-.017.283l-.006.141v.142c0 .095-.003.19 0 .285a7.685 7.685 0 0 0 .393 2.258c.028.093.062.18.094.268l.1.264c.069.175.147.347.221.521a9.552 9.552 0 0 0 1.2 1.94 9.634 9.634 0 0 0 1.634 1.63c.61.475 1.278.886 1.984 1.22.178.082.356.16.539.232l.275.103.138.052.14.045c.185.06.373.12.564.169.096.025.19.051.285.074l.288.062c1.542.337 3.176.277 4.718-.12.192-.049.382-.11.573-.166.188-.063.377-.13.56-.2l.533-.223c.176-.08.348-.164.523-.248.69-.346 1.352-.753 1.97-1.218a12.644 12.644 0 0 0 3.104-3.416 12.757 12.757 0 0 0 1.643-4.3c.135-.757.2-1.528.194-2.297a11.556 11.556 0 0 0-.234-2.29 12.66 12.66 0 0 0-.661-2.195c-.071-.177-.14-.355-.222-.52a28.928 28.928 0 0 0-.238-.505c-.086-.165-.175-.328-.264-.49-.045-.082-.087-.165-.134-.245l-.144-.238a14.405 14.405 0 0 0-1.28-1.815l-.36-.422-.381-.404c-.125-.136-.261-.26-.394-.389-.134-.127-.264-.257-.405-.376l-.416-.362c-.144-.116-.29-.227-.434-.34-.142-.114-.296-.217-.445-.323-.15-.105-.298-.213-.455-.308l-.465-.29-.476-.271c-.157-.092-.322-.172-.486-.253-.163-.079-.325-.164-.494-.233l-.5-.217-.509-.194c-.168-.067-.341-.119-.513-.175a7.395 7.395 0 0 0-.518-.156l-.523-.137-.528-.112c-.175-.04-.353-.065-.53-.095-.176-.03-.353-.061-.53-.076-2.841-.344-5.735.217-8.09 1.572l-.01.005a.1.1 0 0 0-.043.119c.02.051.076.077.128.058zm-1.114 25.926c-.064-.053-.13-.103-.19-.16l-.183-.167-.183-.167c-.061-.057-.123-.111-.18-.17l-.348-.353c-.06-.058-.115-.12-.17-.18l-.165-.185-.165-.185c-.055-.062-.105-.128-.157-.192l-.311-.385-.292-.399a13.47 13.47 0 0 1-1.786-3.507 13.65 13.65 0 0 1-.719-3.862c-.052-1.313.09-2.63.418-3.902.036-.16.088-.317.133-.475.048-.157.089-.315.147-.47l.164-.465.186-.455c.26-.603.549-1.194.897-1.752l.126-.21c.044-.07.091-.138.136-.207.093-.137.182-.273.276-.409.199-.262.387-.532.6-.78a10.78 10.78 0 0 1 4.796-3.311c1.242-.43 2.56-.633 3.873-.6a10.92 10.92 0 0 1 5.585 1.685c.555.35 1.082.746 1.55 1.198a8.557 8.557 0 0 1 2.118 3.248c.222.614.379 1.25.458 1.896a8.605 8.605 0 0 1-1.248 5.619c-.091.135-.178.273-.274.407l-.146.198a3.629 3.629 0 0 1-.149.193l-.155.188-.164.182-.082.09-.088.087c-.058.058-.115.116-.173.172a7.48 7.48 0 0 1-.758.616 7.005 7.005 0 0 1-4.648 1.245c-.163-.009-.325-.036-.489-.057-.161-.03-.323-.056-.482-.097-.16-.034-.317-.082-.476-.127-.078-.024-.156-.051-.233-.079l-.117-.04-.115-.045a7.039 7.039 0 0 1-1.715-.96.101.101 0 0 0-.13.007.099.099 0 0 0-.001.14l.008.009a6.933 6.933 0 0 0 1.665 1.234l.116.062.12.057c.081.037.16.075.241.11.164.067.33.138.5.194.168.063.341.11.514.16.175.04.35.088.53.117.178.037.358.06.539.083.09.012.181.018.272.024l.138.01.137.005c.366.016.737 0 1.105-.037a7.758 7.758 0 0 0 2.17-.56l.26-.114c.086-.04.17-.084.255-.127l.128-.065.124-.07c.083-.049.167-.094.248-.144.326-.2.638-.423.938-.666a7.82 7.82 0 0 0 .834-.801c.068-.071.126-.143.188-.216l.18-.217c.12-.146.23-.3.344-.452a9.588 9.588 0 0 0 1.09-2.002 9.454 9.454 0 0 0 .602-2.22c.11-.765.135-1.543.072-2.317a11.438 11.438 0 0 0-.067-.58l-.048-.288-.025-.144-.03-.144c-.042-.191-.081-.381-.136-.57-.026-.094-.05-.187-.078-.282l-.09-.28c-.479-1.495-1.348-2.871-2.466-3.999-.139-.141-.286-.273-.43-.41-.15-.13-.302-.26-.455-.383l-.462-.348c-.157-.112-.317-.217-.478-.326-.646-.422-1.332-.787-2.046-1.088s-1.461-.526-2.22-.689a12.527 12.527 0 0 0-2.31-.273 12.97 12.97 0 0 0-4.568.737c-.729.264-1.433.592-2.1.981-.667.39-1.304.835-1.879 1.347a12.854 12.854 0 0 0-1.583 1.665c-.119.15-.24.3-.344.453-.108.15-.215.304-.319.456-.1.157-.197.316-.296.472-.049.079-.099.158-.146.236l-.136.243c-.37.644-.677 1.32-.942 2.01l-.187.521-.161.53c-.057.175-.098.355-.145.532-.043.179-.092.356-.126.536l-.107.54c-.029.18-.053.361-.08.543-.028.18-.041.364-.057.546-.015.181-.038.363-.04.545l-.024.546.004.545c-.002.182.011.362.022.544.013.18.02.362.044.54l.062.54.085.534c.026.178.068.354.104.53.037.175.073.35.123.524l.143.518.165.51c.052.17.121.336.183.503.063.168.123.334.2.496 1.12 2.616 3.056 4.826 5.416 6.176l.01.004a.1.1 0 0 0 .126-.022.097.097 0 0 0-.013-.138l-.384-.316z" fill="#fff"/></svg>