<?xml version="1.0" standalone="no"?>
<!DOCTYPE svg PUBLIC "-//W3C//DTD SVG 20010904//EN"
 "http://www.w3.org/TR/2001/REC-SVG-20010904/DTD/svg10.dtd">
<svg version="1.0" xmlns="http://www.w3.org/2000/svg"
 width="500.000000pt" height="500.000000pt" viewBox="0 0 500.000000 500.000000"
 preserveAspectRatio="xMidYMid meet">
<metadata>
Created by potrace 1.14, written by Peter Selinger 2001-2017
</metadata>
<g transform="translate(0.000000,500.000000) scale(0.100000,-0.100000)"
fill="#000000" stroke="none">
<path d="M305 4986 c-107 -26 -208 -104 -256 -198 -51 -100 -49 9 -49 -2285 0
-1540 3 -2147 11 -2185 33 -156 158 -278 314 -307 83 -15 4267 -15 4350 0 158
29 281 152 315 314 7 34 9 748 8 2205 l-3 2155 -24 58 c-43 108 -141 201 -251
240 -51 17 -4342 21 -4415 3z m2495 -401 c382 -57 736 -218 1040 -473 369
-309 634 -787 725 -1307 25 -141 25 -509 0 -650 -35 -204 -119 -451 -216 -640
-241 -470 -676 -850 -1168 -1020 -244 -84 -434 -116 -692 -116 -548 0 -1055
211 -1457 609 -195 193 -296 335 -422 594 -155 320 -220 591 -220 923 0 215
29 409 90 600 160 498 438 875 850 1149 253 169 655 314 957 346 117 12 383 4
513 -15z"/>
<path d="M2205 4405 c-292 -49 -532 -144 -785 -311 -292 -193 -466 -390 -620
-699 -180 -363 -243 -641 -226 -990 9 -165 34 -287 102 -494 113 -344 253
-573 490 -801 420 -404 1012 -615 1530 -546 370 49 709 193 994 423 107 87
274 263 353 373 138 194 276 517 326 765 66 324 46 626 -65 965 -75 231 -206
474 -355 656 -124 153 -328 325 -507 428 -163 95 -409 184 -612 222 -116 22
-514 28 -625 9z m180 -85 c16 -18 17 -35 13 -181 -4 -127 -9 -164 -21 -176
-31 -31 -45 -9 -52 83 -8 90 -2 265 10 284 10 16 30 12 50 -10z m268 -21 c33
-25 50 -84 37 -128 -5 -18 -30 -57 -55 -87 -50 -58 -51 -58 25 -66 19 -2 26
-10 28 -30 l3 -28 -113 0 c-62 0 -119 4 -127 9 -20 13 -1 40 68 96 97 77 127
146 79 179 -33 23 -47 20 -86 -21 -33 -35 -35 -36 -48 -18 -21 28 -17 63 11
90 21 21 33 25 88 25 50 0 70 -5 90 -21z m-1025 -211 c49 -72 132 -233 132
-257 0 -13 -10 -26 -26 -33 -24 -11 -29 -10 -49 16 -39 48 -135 224 -142 257
-5 25 -2 35 12 46 30 21 42 16 73 -29z m1807 22 c18 -20 17 -22 -25 -106 -73
-140 -122 -209 -149 -209 -13 0 -29 8 -34 17 -12 18 24 98 108 241 49 82 67
93 100 57z m-715 -578 c168 -45 318 -135 484 -291 85 -81 109 -98 128 -94 13
3 104 28 203 55 182 50 256 81 442 183 56 31 107 54 112 51 5 -3 14 -20 20
-36 10 -30 8 -32 -35 -63 -86 -61 -237 -137 -273 -137 -60 0 -133 -47 -366
-236 l-38 -30 36 -135 c19 -74 38 -165 42 -204 9 -113 -11 -295 -45 -396 -94
-280 -261 -479 -505 -599 -185 -92 -243 -105 -460 -105 l-180 0 -102 36 c-263
93 -464 271 -588 524 -80 161 -106 260 -112 426 -7 169 7 268 57 417 l38 112
-41 28 c-23 16 -83 54 -133 85 -51 32 -97 64 -104 72 -28 34 30 12 160 -60 74
-41 138 -75 142 -75 3 0 26 28 51 63 51 71 191 209 257 254 105 71 260 136
401 168 90 21 309 13 409 -13z m-1742 -116 c102 -53 224 -129 236 -148 8 -13
6 -22 -8 -37 -11 -12 -26 -21 -34 -21 -35 0 -312 159 -312 179 0 9 39 61 46
61 2 0 35 -16 72 -34z m-30 -786 c40 -40 48 -88 24 -143 -24 -53 -167 -207
-193 -207 -24 0 -26 38 -4 80 15 29 15 30 -17 43 -49 21 -70 51 -75 104 -9 91
62 153 174 153 55 0 65 -3 91 -30z m3300 -14 c23 -22 27 -36 29 -89 1 -34 5
-81 9 -103 8 -57 -14 -96 -69 -123 -99 -48 -244 0 -207 69 13 23 35 25 70 5
54 -31 130 -8 130 40 0 24 -23 55 -41 55 -16 0 -10 29 11 50 26 26 25 39 -5
50 -16 6 -39 5 -69 -4 -39 -12 -47 -12 -58 1 -16 20 -1 43 43 66 49 26 122 18
157 -17z m-3028 -882 c0 -8 -25 -30 -55 -50 -93 -59 -268 -154 -276 -149 -4 3
-12 19 -18 36 -9 27 -8 33 14 52 13 12 86 55 162 94 l138 73 18 -21 c9 -12 17
-28 17 -35z m2709 -16 c157 -84 202 -115 194 -135 -13 -36 -34 -52 -57 -43
-35 13 -242 137 -272 163 -23 20 -25 26 -15 45 17 33 44 27 150 -30z m-2195
-514 c30 -12 16 -60 -60 -194 -41 -74 -79 -139 -83 -143 -11 -11 -61 31 -61
52 0 20 123 240 152 270 20 22 27 24 52 15z m1579 -26 c47 -63 147 -247 147
-270 0 -51 -46 -64 -79 -22 -27 35 -151 278 -151 297 0 9 6 18 13 20 28 12 47
5 70 -25z m-768 -102 c19 -13 17 -16 -25 -62 l-45 -49 54 -5 c70 -7 111 -48
111 -112 0 -38 -5 -47 -55 -93 -48 -45 -55 -57 -55 -89 0 -44 -15 -76 -36 -76
-18 0 -34 40 -34 85 0 27 -6 37 -27 49 -69 35 -93 94 -72 179 10 42 24 63 78
119 37 37 71 68 77 68 6 0 19 -6 29 -14z"/>
<path d="M2300 3359 c-41 -11 -121 -42 -177 -69 -88 -43 -115 -63 -191 -138
-97 -97 -151 -174 -134 -195 6 -7 51 -32 101 -56 l90 -45 66 60 c151 135 238
175 400 182 170 7 249 -16 408 -120 l77 -51 48 18 c73 28 142 64 142 76 0 38
-116 158 -223 231 -171 116 -411 159 -607 107z"/>
<path d="M2393 2960 c-76 -11 -170 -59 -233 -118 l-55 -51 127 -60 128 -61 95
0 c110 0 137 9 227 74 103 75 121 93 115 110 -9 23 -95 74 -152 90 -64 19
-186 27 -252 16z"/>
<path d="M1726 2838 c-44 -127 -50 -159 -50 -303 -1 -167 17 -260 75 -383 103
-223 266 -367 504 -448 72 -24 95 -27 220 -27 151 0 199 9 327 63 226 96 397
294 462 535 25 91 32 302 13 400 -19 99 -54 195 -71 195 -7 0 -48 -26 -90 -57
-84 -64 -80 -50 -56 -168 17 -86 8 -236 -18 -309 -64 -177 -213 -320 -392
-377 -46 -15 -93 -21 -160 -22 -181 -1 -290 43 -416 168 -87 87 -130 160 -158
271 -23 88 -20 221 5 321 12 46 19 90 15 98 -6 17 -154 115 -172 115 -7 0 -24
-33 -38 -72z"/>
<path d="M2039 2684 c-6 -16 -13 -72 -16 -125 -5 -80 -2 -108 15 -166 86 -280
380 -410 647 -284 169 79 280 271 260 449 -7 64 -23 112 -36 112 -13 0 -120
-54 -199 -101 -50 -29 -69 -47 -85 -79 -23 -49 -53 -76 -105 -91 -77 -23 -130
4 -208 109 -22 30 -218 187 -247 198 -10 4 -18 -4 -26 -22z"/>
<path d="M803 2580 c-55 -33 -67 -76 -32 -111 27 -27 72 -20 111 18 35 33 37
75 6 97 -29 21 -46 20 -85 -4z"/>
<path d="M2480 897 c-47 -31 -56 -50 -42 -81 17 -37 64 -36 103 3 40 40 38 66
-7 89 -18 9 -28 7 -54 -11z"/>
</g>
</svg>
